<svg width="62" height="83" viewBox="0 0 62 83" fill="none" xmlns="http://www.w3.org/2000/svg">
<path fill-rule="evenodd" clip-rule="evenodd" d="M1 1H13V13H1V1ZM0 0H1H13H14V1V13V14H13H1H0V13V1V0ZM1 24H13V36H1V24ZM0 23H1H13H14V24V36V37H13H1H0V36V24V23ZM13 47H1V59H13V47ZM1 46H0V47V59V60H1H13H14V59V47V46H13H1ZM1 70H13V82H1V70ZM0 69H1H13H14V70V82V83H13H1H0V82V70V69ZM37 1H25V13H37V1ZM25 0H24V1V13V14H25H37H38V13V1V0H37H25ZM25 24H37V36H25V24ZM24 23H25H37H38V24V36V37H37H25H24V36V24V23ZM37 47H25V59H37V47ZM25 46H24V47V59V60H25H37H38V59V47V46H37H25ZM25 70H37V82H25V70ZM24 69H25H37H38V70V82V83H37H25H24V82V70V69ZM61 1H49V13H61V1ZM49 0H48V1V13V14H49H61H62V13V1V0H61H49ZM49 24H61V36H49V24ZM48 23H49H61H62V24V36V37H61H49H48V36V24V23ZM61 47H49V59H61V47ZM49 46H48V47V59V60H49H61H62V59V47V46H61H49ZM49 70H61V82H49V70ZM48 69H49H61H62V70V82V83H61H49H48V82V70V69Z" fill="url(#paint0_linear_2201_215)"/>
<defs>
<linearGradient id="paint0_linear_2201_215" x1="37.5" y1="33.5" x2="4.5682e-07" y2="63" gradientUnits="userSpaceOnUse">
<stop stop-color="white"/>
<stop offset="1" stop-color="white" stop-opacity="0"/>
</linearGradient>
</defs>
</svg>
