<svg width="16" height="18" viewBox="0 0 16 18" fill="none" xmlns="http://www.w3.org/2000/svg">
<path fill-rule="evenodd" clip-rule="evenodd" d="M8.00192 1.14544H11.68C11.8567 1.14544 12.1391 1.16079 12.3116 1.12237C12.5791 1.06278 13.0762 0.917905 14 0.585209L15.5716 0.0191976C15.7801 -0.0559045 16 0.098681 16 0.320403V9.1487C16 13.5688 12.4183 17.152 8 17.152C3.58173 17.152 0 13.5688 0 9.1487C0 4.72862 3.58173 1.14544 8 1.14544C8.00064 1.14544 8.00128 1.14544 8.00192 1.14544ZM12.16 9.1487C12.16 11.4471 10.2975 13.3104 8 13.3104C5.7025 13.3104 3.84 11.4471 3.84 9.1487C3.84 6.85026 5.7025 4.987 8 4.987C10.2975 4.987 12.16 6.85026 12.16 9.1487Z" fill="white"/>
</svg>
