<svg width="1600" height="785" viewBox="0 0 1600 785" fill="none" xmlns="http://www.w3.org/2000/svg">
<mask id="mask0_1617_6552" style="mask-type:alpha" maskUnits="userSpaceOnUse" x="0" y="0" width="1600" height="785">
<rect width="1600" height="784.444" fill="#C20001"/>
</mask>
<g mask="url(#mask0_1617_6552)">
<rect width="1600" height="784.444" fill="#C20001"/>
<rect width="1600" height="784.444" fill="url(#paint0_radial_1617_6552)"/>
<circle opacity="0.5" cx="800" cy="691.111" r="214.667" stroke="url(#paint1_linear_1617_6552)" stroke-width="24"/>
<circle opacity="0.3" cx="800" cy="691.111" r="274.667" stroke="url(#paint2_linear_1617_6552)" stroke-width="24"/>
<circle opacity="0.1" cx="800" cy="691.111" r="335.778" stroke="url(#paint3_linear_1617_6552)" stroke-width="24"/>
<g opacity="0.6">
<path fill-rule="evenodd" clip-rule="evenodd" d="M1416.79 580.427C1417.19 580.183 1417.53 579.673 1417.81 579.107C1421.46 580.575 1424.02 584.046 1424.02 588.094C1424.02 593.471 1419.5 597.83 1413.92 597.83C1411.63 597.83 1409.52 597.095 1407.83 595.857C1407.27 595.598 1406.82 595.349 1406.44 595.145C1405.86 594.829 1405.48 594.621 1405.24 594.654C1404.55 594.748 1404.75 595.38 1404.93 595.954C1405.06 596.344 1405.17 596.707 1404.99 596.857C1404.81 597.014 1404.2 596.44 1403.48 595.77C1402.51 594.858 1401.35 593.767 1400.81 594.095C1400.37 594.354 1400.79 595.057 1401.31 595.917L1401.35 595.981C1401.56 596.345 1401.81 596.715 1402.04 597.053C1402.51 597.74 1402.89 598.293 1402.7 598.387C1402.47 598.5 1400.89 597.446 1399.55 595.981C1399.04 595.416 1398.54 594.804 1398.07 594.234V594.234C1397.06 592.988 1396.21 591.95 1395.74 592.073C1395.17 592.221 1395.6 593.383 1396.23 594.501C1396.53 595.024 1396.88 595.557 1397.18 596.018V596.018C1397.65 596.735 1398.01 597.279 1397.88 597.346C1397.7 597.436 1396.17 595.958 1395.12 594.095C1394.5 592.988 1393.98 591.766 1393.56 590.776C1393.1 589.702 1392.76 588.902 1392.54 588.822C1391.76 588.542 1391.76 590.109 1392.07 592.37C1392.11 592.665 1392.17 592.974 1392.25 593.289C1395.28 602.959 1404.59 610 1415.6 610C1429.08 610 1440 599.466 1440 586.471C1440 574.103 1430.11 563.964 1417.53 563.015C1417.55 562.432 1417.86 561.277 1417.86 561.277C1417.86 561.277 1420.08 555.982 1420.2 554.85C1420.2 554.775 1420.21 554.694 1420.22 554.607C1420.36 553.384 1420.62 551.111 1418.63 551.111C1417.58 551.111 1417.08 551.888 1416.52 552.777V552.777C1416.3 553.118 1416.08 553.475 1415.8 553.812C1413.84 556.234 1410.53 559.26 1408.65 560.872C1404.69 564.279 1400.8 567.079 1398.53 568.712L1398.53 568.712C1397.5 569.455 1396.8 569.956 1396.58 570.163C1394.96 571.725 1389.14 582.084 1389.14 582.084C1389.14 582.084 1387.25 585.407 1387.92 586.081C1388.59 586.755 1390.21 586.601 1390.21 586.601C1390.21 586.601 1411.89 581.695 1413.84 581.308C1414.36 581.203 1414.73 581.143 1415.01 581.097C1415.78 580.972 1415.92 580.949 1416.79 580.427ZM1401.45 574.122C1400.29 575.213 1398.36 577.818 1398.36 577.818C1398.36 577.818 1401.95 578.036 1403.92 576.183C1405.9 574.331 1405.45 571.174 1405.45 571.174C1405.45 571.174 1402.62 573.031 1401.45 574.122Z" fill="#CA2020"/>
<path fill-rule="evenodd" clip-rule="evenodd" d="M407.163 367.839C407.152 367.809 407.175 367.778 407.208 367.778H426.601C426.621 367.778 426.64 367.791 426.646 367.81L435.553 395.701C435.563 395.731 435.54 395.761 435.508 395.761H422.598C422.582 395.761 422.57 395.775 422.575 395.79L429.979 421.052C429.994 421.101 429.927 421.133 429.896 421.092L401.121 384.006C401.097 383.975 401.119 383.932 401.159 383.932H412.876C412.892 383.932 412.904 383.916 412.898 383.902L407.163 367.839Z" fill="#CA2020"/>
<path fill-rule="evenodd" clip-rule="evenodd" d="M1359.51 254.971C1360.28 252.21 1358.78 246.534 1358.78 246.534C1358.78 246.534 1357.7 251.158 1356.01 252.867C1354.56 254.325 1352.79 255.336 1350.26 255.602C1352.33 254.613 1353.76 252.551 1353.76 250.168C1353.76 246.823 1350.95 244.111 1347.48 244.111C1344.01 244.111 1341.2 246.823 1341.2 250.168C1341.2 251.082 1341.41 251.948 1341.78 252.725C1339.62 251.029 1339.27 248.311 1339.27 248.311C1339.27 248.311 1336.85 258.178 1343.53 262.82C1350.2 267.461 1363.27 263.472 1363.27 263.472C1363.27 263.472 1344.56 276.389 1330.7 262.33C1318.76 250.219 1327.58 234.276 1327.58 234.276C1327.58 234.276 1327.2 235.755 1327.2 237.472C1327.2 239.189 1328.15 240.495 1328.15 240.495C1328.15 240.495 1330.98 234.642 1333.18 232.261C1335.27 230.009 1337.88 228.181 1340.14 226.603C1341.88 225.389 1343.4 224.321 1344.31 223.321C1349.33 217.812 1346.26 207.778 1346.26 207.778C1346.26 207.778 1351.91 212.674 1353.49 218.997C1354.1 221.407 1353.71 224.15 1353.36 226.602C1352.8 230.584 1352.35 233.801 1356.41 233.592C1362.98 233.255 1357.27 223.321 1357.27 223.321C1357.27 223.321 1372.16 231.003 1371.05 244.438C1369.94 257.873 1354.77 260.927 1354.77 260.927C1354.77 260.927 1358.74 257.732 1359.51 254.971Z" fill="#CA2020"/>
<path fill-rule="evenodd" clip-rule="evenodd" d="M318.253 568.72C313.743 568.945 308.579 568.945 306.825 568.72C293.137 566.959 282.222 557.174 282.222 543.948C282.222 530.722 293.415 520 307.222 520C321.029 520 332.222 530.722 332.222 543.948C332.222 550.099 329.801 555.709 325.822 559.95C324.741 561.102 326.224 561.91 327.73 562.73C329.208 563.535 330.708 564.353 329.836 565.519C328.875 566.805 323.667 568.449 318.253 568.72ZM303.707 540.954C303.707 543.021 301.958 544.696 299.8 544.696C297.643 544.696 295.894 543.021 295.894 540.954C295.894 539.568 296.681 538.359 297.85 537.712C297.917 539.514 299.432 540.954 301.291 540.954H303.707V540.954ZM315.814 537.712C315.746 539.514 314.231 540.954 312.372 540.954H309.957V540.954C309.957 543.021 311.705 544.696 313.863 544.696C316.02 544.696 317.769 543.021 317.769 540.954C317.769 539.568 316.982 538.359 315.814 537.712Z" fill="#CA2020"/>
<path fill-rule="evenodd" clip-rule="evenodd" d="M1212.47 490.969C1212.28 490.79 1212.09 490.608 1211.9 490.422C1201.96 480.615 1201.96 464.715 1211.9 454.908C1221.84 445.101 1253.51 444.444 1253.51 444.444C1253.51 444.444 1257.83 480.615 1247.89 490.422C1239.07 499.132 1225.37 500.107 1215.45 493.346L1223.44 483.67L1236.21 480.949L1225.79 479.92L1232.41 473.262L1239.96 471.632L1233.99 469.889L1239.96 459.271L1231.47 468.662L1228.2 464.1L1229.35 471.632L1223.44 478.205L1220.7 469.889V480.949L1212.47 490.969Z" fill="#CA2020"/>
<path fill-rule="evenodd" clip-rule="evenodd" d="M1497.19 373.014L1482.13 365.556L1482.59 382.225L1496.81 389.267L1497.19 373.014ZM1513.91 382.428L1513.72 365.624L1499.07 373.598L1499.25 389.464L1513.91 382.428ZM1513.9 400.402L1528.41 392.103L1513.89 384.468L1499.38 392.09L1513.9 400.402ZM1496.8 392.103L1482.3 400.402L1467.78 392.09L1482.29 384.468L1496.8 392.103ZM1514.13 418.396L1499.07 410.938L1499.45 394.685L1513.67 401.727L1514.13 418.396ZM1482.46 401.744L1482.65 418.548L1497.3 410.574L1497.12 394.708L1482.46 401.744Z" fill="#CA2020"/>
<path fill-rule="evenodd" clip-rule="evenodd" d="M244.444 383.942C244.444 394.652 235.739 403.333 225 403.333C214.261 403.333 205.556 394.652 205.556 383.942C205.556 373.527 223.948 344.921 224.957 343.36C224.98 343.324 225.02 343.324 225.043 343.36C226.052 344.921 244.444 373.527 244.444 383.942ZM221.759 397.117C211.892 394.956 213.58 384.014 213.58 384.014C213.58 384.014 216.274 390.619 222.813 392.759C229.351 394.898 237.253 391.76 237.253 391.76C237.253 391.76 231.626 399.278 221.759 397.117Z" fill="#CA2020"/>
<path fill-rule="evenodd" clip-rule="evenodd" d="M433.06 114.444C440.873 114.444 447.562 110.06 450.323 103.846C450.357 103.77 439.237 106.764 439.591 105.705C439.75 105.233 446.567 102.719 451.533 99.7862C454.387 98.1006 455.702 94.5326 455.702 94.5326C455.702 94.5326 450.893 96.8899 448.462 97.4879C443.562 98.6932 439.25 98.5634 439.25 98.4378C439.25 98.1663 446.411 96.7926 456.364 90.6691C461.045 87.7889 462.317 82.8277 462.317 82.8277C462.317 82.8277 457.17 85.923 454.058 86.9449C446.68 89.3683 439.946 90.0986 439.946 89.7707C439.946 89.0686 445.872 87.4234 452.155 84.3499C455.421 82.7519 458.25 80.664 461.529 78.3422C466.893 74.5435 467.778 67.7778 467.778 67.7778C467.778 67.7778 462.487 71.2231 459.905 72.3673C449.251 77.0884 439.843 79.5649 433.06 80.1011C422.821 80.9105 414.444 88.1232 414.444 97.4879C414.444 106.853 422.779 114.444 433.06 114.444Z" fill="#CA2020"/>
</g>
</g>
<defs>
<radialGradient id="paint0_radial_1617_6552" cx="0" cy="0" r="1" gradientUnits="userSpaceOnUse" gradientTransform="translate(881.667 868.404) rotate(-90) scale(725.611 1480)">
<stop stop-color="#AB0001"/>
<stop offset="1" stop-color="#AB0001" stop-opacity="0"/>
</radialGradient>
<linearGradient id="paint1_linear_1617_6552" x1="905.555" y1="371.111" x2="573.333" y2="810" gradientUnits="userSpaceOnUse">
<stop stop-color="#E81414"/>
<stop offset="1" stop-color="#E81414" stop-opacity="0"/>
</linearGradient>
<linearGradient id="paint2_linear_1617_6552" x1="933.497" y1="286.405" x2="513.333" y2="841.471" gradientUnits="userSpaceOnUse">
<stop stop-color="#E81414"/>
<stop offset="1" stop-color="#E81414" stop-opacity="0"/>
</linearGradient>
<linearGradient id="paint3_linear_1617_6552" x1="961.955" y1="200.131" x2="452.222" y2="873.524" gradientUnits="userSpaceOnUse">
<stop stop-color="#E81414"/>
<stop offset="1" stop-color="#E81414" stop-opacity="0"/>
</linearGradient>
</defs>
</svg>
