<svg width="25" height="24" viewBox="0 0 25 24" fill="none" xmlns="http://www.w3.org/2000/svg">
<path d="M20.6464 19.5L5.64636 4.5M10.4464 10.4416C10.0729 10.8533 9.84636 11.394 9.84636 11.9863C9.84636 13.2761 10.9209 14.3217 12.2464 14.3217C12.8575 14.3217 13.4153 14.0994 13.839 13.7334M20.6852 14.3217C21.5114 13.0848 21.8464 12.0761 21.8464 12.0761C21.8464 12.0761 19.6617 5.1 12.2464 5.1C11.8301 5.1 11.4302 5.12199 11.0464 5.16349M17.6464 17.3494C16.2689 18.2281 14.4957 18.8495 12.2464 18.8127C4.92328 18.693 2.64636 12.0761 2.64636 12.0761C2.64636 12.0761 3.70422 8.69808 6.84636 6.64332" stroke="white" stroke-width="2" stroke-linecap="round"/>
</svg>
