<svg width="64" height="69" viewBox="0 0 64 69" fill="none" xmlns="http://www.w3.org/2000/svg">
<path fill-rule="evenodd" clip-rule="evenodd" d="M32.0077 4.58175H46.72C47.4269 4.58175 48.5565 4.64318 49.2466 4.48948C50.3165 4.25113 52.3049 3.67162 56 2.34084L62.2865 0.0767903C63.1205 -0.223618 64 0.394724 64 1.28161V36.5948C64 54.2751 49.6731 68.6079 32 68.6079C14.3269 68.6079 0 54.2751 0 36.5948C0 18.9145 14.3269 4.58175 32 4.58175C32.0026 4.58175 32.0051 4.58175 32.0077 4.58175ZM48.64 36.5948C48.64 45.7886 41.19 53.2416 32 53.2416C22.81 53.2416 15.36 45.7886 15.36 36.5948C15.36 27.401 22.81 19.948 32 19.948C41.19 19.948 48.64 27.401 48.64 36.5948Z" fill="white"/>
</svg>
