<svg width="25" height="24" viewBox="0 0 25 24" fill="none" xmlns="http://www.w3.org/2000/svg">
<path d="M16.3476 9.31299C16.7381 8.92246 16.7381 8.2893 16.3476 7.89878C15.9571 7.50825 15.3239 7.50825 14.9334 7.89878L16.3476 9.31299ZM8.14514 14.687C7.75462 15.0775 7.75462 15.7107 8.14514 16.1012C8.53567 16.4917 9.16883 16.4917 9.55936 16.1012L8.14514 14.687ZM14.9334 16.1012C15.3239 16.4917 15.9571 16.4917 16.3476 16.1012C16.7381 15.7107 16.7381 15.0775 16.3476 14.687L14.9334 16.1012ZM9.55936 7.89877C9.16883 7.50825 8.53567 7.50825 8.14514 7.89877C7.75462 8.2893 7.75462 8.92246 8.14514 9.31299L9.55936 7.89877ZM20.8464 12C20.8464 16.7496 16.996 20.6 12.2464 20.6V22.6C18.1006 22.6 22.8464 17.8542 22.8464 12H20.8464ZM12.2464 20.6C7.49671 20.6 3.64636 16.7496 3.64636 12H1.64636C1.64636 17.8542 6.39214 22.6 12.2464 22.6V20.6ZM3.64636 12C3.64636 7.25034 7.49671 3.39999 12.2464 3.39999V1.39999C6.39214 1.39999 1.64636 6.14578 1.64636 12H3.64636ZM12.2464 3.39999C16.996 3.39999 20.8464 7.25034 20.8464 12H22.8464C22.8464 6.14578 18.1006 1.39999 12.2464 1.39999V3.39999ZM14.9334 7.89878L11.5393 11.2929L12.9535 12.7071L16.3476 9.31299L14.9334 7.89878ZM11.5393 11.2929L8.14514 14.687L9.55936 16.1012L12.9535 12.7071L11.5393 11.2929ZM16.3476 14.687L12.9535 11.2929L11.5393 12.7071L14.9334 16.1012L16.3476 14.687ZM12.9535 11.2929L9.55936 7.89877L8.14514 9.31299L11.5393 12.7071L12.9535 11.2929Z" fill="#1E1E1E"/>
</svg>
