<svg width="25" height="24" viewBox="0 0 25 24" fill="none" xmlns="http://www.w3.org/2000/svg">
<path d="M11.2951 3.35156H5.29507C3.30684 3.35156 1.69507 4.96333 1.69507 6.95156V18.9517C1.69507 20.9399 3.30684 22.5517 5.29507 22.5517H17.2951C19.2833 22.5517 20.8951 20.9399 20.8951 18.9517L20.8951 12.9516M7.69507 16.5516L12.0611 15.6718C12.2928 15.6251 12.5056 15.511 12.6728 15.3438L22.4465 5.56474C22.9151 5.09588 22.9147 4.33589 22.4457 3.86743L20.3753 1.79936C19.9065 1.33109 19.1469 1.33141 18.6785 1.80007L8.90383 11.5801C8.73702 11.747 8.62311 11.9594 8.57637 12.1907L7.69507 16.5516Z" stroke="white" stroke-width="2" stroke-linecap="round" stroke-linejoin="round"/>
</svg>
