<svg width="25" height="24" viewBox="0 0 25 24" fill="none" xmlns="http://www.w3.org/2000/svg">
<path d="M9.00236 4.25546L10.2734 2.42882C10.4604 2.16017 10.767 2 11.0943 2H12.8993C13.2254 2 13.531 2.15898 13.7182 2.426L14.976 4.22032M9.00236 4.25546C8.65551 4.75031 8.07896 4.99279 7.46702 4.94956M9.00236 4.25546C8.65382 4.74912 8.07896 4.9948 7.46702 4.94956M7.46702 4.94956L5.21792 4.80836C4.89707 4.78821 4.5861 4.92355 4.38219 5.17208L3.24168 6.56208C3.02548 6.82557 2.95838 7.18104 3.06364 7.50522L3.71949 9.52504M3.71949 9.52504C3.80841 9.81338 3.81979 10.1223 3.75615 10.414M3.71949 9.52504C3.80968 9.81286 3.82063 10.1211 3.75573 10.417M3.75615 10.414C3.69167 10.7023 3.55343 10.9745 3.34819 11.1949M3.75615 10.414L3.75573 10.417M3.34819 11.1949L1.86208 12.7933C1.63368 13.0389 1.54365 13.3827 1.62234 13.7088L2.0249 15.377C2.10332 15.702 2.33897 15.9663 2.65287 16.0813L4.69472 16.8297C4.97962 16.9399 5.22575 17.1191 5.41203 17.3449M3.34819 11.1949C3.5547 10.9763 3.69167 10.705 3.75573 10.417M5.41203 17.3449C5.59704 17.5713 5.72306 17.8445 5.77195 18.1404M5.41203 17.3449C5.59873 17.5713 5.72517 17.8438 5.77195 18.1404M5.41203 17.3449L5.40908 17.3416C5.39686 17.3268 5.38379 17.3114 5.37115 17.297M5.77195 18.1404L6.11961 20.2759C6.17288 20.6031 6.38483 20.8827 6.6855 21.0223L8.31344 21.7781C8.6045 21.9132 8.94274 21.9005 9.2228 21.7438L11.1366 20.6731M11.1366 20.6731C11.4017 20.5242 11.6975 20.4495 11.9934 20.4491M11.1366 20.6731C11.2415 20.6134 11.3515 20.5657 11.4645 20.5299C11.636 20.4756 11.8147 20.4488 11.9934 20.4491M11.9934 20.4491C12.1472 20.4495 12.301 20.4698 12.4511 20.51C12.5906 20.5474 12.7263 20.6018 12.8548 20.6731M11.9934 20.4491C12.2905 20.4487 12.5881 20.5234 12.8548 20.6731M12.8548 20.6731L14.8583 21.7576C15.1396 21.9099 15.4767 21.9185 15.7653 21.7806L17.3855 21.0068C17.6851 20.8637 17.8941 20.5812 17.9434 20.2529L18.2549 18.178M18.2549 18.178C18.3016 17.8805 18.426 17.6052 18.6106 17.3768M18.2549 18.178C18.3 17.8798 18.4251 17.6049 18.6106 17.3768M18.6106 17.3768C18.7939 17.1508 19.0371 16.9707 19.3203 16.8593M18.6106 17.3768C18.7935 17.1499 19.0358 16.9693 19.3203 16.8593M19.3203 16.8593L21.3833 16.0508C21.6913 15.9301 21.9196 15.6649 21.9933 15.3425L22.379 13.6539C22.4524 13.3323 22.3625 12.9952 22.1387 12.7528L20.6436 11.134M20.6436 11.134C20.4346 10.9128 20.2888 10.6485 20.218 10.3677M20.6436 11.134C20.5454 11.0307 20.4612 10.9177 20.3925 10.798C20.3141 10.662 20.2555 10.5173 20.218 10.3677M20.218 10.3677C20.1484 10.0889 20.1527 9.79349 20.2407 9.50752L20.8874 7.43487C20.9878 7.11307 20.9193 6.76235 20.7052 6.50196L19.5928 5.14894C19.3865 4.89805 19.0712 4.76298 18.7473 4.7867L16.524 4.94956M16.524 4.94956C16.2197 4.97104 15.9205 4.91308 15.6541 4.78839M16.524 4.94956C16.2193 4.97228 15.9205 4.91385 15.6541 4.78839M15.6541 4.78839C15.3861 4.6621 15.1509 4.4679 14.976 4.22032M15.6541 4.78839C15.3856 4.66256 15.15 4.46888 14.976 4.22032M3.75573 10.417L3.75657 10.4126M15.3823 12.0106C15.3823 13.8756 13.8364 15.3874 11.9297 15.3874C10.0231 15.3874 8.47723 13.8756 8.47723 12.0106C8.47723 10.1457 10.0231 8.63386 11.9297 8.63386C13.8364 8.63386 15.3823 10.1457 15.3823 12.0106Z" stroke="#1E1E1E" stroke-width="2"/>
</svg>
