<svg width="25" height="24" viewBox="0 0 25 24" fill="none" xmlns="http://www.w3.org/2000/svg">
<path d="M13.2464 8.0001C13.2464 7.44781 12.7986 7.0001 12.2464 7.0001C11.6941 7.0001 11.2464 7.44781 11.2464 8.0001H13.2464ZM11.2464 16.0001C11.2464 16.5524 11.6941 17.0001 12.2464 17.0001C12.7986 17.0001 13.2464 16.5524 13.2464 16.0001H11.2464ZM16.2464 13C16.7987 13 17.2464 12.5523 17.2464 12C17.2464 11.4477 16.7987 11 16.2464 11V13ZM8.24637 11C7.69408 11 7.24637 11.4477 7.24637 12C7.24637 12.5523 7.69408 13 8.24637 13V11ZM20.8464 12C20.8464 16.7496 16.996 20.6 12.2464 20.6V22.6C18.1006 22.6 22.8464 17.8542 22.8464 12H20.8464ZM12.2464 20.6C7.49671 20.6 3.64636 16.7496 3.64636 12H1.64636C1.64636 17.8542 6.39214 22.6 12.2464 22.6V20.6ZM3.64636 12C3.64636 7.25035 7.49671 3.4 12.2464 3.4V1.4C6.39214 1.4 1.64636 6.14578 1.64636 12H3.64636ZM12.2464 3.4C16.996 3.4 20.8464 7.25035 20.8464 12H22.8464C22.8464 6.14578 18.1006 1.4 12.2464 1.4V3.4ZM11.2464 8.0001V12H13.2464V8.0001H11.2464ZM11.2464 12V16.0001H13.2464V12H11.2464ZM16.2464 11H12.2464V13H16.2464V11ZM12.2464 11H8.24637V13H12.2464V11Z" fill="#1E1E1E"/>
</svg>
