<svg width="142" height="229" viewBox="0 0 142 229" fill="none" xmlns="http://www.w3.org/2000/svg">
<g filter="url(#filter0_i_1755_4239)">
<g clip-path="url(#clip0_1755_4239)">
<rect x="141.529" width="228.703" height="141.529" rx="7.17901" transform="rotate(90 141.529 0)" fill="#2BA8AB"/>
<g opacity="0.6">
<path fill-rule="evenodd" clip-rule="evenodd" d="M31.2584 182.986C35.5173 182.986 39.2949 184.975 41.7392 188.033C43.5168 185.786 44.5908 182.949 44.5908 179.854C44.5908 172.522 38.6283 166.59 31.2584 166.59C23.8885 166.59 17.9259 172.522 17.9259 179.854C17.9259 182.949 18.9999 185.786 20.7776 188.033C23.2219 184.975 26.9994 182.986 31.2584 182.986ZM41.341 188.427C38.9906 185.538 35.3584 183.658 31.2634 183.658C27.1681 183.658 23.5357 185.538 21.1853 188.427L21.1851 188.462C23.5355 191.351 27.1678 193.23 31.263 193.23C35.3583 193.23 38.9906 191.351 41.341 188.427ZM17.9251 197.009C17.9251 204.341 23.8877 210.273 31.2576 210.273C38.6274 210.273 44.59 204.341 44.59 197.009C44.59 193.914 43.516 191.077 41.7383 188.793C39.2941 191.888 35.5165 193.877 31.2576 193.877C26.9986 193.877 23.221 191.888 20.7768 188.829C18.9991 191.077 17.9251 193.914 17.9251 197.009ZM23.4433 209.02L22.9988 209.02L22.9988 208.947L23.4433 208.947L23.4433 208.762L23.5173 208.762L23.5173 209.205L23.4433 209.205L23.4433 209.02ZM23.5173 209.868L22.9988 209.868L22.9988 209.794L23.4062 209.794L23.0729 209.647L23.0729 209.536L23.4062 209.389L22.9988 209.389L22.9988 209.278L23.5173 209.278L23.5173 209.426L23.147 209.573L23.5173 209.72L23.5173 209.868Z" fill="url(#paint0_linear_1755_4239)"/>
</g>
<path opacity="0.6" fill-rule="evenodd" clip-rule="evenodd" d="M70.2463 32.8173L70.2463 48.7136L75.8865 48.7136L75.8865 32.8173L70.2463 32.8173ZM70.2463 49.7392L70.2463 65.6356L75.8865 65.6356L75.8865 49.7392L70.2463 49.7392ZM63.5801 37.4323L63.5801 48.7136L69.2205 48.7136L69.2205 32.8173L68.1952 32.8173C65.6463 32.8173 63.5801 34.8835 63.5801 37.4323ZM63.5801 61.0205L63.5801 49.7392L69.2205 49.7392L69.2205 65.6356L68.1952 65.6356C65.6463 65.6356 63.5801 63.5693 63.5801 61.0205ZM76.9123 65.6356L76.9123 49.7392L82.5526 49.7392L82.5526 65.6356L76.9123 65.6356ZM76.9123 48.7136L76.9123 32.8173L82.5526 32.8173L82.5526 48.7136L76.9123 48.7136ZM83.5783 49.7392L83.5783 65.6356H84.6037C87.1525 65.6356 89.2188 63.5693 89.2188 61.0205L89.2188 49.7392L83.5783 49.7392ZM83.5783 32.8173L83.5783 48.7136L89.2188 48.7136L89.2188 37.4323C89.2188 34.8835 87.1525 32.8173 84.6037 32.8173L83.5783 32.8173Z" fill="white"/>
<rect x="83.0693" y="42.5598" width="13.3324" height="13.3324" rx="6.66622" transform="rotate(90 83.0693 42.5598)" fill="white" stroke="#00A3A3"/>
<path d="M108.025 157.232C108.025 160.576 110.093 162.314 112.755 162.468L112.755 159.058C111.743 158.948 110.995 158.244 110.995 157.144C110.995 155.714 111.897 154.9 113.987 154.9C116.055 154.9 116.957 155.714 116.957 157.144C116.957 158.244 116.209 158.948 115.197 159.058L115.197 162.468C117.859 162.314 119.927 160.554 119.927 157.144C119.927 153.47 117.463 151.446 113.987 151.446C110.489 151.446 108.025 153.558 108.025 157.232ZM108.223 164.113L108.223 167.281L113.899 167.281C115.747 167.281 116.825 168.315 116.825 169.921L116.825 171.021L119.927 171.021L119.927 170.229C119.927 168.755 119.069 167.787 118.057 167.281L118.057 167.193L119.729 166.929L119.729 164.113L108.223 164.113ZM108.025 177.812C108.025 180.958 109.851 182.784 111.919 183.092L111.919 179.814C111.391 179.616 110.775 179.066 110.775 177.812C110.775 176.272 111.721 175.59 113.063 175.568L113.063 183.246L114.317 183.246C117.441 183.246 119.927 181.266 119.927 177.746C119.927 174.006 117.221 172.114 113.965 172.114C110.665 172.114 108.025 174.182 108.025 177.812ZM115.197 175.59C116.297 175.656 117.155 176.294 117.155 177.746C117.155 179.088 116.297 179.726 115.197 179.792L115.197 175.59ZM108.025 189.003C108.025 190.631 108.663 191.511 109.323 192.061L109.323 192.149L108.223 192.501L108.223 195.537L124.503 195.537L124.503 192.149L118.629 192.149L118.629 192.061C119.289 191.511 119.927 190.631 119.927 189.003C119.927 186.099 117.419 184.339 113.987 184.339C110.533 184.339 108.025 186.099 108.025 189.003ZM110.995 190.037C110.995 188.365 112.381 187.771 113.987 187.771C115.593 187.771 116.957 188.321 116.957 190.037C116.957 191.753 115.593 192.303 113.987 192.303C112.381 192.303 110.995 191.709 110.995 190.037ZM121.093 197.411L121.093 201.019L124.525 201.019L124.525 197.411L121.093 197.411ZM108.223 197.521L108.223 200.909L119.729 200.909L119.729 197.521L108.223 197.521ZM108.223 207.952L108.223 210.284L111.171 210.284L111.171 208.964C111.171 207.952 111.633 207.49 112.711 207.49L116.847 207.49L116.847 210.24L119.729 210.24L119.729 207.49L122.743 207.49L122.743 204.256L119.729 204.256L119.729 202.232L116.847 202.232L116.847 204.102L111.897 204.102C109.807 204.102 108.223 205.29 108.223 207.952Z" fill="#EFEBEB"/>
</g>
</g>
<defs>
<filter id="filter0_i_1755_4239" x="0" y="0" width="141.529" height="228.703" filterUnits="userSpaceOnUse" color-interpolation-filters="sRGB">
<feFlood flood-opacity="0" result="BackgroundImageFix"/>
<feBlend mode="normal" in="SourceGraphic" in2="BackgroundImageFix" result="shape"/>
<feColorMatrix in="SourceAlpha" type="matrix" values="0 0 0 0 0 0 0 0 0 0 0 0 0 0 0 0 0 0 127 0" result="hardAlpha"/>
<feOffset dy="1.02557"/>
<feComposite in2="hardAlpha" operator="arithmetic" k2="-1" k3="1"/>
<feColorMatrix type="matrix" values="0 0 0 0 1 0 0 0 0 1 0 0 0 0 1 0 0 0 0.45 0"/>
<feBlend mode="normal" in2="shape" result="effect1_innerShadow_1755_4239"/>
</filter>
<linearGradient id="paint0_linear_1755_4239" x1="42.9242" y1="194.968" x2="21.9348" y2="207.051" gradientUnits="userSpaceOnUse">
<stop stop-color="white"/>
<stop offset="1" stop-color="white"/>
</linearGradient>
<clipPath id="clip0_1755_4239">
<rect x="141.529" width="228.703" height="141.529" rx="7.17901" transform="rotate(90 141.529 0)" fill="white"/>
</clipPath>
</defs>
</svg>
