<svg width="1920" height="656" viewBox="0 0 1920 656" fill="none" xmlns="http://www.w3.org/2000/svg">
<mask id="mask0_1755_4201" style="mask-type:alpha" maskUnits="userSpaceOnUse" x="0" y="0" width="1920" height="656">
<rect width="1920" height="656" fill="#008C8C"/>
</mask>
<g mask="url(#mask0_1755_4201)">
<rect width="1920" height="656" fill="#008C8C"/>
<rect width="1920" height="656" fill="url(#paint0_linear_1755_4201)"/>
<g opacity="0.3" filter="url(#filter0_f_1755_4201)">
<circle cx="1002" cy="329" r="180" transform="rotate(-180 1002 329)" fill="url(#paint1_linear_1755_4201)"/>
</g>
<g opacity="0.8">
<mask id="mask1_1755_4201" style="mask-type:alpha" maskUnits="userSpaceOnUse" x="728" y="-286" width="1240" height="1389">
<rect x="1233.37" y="-286" width="817.771" height="1145.83" transform="rotate(26.1152 1233.37 -286)" fill="url(#paint2_linear_1755_4201)"/>
</mask>
<g mask="url(#mask1_1755_4201)">
<path d="M1419.31 533.381C1311.36 753.581 1062.13 852.84 862.674 755.063C841.756 744.809 822.141 732.757 804.004 719.206C989.95 770.437 1199.71 670.255 1296.36 473.108C1393.01 275.961 1343.68 48.8729 1189.33 -66.821C1211.15 -60.7835 1232.69 -52.6599 1253.61 -42.4051C1453.06 55.3711 1527.26 313.181 1419.31 533.381Z" fill="url(#paint3_linear_1755_4201)"/>
<g filter="url(#filter1_f_1755_4201)">
<path d="M1405.65 526.684C1297.7 746.884 1062.13 852.84 862.674 755.063C841.756 744.809 822.141 732.757 804.004 719.206C989.95 770.437 1213.37 676.952 1310.02 479.805C1406.67 282.658 1343.68 48.8729 1189.33 -66.821C1211.15 -60.7835 1232.69 -52.6599 1253.61 -42.4051C1453.06 55.3711 1513.6 306.484 1405.65 526.684Z" fill="url(#paint4_linear_1755_4201)"/>
</g>
<g filter="url(#filter2_f_1755_4201)">
<path d="M1398.82 523.336C1290.87 743.537 1045.12 852.974 845.667 755.198C824.748 744.943 805.134 732.892 786.996 719.34C972.942 770.571 1220.21 680.301 1316.85 483.154C1413.5 286.007 1325.33 40.9376 1170.99 -74.7563C1192.81 -68.7188 1214.35 -60.5952 1235.27 -50.3404C1434.72 47.4358 1506.77 303.136 1398.82 523.336Z" fill="url(#paint5_linear_1755_4201)"/>
</g>
<g filter="url(#filter3_f_1755_4201)">
<path d="M1398.82 523.336C1290.87 743.537 1045.12 852.974 845.667 755.198C824.748 744.943 805.134 732.892 786.996 719.34C972.942 770.571 1220.21 680.301 1316.85 483.154C1413.5 286.007 1325.33 40.9376 1170.99 -74.7563C1192.81 -68.7188 1214.35 -60.5952 1235.27 -50.3404C1434.72 47.4358 1506.77 303.136 1398.82 523.336Z" fill="url(#paint6_linear_1755_4201)"/>
</g>
<g filter="url(#filter4_f_1755_4201)">
<path d="M1398.82 523.336C1290.87 743.537 1045.12 852.974 845.667 755.198C824.748 744.943 805.134 732.892 786.996 719.34C972.942 770.571 1220.21 680.301 1316.85 483.154C1413.5 286.007 1325.33 40.9376 1170.99 -74.7563C1192.81 -68.7188 1214.35 -60.5952 1235.27 -50.3404C1434.72 47.4358 1506.77 303.136 1398.82 523.336Z" fill="url(#paint7_linear_1755_4201)"/>
</g>
<g filter="url(#filter5_f_1755_4201)">
<path d="M1354.35 519.008C1246.4 739.208 1045.12 852.974 845.667 755.198C824.748 744.943 805.134 732.892 786.996 719.34C972.942 770.571 1239.68 696.752 1339.05 494.037C1463.57 240.043 1325.33 40.9376 1170.99 -74.7563C1192.81 -68.7188 1214.35 -60.5952 1235.27 -50.3404C1434.72 47.4358 1462.29 298.807 1354.35 519.008Z" fill="url(#paint8_linear_1755_4201)"/>
</g>
<g filter="url(#filter6_f_1755_4201)">
<path d="M1354.34 519.006C1246.4 739.207 1054.17 896.066 854.722 798.29C833.803 788.035 788.458 705.336 770.321 691.785C956.267 743.016 1239.68 696.75 1339.05 494.036C1463.56 240.042 1294.47 53.1286 1140.12 -62.5654C1130.37 -42.6714 1203.56 -106.653 1224.48 -96.3986C1423.94 1.37759 1462.29 298.806 1354.34 519.006Z" fill="url(#paint9_linear_1755_4201)"/>
</g>
<g filter="url(#filter7_f_1755_4201)">
<path d="M1354.34 519.006C1246.4 739.207 1054.17 896.066 854.722 798.29C833.803 788.035 788.458 705.336 770.321 691.785C956.267 743.016 1239.68 696.75 1339.05 494.036C1463.56 240.042 1294.47 53.1286 1140.12 -62.5654C1130.37 -42.6714 1203.56 -106.653 1224.48 -96.3986C1423.94 1.37759 1462.29 298.806 1354.34 519.006Z" fill="url(#paint10_linear_1755_4201)"/>
</g>
<g filter="url(#filter8_f_1755_4201)">
<path d="M1354.34 519.006C1246.4 739.207 1054.17 896.066 854.722 798.29C833.803 788.035 788.458 705.336 770.321 691.785C956.267 743.016 1239.68 696.75 1339.05 494.036C1463.56 240.042 1294.47 53.1286 1140.12 -62.5654C1130.37 -42.6714 1203.56 -106.653 1224.48 -96.3986C1423.94 1.37759 1462.29 298.806 1354.34 519.006Z" fill="url(#paint11_linear_1755_4201)"/>
</g>
</g>
</g>
<g opacity="0.8">
<mask id="mask2_1755_4201" style="mask-type:alpha" maskUnits="userSpaceOnUse" x="-403" y="-557" width="1283" height="1403">
<rect x="306.204" y="845.203" width="817.771" height="1145.83" transform="rotate(-150 306.204 845.203)" fill="url(#paint12_linear_1755_4201)"/>
</mask>
<g mask="url(#mask2_1755_4201)">
<path d="M176.201 15.1066C298.82 -197.274 554.207 -279.418 746.576 -168.354C766.752 -156.705 785.505 -143.353 802.683 -128.604C620.635 -192.315 404.566 -106.575 294.785 83.5712C185.004 273.717 218.834 503.626 364.985 629.511C343.623 622.009 322.684 612.445 302.508 600.796C110.138 489.731 53.5833 227.487 176.201 15.1066Z" fill="url(#paint13_linear_1755_4201)"/>
<g filter="url(#filter9_f_1755_4201)">
<path d="M189.377 22.7138C311.995 -189.667 554.207 -279.418 746.576 -168.354C766.752 -156.705 785.505 -143.353 802.683 -128.604C620.635 -192.315 391.39 -114.182 281.609 75.964C171.828 266.11 218.834 503.626 364.985 629.511C343.623 622.009 322.684 612.445 302.508 600.796C110.138 489.731 66.7593 235.095 189.377 22.7138Z" fill="url(#paint14_linear_1755_4201)"/>
</g>
<g filter="url(#filter10_f_1755_4201)">
<path d="M195.963 26.5167C318.581 -185.864 571.184 -278.4 763.554 -167.335C783.729 -155.687 802.482 -142.334 819.66 -127.585C637.612 -191.296 384.8 -117.987 275.019 72.1597C165.238 262.306 236.6 512.786 382.752 638.671C361.39 631.169 340.45 621.605 320.274 609.956C127.905 498.891 73.3449 238.897 195.963 26.5167Z" fill="url(#paint15_linear_1755_4201)"/>
</g>
<g filter="url(#filter11_f_1755_4201)">
<path d="M195.963 26.5167C318.581 -185.864 571.184 -278.4 763.554 -167.335C783.729 -155.687 802.482 -142.334 819.66 -127.585C637.612 -191.296 384.8 -117.987 275.019 72.1597C165.238 262.306 236.6 512.786 382.752 638.671C361.39 631.169 340.45 621.605 320.274 609.956C127.905 498.891 73.3449 238.897 195.963 26.5167Z" fill="url(#paint16_linear_1755_4201)"/>
</g>
<g filter="url(#filter12_f_1755_4201)">
<path d="M195.963 26.5167C318.581 -185.864 571.184 -278.4 763.554 -167.335C783.729 -155.687 802.482 -142.334 819.66 -127.585C637.612 -191.296 384.8 -117.987 275.019 72.1597C165.238 262.306 236.6 512.786 382.752 638.671C361.39 631.169 340.45 621.605 320.274 609.956C127.905 498.891 73.3449 238.897 195.963 26.5167Z" fill="url(#paint17_linear_1755_4201)"/>
</g>
<g filter="url(#filter13_f_1755_4201)">
<path d="M240.042 33.8487C362.66 -178.532 571.184 -278.4 763.554 -167.335C783.729 -155.687 802.482 -142.334 819.66 -127.585C637.612 -191.296 366.489 -135.718 253.608 59.7981C112.172 304.772 236.6 512.786 382.752 638.671C361.39 631.169 340.45 621.605 320.274 609.956C127.905 498.891 117.424 246.229 240.042 33.8487Z" fill="url(#paint18_linear_1755_4201)"/>
</g>
<g filter="url(#filter14_f_1755_4201)">
<path d="M240.042 33.8499C362.66 -178.531 565.068 -322.007 757.438 -210.942C777.614 -199.293 817.252 -113.713 834.43 -98.9637C652.382 -162.675 366.49 -135.717 253.608 59.7994C112.173 304.773 268.219 502.714 414.371 628.599C425.449 609.412 348.086 668.287 327.91 656.639C135.541 545.574 117.424 246.231 240.042 33.8499Z" fill="url(#paint19_linear_1755_4201)"/>
</g>
<g filter="url(#filter15_f_1755_4201)">
<path d="M240.042 33.8499C362.66 -178.531 565.068 -322.007 757.438 -210.942C777.614 -199.293 817.252 -113.713 834.43 -98.9637C652.382 -162.675 366.49 -135.717 253.608 59.7994C112.173 304.773 268.219 502.714 414.371 628.599C425.449 609.412 348.086 668.287 327.91 656.639C135.541 545.574 117.424 246.231 240.042 33.8499Z" fill="url(#paint20_linear_1755_4201)"/>
</g>
<g filter="url(#filter16_f_1755_4201)">
<path d="M240.042 33.8499C362.66 -178.531 565.068 -322.007 757.438 -210.942C777.614 -199.293 817.252 -113.713 834.43 -98.9637C652.382 -162.675 366.49 -135.717 253.608 59.7994C112.173 304.773 268.219 502.714 414.371 628.599C425.449 609.412 348.086 668.287 327.91 656.639C135.541 545.574 117.424 246.231 240.042 33.8499Z" fill="url(#paint21_linear_1755_4201)"/>
</g>
</g>
</g>
<path d="M824.998 295.499C824.998 201.886 900.886 125.999 994.498 125.999C1088.11 125.999 1164 201.886 1164 295.499C1164 389.111 1088.11 464.999 994.498 464.999C900.886 464.999 824.998 389.111 824.998 295.499Z" stroke="url(#paint22_linear_1755_4201)" stroke-width="90"/>
<path opacity="0.4" d="M724.75 295.5C724.75 146.521 845.521 25.75 994.5 25.75C1143.48 25.7499 1264.25 146.521 1264.25 295.5C1264.25 444.479 1143.48 565.25 994.5 565.25C845.521 565.25 724.75 444.479 724.75 295.5Z" stroke="url(#paint23_linear_1755_4201)" stroke-width="1.5"/>
<path opacity="0.4" d="M611.75 295.5C611.75 84.113 783.113 -87.25 994.5 -87.25C1205.89 -87.25 1377.25 84.1129 1377.25 295.5C1377.25 506.887 1205.89 678.25 994.5 678.25C783.113 678.25 611.75 506.887 611.75 295.5Z" stroke="url(#paint24_linear_1755_4201)" stroke-width="1.5"/>
</g>
<defs>
<filter id="filter0_f_1755_4201" x="782" y="109" width="440" height="440" filterUnits="userSpaceOnUse" color-interpolation-filters="sRGB">
<feFlood flood-opacity="0" result="BackgroundImageFix"/>
<feBlend mode="normal" in="SourceGraphic" in2="BackgroundImageFix" result="shape"/>
<feGaussianBlur stdDeviation="20" result="effect1_foregroundBlur_1755_4201"/>
</filter>
<filter id="filter1_f_1755_4201" x="792.002" y="-78.8235" width="678.537" height="882.429" filterUnits="userSpaceOnUse" color-interpolation-filters="sRGB">
<feFlood flood-opacity="0" result="BackgroundImageFix"/>
<feBlend mode="normal" in="SourceGraphic" in2="BackgroundImageFix" result="shape"/>
<feGaussianBlur stdDeviation="6.0012" result="effect1_foregroundBlur_1755_4201"/>
</filter>
<filter id="filter2_f_1755_4201" x="750.989" y="-110.764" width="733.912" height="937.955" filterUnits="userSpaceOnUse" color-interpolation-filters="sRGB">
<feFlood flood-opacity="0" result="BackgroundImageFix"/>
<feBlend mode="normal" in="SourceGraphic" in2="BackgroundImageFix" result="shape"/>
<feGaussianBlur stdDeviation="18.0036" result="effect1_foregroundBlur_1755_4201"/>
</filter>
<filter id="filter3_f_1755_4201" x="734.986" y="-126.767" width="765.918" height="969.962" filterUnits="userSpaceOnUse" color-interpolation-filters="sRGB">
<feFlood flood-opacity="0" result="BackgroundImageFix"/>
<feBlend mode="normal" in="SourceGraphic" in2="BackgroundImageFix" result="shape"/>
<feGaussianBlur stdDeviation="26.0052" result="effect1_foregroundBlur_1755_4201"/>
</filter>
<filter id="filter4_f_1755_4201" x="734.986" y="-126.767" width="765.918" height="969.962" filterUnits="userSpaceOnUse" color-interpolation-filters="sRGB">
<feFlood flood-opacity="0" result="BackgroundImageFix"/>
<feBlend mode="normal" in="SourceGraphic" in2="BackgroundImageFix" result="shape"/>
<feGaussianBlur stdDeviation="26.0052" result="effect1_foregroundBlur_1755_4201"/>
</filter>
<filter id="filter5_f_1755_4201" x="662.971" y="-198.781" width="877.756" height="1113.32" filterUnits="userSpaceOnUse" color-interpolation-filters="sRGB">
<feFlood flood-opacity="0" result="BackgroundImageFix"/>
<feBlend mode="normal" in="SourceGraphic" in2="BackgroundImageFix" result="shape"/>
<feGaussianBlur stdDeviation="62.0124" result="effect1_foregroundBlur_1755_4201"/>
</filter>
<filter id="filter6_f_1755_4201" x="694.305" y="-173.535" width="795.067" height="1077.52" filterUnits="userSpaceOnUse" color-interpolation-filters="sRGB">
<feFlood flood-opacity="0" result="BackgroundImageFix"/>
<feBlend mode="normal" in="SourceGraphic" in2="BackgroundImageFix" result="shape"/>
<feGaussianBlur stdDeviation="38.0076" result="effect1_foregroundBlur_1755_4201"/>
</filter>
<filter id="filter7_f_1755_4201" x="606.287" y="-261.553" width="971.102" height="1253.56" filterUnits="userSpaceOnUse" color-interpolation-filters="sRGB">
<feFlood flood-opacity="0" result="BackgroundImageFix"/>
<feBlend mode="normal" in="SourceGraphic" in2="BackgroundImageFix" result="shape"/>
<feGaussianBlur stdDeviation="82.0164" result="effect1_foregroundBlur_1755_4201"/>
</filter>
<filter id="filter8_f_1755_4201" x="526.271" y="-341.569" width="1131.13" height="1413.59" filterUnits="userSpaceOnUse" color-interpolation-filters="sRGB">
<feFlood flood-opacity="0" result="BackgroundImageFix"/>
<feBlend mode="normal" in="SourceGraphic" in2="BackgroundImageFix" result="shape"/>
<feGaussianBlur stdDeviation="122.024" result="effect1_foregroundBlur_1755_4201"/>
</filter>
<filter id="filter9_f_1755_4201" x="108.561" y="-228.229" width="706.124" height="869.742" filterUnits="userSpaceOnUse" color-interpolation-filters="sRGB">
<feFlood flood-opacity="0" result="BackgroundImageFix"/>
<feBlend mode="normal" in="SourceGraphic" in2="BackgroundImageFix" result="shape"/>
<feGaussianBlur stdDeviation="6.0012" result="effect1_foregroundBlur_1755_4201"/>
</filter>
<filter id="filter10_f_1755_4201" x="94.5777" y="-250.643" width="761.09" height="925.321" filterUnits="userSpaceOnUse" color-interpolation-filters="sRGB">
<feFlood flood-opacity="0" result="BackgroundImageFix"/>
<feBlend mode="normal" in="SourceGraphic" in2="BackgroundImageFix" result="shape"/>
<feGaussianBlur stdDeviation="18.0036" result="effect1_foregroundBlur_1755_4201"/>
</filter>
<filter id="filter11_f_1755_4201" x="78.5745" y="-266.646" width="793.096" height="957.328" filterUnits="userSpaceOnUse" color-interpolation-filters="sRGB">
<feFlood flood-opacity="0" result="BackgroundImageFix"/>
<feBlend mode="normal" in="SourceGraphic" in2="BackgroundImageFix" result="shape"/>
<feGaussianBlur stdDeviation="26.0052" result="effect1_foregroundBlur_1755_4201"/>
</filter>
<filter id="filter12_f_1755_4201" x="78.5745" y="-266.646" width="793.096" height="957.328" filterUnits="userSpaceOnUse" color-interpolation-filters="sRGB">
<feFlood flood-opacity="0" result="BackgroundImageFix"/>
<feBlend mode="normal" in="SourceGraphic" in2="BackgroundImageFix" result="shape"/>
<feGaussianBlur stdDeviation="26.0052" result="effect1_foregroundBlur_1755_4201"/>
</filter>
<filter id="filter13_f_1755_4201" x="35.5454" y="-337.205" width="908.14" height="1099.9" filterUnits="userSpaceOnUse" color-interpolation-filters="sRGB">
<feFlood flood-opacity="0" result="BackgroundImageFix"/>
<feBlend mode="normal" in="SourceGraphic" in2="BackgroundImageFix" result="shape"/>
<feGaussianBlur stdDeviation="62.0124" result="effect1_foregroundBlur_1755_4201"/>
</filter>
<filter id="filter14_f_1755_4201" x="86.477" y="-325.506" width="823.968" height="1059.7" filterUnits="userSpaceOnUse" color-interpolation-filters="sRGB">
<feFlood flood-opacity="0" result="BackgroundImageFix"/>
<feBlend mode="normal" in="SourceGraphic" in2="BackgroundImageFix" result="shape"/>
<feGaussianBlur stdDeviation="38.0076" result="effect1_foregroundBlur_1755_4201"/>
</filter>
<filter id="filter15_f_1755_4201" x="-1.54068" y="-413.524" width="1000" height="1235.74" filterUnits="userSpaceOnUse" color-interpolation-filters="sRGB">
<feFlood flood-opacity="0" result="BackgroundImageFix"/>
<feBlend mode="normal" in="SourceGraphic" in2="BackgroundImageFix" result="shape"/>
<feGaussianBlur stdDeviation="82.0164" result="effect1_foregroundBlur_1755_4201"/>
</filter>
<filter id="filter16_f_1755_4201" x="-81.5567" y="-493.54" width="1160.04" height="1395.77" filterUnits="userSpaceOnUse" color-interpolation-filters="sRGB">
<feFlood flood-opacity="0" result="BackgroundImageFix"/>
<feBlend mode="normal" in="SourceGraphic" in2="BackgroundImageFix" result="shape"/>
<feGaussianBlur stdDeviation="122.024" result="effect1_foregroundBlur_1755_4201"/>
</filter>
<linearGradient id="paint0_linear_1755_4201" x1="1980.67" y1="715.5" x2="745.668" y2="-204.491" gradientUnits="userSpaceOnUse">
<stop stop-color="#067373"/>
<stop offset="1" stop-color="#067373" stop-opacity="0"/>
</linearGradient>
<linearGradient id="paint1_linear_1755_4201" x1="1002" y1="149" x2="1002" y2="509" gradientUnits="userSpaceOnUse">
<stop stop-color="#06B7B7"/>
<stop offset="1" stop-color="#06B7B7" stop-opacity="0"/>
</linearGradient>
<linearGradient id="paint2_linear_1755_4201" x1="1642.25" y1="-286" x2="1642.25" y2="859.83" gradientUnits="userSpaceOnUse">
<stop stop-color="#C4C4C4" stop-opacity="0"/>
<stop offset="0.380208" stop-color="#C4C4C4"/>
<stop offset="0.578125" stop-color="#C4C4C4"/>
<stop offset="1" stop-color="#C4C4C4" stop-opacity="0"/>
</linearGradient>
<linearGradient id="paint3_linear_1755_4201" x1="1403.46" y1="31.0526" x2="1012.52" y2="828.521" gradientUnits="userSpaceOnUse">
<stop stop-color="#0B8384"/>
<stop offset="1" stop-color="#67E4E7"/>
</linearGradient>
<linearGradient id="paint4_linear_1755_4201" x1="1396.63" y1="27.7041" x2="1005.69" y2="825.173" gradientUnits="userSpaceOnUse">
<stop stop-color="#0B8384"/>
<stop offset="1" stop-color="#67E4E7"/>
</linearGradient>
<linearGradient id="paint5_linear_1755_4201" x1="1383.83" y1="22.4895" x2="989.962" y2="825.935" gradientUnits="userSpaceOnUse">
<stop stop-color="#0B8384"/>
<stop offset="1" stop-color="#67E4E7"/>
</linearGradient>
<linearGradient id="paint6_linear_1755_4201" x1="1383.83" y1="22.4895" x2="989.962" y2="825.935" gradientUnits="userSpaceOnUse">
<stop stop-color="#0B8384"/>
<stop offset="1" stop-color="#67E4E7"/>
</linearGradient>
<linearGradient id="paint7_linear_1755_4201" x1="1383.83" y1="22.4895" x2="989.962" y2="825.935" gradientUnits="userSpaceOnUse">
<stop stop-color="#0B8384"/>
<stop offset="1" stop-color="#67E4E7"/>
</linearGradient>
<linearGradient id="paint8_linear_1755_4201" x1="1365.05" y1="13.2811" x2="971.178" y2="816.726" gradientUnits="userSpaceOnUse">
<stop stop-color="#0B8384"/>
<stop offset="1" stop-color="#67E4E7"/>
</linearGradient>
<linearGradient id="paint9_linear_1755_4201" x1="1371.13" y1="-24.5105" x2="945.867" y2="842.971" gradientUnits="userSpaceOnUse">
<stop stop-color="#0B8384"/>
<stop offset="1" stop-color="#67E4E7"/>
</linearGradient>
<linearGradient id="paint10_linear_1755_4201" x1="1371.13" y1="-24.5105" x2="945.867" y2="842.971" gradientUnits="userSpaceOnUse">
<stop stop-color="#0B8384"/>
<stop offset="1" stop-color="#67E4E7"/>
</linearGradient>
<linearGradient id="paint11_linear_1755_4201" x1="1371.13" y1="-24.5105" x2="945.867" y2="842.971" gradientUnits="userSpaceOnUse">
<stop stop-color="#0B8384"/>
<stop offset="1" stop-color="#67E4E7"/>
</linearGradient>
<linearGradient id="paint12_linear_1755_4201" x1="715.09" y1="845.203" x2="715.09" y2="1991.03" gradientUnits="userSpaceOnUse">
<stop stop-color="#C4C4C4" stop-opacity="0"/>
<stop offset="0.380208" stop-color="#C4C4C4"/>
<stop offset="0.578125" stop-color="#C4C4C4"/>
<stop offset="1" stop-color="#C4C4C4" stop-opacity="0"/>
</linearGradient>
<linearGradient id="paint13_linear_1755_4201" x1="157.983" y1="517.355" x2="602.052" y2="-251.795" gradientUnits="userSpaceOnUse">
<stop stop-color="#0B8384"/>
<stop offset="1" stop-color="#67E4E7"/>
</linearGradient>
<linearGradient id="paint14_linear_1755_4201" x1="164.571" y1="521.158" x2="608.64" y2="-247.991" gradientUnits="userSpaceOnUse">
<stop stop-color="#0B8384"/>
<stop offset="1" stop-color="#67E4E7"/>
</linearGradient>
<linearGradient id="paint15_linear_1755_4201" x1="176.985" y1="527.228" x2="624.382" y2="-247.686" gradientUnits="userSpaceOnUse">
<stop stop-color="#0B8384"/>
<stop offset="1" stop-color="#67E4E7"/>
</linearGradient>
<linearGradient id="paint16_linear_1755_4201" x1="176.985" y1="527.228" x2="624.382" y2="-247.686" gradientUnits="userSpaceOnUse">
<stop stop-color="#0B8384"/>
<stop offset="1" stop-color="#67E4E7"/>
</linearGradient>
<linearGradient id="paint17_linear_1755_4201" x1="176.985" y1="527.228" x2="624.382" y2="-247.686" gradientUnits="userSpaceOnUse">
<stop stop-color="#0B8384"/>
<stop offset="1" stop-color="#67E4E7"/>
</linearGradient>
<linearGradient id="paint18_linear_1755_4201" x1="195.102" y1="537.688" x2="642.499" y2="-237.226" gradientUnits="userSpaceOnUse">
<stop stop-color="#0B8384"/>
<stop offset="1" stop-color="#67E4E7"/>
</linearGradient>
<linearGradient id="paint19_linear_1755_4201" x1="186.474" y1="574.981" x2="669.529" y2="-261.696" gradientUnits="userSpaceOnUse">
<stop stop-color="#0B8384"/>
<stop offset="1" stop-color="#67E4E7"/>
</linearGradient>
<linearGradient id="paint20_linear_1755_4201" x1="186.474" y1="574.981" x2="669.529" y2="-261.696" gradientUnits="userSpaceOnUse">
<stop stop-color="#0B8384"/>
<stop offset="1" stop-color="#67E4E7"/>
</linearGradient>
<linearGradient id="paint21_linear_1755_4201" x1="186.474" y1="574.981" x2="669.529" y2="-261.696" gradientUnits="userSpaceOnUse">
<stop stop-color="#0B8384"/>
<stop offset="1" stop-color="#67E4E7"/>
</linearGradient>
<linearGradient id="paint22_linear_1755_4201" x1="1020.08" y1="-31.582" x2="900.498" y2="472.999" gradientUnits="userSpaceOnUse">
<stop stop-color="#00A3A3"/>
<stop offset="1" stop-color="#00A3A3" stop-opacity="0"/>
</linearGradient>
<linearGradient id="paint23_linear_1755_4201" x1="1026.77" y1="-116.972" x2="875.959" y2="519.34" gradientUnits="userSpaceOnUse">
<stop stop-color="#00A3A3"/>
<stop offset="1" stop-color="#00A3A3" stop-opacity="0"/>
</linearGradient>
<linearGradient id="paint24_linear_1755_4201" x1="1040.25" y1="-289.28" x2="826.439" y2="612.848" gradientUnits="userSpaceOnUse">
<stop stop-color="#00A3A3"/>
<stop offset="1" stop-color="#00A3A3" stop-opacity="0"/>
</linearGradient>
</defs>
</svg>
