<svg width="82" height="27" viewBox="0 0 82 27" fill="none" xmlns="http://www.w3.org/2000/svg">
<path d="M81.1205 16.9786H63.0276C60.3922 16.9786 59.2759 15.9394 58.8199 14.5612H64.5251C68.3367 14.5612 70.6794 12.8685 70.6794 9.21553C70.6794 5.56254 68.3367 3.68045 64.5251 3.68045H62.7132C59.2991 3.68045 55.1499 5.68334 54.2732 10.4771H49.1793V0H44.8626V10.4771H39.5345C34.427 10.5032 31.5832 13.1101 31.213 16.9786H22.2979C19.6624 16.9786 18.5462 15.9394 18.0902 14.5612H23.7899C27.6015 14.5612 29.9443 12.8685 29.9443 9.21553C29.9443 5.56254 27.6001 3.68045 23.7899 3.68045H21.9794C18.5652 3.68045 14.416 5.68334 13.5394 10.4771H9.80127C7.45714 10.4771 5.37845 11.2033 4.23361 12.6269V10.7997H0V25.8716C0 26.7309 0.272258 27 1.08903 27H3.22353C4.02261 27 4.31256 26.7254 4.31256 25.8716V19.9343C4.31256 15.448 7.11001 14.5612 9.98641 14.5612H13.5829C14.48 19.0131 18.1759 21.1409 22.4613 21.1409H31.7534C32.822 23.7163 35.3703 25.063 39.4569 25.063H41.9277C45.9775 25.063 49.3875 22.1609 49.3875 17.8902V14.5612H54.3154C55.2138 19.0131 58.9097 21.1409 63.1924 21.1409H81.1205C81.3571 21.1373 81.5826 21.0392 81.7475 20.868C81.9124 20.6968 82.0032 20.4667 81.9999 20.228V17.8394C81.9985 17.7246 81.9746 17.6111 81.9296 17.5057C81.8846 17.4002 81.8193 17.3047 81.7376 17.2247C81.6559 17.1447 81.5593 17.0818 81.4534 17.0396C81.3475 16.9974 81.2344 16.9766 81.1205 16.9786ZM21.8187 7.76449H23.9233C24.8762 7.76449 25.5487 8.16809 25.5487 9.13728C25.5487 10.0502 24.883 10.4799 23.9233 10.4799H17.969C18.3243 8.96431 19.314 7.76449 21.8187 7.76449ZM44.8626 18.0275C44.8626 19.7201 43.5844 20.9295 41.9318 20.9295H39.1615C36.9236 20.9295 35.4588 20.0427 35.4588 17.8133C35.4588 15.6374 36.9236 14.5625 39.1615 14.5625H44.8626V18.0275ZM62.5526 7.76449H64.6612C65.6141 7.76449 66.2866 8.16809 66.2866 9.13728C66.2866 10.0502 65.6209 10.4799 64.6612 10.4799H58.7056C59.0581 8.96431 60.0478 7.76449 62.5526 7.76449Z" fill="#EC7000"/>
</svg>
