<svg width="297" height="464" viewBox="0 0 297 464" fill="none" xmlns="http://www.w3.org/2000/svg">
<path d="M88.7607 204.322L105.1 203.51L121.735 175.528L113.829 170.557C113.829 170.557 84.2387 163.786 70.648 192.177C70.648 192.177 64.1014 206.547 69.919 209.962C73.7661 212.236 79.4359 198.766 88.7607 204.322Z" fill="#474854"/>
<path opacity="0.21" d="M88.7607 204.322L105.1 203.51L121.735 175.528L113.829 170.557C113.829 170.557 84.2387 163.786 70.648 192.177C70.648 192.177 64.1014 206.547 69.919 209.962C73.7661 212.236 79.4359 198.766 88.7607 204.322Z" fill="#27272D"/>
<path d="M77.613 198.885C77.613 198.885 75.5097 203.643 75.9924 206.965C79.2681 204.234 83.4306 201.188 88.7654 204.323L101.164 203.747L109.277 190.105L104.193 186.941C104.213 186.896 85.4798 182.118 77.613 198.885Z" fill="#474854"/>
<path opacity="0.1" d="M70.722 194.79C84.3127 166.394 113.903 173.171 113.903 173.171L120.602 177.388L121.735 175.523L113.829 170.553C113.829 170.553 84.2388 163.781 70.6481 192.172C70.6481 192.172 66.7517 200.636 67.6285 206.119C67.8995 200.892 70.722 194.79 70.722 194.79Z" fill="white"/>
<path d="M191.092 265.13L183.955 250.415L200.589 222.433L208.747 226.965C208.747 226.965 228.855 249.746 210.436 275.243C210.436 275.243 200.974 287.871 195.186 284.412C191.299 282.113 200.417 270.686 191.092 265.13Z" fill="#474854"/>
<path opacity="0.21" d="M191.092 265.13L183.955 250.415L200.589 222.433L208.747 226.965C208.747 226.965 228.855 249.746 210.436 275.243C210.436 275.243 200.974 287.871 195.186 284.412C191.299 282.113 200.417 270.686 191.092 265.13Z" fill="#27272D"/>
<path d="M201.185 272.301C201.185 272.301 198.028 276.449 194.87 277.556C195.712 273.359 196.382 268.245 191.053 265.106L185.723 253.954L193.836 240.312L199.067 243.216C199.042 243.26 212.145 257.379 201.185 272.301Z" fill="#474854"/>
<path opacity="0.1" d="M208.116 276.42C226.529 250.927 206.427 228.147 206.427 228.147L199.525 224.279L200.658 222.413L208.816 226.946C208.816 226.946 228.923 249.731 210.505 275.219C210.505 275.219 204.9 282.694 199.673 284.54C204.067 281.808 208.116 276.42 208.116 276.42Z" fill="white"/>
<path d="M151.995 237.005L166.098 213.299L210.836 229.633L194.339 262.143L151.995 237.005Z" fill="#F2F2F2"/>
<path d="M89.79 200.002L110.39 170.326L146.202 201.409L132.099 225.115L89.79 200.002Z" fill="#F2F2F2"/>
<path d="M250.726 55.7485C251.603 54.2278 251.888 52.7514 251.287 52.4069C250.691 52.0625 249.534 52.9827 248.613 54.4739C247.736 55.9946 247.45 57.471 248.051 57.8155C248.647 58.1649 249.869 57.2298 250.726 55.7485Z" fill="#EDEDF4"/>
<path opacity="0.15" d="M250.918 55.3154C250.918 55.3154 249.46 58.032 248.169 57.5054C247.568 57.2642 247.977 55.8617 248.608 54.4739L248.583 54.5132C247.706 56.0339 247.445 57.4709 248.022 57.8548C248.618 58.1993 249.78 57.279 250.657 55.7633C250.751 55.6009 250.849 55.4384 250.918 55.3154Z" fill="#73737F"/>
<path d="M250.509 55.6255C251.292 54.2721 251.548 52.9384 250.992 52.6185C250.48 52.3233 249.371 53.1599 248.588 54.5132C247.805 55.8666 247.549 57.2003 248.105 57.5202C248.618 57.8204 249.726 56.9788 250.509 55.6255Z" fill="white"/>
<path d="M250.509 55.6255C251.292 54.2721 251.523 52.9827 251.011 52.6875C250.499 52.3922 249.455 53.214 248.627 54.5428C247.844 55.8962 247.612 57.1855 248.125 57.4808C248.642 57.7761 249.706 56.9149 250.509 55.6255Z" fill="#BCBCCC"/>
<path d="M250.509 55.6255C251.243 54.3508 251.519 53.0861 251.051 52.8154C250.583 52.5447 249.603 53.3469 248.8 54.6363C248.066 55.9109 247.79 57.1757 248.258 57.4463C248.731 57.7219 249.731 56.8755 250.509 55.6255Z" fill="#73737F"/>
<path d="M248.095 56.2553C248.051 56.2307 248.204 55.7681 248.524 55.5171C248.248 55.7976 248.095 56.2553 248.095 56.2553Z" fill="#8F8F99"/>
<path d="M249.913 53.2041C249.913 53.2041 249.593 53.5634 249.484 53.9423L249.44 53.9177C249.548 53.5387 249.913 53.2041 249.913 53.2041Z" fill="#8F8F99"/>
<path opacity="0.15" d="M248.632 54.4344C249.312 53.4551 250.125 52.9384 250.549 53.1844C251.016 53.4551 250.81 54.7051 250.076 55.9748C249.765 56.5063 249.396 56.9541 249.056 57.2494C249.529 56.9197 250.036 56.339 250.465 55.6008C251.248 54.2474 251.48 52.958 250.992 52.6185C250.48 52.3232 249.435 53.1451 248.632 54.4344Z" fill="#73737F"/>
<path d="M248.691 53.1548L247.44 55.2217L248.765 55.9845L250.016 53.9176L248.691 53.1548Z" fill="#73737F"/>
<g opacity="0.15">
<path opacity="0.15" d="M249.607 54.7203C249.632 54.6809 249.682 54.5971 249.706 54.4492C249.642 54.4689 249.637 54.5724 249.607 54.7203Z" fill="#73737F"/>
</g>
<path d="M248.396 54.3507C248.726 53.7749 248.883 53.2089 248.755 53.1351C248.583 53.0367 248.194 53.4156 247.839 54.0308C247.509 54.6066 247.351 55.1725 247.479 55.2464C247.608 55.3202 248.021 54.9019 248.396 54.3507Z" fill="#8F8F99"/>
<path d="M248.356 54.3262C248.667 53.7947 248.8 53.2681 248.672 53.1943C248.543 53.1204 248.154 53.4994 247.805 54.0063C247.494 54.5378 247.361 55.0644 247.489 55.1382C247.657 55.2366 248.002 54.838 248.356 54.3262Z" fill="#73737F"/>
<path d="M248.469 53.2435L245.671 51.5752L245.164 53.6372L247.405 54.9857L247.617 55.1087C247.799 54.9955 248.07 54.715 248.287 54.3459C248.524 53.9374 248.671 53.5831 248.681 53.3665L248.469 53.2435Z" fill="#69DDAE"/>
<path d="M246.622 53.8735C246.622 53.8735 248.607 53.1009 248.721 51.0339C248.834 48.962 247.46 46.3095 243.056 44.3705C238.647 42.4315 233.839 47.2101 236.553 51.6786C239.78 56.9346 246.622 53.8735 246.622 53.8735Z" fill="#75F1C1"/>
<path d="M244.613 45.2168C247.583 46.9835 248.519 49.1145 248.416 50.8615C248.327 52.8891 246.366 53.6224 246.366 53.6224C246.366 53.6224 239.706 56.5702 236.559 51.4669C235.475 49.6903 235.598 47.8989 236.406 46.5062C235.51 47.958 235.317 49.8724 236.485 51.6982C239.716 56.9541 246.554 53.898 246.554 53.898C246.554 53.898 248.539 53.1253 248.652 51.0584C248.815 49.2867 247.775 47.0426 244.613 45.2168Z" fill="#69DDAE"/>
<path opacity="0.42" d="M243.839 52.8694C244.81 52.771 245.514 52.141 245.416 51.4225C245.317 50.7089 244.485 50.1725 243.514 50.2709C242.544 50.3694 241.839 50.9993 241.938 51.7178C242.041 52.4363 242.869 52.9678 243.839 52.8694Z" fill="#A7A9CA"/>
<path opacity="0.42" d="M246.642 49.4C247.312 49.1293 247.573 48.1844 247.174 47.2986C246.775 46.4128 245.923 45.9157 245.253 46.1913C244.583 46.462 244.322 47.4069 244.721 48.2927C245.075 49.149 245.933 49.646 246.642 49.4Z" fill="#A7A9CA"/>
<path d="M243.869 52.7219C244.839 52.6235 245.543 51.9936 245.445 51.2751C245.346 50.5615 244.514 50.0251 243.544 50.1235C242.573 50.2219 241.869 50.8518 241.967 51.5703C242.026 52.2643 242.923 52.781 243.869 52.7219Z" fill="white"/>
<path opacity="0.16" d="M244.721 50.2613C245.061 50.4582 245.317 50.7141 245.341 51.0586C245.42 51.7082 244.829 52.2397 243.992 52.3086C243.154 52.3726 242.386 51.9296 242.347 51.3046C242.268 50.655 242.859 50.1235 243.696 50.0546C243.874 50.0448 244.046 50.0399 244.199 50.0694C244.002 50.0103 243.785 49.9956 243.544 50.0202C242.573 50.1186 241.869 50.7485 241.967 51.467C242.066 52.1806 242.898 52.717 243.869 52.6186C244.839 52.5202 245.543 51.8903 245.445 51.1718C245.42 50.8273 245.149 50.5074 244.721 50.2613Z" fill="#A7A9CA"/>
<path d="M246.627 49.2278C247.297 48.9572 247.558 48.0123 247.159 47.1264C246.76 46.2406 245.903 45.7436 245.238 46.0142C244.568 46.2849 244.307 47.2298 244.706 48.1156C245.105 49.0015 245.957 49.4985 246.627 49.2278Z" fill="white"/>
<path d="M241.307 51.1373C241.307 51.1373 241.199 50.6353 241.608 49.7248C242.021 48.8144 240.539 49.1097 240.401 50.2317C240.312 51.3833 241.386 51.7869 241.307 51.1373Z" fill="#3CAF8E"/>
<path d="M244.701 45.2662C244.701 45.2662 244.174 45.2908 243.381 45.8715C242.588 46.4522 242.563 45.0152 243.657 44.6067C244.721 44.2376 245.336 45.2514 244.701 45.2662Z" fill="#3CAF8E"/>
<path opacity="0.42" d="M240.529 50.906C240.529 50.906 240.697 51.6048 241.244 51.6441C241.746 51.6589 241.253 50.9355 241.702 50.1579C242.15 49.3803 241.746 49.09 241.347 49.1884C241.347 49.1884 241.633 49.1884 241.46 49.5821C241.288 49.9758 241.027 50.5319 241.115 50.9699C241.14 51.4227 240.603 51.1717 240.529 50.906Z" fill="#A7A9CA"/>
<path opacity="0.42" d="M242.928 45.1726C242.928 45.1726 242.81 45.3793 242.908 45.6008C243.076 45.8075 243.78 45.1726 244.268 45.1234C244.75 45.0742 244.864 44.9758 244.741 44.7937C244.741 44.7937 244.992 45.0496 244.829 45.2268L244.672 45.3006L244.755 45.3498C244.755 45.3498 244.184 45.3498 243.588 45.9896C243.041 46.5555 242.455 45.9945 242.928 45.1726Z" fill="#A7A9CA"/>
<path opacity="0.16" d="M246.716 48.7798C246.135 48.9914 245.366 48.5485 245.051 47.8202C244.691 47.0623 244.878 46.2404 245.484 45.9894C245.573 45.9304 245.681 45.9402 245.795 45.9501C245.617 45.9599 245.445 45.9648 245.243 46.014C244.573 46.2847 244.312 47.2296 244.711 48.1154C245.11 49.0013 245.967 49.4983 246.637 49.2276C247.282 48.9963 247.494 48.1351 247.223 47.3231C247.405 47.9776 247.203 48.6273 246.716 48.7798Z" fill="#A7A9CA"/>
<path d="M247.026 50.6055C246.79 51.014 246.45 51.3093 246.312 51.452C246.287 51.4914 246.243 51.4668 246.204 51.4422C246.159 51.4176 246.184 51.3782 246.209 51.3339C246.347 51.1961 246.736 50.8172 246.972 50.4038C246.997 50.3644 246.997 50.3644 247.041 50.389C247.085 50.4136 247.061 50.453 247.061 50.453C247.076 50.5219 247.051 50.5662 247.026 50.6055Z" fill="#3CAF8E"/>
<path d="M251.11 52.9089C250.913 52.9581 250.612 53.278 250.361 53.5192C250.11 53.7554 249.903 54.0211 249.75 53.9867C249.642 53.9769 249.405 53.8981 249.13 53.6816C248.918 53.5585 248.726 53.3961 248.726 53.3961L248.75 53.3568C248.75 53.3568 249.474 53.8834 249.799 53.908C249.952 53.9424 250.159 53.6767 250.41 53.4404C250.593 53.2091 250.868 52.9335 251.11 52.9089Z" fill="#8F8F99"/>
<path d="M251.07 54.3607C250.858 54.2377 250.435 54.3755 250.08 54.4985C249.858 54.5871 249.656 54.6363 249.548 54.6314C249.312 54.5477 248.563 54.0654 248.523 54.0408L248.548 54.0015C248.548 54.0015 249.336 54.5133 249.573 54.592C249.656 54.6412 249.883 54.5527 250.105 54.4591C250.435 54.3755 250.853 54.2377 251.07 54.3607Z" fill="#8F8F99"/>
<path d="M249.351 57.0377C249.056 56.7572 249.08 56.2257 249.1 55.7975C249.11 55.5859 249.139 55.4383 249.075 55.3448C248.952 55.1627 248.051 54.7542 248.051 54.7542L248.075 54.7148C248.12 54.7395 249.021 55.1528 249.1 55.3054C249.12 55.3694 249.134 55.5416 249.125 55.7582C249.105 56.1863 249.08 56.7178 249.351 57.0377Z" fill="#8F8F99"/>
<path d="M248.154 57.333C247.987 57.1263 248.253 56.5702 248.381 56.1519C248.435 55.9649 248.553 55.7582 248.534 55.6942C248.475 55.6057 247.874 55.2562 247.593 55.1529L247.617 55.1135C247.617 55.1135 247.829 55.2366 248.046 55.3596C248.174 55.4334 248.475 55.6057 248.534 55.6942C248.553 55.7582 248.479 55.8812 248.381 56.1519C248.297 56.5948 248.031 57.1509 248.154 57.333Z" fill="#8F8F99"/>
<path d="M249.44 55.0103C249.391 55.094 249.346 55.1727 249.322 55.217C249.115 55.4778 248.933 55.596 248.933 55.596L248.888 55.5713C248.888 55.5713 249.07 55.4582 249.277 55.1924C249.465 54.9709 249.676 54.6019 249.701 54.0654C249.706 54.4493 249.583 54.7643 249.44 55.0103Z" fill="#8F8F99"/>
<path opacity="0.15" d="M249.538 54.8478C249.489 54.9315 249.381 54.9217 249.297 54.8725L248.401 54.3557C248.071 54.9315 247.681 55.3055 247.484 55.2514L248.125 55.6205C247.903 56.2012 247.834 56.713 247.908 57.0821C248.021 56.9837 248.061 57.1166 248.08 57.1805C248.007 56.9197 248.021 56.4916 248.199 55.9896C248.002 56.5309 247.982 56.9591 248.1 57.2445C248.1 57.2445 248.061 56.6195 248.617 55.9551C249.071 56.1618 249.381 55.5221 249.337 55.4975C249.292 55.4728 249.046 55.6057 249.322 55.3252C249.46 55.1874 249.578 54.9807 249.632 54.7937C249.583 54.7642 249.558 54.8036 249.538 54.8478ZM248.199 55.8813L248.174 55.9207L248.199 55.8813ZM248.248 55.6894C248.223 55.7288 248.179 55.8124 248.194 55.8764C248.223 55.837 248.228 55.7337 248.248 55.6894Z" fill="#73737F"/>
<path d="M271.789 71.467C271.813 71.4277 271.769 71.4031 271.469 71.2259C271.341 71.1521 271.148 71.093 271.148 71.093C271.148 71.093 271.277 71.1668 271.469 71.2259C271.73 71.3735 271.744 71.4424 271.789 71.467Z" fill="#8F8F99"/>
<path d="M271.488 71.8904C271.508 71.851 271.508 71.851 271.488 71.8904C271.508 71.851 271.469 71.8264 271.488 71.8904C271.469 71.8264 271.444 71.8658 271.488 71.8904C271.444 71.8658 271.38 71.8805 271.148 71.6935C271.02 71.6197 270.917 71.5065 270.873 71.4819C270.887 71.5459 271.375 71.8855 271.488 71.8904Z" fill="#8F8F99"/>
<path d="M271.213 72.1708C271.168 72.1462 271.168 72.1462 271.213 72.1708C271.168 72.1462 271.144 72.1855 270.912 71.9985C270.784 71.9247 270.681 71.8115 270.681 71.8115C270.681 71.8115 270.784 71.9247 270.957 72.0231C271.08 72.2052 271.144 72.1855 271.213 72.1708Z" fill="#8F8F99"/>
<path d="M262.129 58.4995L260.262 61.6344L263.134 62.5793C263.134 62.5793 272.198 68.6866 272.242 68.7112C272.326 68.7604 272.439 68.7703 272.503 68.7506C272.572 68.7358 272.612 68.7604 272.656 68.785L273.148 69.0163C273.148 69.0163 273.193 69.0409 273.217 69.0016C273.311 68.8392 273.848 68.1059 273.917 67.4907L273.897 67.4268L273.493 67.1413C273.41 67.0921 273.346 67.0035 273.286 66.91C273.144 66.664 272.951 66.4966 272.74 66.3736L262.129 58.4995Z" fill="#73737F"/>
<path d="M253.873 65.3943C253.292 65.1137 252.671 65.3057 252.366 65.8372L250.11 70.3352L252.08 71.3638L254.381 66.8903C254.642 66.3293 254.386 65.6895 253.873 65.3943Z" fill="#D5D5E0"/>
<path d="M252.056 71.2997C252.174 71.093 251.775 70.6993 251.238 70.4434C250.701 70.1875 250.179 70.1038 250.085 70.2712C249.967 70.4779 250.366 70.8716 250.903 71.1275C251.46 71.4474 251.982 71.531 252.056 71.2997Z" fill="#EDEDF4"/>
<path d="M251.947 71.2899C252.041 71.1275 251.73 70.7781 251.233 70.5517C250.74 70.3204 250.282 70.222 250.188 70.3844C250.095 70.5468 250.405 70.8962 250.903 71.1226C251.44 71.3785 251.854 71.4523 251.947 71.2899Z" fill="#BCBCCC"/>
<path d="M251.548 71.8806L250.006 71.0981L250.297 70.4977L250.351 70.3107C250.548 70.2615 250.898 70.3501 251.238 70.5518C251.578 70.7487 251.854 70.9603 251.937 71.1178L251.819 71.3245L251.548 71.8806Z" fill="#73737F"/>
<path d="M251.573 71.841C251.642 71.718 251.376 71.3981 250.923 71.1914C250.47 70.9847 250.1 70.9355 250.031 71.0585C249.962 71.1816 250.233 71.5015 250.681 71.7082C251.066 71.9296 251.474 72.0034 251.573 71.841Z" fill="#8F8F99"/>
<path d="M250.524 70.3057C250.509 70.6255 250.253 70.97 250.253 70.97C250.273 71.034 250.509 70.6255 250.524 70.3057Z" fill="#8F8F99"/>
<path d="M250.869 70.3943C250.834 70.6502 250.598 71.0587 250.598 71.0587C250.598 71.0587 250.647 70.975 250.741 70.8126C250.79 70.7339 250.839 70.5419 250.869 70.3943Z" fill="#8F8F99"/>
<path d="M251.277 70.5762C251.253 70.6155 250.991 71.0683 250.962 71.2159C251.036 71.0929 251.277 70.5762 251.277 70.5762Z" fill="#8F8F99"/>
<path d="M251.681 70.8618C251.681 70.8618 251.4 71.2457 251.346 71.5409C251.425 71.2063 251.681 70.8618 251.681 70.8618Z" fill="#8F8F99"/>
<path d="M251.888 71.093C251.888 71.093 251.681 71.3538 251.509 71.7525C251.725 71.3784 251.888 71.093 251.888 71.093Z" fill="#8F8F99"/>
<path d="M250.553 73.1108L249.913 72.2495L250.11 71.2161L250.135 71.1767C250.204 71.0537 250.578 71.1029 250.918 71.2997C251.258 71.4966 251.534 71.7131 251.465 71.8361L250.553 73.1108Z" fill="#75F1C1"/>
<path d="M250.553 73.1108L249.913 72.2495L250.11 71.2161L250.135 71.1767C250.204 71.0537 250.578 71.1029 250.918 71.2997C251.258 71.4966 251.534 71.7131 251.465 71.8361L250.553 73.1108Z" fill="#69DDAE"/>
<path d="M261.159 52.0822L252.44 50.9946C251.809 50.906 251.262 51.3539 251.213 51.9297C251.144 52.5448 251.622 53.096 252.213 53.1649L260.932 54.2525C261.563 54.3411 262.109 53.8933 262.159 53.3175C262.228 52.7023 261.794 52.1757 261.159 52.0822Z" fill="#D5D5E0"/>
<path d="M251.219 51.9295C251.288 51.3144 251.81 50.9059 252.445 50.9945L253.622 51.1273L254.898 53.4502L252.199 53.0959C251.627 53.0959 251.15 52.5447 251.219 51.9295Z" fill="#BCBCCC"/>
<path d="M261.553 54.1688C261.016 54.405 260.346 54.1835 260.041 53.6274L257.681 49.0359L259.627 48.1353L261.986 52.7268C262.316 53.2436 262.11 53.8932 261.553 54.1688Z" fill="#D5D5E0"/>
<path d="M261.755 54.0161C261.73 54.0554 261.705 54.0997 261.705 54.0997C261.907 53.9423 261.883 53.5978 261.666 52.9826C261.489 52.4954 261.208 51.8999 260.848 51.142C260.159 49.8674 259.38 48.6519 259.38 48.6519C259.38 48.6519 260.159 49.8674 260.848 51.142C261.233 51.8556 261.533 52.5249 261.666 52.9826C261.843 53.4649 261.873 53.8094 261.755 54.0161Z" fill="#EDEDF4"/>
<path opacity="0.15" d="M261.799 53.5438C261.597 53.593 261.449 53.5586 261.297 53.529C261.06 53.4454 260.824 53.2584 260.725 53.0369L258.504 48.6914L257.72 49.0605L259.78 53.096L252.169 51.7721C252.056 52.3627 252.233 52.8499 252.632 53.2436L260.912 54.3017C261.459 54.3411 261.976 54.0409 262.085 53.5537C262.134 53.47 262.139 53.3666 262.1 53.2338C262.07 53.3716 261.932 53.5143 261.799 53.5438Z" fill="#73737F"/>
<path d="M247.573 58.1452C247.1 58.4749 246.982 59.1737 247.332 59.6462L252.455 66.7624C252.804 67.2397 253.524 67.3775 253.997 67.0527C254.469 66.723 254.588 66.0242 254.238 65.5517L249.115 58.4355C248.721 57.9335 248.046 57.8203 247.573 58.1452Z" fill="#D5D5E0"/>
<path d="M247.573 58.1452C247.1 58.4749 246.982 59.1737 247.332 59.6462L248.036 60.6009L250.711 60.6107L249.12 58.4355C248.721 57.9335 248.046 57.8203 247.573 58.1452Z" fill="#BCBCCC"/>
<path opacity="0.15" d="M247.573 58.1452C247.056 58.4503 247.026 59.09 247.356 59.6068L252.12 66.3539L250.105 70.3352L250.854 70.7142L251.41 70.5419L253.115 67.2004C253.115 67.2004 253.43 66.4523 252.794 65.4828L252.775 65.4188L249.918 61.5802C249.548 61.0389 250.061 60.3499 250.662 60.5861L250.706 60.6107L249.115 58.4355C248.721 57.9335 248.046 57.8203 247.573 58.1452Z" fill="#73737F"/>
<path d="M261.715 66.4179C261.715 66.4179 262.627 62.6728 265.262 60.473L262.129 58.4995L258.484 64.6068L261.715 66.4179Z" fill="#73737F"/>
<path opacity="0.15" d="M262.405 58.7111L262.105 58.5388L260.331 61.5113L258.464 64.6462L260.711 65.8863L261.691 66.4523L269.563 71.7624C269.774 71.8854 270.016 71.969 270.296 71.969C270.405 71.9789 270.513 71.9838 270.602 72.033L271.03 72.2791C271.03 72.2791 271.075 72.3037 271.094 72.2643C271.341 72.1314 271.572 71.8312 271.715 71.5852C271.395 71.9444 270.617 71.6098 271.07 71.3194C271.518 71.034 271.503 70.473 271.503 70.473L271.528 70.4336C271.508 70.3696 271.425 70.3204 271.38 70.2958C271.38 70.2958 271.208 70.1974 270.912 70.0251C270.957 70.0497 270.932 70.0891 270.976 70.1137C271.36 70.3352 271.464 70.9454 270.582 71.0931C269.7 71.2407 261.913 65.9798 262.046 64.9611C262.075 64.8135 262.1 64.6658 262.174 64.5428C262.287 64.4444 262.4 64.346 262.513 64.2475C262.563 64.1639 262.627 64.1491 262.676 64.0654C262.834 63.9916 263.031 63.9424 263.139 63.9522C263.011 63.8784 262.883 63.8046 262.799 63.7554C262.967 63.47 263.154 63.1402 263.371 62.7711L263.454 62.8203L263.479 62.781L263.454 62.8203C265.76 64.154 272.178 68.7308 272.223 68.7554C272.306 68.8046 272.42 68.8145 272.484 68.7948C272.548 68.7751 272.592 68.8046 272.636 68.8293L273.129 69.0606C273.129 69.0606 273.173 69.0852 273.198 69.0458C273.223 69.0064 273.316 68.8391 273.454 68.7013C273.08 68.7604 272.725 68.3913 273.06 68.1993C273.508 67.9139 273.39 67.1314 273.39 67.1314C273.346 67.1068 273.331 67.0428 273.287 67.0182C273.144 66.7721 272.957 66.6048 272.74 66.4818L272.695 66.4572C273.351 66.9985 273.099 67.7318 272.651 68.0172C272.109 68.3617 265.44 63.1452 263.711 62.092C263.385 61.467 263.568 60.8617 263.568 60.8617C262.356 64.0507 260.824 63.9326 260.287 63.1845C259.696 62.5152 261.913 59.3607 262.405 58.7111Z" fill="#73737F"/>
<path d="M248.795 54.2524L248.627 54.5378L248.534 54.7002L248.366 54.9857L248.164 58.593L250.681 60.6501L258.484 64.6019L260.257 61.6294L260.351 61.467L262.124 58.4945L254.893 53.5536L251.859 52.2937L248.795 54.2524Z" fill="#D5D5E0"/>
<path opacity="0.15" d="M254.248 53.2976C253.346 53.3813 252.233 53.7258 251.327 54.5132C251.43 54.1343 251.534 53.7553 251.553 53.3321C251.593 52.4758 251.095 52.2494 250.548 52.3134L248.78 54.1933L248.612 54.4788L248.519 54.6412L248.351 54.9266L247.085 58.7947L258.509 64.5674L259.405 63.1156L250.425 59.031C250.479 58.2435 250.765 57.2593 251.381 56.1914C252.465 54.4099 253.79 53.6963 254.701 53.401L254.657 53.3764L254.248 53.2976ZM249.731 58.8439C249.731 58.8439 249.189 58.6963 249.371 58.0861C249.401 57.9384 249.543 57.6924 249.775 57.3872C249.667 57.8745 249.711 58.3961 249.731 58.8439Z" fill="#73737F"/>
<path d="M251.351 54.469L255.75 57.1167L251.351 54.469Z" fill="#EDEDF4"/>
<path d="M257.139 56.8804L261.065 60.2416L257.139 56.8804Z" fill="#EDEDF4"/>
<path d="M254.701 60.9995L259.548 62.8647L254.701 60.9995Z" fill="#EDEDF4"/>
<path d="M249.814 57.0278L254.213 59.6755L249.814 57.0278Z" fill="#EDEDF4"/>
<path d="M254.188 59.6116L255.464 63.027L254.188 59.6116Z" fill="#EDEDF4"/>
<path d="M248.795 54.2525L248.627 54.5379L248.534 54.7003L248.484 54.784L248.366 54.9907L247.1 58.8588L250.681 60.6502C250.681 60.6502 249.617 58.9425 251.208 56.1915C252.883 53.4897 254.873 53.5979 254.873 53.5979L251.578 51.3145L248.795 54.2525Z" fill="#BCBCCC"/>
<path opacity="0.15" d="M250.262 59.2081L249.726 58.9522C249.726 58.9522 249.144 58.6716 249.327 58.0663C249.509 57.4561 251.459 55.3547 251.528 53.3714C251.568 52.5151 251.07 52.2887 250.524 52.3527L248.755 54.2326L248.588 54.5181L248.494 54.6805L248.445 54.7641L248.327 54.9708L247.061 58.839L250.642 60.6303C250.681 60.6549 250.356 60.1333 250.262 59.2081Z" fill="#73737F"/>
<path opacity="0.15" d="M251.145 56.1027C249.554 58.8537 250.706 60.6106 250.706 60.6106C250.706 60.6106 249.642 58.9029 251.228 56.1519C252.903 53.4501 254.893 53.5584 254.893 53.5584C254.893 53.5584 252.795 53.4403 251.145 56.1027Z" fill="#73737F"/>
<path d="M250.726 55.7485C251.603 54.2278 251.888 52.7514 251.287 52.4069C250.691 52.0625 249.534 52.9827 248.613 54.4739C247.736 55.9946 247.45 57.471 248.051 57.8155C248.647 58.1649 249.869 57.2298 250.726 55.7485Z" fill="#EDEDF4"/>
<path opacity="0.15" d="M250.918 55.3154C250.918 55.3154 249.46 58.032 248.169 57.5054C247.568 57.2642 247.977 55.8617 248.608 54.4739L248.583 54.5132C247.706 56.0339 247.445 57.4709 248.022 57.8548C248.618 58.1993 249.78 57.279 250.657 55.7633C250.751 55.6009 250.849 55.4384 250.918 55.3154Z" fill="#73737F"/>
<path d="M250.509 55.6255C251.292 54.2721 251.548 52.9384 250.992 52.6185C250.48 52.3233 249.371 53.1599 248.588 54.5132C247.805 55.8666 247.549 57.2003 248.105 57.5202C248.618 57.8204 249.726 56.9788 250.509 55.6255Z" fill="white"/>
<path d="M250.509 55.6255C251.292 54.2721 251.523 52.9827 251.011 52.6875C250.499 52.3922 249.455 53.214 248.627 54.5428C247.844 55.8962 247.612 57.1855 248.125 57.4808C248.642 57.7761 249.706 56.9149 250.509 55.6255Z" fill="#BCBCCC"/>
<path d="M250.509 55.6255C251.243 54.3508 251.519 53.0861 251.051 52.8154C250.583 52.5447 249.603 53.3469 248.8 54.6363C248.066 55.9109 247.79 57.1757 248.258 57.4463C248.731 57.7219 249.731 56.8755 250.509 55.6255Z" fill="#73737F"/>
<path d="M248.095 56.2553C248.051 56.2307 248.204 55.7681 248.524 55.5171C248.248 55.7976 248.095 56.2553 248.095 56.2553Z" fill="#8F8F99"/>
<path d="M249.913 53.2041C249.913 53.2041 249.593 53.5634 249.484 53.9423L249.44 53.9177C249.548 53.5387 249.913 53.2041 249.913 53.2041Z" fill="#8F8F99"/>
<path opacity="0.15" d="M248.632 54.4344C249.312 53.4551 250.125 52.9384 250.549 53.1844C251.016 53.4551 250.81 54.7051 250.076 55.9748C249.765 56.5063 249.396 56.9541 249.056 57.2494C249.529 56.9197 250.036 56.339 250.465 55.6008C251.248 54.2474 251.48 52.958 250.992 52.6185C250.48 52.3232 249.435 53.1451 248.632 54.4344Z" fill="#73737F"/>
<path d="M248.691 53.1548L247.44 55.2217L248.765 55.9845L250.016 53.9176L248.691 53.1548Z" fill="#73737F"/>
<g opacity="0.15">
<path opacity="0.15" d="M249.607 54.7203C249.632 54.6809 249.682 54.5971 249.706 54.4492C249.642 54.4689 249.637 54.5724 249.607 54.7203Z" fill="#73737F"/>
</g>
<path d="M248.396 54.3507C248.726 53.7749 248.883 53.2089 248.755 53.1351C248.583 53.0367 248.194 53.4156 247.839 54.0308C247.509 54.6066 247.351 55.1725 247.479 55.2464C247.608 55.3202 248.021 54.9019 248.396 54.3507Z" fill="#8F8F99"/>
<path d="M248.356 54.3262C248.667 53.7947 248.8 53.2681 248.672 53.1943C248.543 53.1204 248.154 53.4994 247.805 54.0063C247.494 54.5378 247.361 55.0644 247.489 55.1382C247.657 55.2366 248.002 54.838 248.356 54.3262Z" fill="#73737F"/>
<path d="M248.469 53.2435L245.671 51.5752L245.164 53.6372L247.405 54.9857L247.617 55.1087C247.799 54.9955 248.07 54.715 248.287 54.3459C248.524 53.9374 248.671 53.5831 248.681 53.3665L248.469 53.2435Z" fill="#69DDAE"/>
<path d="M246.622 53.8735C246.622 53.8735 248.607 53.1009 248.721 51.0339C248.834 48.962 247.46 46.3095 243.056 44.3705C238.647 42.4315 233.839 47.2101 236.553 51.6786C239.78 56.9346 246.622 53.8735 246.622 53.8735Z" fill="#75F1C1"/>
<path d="M244.613 45.2168C247.583 46.9835 248.519 49.1145 248.416 50.8615C248.327 52.8891 246.366 53.6224 246.366 53.6224C246.366 53.6224 239.706 56.5702 236.559 51.4669C235.475 49.6903 235.598 47.8989 236.406 46.5062C235.51 47.958 235.317 49.8724 236.485 51.6982C239.716 56.9541 246.554 53.898 246.554 53.898C246.554 53.898 248.539 53.1253 248.652 51.0584C248.815 49.2867 247.775 47.0426 244.613 45.2168Z" fill="#69DDAE"/>
<path opacity="0.42" d="M243.839 52.8694C244.81 52.771 245.514 52.141 245.416 51.4225C245.317 50.7089 244.485 50.1725 243.514 50.2709C242.544 50.3694 241.839 50.9993 241.938 51.7178C242.041 52.4363 242.869 52.9678 243.839 52.8694Z" fill="#A7A9CA"/>
<path opacity="0.42" d="M246.642 49.4C247.312 49.1293 247.573 48.1844 247.174 47.2986C246.775 46.4128 245.923 45.9157 245.253 46.1913C244.583 46.462 244.322 47.4069 244.721 48.2927C245.075 49.149 245.933 49.646 246.642 49.4Z" fill="#A7A9CA"/>
<path d="M243.869 52.7219C244.839 52.6235 245.543 51.9936 245.445 51.2751C245.346 50.5615 244.514 50.0251 243.544 50.1235C242.573 50.2219 241.869 50.8518 241.967 51.5703C242.026 52.2643 242.923 52.781 243.869 52.7219Z" fill="white"/>
<path opacity="0.16" d="M244.721 50.2613C245.061 50.4582 245.317 50.7141 245.341 51.0586C245.42 51.7082 244.829 52.2397 243.992 52.3086C243.154 52.3726 242.386 51.9296 242.347 51.3046C242.268 50.655 242.859 50.1235 243.696 50.0546C243.874 50.0448 244.046 50.0399 244.199 50.0694C244.002 50.0103 243.785 49.9956 243.544 50.0202C242.573 50.1186 241.869 50.7485 241.967 51.467C242.066 52.1806 242.898 52.717 243.869 52.6186C244.839 52.5202 245.543 51.8903 245.445 51.1718C245.42 50.8273 245.149 50.5074 244.721 50.2613Z" fill="#A7A9CA"/>
<path d="M246.627 49.2278C247.297 48.9572 247.558 48.0123 247.159 47.1264C246.76 46.2406 245.903 45.7436 245.238 46.0142C244.568 46.2849 244.307 47.2298 244.706 48.1156C245.105 49.0015 245.957 49.4985 246.627 49.2278Z" fill="white"/>
<path d="M241.307 51.1373C241.307 51.1373 241.199 50.6353 241.608 49.7248C242.021 48.8144 240.539 49.1097 240.401 50.2317C240.312 51.3833 241.386 51.7869 241.307 51.1373Z" fill="#3CAF8E"/>
<path d="M244.701 45.2662C244.701 45.2662 244.174 45.2908 243.381 45.8715C242.588 46.4522 242.563 45.0152 243.657 44.6067C244.721 44.2376 245.336 45.2514 244.701 45.2662Z" fill="#3CAF8E"/>
<path opacity="0.42" d="M240.529 50.906C240.529 50.906 240.697 51.6048 241.244 51.6441C241.746 51.6589 241.253 50.9355 241.702 50.1579C242.15 49.3803 241.746 49.09 241.347 49.1884C241.347 49.1884 241.633 49.1884 241.46 49.5821C241.288 49.9758 241.027 50.5319 241.115 50.9699C241.14 51.4227 240.603 51.1717 240.529 50.906Z" fill="#A7A9CA"/>
<path opacity="0.42" d="M242.928 45.1726C242.928 45.1726 242.81 45.3793 242.908 45.6008C243.076 45.8075 243.78 45.1726 244.268 45.1234C244.75 45.0742 244.864 44.9758 244.741 44.7937C244.741 44.7937 244.992 45.0496 244.829 45.2268L244.672 45.3006L244.755 45.3498C244.755 45.3498 244.184 45.3498 243.588 45.9896C243.041 46.5555 242.455 45.9945 242.928 45.1726Z" fill="#A7A9CA"/>
<path opacity="0.16" d="M246.716 48.7798C246.135 48.9914 245.366 48.5485 245.051 47.8202C244.691 47.0623 244.878 46.2404 245.484 45.9894C245.573 45.9304 245.681 45.9402 245.795 45.9501C245.617 45.9599 245.445 45.9648 245.243 46.014C244.573 46.2847 244.312 47.2296 244.711 48.1154C245.11 49.0013 245.967 49.4983 246.637 49.2276C247.282 48.9963 247.494 48.1351 247.223 47.3231C247.405 47.9776 247.203 48.6273 246.716 48.7798Z" fill="#A7A9CA"/>
<path d="M247.026 50.6055C246.79 51.014 246.45 51.3093 246.312 51.452C246.287 51.4914 246.243 51.4668 246.204 51.4422C246.159 51.4176 246.184 51.3782 246.209 51.3339C246.347 51.1961 246.736 50.8172 246.972 50.4038C246.997 50.3644 246.997 50.3644 247.041 50.389C247.085 50.4136 247.061 50.453 247.061 50.453C247.076 50.5219 247.051 50.5662 247.026 50.6055Z" fill="#3CAF8E"/>
<path d="M251.11 52.9089C250.913 52.9581 250.612 53.278 250.361 53.5192C250.11 53.7554 249.903 54.0211 249.75 53.9867C249.642 53.9769 249.405 53.8981 249.13 53.6816C248.918 53.5585 248.726 53.3961 248.726 53.3961L248.75 53.3568C248.75 53.3568 249.474 53.8834 249.799 53.908C249.952 53.9424 250.159 53.6767 250.41 53.4404C250.593 53.2091 250.868 52.9335 251.11 52.9089Z" fill="#8F8F99"/>
<path d="M251.07 54.3607C250.858 54.2377 250.435 54.3755 250.08 54.4985C249.858 54.5871 249.656 54.6363 249.548 54.6314C249.312 54.5477 248.563 54.0654 248.523 54.0408L248.548 54.0015C248.548 54.0015 249.336 54.5133 249.573 54.592C249.656 54.6412 249.883 54.5527 250.105 54.4591C250.435 54.3755 250.853 54.2377 251.07 54.3607Z" fill="#8F8F99"/>
<path d="M249.351 57.0377C249.056 56.7572 249.08 56.2257 249.1 55.7975C249.11 55.5859 249.139 55.4383 249.075 55.3448C248.952 55.1627 248.051 54.7542 248.051 54.7542L248.075 54.7148C248.12 54.7395 249.021 55.1528 249.1 55.3054C249.12 55.3694 249.134 55.5416 249.125 55.7582C249.105 56.1863 249.08 56.7178 249.351 57.0377Z" fill="#8F8F99"/>
<path d="M248.154 57.333C247.987 57.1263 248.253 56.5702 248.381 56.1519C248.435 55.9649 248.553 55.7582 248.534 55.6942C248.475 55.6057 247.874 55.2562 247.593 55.1529L247.617 55.1135C247.617 55.1135 247.829 55.2366 248.046 55.3596C248.174 55.4334 248.475 55.6057 248.534 55.6942C248.553 55.7582 248.479 55.8812 248.381 56.1519C248.297 56.5948 248.031 57.1509 248.154 57.333Z" fill="#8F8F99"/>
<path d="M249.44 55.0103C249.391 55.094 249.346 55.1727 249.322 55.217C249.115 55.4778 248.933 55.596 248.933 55.596L248.888 55.5713C248.888 55.5713 249.07 55.4582 249.277 55.1924C249.465 54.9709 249.676 54.6019 249.701 54.0654C249.706 54.4493 249.583 54.7643 249.44 55.0103Z" fill="#8F8F99"/>
<path d="M258.888 48.9128C259.425 48.6766 259.814 48.2976 259.691 48.1155C259.592 47.8941 259.085 47.9827 258.548 48.2238C258.011 48.46 257.622 48.839 257.745 49.0211C257.868 49.1982 258.356 49.149 258.888 48.9128Z" fill="#EDEDF4"/>
<path d="M258.873 48.8438C259.341 48.6224 259.686 48.3271 259.583 48.1056C259.504 47.9482 259.041 47.958 258.548 48.2188C258.08 48.4403 257.735 48.7356 257.834 48.957C257.918 49.1145 258.4 49.0653 258.873 48.8438Z" fill="#BCBCCC"/>
<path d="M259.169 47.5398L257.671 48.2632L257.952 48.8636L258.031 49.0211C258.228 49.0802 258.558 48.9965 258.893 48.8095C259.228 48.6225 259.499 48.4502 259.597 48.2829L259.455 48.0368L259.169 47.5398Z" fill="#73737F"/>
<path opacity="0.15" d="M258.858 48.6716C258.514 48.583 258.272 48.1106 258.272 48.1106L258.322 47.9236L257.627 48.2336L257.908 48.834L257.987 48.9915C258.184 49.0506 258.514 48.9669 258.849 48.7799C259.184 48.5929 259.455 48.4206 259.548 48.2533L259.425 48.0712C259.459 48.4206 259.159 48.7405 258.858 48.6716Z" fill="#73737F"/>
<path d="M258.528 48.1549C258.932 47.9482 259.208 47.6726 259.169 47.5397C259.09 47.3822 258.671 47.4167 258.267 47.6234C257.863 47.8301 257.587 48.1057 257.627 48.2385C257.706 48.3911 258.124 48.3616 258.528 48.1549Z" fill="#8F8F99"/>
<path d="M258.139 49.0261C258.085 48.7209 257.863 48.3174 257.863 48.3174C257.908 48.3469 258.129 48.7455 258.139 49.0261Z" fill="#8F8F99"/>
<path d="M258.489 49.0111C258.435 48.7059 258.188 48.3467 258.188 48.3467C258.188 48.3467 258.248 48.4353 258.331 48.5927C258.395 48.6813 258.479 48.8388 258.489 49.0111Z" fill="#8F8F99"/>
<path d="M258.873 48.8438C258.829 48.8192 258.612 48.3073 258.528 48.1548C258.607 48.3123 258.873 48.8438 258.873 48.8438Z" fill="#8F8F99"/>
<path d="M259.297 48.5979C259.297 48.5979 259.006 48.214 258.932 47.9482C259.031 48.1746 259.297 48.5979 259.297 48.5979Z" fill="#8F8F99"/>
<path d="M259.508 48.3368C259.508 48.3368 259.282 48.0415 259.1 47.6626C259.321 48.0661 259.508 48.3368 259.508 48.3368Z" fill="#8F8F99"/>
<path d="M258.721 46.8408L257.504 47.0721L257.701 48.1154C257.701 48.1154 257.676 48.1548 257.721 48.1794C257.76 48.3123 258.134 48.2532 258.514 48.0908C258.893 47.9284 259.144 47.6873 259.065 47.5347L258.721 46.8408Z" fill="#75F1C1"/>
<path d="M258.45 47.0132C258.44 48.214 257.322 48.278 256.696 47.9729C256.075 47.6678 255.859 48.0368 255.248 48.0122C254.637 47.9876 254.75 47.3971 254.75 47.3971C255.169 46.3784 256.529 46.7819 256.529 46.7819C256.529 46.7819 254.051 44.8577 254.676 43.5782C255.302 42.2986 256.376 42.3134 256.455 42.963C256.538 43.6126 255.489 44.0457 255.489 44.0457C255.489 44.0457 256.292 45.2219 257.041 45.6008C257.041 45.6008 256.829 44.9856 257.346 44.5723C257.864 44.1589 259.519 44.4591 259.74 45.463C259.957 46.467 258.785 46.7179 258.583 45.3941C258.583 45.3941 258.041 45.2465 257.844 45.2957C257.844 45.2957 259.671 46.5703 258.45 47.0132Z" fill="#75F1C1"/>
<path d="M259.075 45.7336C258.888 45.4629 258.755 45.0003 258.341 45.0348C257.967 45.0938 257.849 45.2956 257.849 45.2956C258.07 45.207 258.588 45.394 258.588 45.394C258.794 46.6096 259.834 46.4964 259.78 45.6992C259.76 46.019 259.321 46.0929 259.075 45.7336Z" fill="#69DDAE"/>
<path d="M256.76 47.5742C255.987 47.2346 255.346 47.8547 255.056 47.4659C254.952 47.3528 254.977 47.2051 255.026 47.1215C254.913 47.2199 254.864 47.3035 254.834 47.4512C254.834 47.4512 254.721 48.0417 255.332 48.0663C255.942 48.0909 256.159 47.7218 256.78 48.027C257.4 48.3321 258.479 48.2386 258.509 47.1067C258.193 47.8498 257.489 47.8843 256.76 47.5742Z" fill="#69DDAE"/>
<path d="M254.805 44.1441C254.76 43.6273 254.908 43.273 255.076 42.9875C254.913 43.1696 254.755 43.3468 254.652 43.6175C254.051 44.8576 256.317 46.6588 256.504 46.8213C256.548 46.8508 254.933 45.2071 254.805 44.1441Z" fill="#69DDAE"/>
<path d="M258.509 47.1066C258.484 47.146 258.44 47.1214 258.464 47.082C258.223 46.6145 257.356 46.334 257.356 46.334C257.312 46.3093 257.312 46.3093 257.336 46.27C257.361 46.2306 257.361 46.2306 257.405 46.2552C257.405 46.2552 257.642 46.3389 257.898 46.4865C258.238 46.6834 258.474 46.8704 258.597 47.0525C258.533 47.0623 258.509 47.1066 258.509 47.1066Z" fill="#3CAF8E"/>
<path d="M252.391 56.7131L252.061 56.6885L253.164 58.529L253.331 58.2436L252.391 56.7131Z" fill="white"/>
<path d="M253.706 57.6874L254.228 56.7868L252.607 56.7278L253.4 58.1156L253.568 57.8302L253.12 57.0231L253.731 57.0477L253.538 57.3774L253.706 57.6874Z" fill="white"/>
<path d="M252.105 56.7129L253.208 58.5535L253.351 58.3074L252.435 56.7375L252.105 56.7129Z" fill="#BCBCCC"/>
<path d="M253.706 57.6874L254.228 56.7868L252.607 56.7278L253.4 58.1156L253.568 57.8302L253.12 57.0231L253.731 57.0477L253.538 57.3774L253.706 57.6874Z" fill="#BCBCCC"/>
<path d="M252.149 56.7375L253.189 58.4895L253.307 58.2828L252.435 56.7375H252.149Z" fill="white"/>
<path d="M253.425 58.0763L252.651 56.7524L254.159 56.8017L253.686 57.6235L253.543 57.3774L253.755 57.0083L253.075 56.9985L253.563 57.8302L253.425 58.0763Z" fill="white"/>
<path d="M249.716 70.7142C249.716 70.7142 247.499 70.3106 246.046 70.4582C244.593 70.6059 244.13 71.7083 244.573 72.1266C245.016 72.5449 246.041 72.1512 246.075 71.2998C246.075 71.2998 247.499 71.2998 248.637 71.9002C248.637 71.9002 246.144 72.2693 245.898 73.3864C245.672 74.5675 247.194 74.7939 246.878 73.4602C246.878 73.4602 247.45 72.9681 248.425 73.1502C249.405 73.3323 250.297 73.9573 250.612 73.2092C250.681 73.0862 250.666 72.914 250.676 72.6974C250.676 72.6974 250.676 72.6974 250.701 72.6581C250.834 72.6236 251.016 72.5104 251.09 72.2791C251.218 71.8608 250.923 71.5803 250.78 70.8421C250.839 70.4386 251.011 70.0449 251.243 69.7397C251.947 68.8244 249.085 69.0409 249.716 70.7142Z" fill="#75F1C1"/>
<path d="M249.967 69.9859C249.691 70.7585 250.046 71.2359 250.046 71.2359C250.046 71.2359 248.618 70.8471 246.913 70.7388C245.209 70.6306 244.45 71.4524 244.844 71.9544C244.967 72.1365 245.096 72.2103 245.273 72.2005C245.672 72.102 246.061 71.7231 246.061 71.231C246.061 71.231 247.485 71.231 248.622 71.8314C248.622 71.8314 248.578 71.8067 248.514 71.8215L248.558 71.8461C248.558 71.8461 246.657 72.2792 246.199 73.165C245.987 73.5341 245.972 73.854 246.007 74.0902C246.317 74.543 247.091 74.3855 246.849 73.4259C246.849 73.4259 247.421 72.9337 248.396 73.1158C249.223 73.2635 249.948 73.6818 250.376 73.4357C250.632 73.0912 250.411 72.6877 250.706 72.3678C250.933 72.1709 250.844 71.7329 250.795 71.3245C250.755 71.1916 250.721 71.0636 250.662 70.8668C250.696 70.6109 250.795 70.3402 250.913 70.1335C251.332 69.2919 250.282 69.2378 249.967 69.9859Z" fill="#69DDAE"/>
<path opacity="0.15" d="M249.538 54.8478C249.489 54.9315 249.381 54.9217 249.297 54.8725L248.401 54.3557C248.071 54.9315 247.681 55.3055 247.484 55.2514L248.125 55.6205C247.903 56.2012 247.834 56.713 247.908 57.0821C248.021 56.9837 248.061 57.1166 248.08 57.1805C248.007 56.9197 248.021 56.4916 248.199 55.9896C248.002 56.5309 247.982 56.9591 248.1 57.2445C248.1 57.2445 248.061 56.6195 248.617 55.9551C249.071 56.1618 249.381 55.5221 249.337 55.4975C249.292 55.4728 249.046 55.6057 249.322 55.3252C249.46 55.1874 249.578 54.9807 249.632 54.7937C249.583 54.7642 249.558 54.8036 249.538 54.8478ZM248.199 55.8813L248.174 55.9207L248.199 55.8813ZM248.248 55.6894C248.223 55.7288 248.179 55.8124 248.194 55.8764C248.223 55.837 248.228 55.7337 248.248 55.6894Z" fill="#73737F"/>
<path opacity="0.15" d="M254.149 60.0791C254.366 60.0939 254.548 59.9807 254.622 59.7494C254.632 59.5378 254.509 59.3557 254.272 59.272C254.055 59.2573 253.873 59.3705 253.799 59.6018C253.789 59.8183 253.927 60.0644 254.149 60.0791Z" fill="#73737F"/>
<path d="M254.174 60.0398C254.39 60.0545 254.573 59.9413 254.622 59.7543C254.676 59.5673 254.509 59.3606 254.312 59.3016C254.095 59.2868 253.913 59.4 253.858 59.587C253.809 59.774 253.952 60.0201 254.174 60.0398Z" fill="#EDEDF4"/>
<g opacity="0.15">
<path opacity="0.15" d="M254.489 59.784C254.445 59.7594 254.425 59.6954 254.425 59.6954C254.401 59.7348 254.401 59.7348 254.376 59.7791C254.307 59.9021 254.105 59.9513 253.977 59.8775C253.893 59.8283 253.874 59.7643 253.854 59.6954L253.849 59.8037L253.805 59.7791C253.824 59.843 253.883 59.9365 253.972 59.9858C254.145 60.0842 254.386 60.0596 254.504 59.8529C254.553 59.7692 254.534 59.7052 254.578 59.6216C254.578 59.7299 254.534 59.8086 254.489 59.784Z" fill="#73737F"/>
</g>
<path d="M254.134 59.9069C254.287 59.9413 254.4 59.8429 254.43 59.6952C254.46 59.5476 254.356 59.4295 254.203 59.4C254.051 59.3655 253.937 59.4639 253.908 59.6116C253.878 59.7592 253.982 59.8724 254.134 59.9069Z" fill="white"/>
<path d="M254.09 59.8824C254.243 59.9169 254.356 59.8185 254.385 59.6708C254.415 59.5232 254.312 59.41 254.159 59.3755C254.006 59.3411 253.893 59.4395 253.863 59.5872C253.903 59.72 253.981 59.8726 254.09 59.8824Z" fill="#57DCEA"/>
<path d="M254.09 59.8824C254.243 59.9169 254.356 59.8185 254.385 59.6708C254.415 59.5232 254.312 59.41 254.159 59.3755C254.006 59.3411 253.893 59.4395 253.863 59.5872C253.903 59.72 253.981 59.8726 254.09 59.8824Z" fill="#BCBCCC"/>
<path d="M254.159 59.8676C254.267 59.8775 254.425 59.8037 254.43 59.6954C254.435 59.5871 254.356 59.4296 254.243 59.4247C254.134 59.4149 253.977 59.4887 253.972 59.597C253.942 59.7446 254.051 59.8578 254.159 59.8676Z" fill="#F2F2F2"/>
<path d="M254.139 59.7986C254.248 59.8084 254.341 59.7494 254.341 59.6411C254.346 59.5328 254.287 59.4443 254.174 59.4344C254.066 59.4246 253.977 59.4836 253.972 59.5919C253.967 59.7002 254.031 59.7937 254.139 59.7986Z" fill="white"/>
<path opacity="0.54" d="M254.194 59.5036C254.239 59.5282 254.214 59.5676 254.165 59.6514C254.115 59.7352 254.051 59.75 254.007 59.7254C253.962 59.7007 253.967 59.5923 253.992 59.5529C254.11 59.4543 254.179 59.4395 254.194 59.5036Z" fill="white"/>
<path opacity="0.54" d="M254.248 59.8087C254.203 59.784 254.228 59.7444 254.272 59.7691C254.297 59.7296 254.297 59.7296 254.341 59.7543C254.386 59.779 254.361 59.8186 254.336 59.863C254.317 59.7938 254.292 59.8334 254.248 59.8087Z" fill="white"/>
<path opacity="0.15" d="M254.711 61.2799C254.863 61.3144 254.977 61.2159 255.006 61.0683C255.036 60.9206 254.932 60.8075 254.78 60.773C254.627 60.7386 254.514 60.837 254.484 60.9846C254.454 61.1323 254.558 61.2455 254.711 61.2799Z" fill="#73737F"/>
<path d="M254.666 61.2553C254.775 61.2652 254.932 61.1913 254.937 61.0831C254.942 60.9748 254.858 60.8222 254.75 60.8124C254.642 60.8026 254.484 60.8764 254.479 60.9846C254.474 61.088 254.558 61.2455 254.666 61.2553Z" fill="#EDEDF4"/>
<g opacity="0.15">
<path opacity="0.15" d="M254.869 61.0978C254.824 61.0732 254.849 61.0339 254.849 61.0339L254.869 61.0978C254.755 61.1963 254.686 61.211 254.603 61.1618C254.558 61.1372 254.519 61.1126 254.499 61.0486C254.499 61.0486 254.519 61.1126 254.475 61.088C254.475 61.088 254.475 61.088 254.43 61.0634C254.45 61.1274 254.489 61.152 254.534 61.1766C254.667 61.2553 254.8 61.2209 254.869 61.0978C254.893 61.0585 254.918 61.0142 254.898 60.9502C254.962 61.0437 254.913 61.1224 254.869 61.0978Z" fill="#73737F"/>
</g>
<path opacity="0.15" d="M254.573 60.9256C254.524 61.0092 254.543 61.0732 254.632 61.1224C254.588 61.0978 254.568 61.0338 254.573 60.9256C254.637 60.9108 254.706 60.8911 254.789 60.9403C254.873 60.9895 254.893 61.0535 254.849 61.1372C254.898 61.0535 254.878 60.9895 254.789 60.9403C254.686 60.8271 254.617 60.8419 254.573 60.9256Z" fill="#73737F"/>
<path d="M259.252 56.5654L255.637 57.1068L259.252 56.5654Z" fill="#EDEDF4"/>
<path opacity="0.15" d="M255.686 57.52C255.903 57.5348 256.085 57.4216 256.159 57.1903C256.169 56.9787 256.046 56.7966 255.809 56.7129C255.593 56.6982 255.41 56.8114 255.336 57.0427C255.327 57.2543 255.489 57.461 255.686 57.52Z" fill="#73737F"/>
<path d="M255.666 57.4511C255.883 57.4659 256.065 57.3527 256.12 57.1657C256.129 56.9541 256.006 56.772 255.809 56.713C255.592 56.6982 255.41 56.8114 255.356 56.9984C255.346 57.2149 255.469 57.397 255.666 57.4511Z" fill="#EDEDF4"/>
<g opacity="0.15">
<path opacity="0.15" d="M256.026 57.2249C255.982 57.2003 255.967 57.1363 255.967 57.1363C255.942 57.1757 255.942 57.1757 255.918 57.22C255.849 57.343 255.647 57.3922 255.519 57.3184C255.435 57.2692 255.415 57.2052 255.395 57.1363L255.391 57.2446L255.346 57.22C255.366 57.284 255.425 57.3775 255.514 57.4267C255.686 57.5251 255.927 57.5005 256.046 57.2938C256.095 57.2101 256.075 57.1462 256.12 57.0625C256.115 57.1658 256.07 57.2495 256.026 57.2249Z" fill="#73737F"/>
</g>
<path d="M255.627 57.3185C255.78 57.3529 255.893 57.2545 255.923 57.1069C255.952 56.9592 255.849 56.846 255.696 56.8116C255.543 56.7771 255.43 56.8756 255.401 57.0232C255.396 57.1315 255.519 57.3135 255.627 57.3185Z" fill="white"/>
<path d="M255.651 57.2789C255.804 57.3134 255.917 57.2149 255.947 57.0673C255.976 56.9197 255.873 56.8065 255.72 56.772C255.568 56.7376 255.454 56.836 255.425 56.9836C255.44 57.1559 255.543 57.2691 255.651 57.2789Z" fill="#57DCEA"/>
<path d="M255.651 57.2789C255.804 57.3134 255.917 57.2149 255.947 57.0673C255.976 56.9197 255.873 56.8065 255.72 56.772C255.568 56.7376 255.454 56.836 255.425 56.9836C255.44 57.1559 255.543 57.2691 255.651 57.2789Z" fill="#BCBCCC"/>
<path d="M255.696 57.3037C255.805 57.3135 255.962 57.2397 255.967 57.1314C255.972 57.0231 255.893 56.8706 255.78 56.8607C255.667 56.8509 255.514 56.9247 255.509 57.033C255.479 57.1806 255.543 57.2692 255.696 57.3037Z" fill="#F2F2F2"/>
<path d="M255.677 57.2395C255.785 57.2494 255.874 57.1903 255.878 57.082C255.883 56.9738 255.819 56.8852 255.711 56.8753C255.603 56.8655 255.514 56.9245 255.509 57.0328C255.504 57.1411 255.568 57.2297 255.677 57.2395Z" fill="white"/>
<path opacity="0.54" d="M255.755 56.9001C255.8 56.9247 255.775 56.9641 255.726 57.0479C255.676 57.1317 255.612 57.1465 255.568 57.1219C255.523 57.0972 255.528 56.9888 255.553 56.9494C255.602 56.8705 255.716 56.8754 255.755 56.9001Z" fill="white"/>
<path opacity="0.54" d="M255.785 57.2496C255.74 57.2249 255.765 57.1853 255.809 57.2101C255.834 57.1705 255.834 57.1705 255.878 57.1952C255.923 57.2199 255.898 57.2595 255.874 57.304C255.854 57.2298 255.829 57.2743 255.785 57.2496Z" fill="white"/>
<path opacity="0.15" d="M257.149 57.1559C257.302 57.1903 257.415 57.0919 257.444 56.9443C257.474 56.7966 257.371 56.6785 257.218 56.649C257.065 56.6145 256.952 56.713 256.922 56.8606C256.932 57.0328 256.996 57.1263 257.149 57.1559Z" fill="#73737F"/>
<path d="M257.149 57.156C257.257 57.1658 257.415 57.092 257.42 56.9837C257.425 56.8754 257.341 56.7229 257.233 56.713C257.124 56.7032 256.967 56.777 256.962 56.8853C256.913 56.9689 256.996 57.1264 257.149 57.156Z" fill="#EDEDF4"/>
<g opacity="0.15">
<path opacity="0.15" d="M257.351 57.0034C257.307 56.9787 257.331 56.9394 257.331 56.9394C257.331 56.9394 257.307 56.9787 257.351 57.0034C257.238 57.1018 257.169 57.1165 257.085 57.0673C257.041 57.0427 257.001 57.0181 256.982 56.9541C256.982 56.9541 257.001 57.0181 256.957 56.9935C256.957 56.9935 256.957 56.9935 256.913 56.9689C256.932 57.0329 256.972 57.0575 257.016 57.0821C257.149 57.1559 257.282 57.1264 257.351 57.0034C257.376 56.964 257.4 56.9197 257.381 56.8557C257.4 56.9197 257.351 57.0034 257.351 57.0034Z" fill="#73737F"/>
</g>
<path opacity="0.15" d="M257.011 56.8017C256.962 56.8853 256.982 56.9493 257.07 56.9985C257.026 56.9789 257.006 56.91 257.011 56.8017C257.08 56.7869 257.144 56.7672 257.228 56.8164C257.312 56.8657 257.331 56.9296 257.287 57.0133C257.336 56.9296 257.317 56.8657 257.228 56.8164C257.164 56.7279 257.056 56.7229 257.011 56.8017Z" fill="#73737F"/>
<path opacity="0.15" d="M250.662 60.5859L248.494 59.4983C248.494 59.4983 248.45 59.4737 248.425 59.5131C248.425 59.5131 248.401 59.5525 248.445 59.5771L250.159 60.458C249.77 60.3448 249.524 60.4727 249.524 60.4727L249.499 60.5121L249.543 60.5367C249.543 60.5367 249.878 60.3497 250.543 60.6794L250.588 60.704C250.588 60.704 250.632 60.7287 250.657 60.6893C250.681 60.6548 250.706 60.6105 250.662 60.5859Z" fill="#73737F"/>
<path d="M251.962 70.97L253.76 67.466C253.76 67.466 253.903 67.22 253.981 66.8853C254.036 66.5901 254.08 66.1225 253.883 65.6796C253.435 64.8725 251.124 61.1865 251.08 61.1619C251.124 61.1865 253.435 64.8774 253.883 65.6796C254.026 65.9257 254.139 66.3194 253.981 66.8853C253.903 67.22 253.76 67.466 253.76 67.466L251.962 70.97Z" fill="#EDEDF4"/>
<path d="M247.154 58.6716L247.223 58.6569C247.268 58.6815 247.292 58.6421 247.312 58.5978L247.44 58.1795C247.465 58.1401 247.42 58.1155 247.381 58.0909L247.337 58.0663C247.292 58.0417 247.228 58.0565 247.204 58.1007L247.031 58.4945C247.071 58.6224 247.09 58.6864 247.154 58.6716Z" fill="#EDEDF4"/>
<path d="M251.529 51.3981L251.548 51.462C251.593 51.4866 251.568 51.526 251.543 51.5703L251.268 51.8508C251.243 51.8902 251.204 51.8656 251.159 51.841L251.115 51.8164C251.071 51.7918 251.056 51.7278 251.075 51.6835L251.376 51.3636C251.401 51.3242 251.509 51.3292 251.529 51.3981Z" fill="#EDEDF4"/>
<path d="M261.631 58.2682L261.966 58.5733L260.622 60.8076L260.262 60.5468L259.834 61.285L259.405 62.0232L259.814 62.2053L258.464 64.4395L258.031 64.3017L257.937 64.4641L258.39 64.6708L258.691 64.8431C258.735 64.8677 258.755 64.8283 258.755 64.8283L260.528 61.8558L260.597 61.7328L262.395 58.721C262.42 58.6816 262.375 58.657 262.375 58.657L262.075 58.4848L261.695 58.155L261.631 58.2682Z" fill="#EDEDF4"/>
<path d="M260.539 60.7591L260.307 60.5664L260.539 60.7591Z" fill="#D5D5E0"/>
<path d="M262.021 58.3813L262.322 58.5535C262.366 58.5781 262.341 58.6175 262.341 58.6175L260.568 61.59L260.499 61.713L258.726 64.6855C258.701 64.7249 258.657 64.7002 258.657 64.7002L258.356 64.528L257.992 64.3705L258.445 64.5772L258.745 64.7495C258.79 64.7741 258.809 64.7347 258.809 64.7347L260.583 61.7622L260.652 61.6392L262.4 58.7061C262.425 58.6667 262.381 58.6421 262.381 58.6421L262.08 58.4699L261.701 58.1401L262.021 58.3813Z" fill="#D5D5E0"/>
<path d="M259.73 62.1513L259.405 62.0181L259.73 62.1513Z" fill="#D5D5E0"/>
<path d="M260.642 60.8714L261.986 58.6371L261.651 58.332L261.745 58.1696L261.701 58.145L261.607 58.3074L261.942 58.6125L260.642 60.8714Z" fill="white"/>
<path d="M258.08 64.3213L258.514 64.4591L259.859 62.2248L259.814 62.2002L258.465 64.4345L258.08 64.3213L257.942 64.4591L257.987 64.4837L258.08 64.3213Z" fill="white"/>
<path d="M259.878 61.3046L260.307 60.5664L260.262 60.5417L259.878 61.3046L259.41 62.0181L259.454 62.0427L259.878 61.3046Z" fill="white"/>
<path d="M273.863 67.6778C273.863 67.6778 273.818 67.6532 273.863 67.6778C273.818 67.6532 273.843 67.6138 273.587 67.4662C273.459 67.3924 273.306 67.3579 273.306 67.3579C273.306 67.3579 273.434 67.4317 273.587 67.4662C273.868 67.5745 273.887 67.6384 273.863 67.6778Z" fill="#8F8F99"/>
<path opacity="0.19" d="M261.287 41.211L256.297 51.0339C256.272 51.0733 256.208 51.093 256.164 51.0684L246.277 45.1973C246.233 45.1726 246.218 45.1087 246.238 45.0644L252.169 35.7877C252.194 35.7484 252.258 35.7287 252.302 35.7533L261.208 41.0535C261.292 41.1027 261.311 41.1667 261.287 41.211Z" fill="white"/>
<path opacity="0.27" d="M252.43 35.822L246.406 45.2659L246.277 45.1921C246.233 45.1675 246.218 45.1035 246.238 45.0593L252.169 35.7826C252.194 35.7432 252.258 35.7236 252.302 35.7482L252.43 35.822Z" fill="white"/>
<path opacity="0.05" d="M260.277 36.8458L259.016 39.1293C258.991 39.1687 258.927 39.1884 258.839 39.1391L252.563 35.4088C252.519 35.3842 252.46 35.2956 252.484 35.2513L253.923 32.958C253.947 32.9186 254.011 32.8989 254.1 32.9481L260.08 36.5062C260.282 36.6342 260.321 36.7622 260.277 36.8458Z" fill="white"/>
<path opacity="0.05" d="M260.923 41.5456L259.1 45.0939L250.194 39.7936L252.361 36.3389L260.844 41.3881C260.927 41.4373 260.947 41.5062 260.923 41.5456Z" fill="white"/>
<path opacity="0.05" d="M258.548 41.216L257.548 43.0467C257.381 43.3321 257.006 43.3912 256.706 43.2189L251.494 40.1037C251.194 39.9315 251.081 39.5378 251.248 39.2474L252.425 37.4069C252.568 37.1608 252.967 37.0624 253.268 37.2346L258.243 40.1628C258.538 40.4433 258.696 40.8616 258.548 41.216Z" fill="white"/>
<path opacity="0.29" d="M254.223 33.519L253.12 35.2366C253.095 35.2759 253.095 35.2759 253.051 35.2513L253.006 35.2267C252.962 35.2021 252.962 35.2021 252.987 35.1627L254.09 33.4452C254.115 33.4058 254.159 33.4304 254.159 33.4304L254.203 33.4551C254.243 33.4747 254.223 33.519 254.223 33.519Z" fill="white"/>
<g opacity="0.46">
<path opacity="0.29" d="M254.252 34.2474L253.499 35.4531C253.499 35.4531 253.474 35.4925 253.43 35.4679C253.43 35.4679 253.386 35.4432 253.43 35.4679L254.184 34.2621C254.169 34.1982 254.213 34.2228 254.252 34.2474Z" fill="white"/>
<path opacity="0.29" d="M254.307 34.553L253.672 35.557C253.672 35.557 253.647 35.5963 253.603 35.5717C253.603 35.5717 253.558 35.5471 253.603 35.5717L254.238 34.5678C254.223 34.5038 254.263 34.5284 254.307 34.553Z" fill="white"/>
<path opacity="0.29" d="M254.74 34.1981L253.819 35.6942C253.819 35.6942 253.794 35.7336 253.75 35.709C253.75 35.709 253.706 35.6844 253.73 35.645L254.651 34.1489C254.696 34.1735 254.696 34.1735 254.74 34.1981Z" fill="white"/>
<path opacity="0.29" d="M254.952 34.3214L254.031 35.8175C254.031 35.8175 254.006 35.8569 253.962 35.8323C253.962 35.8323 253.918 35.8077 253.942 35.7683L254.863 34.2722C254.868 34.2722 254.868 34.2722 254.952 34.3214C254.908 34.2968 254.952 34.3214 254.952 34.3214Z" fill="white"/>
</g>
<path opacity="0.29" d="M258.987 41.7425L257.957 43.7208C257.933 43.7602 257.933 43.7602 257.888 43.7356L257.844 43.711C257.8 43.6864 257.824 43.647 257.824 43.647L258.854 41.6687C258.878 41.6293 258.878 41.6293 258.918 41.6539L258.962 41.6785C259.011 41.6982 258.987 41.7425 258.987 41.7425Z" fill="white"/>
<g opacity="0.46">
<path opacity="0.29" d="M259.016 42.5789L258.277 43.9569C258.277 43.9569 258.253 43.9962 258.208 43.9716C258.208 43.9716 258.164 43.947 258.189 43.9077L258.928 42.5297C258.928 42.5297 258.952 42.4903 258.996 42.5149L259.016 42.5789C259.041 42.5395 259.041 42.5395 259.016 42.5789Z" fill="white"/>
<path opacity="0.29" d="M259.11 42.9092L258.489 44.0854C258.489 44.0854 258.465 44.1248 258.421 44.1002C258.421 44.1002 258.376 44.0756 258.401 44.0362L259.021 42.86C259.021 42.86 259.046 42.8206 259.09 42.8452L259.11 42.9092C259.066 42.8846 259.11 42.9092 259.11 42.9092Z" fill="white"/>
<path opacity="0.29" d="M259.568 42.5149L258.706 44.2079C258.706 44.2079 258.681 44.2472 258.637 44.2226C258.637 44.2226 258.592 44.198 258.617 44.1587L259.479 42.4657C259.479 42.4657 259.504 42.4264 259.548 42.451L259.568 42.5149C259.548 42.446 259.568 42.5149 259.568 42.5149Z" fill="white"/>
<path opacity="0.29" d="M259.735 42.6136L258.873 44.3065C258.873 44.3065 258.849 44.3459 258.804 44.3213C258.804 44.3213 258.76 44.2967 258.785 44.2573L259.647 42.5644C259.652 42.5644 259.716 42.5447 259.735 42.6136C259.76 42.5693 259.735 42.6136 259.735 42.6136Z" fill="white"/>
</g>
<path opacity="0.05" d="M252.445 37.584L252.573 37.6578C252.701 37.7316 252.741 37.8645 252.667 37.9875L251.938 39.1539C251.869 39.2769 251.736 39.3114 251.608 39.2375L251.479 39.1637L251.411 39.2868C251.268 39.5328 251.361 39.8625 251.622 40.0102L256.745 43.0762C257.001 43.2238 257.336 43.1401 257.474 42.8941L258.381 41.2257C258.548 40.9403 258.435 40.5417 258.09 40.3448L253.154 37.4413C252.918 37.2543 252.583 37.3379 252.445 37.584Z" fill="white"/>
<g opacity="0.3">
<g opacity="0.3">
<path opacity="0.3" d="M253.75 37.7861L252.189 40.3895L253.75 37.7861Z" fill="white"/>
</g>
<g opacity="0.3">
<path opacity="0.3" d="M257.997 40.2954L256.524 42.948L257.997 40.2954Z" fill="white"/>
</g>
<g opacity="0.3">
<path opacity="0.3" d="M257.105 43.1203L251.529 39.8477L257.105 43.1203Z" fill="white"/>
</g>
<g opacity="0.3">
<path opacity="0.3" d="M257.44 42.5444L251.908 39.2964L257.44 42.5444Z" fill="white"/>
</g>
<g opacity="0.3">
<path opacity="0.3" d="M257.77 41.9688L252.283 38.7454L257.77 41.9688Z" fill="white"/>
</g>
<g opacity="0.3">
<path opacity="0.3" d="M258.061 41.3732L252.613 38.1743L258.061 41.3732Z" fill="white"/>
</g>
<g opacity="0.3">
<path opacity="0.3" d="M258.371 40.8368L252.947 37.5986L258.371 40.8368Z" fill="white"/>
</g>
</g>
<path opacity="0.19" d="M254.987 68.8834L250.263 78.1453C250.238 78.1847 250.174 78.2044 250.13 78.1798L242.554 75.1187C242.509 75.0941 242.47 75.0695 242.49 75.0301L245.317 65.0005C245.342 64.9612 245.43 64.9021 245.475 64.9267L254.903 68.726C254.952 68.7555 254.967 68.8195 254.987 68.8834Z" fill="white"/>
<path opacity="0.27" d="M245.627 64.961L242.701 75.153L242.573 75.0792C242.529 75.0546 242.489 75.03 242.509 74.9906L245.337 64.961C245.361 64.9216 245.45 64.8626 245.494 64.8872L245.627 64.961Z" fill="white"/>
<path opacity="0.05" d="M244.268 73.0468L243.652 75.099C243.603 75.1827 243.539 75.1975 243.43 75.1876L243.302 75.1138C243.219 75.0646 243.155 74.976 243.179 74.9317L243.795 72.8795C243.844 72.7959 243.933 72.7417 244.017 72.7909L244.145 72.8648C244.209 72.8451 244.273 72.9386 244.268 73.0468Z" fill="white"/>
<path opacity="0.05" d="M245.386 73.4701L244.686 75.4731C244.637 75.5568 244.573 75.5715 244.465 75.5617L244.336 75.4879C244.253 75.4387 244.189 75.3501 244.213 75.3058L244.873 73.2782C244.923 73.1945 245.011 73.1404 245.095 73.1896L245.223 73.2634C245.332 73.2733 245.366 73.4062 245.386 73.4701Z" fill="white"/>
<path opacity="0.05" d="M246.44 73.9179L245.696 75.8963C245.647 75.9799 245.583 75.9947 245.474 75.9848L245.346 75.911C245.263 75.8618 245.198 75.7732 245.223 75.7289L245.923 73.726C245.972 73.6423 246.061 73.5882 246.144 73.6374L246.272 73.7112C246.425 73.7456 246.489 73.8342 246.44 73.9179Z" fill="white"/>
<path opacity="0.05" d="M247.563 74.3461L246.775 76.2999C246.726 76.3835 246.662 76.3983 246.553 76.3885L246.425 76.3147C246.342 76.2654 246.278 76.1768 246.302 76.1326L247.046 74.1542C247.095 74.0705 247.184 74.0164 247.268 74.0656L247.396 74.1394C247.548 74.1689 247.588 74.3018 247.563 74.3461Z" fill="white"/>
<path opacity="0.05" d="M248.657 74.8137L247.829 76.7429C247.78 76.8265 247.716 76.8413 247.608 76.8314L247.479 76.7576C247.396 76.7084 247.332 76.6198 247.381 76.5362L248.169 74.5824C248.218 74.4987 248.307 74.4446 248.391 74.4938L248.519 74.5676C248.642 74.6415 248.706 74.7301 248.657 74.8137Z" fill="white"/>
<path opacity="0.05" d="M249.711 75.2564L248.815 77.2052C248.765 77.2889 248.701 77.3036 248.593 77.2938L248.465 77.22C248.381 77.1707 248.317 77.0822 248.342 77.0379L249.238 75.089C249.288 75.0054 249.376 74.9512 249.504 75.025L249.632 75.0989C249.721 75.0447 249.76 75.1727 249.711 75.2564Z" fill="white"/>
<path opacity="0.05" d="M250.834 75.6846L249.893 77.6039C249.844 77.6876 249.78 77.7024 249.672 77.6925L249.544 77.6187C249.46 77.5695 249.396 77.4809 249.42 77.4366L250.361 75.5173C250.411 75.4336 250.544 75.4041 250.627 75.4533L250.755 75.5271C250.819 75.5124 250.878 75.601 250.834 75.6846Z" fill="white"/>
<path opacity="0.05" d="M254.987 68.8835L253.401 72.0183L244.618 68.4848L245.627 64.9612L254.908 68.726C254.952 68.7555 254.967 68.8195 254.987 68.8835Z" fill="white"/>
<path opacity="0.29" d="M244.066 73.0911L243.524 74.9169C243.499 74.9563 243.499 74.9563 243.46 74.9317L243.416 74.9071C243.371 74.8825 243.371 74.8825 243.396 74.8431L243.938 73.0173C243.962 72.9779 243.962 72.9779 244.007 73.0025L244.051 73.0271L244.066 73.0911Z" fill="white"/>
<path opacity="0.29" d="M248.898 71.3392L248.086 73.3323C248.061 73.3717 248.061 73.3717 248.017 73.3471L247.972 73.3225C247.928 73.2979 247.928 73.2979 247.953 73.2585L248.765 71.2605C248.79 71.2211 248.79 71.2211 248.829 71.2457L248.874 71.2703C248.879 71.2703 248.923 71.2949 248.898 71.3392Z" fill="white"/>
<path opacity="0.29" d="M245.967 65.7583L245.248 68.1894C245.223 68.2288 245.223 68.2288 245.179 68.2042L245.135 68.1796C245.09 68.155 245.09 68.155 245.076 68.091L245.795 65.6599C245.82 65.6205 245.82 65.6205 245.864 65.6451L245.908 65.6697C245.948 65.6943 245.992 65.7189 245.967 65.7583Z" fill="white"/>
<path opacity="0.29" d="M244.819 69.9168L244.204 71.969C244.179 72.0083 244.179 72.0083 244.135 71.9837L244.09 71.9591C244.046 71.9345 244.046 71.9345 244.071 71.8952L244.686 69.843C244.711 69.8036 244.711 69.8036 244.755 69.8282L244.8 69.8528C244.8 69.8479 244.844 69.8725 244.819 69.9168Z" fill="white"/>
<path opacity="0.44" d="M245.44 72.2989C245.583 72.0529 245.42 71.7428 245.12 71.5657C244.819 71.3934 244.47 71.4082 244.327 71.6542C244.184 71.9003 244.347 72.2103 244.647 72.3875C244.948 72.5598 245.297 72.545 245.44 72.2989Z" fill="white"/>
<path opacity="0.19" d="M251.484 35.4973L247.982 40.8665C247.957 40.9058 247.893 40.9255 247.849 40.9009L245.307 39.3802C245.263 39.3556 245.243 39.2917 245.268 39.2474L248.898 33.952C248.923 33.9127 248.987 33.893 249.031 33.9176L251.4 35.3398C251.464 35.4284 251.504 35.453 251.484 35.4973Z" fill="white"/>
<path opacity="0.27" d="M249.135 34.0307L245.411 39.4934L245.283 39.4195C245.238 39.3949 245.219 39.331 245.243 39.2867L248.874 33.9913C248.898 33.952 248.962 33.9323 249.007 33.9569L249.135 34.0307Z" fill="white"/>
<path opacity="0.05" d="M249.701 35.1234L246.77 39.5082C246.745 39.5476 246.681 39.5673 246.593 39.5181L246.548 39.4935C246.504 39.4689 246.484 39.4049 246.509 39.3606L249.44 34.9757C249.464 34.9364 249.528 34.9167 249.573 34.9413L249.617 34.9659C249.73 34.9757 249.75 35.0446 249.701 35.1234Z" fill="white"/>
<path opacity="0.05" d="M250.509 35.6991L249.568 37.1263C249.519 37.2099 249.386 37.2395 249.258 37.1657L249.174 37.1164C249.09 37.0672 249.051 36.9344 249.1 36.8556L250.041 35.4284C250.09 35.3448 250.223 35.3152 250.307 35.3645L250.391 35.4137C250.519 35.4875 250.583 35.5761 250.509 35.6991Z" fill="white"/>
<path opacity="0.29" d="M250.218 35.8074L249.558 36.8507C249.534 36.8901 249.489 36.8655 249.489 36.8655L249.445 36.8409C249.401 36.8163 249.401 36.8163 249.425 36.7769L250.125 35.7582C250.149 35.7188 250.194 35.7434 250.194 35.7434L250.238 35.768C250.223 35.6991 250.243 35.768 250.218 35.8074Z" fill="white"/>
<path opacity="0.29" d="M247.125 37.9087L246.401 38.9668C246.376 39.0061 246.332 38.9815 246.332 38.9815L246.287 38.9569C246.243 38.9323 246.268 38.8929 246.268 38.8929L246.992 37.8349C247.016 37.7955 247.056 37.8201 247.056 37.8201L247.1 37.8447C247.105 37.8398 247.149 37.8644 247.125 37.9087Z" fill="white"/>
<path opacity="0.27" d="M248.977 36.1862L246.77 39.513C246.745 39.5524 246.681 39.5721 246.593 39.5229L246.548 39.4983C246.504 39.4737 246.484 39.4097 246.509 39.3654L248.755 36.0632C248.78 36.0238 248.844 36.0042 248.932 36.0534L248.977 36.078C248.982 36.078 249.001 36.1419 248.977 36.1862Z" fill="white"/>
<g opacity="0.46">
<path opacity="0.29" d="M248.253 38.2288L247.361 39.5772C247.361 39.5772 247.337 39.6166 247.297 39.592C247.297 39.592 247.253 39.5674 247.277 39.528L248.169 38.1796C248.169 38.1796 248.194 38.1402 248.238 38.1648L248.253 38.2288Z" fill="white"/>
<path opacity="0.29" d="M248.278 38.5738L247.504 39.7155C247.504 39.7155 247.48 39.7549 247.435 39.7303C247.435 39.7303 247.391 39.7057 247.416 39.6663L248.189 38.5246C248.189 38.5246 248.214 38.4852 248.258 38.5098L248.278 38.5738C248.302 38.5344 248.302 38.5344 248.278 38.5738Z" fill="white"/>
<path opacity="0.29" d="M248.8 38.1646L247.741 39.7985C247.741 39.7985 247.716 39.8378 247.677 39.8132C247.677 39.8132 247.632 39.7886 247.657 39.7493L248.716 38.1154C248.716 38.1154 248.741 38.076 248.785 38.1006L248.8 38.1646Z" fill="white"/>
<path opacity="0.29" d="M249.016 38.2879L247.957 39.9218C247.957 39.9218 247.933 39.9611 247.888 39.9365C247.888 39.9365 247.844 39.9119 247.868 39.8726L248.928 38.2387C248.928 38.2387 248.952 38.1993 248.997 38.2239L249.016 38.2879Z" fill="white"/>
</g>
<path opacity="0.19" d="M244.815 61.5359L242.14 71.1029C242.11 71.2505 241.977 71.285 241.825 71.2505L234.741 67.9287C234.658 67.8794 234.593 67.7909 234.598 67.6826L236.313 57.6136C236.342 57.466 236.5 57.3922 236.628 57.466L244.716 61.3144C244.785 61.2997 244.82 61.4325 244.815 61.5359Z" fill="white"/>
<path opacity="0.27" d="M236.583 57.4413C236.455 57.3675 236.298 57.4413 236.268 57.589L234.554 67.6579C234.549 67.7662 234.608 67.8548 234.697 67.904L234.825 67.9778L236.623 57.4659L236.583 57.4413Z" fill="white"/>
<path opacity="0.05" d="M235.303 67.6532L238.268 69.036C238.312 69.0607 238.376 69.0459 238.357 68.977L239.268 64.7398C239.293 64.7004 239.248 64.6758 239.204 64.6512L236.115 63.1945C236.071 63.1699 236.007 63.1846 236.027 63.2535L235.268 67.5252C235.214 67.604 235.258 67.6286 235.303 67.6532Z" fill="white"/>
<path opacity="0.05" d="M244.697 61.2504L236.692 57.4512L236.081 60.8764L243.908 64.6855L244.815 61.5408C244.82 61.4325 244.785 61.2996 244.697 61.2504Z" fill="white"/>
<path opacity="0.05" d="M237.022 57.9679C236.977 57.9433 236.913 57.9581 236.933 58.027L236.465 60.714C236.44 60.7534 236.485 60.778 236.529 60.8026C236.573 60.8272 236.637 60.8124 236.618 60.7435L237.086 58.0565C237.105 58.0171 237.061 57.9925 237.022 57.9679Z" fill="white"/>
<path d="M280.774 32.5296C280.774 32.5296 272.873 -0.55139 235.504 17.0816C198.141 34.7147 179.482 79.8381 179.142 85.5566C178.777 91.3146 241.691 92.2004 241.691 92.2004L268.36 89.6364L280.774 32.5296Z" fill="url(#paint0_radial_2_4255)"/>
<path d="M273.232 106.95C273.232 106.95 287.971 57.7564 283.207 33.0564C282.724 30.5367 279.296 29.8674 277.996 32.018L241.923 91.9988L269.74 112.703L273.232 106.95Z" fill="#345763"/>
<path d="M276.257 6.11728C225.613 -23.1152 175.649 63.3865 175.649 63.3865L273.858 121.266C273.833 121.305 324.3 33.839 276.257 6.11728Z" fill="url(#paint1_radial_2_4255)"/>
<path opacity="0.1" d="M276.173 6.06789C225.485 -23.1892 175.521 63.3125 175.521 63.3125L273.73 121.192C273.705 121.231 324.216 33.7896 276.173 6.06789ZM272.282 117.781L179.177 62.904C179.177 62.904 226.554 -19.1193 274.592 8.60236C320.157 34.8969 272.282 117.781 272.282 117.781Z" fill="url(#paint2_linear_2_4255)"/>
<path opacity="0.1" d="M276.129 6.04327C225.441 -23.2139 175.477 63.2829 175.477 63.2829L273.686 121.162C273.666 121.207 324.172 33.765 276.129 6.04327ZM272.237 117.757L179.132 62.8745C179.132 62.8745 195.614 34.3408 219.022 16.5995C228.057 9.44389 236.303 10.753 237.82 16.6093C239.534 19.9509 220.781 36.9343 220.037 48.8783C219.229 60.837 249.874 58.4896 261.725 45.5712C273.577 32.6527 273.124 19.0306 261.986 17.0965C251.681 15.3101 265.06 3.48911 275.823 9.32086C319.211 36.4323 272.237 117.757 272.237 117.757Z" fill="url(#paint3_linear_2_4255)"/>
<path opacity="0.21" d="M251.001 98.7703L269.735 112.703L273.257 106.905C273.257 106.905 283.557 72.5053 284.178 46.8604C284.212 46.1124 283.956 45.3644 283.434 44.7886C283.183 44.5327 282.907 44.321 282.626 44.2128C278.725 42.7856 258.336 80.4532 251.001 98.7703Z" fill="#27272D"/>
<path opacity="0.11" d="M287.01 21.3435C281.488 21.8258 270.814 53.3271 259.484 79.3607C248.149 105.394 213.87 72.3085 206.574 61.3635C199.279 50.4186 210.776 33.0759 210.776 33.0759L185.417 56.6539C185.417 56.6539 185.275 57.8842 185.033 59.8822L256.622 102.073C261.233 99.917 266.971 98.9574 272.947 102.023C287.256 109.405 292.527 20.8612 287.01 21.3435Z" fill="#27272D"/>
<path d="M136.119 127.102L177.955 56.7032C181.019 51.5063 204.106 53.7062 228.84 66.0488L229.51 68.5439L243.332 76.7526L245.563 75.9308C268.405 91.7478 281.468 111.108 278.36 116.285L278.316 116.261L236.48 186.66C231.47 195.125 190.181 264.377 190.181 264.377L89.8442 204.775C89.8196 204.82 131.109 135.567 136.119 127.102Z" fill="#F5F5F7"/>
<path d="M171.945 180.966L172.103 181.001C126.528 153.938 141.828 129.986 141.828 129.986L186.974 54.0605C196.56 54.0901 212.362 57.7663 228.84 66.0439L229.51 68.539L243.332 76.7477L245.563 75.9259C260.834 86.4968 271.759 98.7115 276.365 107.166L231.219 183.092C231.194 183.136 217.476 208.004 171.945 180.966Z" fill="white"/>
<path d="M252.676 159.534C254.548 156.399 251.07 150.351 242.879 142.526C234.692 134.701 222.825 126.035 209.397 118.052C196.013 110.094 182.664 103.8 171.871 100.38C161.078 96.9595 154.088 96.7922 152.246 99.8828L152.335 99.932C156.128 93.5736 181.698 101.718 209.303 118.111C222.687 126.069 234.598 134.755 242.741 142.56C246.696 146.364 249.602 149.74 251.272 152.634C253.026 155.577 253.459 157.875 252.499 159.431L252.676 159.534Z" fill="#C9C9D6"/>
<path d="M190.979 108.475L191.048 108.456L218.879 61.5851C218.904 61.5408 218.86 61.5162 218.86 61.5162C218.815 61.4916 218.791 61.5359 218.791 61.5359L190.959 108.406C190.959 108.406 190.934 108.451 190.979 108.475Z" fill="#C9C9D6"/>
<path d="M229.485 68.5833L243.307 76.792L245.539 75.9702C245.583 75.9948 245.672 76.044 245.716 76.0735L193.59 163.776C190.856 168.407 184.881 169.933 180.25 167.201C175.62 164.47 174.093 158.495 176.822 153.869L228.869 66.2998L229.485 68.5833Z" fill="#D5D5E0"/>
<path d="M194.659 158.072C194.659 158.072 195.929 155.469 197.028 155.695C198.126 155.921 194.796 161.079 193.003 164.086C191.21 167.088 185.447 169.972 180.245 166.911L177.777 161.04L194.659 158.072Z" fill="#E6E6EF"/>
<path d="M181.319 150.139C181.319 150.139 182.984 147.762 182.285 146.95C181.585 146.138 178.644 151.527 176.851 154.529C175.058 157.531 175.26 163.973 180.462 167.034L186.817 166.369L181.319 150.139Z" fill="#E6E6EF"/>
<path d="M185.107 158.997C191.865 163.013 196.55 155.415 196.55 155.415L243.337 76.7475L229.47 68.5093L183.614 146.069C183.61 146.074 176.836 154.051 185.107 158.997Z" fill="#E6E6EF"/>
<path d="M181.137 165.666C177.339 163.417 176.344 158.043 178.925 153.677L224.273 77.4021C226.525 73.6078 231.441 72.2889 235.239 74.5379C235.283 74.5626 235.283 74.5625 235.327 74.5872C235.372 74.6118 235.372 74.6118 235.416 74.6364C239.214 76.8854 240.416 81.7969 238.165 85.5912L192.816 161.866C190.151 166.182 184.935 167.915 181.137 165.666Z" fill="url(#paint4_radial_2_4255)"/>
<path d="M234.864 75.0842C234.908 75.1088 234.908 75.1088 234.953 75.1334C234.997 75.158 234.997 75.158 235.041 75.1826C238.795 77.4071 239.997 82.3185 237.775 86.0686L192.663 161.837C190.082 166.202 184.92 167.846 181.166 165.621C184.92 167.846 190.043 166.178 192.594 161.857L237.386 86.5459C239.613 82.7959 238.425 77.9533 234.672 75.7289C234.628 75.7043 234.628 75.7043 234.583 75.6797C234.539 75.6551 234.539 75.6551 234.495 75.6305C230.785 73.4307 225.963 74.6856 223.692 78.411L178.9 153.722C176.344 158.043 177.324 163.348 181.073 165.572C177.275 163.323 176.324 157.974 178.881 153.653L223.948 77.8598C226.219 74.1344 231.11 72.8598 234.864 75.0842Z" fill="#04B2C4"/>
<path opacity="0.4" d="M182.885 162.634C180.541 161.222 179.964 157.964 181.511 155.282L226.199 80.1484C227.613 77.8009 230.593 77.0037 232.894 78.3915L232.938 78.4161L232.982 78.4407C235.283 79.8285 236.012 82.8256 234.672 85.1533L190.028 160.311C188.407 163.013 185.235 164.047 182.885 162.634Z" fill="url(#paint5_radial_2_4255)"/>
<path opacity="0.44" d="M234.864 75.0842L181.403 165.001" stroke="#A9FBFF" stroke-width="0.2285" stroke-miterlimit="10"/>
<path opacity="0.44" d="M193.215 160.577L179.61 152.491" stroke="#A9FBFF" stroke-width="0.2285" stroke-miterlimit="10"/>
<path opacity="0.44" d="M195.742 156.296L182.137 148.21" stroke="#A9FBFF" stroke-width="0.2285" stroke-miterlimit="10"/>
<path opacity="0.44" d="M198.313 152.043L184.713 143.958" stroke="#A9FBFF" stroke-width="0.2285" stroke-miterlimit="10"/>
<path opacity="0.44" d="M200.846 147.767L187.24 139.681" stroke="#A9FBFF" stroke-width="0.2285" stroke-miterlimit="10"/>
<path opacity="0.44" d="M203.402 143.446L189.772 135.405" stroke="#A9FBFF" stroke-width="0.2285" stroke-miterlimit="10"/>
<path opacity="0.44" d="M205.929 139.169L192.324 131.084" stroke="#A9FBFF" stroke-width="0.2285" stroke-miterlimit="10"/>
<path opacity="0.44" d="M208.461 134.893L194.855 126.807" stroke="#A9FBFF" stroke-width="0.2285" stroke-miterlimit="10"/>
<path opacity="0.44" d="M211.032 130.641L197.427 122.555" stroke="#A9FBFF" stroke-width="0.2285" stroke-miterlimit="10"/>
<path opacity="0.44" d="M213.56 126.364L199.954 118.279" stroke="#A9FBFF" stroke-width="0.2285" stroke-miterlimit="10"/>
<path opacity="0.44" d="M216.116 122.043L202.51 113.958" stroke="#A9FBFF" stroke-width="0.2285" stroke-miterlimit="10"/>
<path opacity="0.44" d="M218.643 117.767L205.038 109.681" stroke="#A9FBFF" stroke-width="0.2285" stroke-miterlimit="10"/>
<path opacity="0.44" d="M221.219 113.515L207.614 105.429" stroke="#A9FBFF" stroke-width="0.2285" stroke-miterlimit="10"/>
<path opacity="0.44" d="M223.747 109.238L210.141 101.152" stroke="#A9FBFF" stroke-width="0.2285" stroke-miterlimit="10"/>
<path opacity="0.44" d="M226.303 104.917L212.697 96.8315" stroke="#A9FBFF" stroke-width="0.2285" stroke-miterlimit="10"/>
<path opacity="0.44" d="M228.83 100.636L215.225 92.5498" stroke="#A9FBFF" stroke-width="0.2285" stroke-miterlimit="10"/>
<path opacity="0.44" d="M231.362 96.3591L217.756 88.2734" stroke="#A9FBFF" stroke-width="0.2285" stroke-miterlimit="10"/>
<path opacity="0.44" d="M233.933 92.1069L220.328 84.0212" stroke="#A9FBFF" stroke-width="0.2285" stroke-miterlimit="10"/>
<path opacity="0.44" d="M236.49 87.7862L222.884 79.7004" stroke="#A9FBFF" stroke-width="0.2285" stroke-miterlimit="10"/>
<path opacity="0.44" d="M239.017 83.5095L225.416 75.4238" stroke="#A9FBFF" stroke-width="0.2285" stroke-miterlimit="10"/>
<path opacity="0.44" d="M190.659 164.898L177.053 156.812" stroke="#A9FBFF" stroke-width="0.2285" stroke-miterlimit="10"/>
<path opacity="0.44" d="M236.49 87.7862L222.884 79.7004" stroke="#A9FBFF" stroke-width="0.2285" stroke-miterlimit="10"/>
<path d="M233.051 93.9425L222.003 81.1274L217.476 88.7604L228.091 101.91L233.051 93.9425Z" fill="url(#paint6_radial_2_4255)"/>
<path d="M199.639 150.06L188.767 137.349L184.245 144.977L194.644 158.003L199.639 150.06Z" fill="url(#paint7_radial_2_4255)"/>
<path d="M225.874 105.955L214.825 93.1404L213.938 94.6758L224.554 107.826L225.874 105.955Z" fill="url(#paint8_radial_2_4255)"/>
<path d="M181.181 165.69C181.137 165.666 181.137 165.666 181.093 165.641C181.048 165.616 181.048 165.616 181.004 165.592C177.206 163.343 176.004 158.431 178.255 154.637L223.604 78.3617C226.106 74.1294 231.096 72.3823 234.864 74.3803C231.204 72.5004 226.377 74.1687 223.953 78.2682L178.709 154.366C176.512 158.072 177.679 162.846 181.344 165.016C181.388 165.041 181.388 165.041 181.433 165.065C181.477 165.09 181.477 165.09 181.521 165.114C185.186 167.29 189.94 166.049 192.142 162.344L237.386 86.2456C239.815 82.1412 238.982 77.0969 235.574 74.779C239.111 77.1707 239.938 82.3332 237.436 86.5655L192.078 162.846C189.895 166.62 184.979 167.939 181.181 165.69Z" fill="#E6E6EF"/>
<path d="M195.235 157.176L237.578 85.9012C239.775 82.1955 238.608 77.4218 234.943 75.2515C234.898 75.2269 234.898 75.2269 234.854 75.2023C234.81 75.1777 234.81 75.1777 234.765 75.1531C231.101 72.9779 226.347 74.2181 224.145 77.9238L182.181 148.54C182.161 148.471 182.482 147.718 182.437 147.693L224.249 77.3382C226.5 73.5439 231.416 72.2249 235.214 74.474C235.258 74.4986 235.258 74.4986 235.302 74.5232C235.347 74.5478 235.347 74.5478 235.391 74.5724C239.189 76.8214 240.391 81.7329 238.14 85.5272L196.235 156.054C196.077 156.025 195.279 157.201 195.235 157.176Z" fill="#D5D5E0"/>
<path d="M200.875 113.249L200.737 113.283L201.639 115.675L201.777 115.636L200.875 113.249Z" fill="#C9C9D6"/>
<path d="M179.925 165.434L181.92 166.645L182.378 165.853L180.383 164.642L179.925 165.434Z" fill="#E6E6EF"/>
<path d="M190.772 111.162C192.211 111.408 193.614 110.399 193.816 108.938C194.063 107.501 193.053 106.098 191.59 105.896C190.152 105.65 188.748 106.659 188.546 108.121C188.344 109.587 189.334 110.921 190.772 111.162Z" fill="#F5F5F7"/>
<path d="M190.354 106.005C189.999 106.212 189.664 106.487 189.437 106.881C188.777 108.023 189.122 109.45 190.265 110.109C191.408 110.769 192.836 110.424 193.496 109.282C193.723 108.889 193.866 108.441 193.821 108.008C193.945 108.608 193.816 109.233 193.486 109.804C192.752 111.079 191.112 111.477 189.841 110.744C188.57 110.011 188.166 108.372 188.9 107.097C189.25 106.6 189.777 106.197 190.354 106.005Z" fill="#D9D9E2"/>
<path d="M191.112 110.07C192.127 110.247 193.053 109.553 193.225 108.539C193.398 107.526 192.703 106.6 191.693 106.428C190.684 106.256 189.752 106.95 189.58 107.959C189.432 108.928 190.097 109.898 191.112 110.07Z" fill="white"/>
<path d="M191.117 109.957C192.087 110.104 192.989 109.455 193.136 108.49C193.284 107.521 192.634 106.62 191.668 106.472C190.703 106.325 189.797 106.974 189.649 107.939C189.501 108.908 190.151 109.809 191.117 109.957Z" fill="#57DCEA"/>
<path d="M191.117 109.957C192.087 110.104 192.989 109.455 193.136 108.49C193.284 107.521 192.634 106.62 191.668 106.472C190.703 106.325 189.797 106.974 189.649 107.939C189.501 108.908 190.151 109.809 191.117 109.957Z" fill="#C8C8CE"/>
<path d="M191.072 109.932C191.929 110.075 192.737 109.489 192.88 108.633C193.023 107.776 192.437 106.969 191.58 106.827C190.723 106.684 189.915 107.27 189.772 108.126C189.629 108.982 190.22 109.789 191.072 109.932Z" fill="#D9D9DD"/>
<path d="M191.215 109.489C191.915 109.597 192.53 109.135 192.683 108.465C192.791 107.767 192.328 107.151 191.659 106.994C190.959 106.886 190.343 107.348 190.191 108.018C190.033 108.692 190.516 109.376 191.215 109.489Z" fill="#F2F2F2"/>
<path d="M190.59 107.427C190.432 107.801 190.826 108.032 191.289 108.239C191.821 108.431 192.225 108.544 192.407 108.126C192.565 107.752 192.279 107.23 191.791 107.068C191.259 106.876 190.747 107.053 190.59 107.427Z" fill="white"/>
<path d="M191.319 109.607C191.378 109.405 191.201 109.302 190.954 109.223C190.708 109.14 190.511 109.081 190.452 109.282C190.393 109.484 190.521 109.671 190.738 109.799C191.058 109.863 191.265 109.809 191.319 109.607Z" fill="white"/>
<path d="M217.707 123.136L215.224 123.579L215.219 123.692L217.702 123.249L217.707 123.136Z" fill="#C9C9D6"/>
<path d="M184.644 170.848C193.732 172.349 202.289 166.158 203.786 157.073C205.284 147.988 199.097 139.44 190.003 137.939C180.91 136.438 172.359 142.629 170.861 151.714C169.364 160.804 175.551 169.352 184.644 170.848Z" fill="#F5F5F7"/>
<path d="M185.368 169.396C194.102 170.804 202.318 164.893 203.702 156.207C205.111 147.482 199.2 139.268 190.511 137.88C181.777 136.473 173.561 142.383 172.176 151.069C170.718 159.77 176.634 167.984 185.368 169.396Z" fill="white"/>
<path d="M185.826 167.083C193.25 168.323 200.215 163.269 201.451 155.848C202.693 148.426 197.634 141.468 190.21 140.227C182.787 138.987 175.827 144.041 174.58 151.463C173.339 158.884 178.398 165.843 185.826 167.083Z" fill="#E6E6EF"/>
<path d="M185.585 166.886C192.338 167.974 198.722 163.407 199.836 156.611C200.924 149.864 196.353 143.481 189.555 142.363C182.802 141.276 176.418 145.843 175.304 152.639C174.221 159.391 178.792 165.774 185.585 166.886Z" fill="url(#paint9_radial_2_4255)"/>
<path d="M185.289 166.483C191.659 167.521 197.693 163.161 198.732 156.798C199.772 150.434 195.407 144.401 189.043 143.362C182.674 142.324 176.639 146.684 175.6 153.048C174.605 159.435 178.925 165.439 185.289 166.483Z" fill="url(#paint10_radial_2_4255)"/>
<path d="M185.994 164.253C191.304 165.095 196.294 161.532 197.132 156.222C197.974 150.912 194.408 145.926 189.097 145.09C183.787 144.248 178.797 147.811 177.96 153.121C177.098 158.358 180.708 163.368 185.994 164.253Z" fill="url(#paint11_radial_2_4255)"/>
<path d="M182.196 148.83L183.083 152.974L178.94 153.859L179.989 158.736L185.536 157.546L186.728 163.092L191.61 162.044L190.723 157.9L194.866 157.014L192.605 146.635L182.196 148.83ZM190.708 161.468L187.299 162.196L186.27 157.388L186.112 156.65L185.373 156.812L180.561 157.841L179.832 154.435L188.762 152.565L190.708 161.468ZM193.935 156.483L190.526 157.211L189.496 152.403L189.334 151.665L188.6 151.827L183.787 152.856L183.058 149.45L191.989 147.58L193.935 156.483Z" fill="white"/>
<path d="M197.358 155.533C195.348 157.186 191.289 155.897 188.28 152.693C185.27 149.489 184.482 145.582 186.462 143.978C188.472 142.329 192.531 143.613 195.54 146.817C198.58 149.972 199.363 153.879 197.358 155.533Z" fill="url(#paint12_radial_2_4255)"/>
<path d="M184.083 163.5C182.891 164.45 180.501 163.717 178.728 161.817C176.955 159.918 176.482 157.595 177.674 156.645C178.866 155.695 181.255 156.428 183.028 158.328C184.787 160.159 185.304 162.506 184.083 163.5Z" fill="url(#paint13_radial_2_4255)"/>
<path d="M198.875 201.773C200.831 203.255 202.372 205.253 203.367 207.585C205.702 212.974 207.786 228.634 201.643 238.964C193.58 252.517 190.678 247.094 190.678 247.094L169.876 234.741C169.876 234.741 164.733 232.182 174.95 217.236C184.018 203.973 190.92 195.779 198.875 201.773Z" fill="white"/>
<path d="M140.734 167.172C138.498 166.173 135.976 165.774 133.513 165.991C127.666 166.478 112.937 172.206 106.819 182.492C98.7553 196.045 104.942 195.986 104.942 195.986L125.745 208.338C125.745 208.338 130.454 211.641 138.675 195.489C145.842 181.242 149.758 171.325 140.734 167.172Z" fill="white"/>
<path d="M153.734 259.441L167.458 236.395L124.893 211.124L111.607 234.426L153.734 259.441Z" fill="#C9C9D6"/>
<g opacity="0.21">
<path opacity="0.21" d="M151.305 257.975L165.024 234.928L127.306 212.517L113.981 235.789L151.305 257.975Z" fill="#27272D"/>
</g>
<g opacity="0.21">
<path opacity="0.21" d="M146.497 255.145L160.221 232.098L132.089 215.396L118.676 238.619L146.497 255.145Z" fill="#27272D"/>
</g>
<path d="M154.251 258.447C156.931 253.905 149.65 244.613 138.025 237.669C126.331 230.745 114.701 228.777 112.016 233.314C109.336 237.856 116.617 247.148 128.242 254.092C139.941 261.021 151.567 262.989 154.251 258.447Z" fill="#AEAEBA"/>
<path d="M194.339 262.148C198.077 255.878 191.634 245.135 179.965 238.161C168.27 231.237 155.803 230.715 152.064 236.985C148.325 243.255 154.768 253.998 166.438 260.967C178.108 267.94 190.644 268.442 194.339 262.148Z" fill="#AEAEBA"/>
<path d="M193.801 261.252C197.417 255.199 191.196 244.879 180.009 238.191C168.753 231.518 156.739 231.026 153.123 237.079C149.512 243.132 155.729 253.452 166.916 260.14C178.176 266.808 190.191 267.305 193.801 261.252Z" fill="#747480"/>
<path d="M191.56 258.142C194.496 253.162 189.146 244.574 179.605 238.89C170.063 233.206 159.916 232.62 156.98 237.6C154.044 242.581 159.394 251.168 168.935 256.853C178.477 262.537 188.624 263.122 191.56 258.142Z" fill="#5BD9E5"/>
<path d="M132.069 225.159C135.808 218.89 129.365 208.142 117.696 201.173C106.001 194.249 93.5338 193.727 89.795 199.997C86.0562 206.267 92.4994 217.015 104.169 223.983C115.838 230.957 128.331 231.429 132.069 225.159Z" fill="#AEAEBA"/>
<path d="M131.533 224.264C135.144 218.211 128.927 207.891 117.74 201.198C106.484 194.524 94.4701 194.032 90.8544 200.085C87.2388 206.139 93.4602 216.459 104.647 223.152C115.932 229.781 127.922 230.317 131.533 224.264Z" fill="#747480"/>
<path d="M129.291 221.153C132.227 216.173 126.877 207.585 117.336 201.901C107.794 196.217 97.6467 195.632 94.7109 200.612C91.775 205.592 97.1246 214.18 106.666 219.864C116.163 225.524 126.311 226.109 129.291 221.153Z" fill="#5BD9E5"/>
<path d="M130.217 203.018L140.178 186.286C147.409 174.071 162.467 169.293 174.009 175.779C174.314 175.956 174.625 176.133 174.93 176.311L174.536 176.084C174.841 176.261 175.152 176.439 175.432 176.66C186.644 183.717 189.619 199.249 182.368 211.394L172.413 228.127C172.364 228.097 130.803 202.01 130.217 203.018Z" fill="#F5F5F7"/>
<path d="M134.148 205.341L144.458 187.994C151.99 175.361 165.586 169.16 175.044 174.386C175.305 174.539 175.526 174.667 175.792 174.819L175.443 174.618C175.709 174.77 175.925 174.898 176.167 175.09C185.226 180.902 186.354 195.779 178.797 208.456L168.482 225.799C168.463 225.73 134.754 204.288 134.148 205.341Z" fill="white"/>
<path d="M172.349 228.029C176.088 221.759 169.644 211.011 157.975 204.042C146.281 197.118 133.813 196.596 130.074 202.866C126.336 209.136 132.779 219.879 144.448 226.852C156.113 233.826 168.58 234.348 172.349 228.029Z" fill="#AEAEBA"/>
<path d="M171.768 227.108C175.383 221.055 169.206 210.759 157.951 204.086C146.739 197.442 134.725 196.945 131.139 202.954C127.528 209.008 133.7 219.303 144.956 225.976C156.162 232.625 168.221 233.142 171.768 227.108Z" fill="#747480"/>
<path d="M169.669 223.85C172.655 218.781 167.359 210.105 157.813 204.426C148.271 198.742 138.074 198.245 135.089 203.314C132.104 208.383 137.4 217.059 146.946 222.738C156.443 228.393 166.635 228.89 169.669 223.85Z" fill="#5BD9E5"/>
<g opacity="0.5">
<path opacity="0.5" d="M137.197 225.715C141.498 218.476 133.68 205.946 119.769 197.689C105.859 189.426 91.1153 188.589 86.8198 195.823C82.5195 203.063 90.337 215.592 104.248 223.85C118.154 232.113 132.897 232.955 137.197 225.715Z" fill="#5BD9E5"/>
</g>
<g opacity="0.5">
<path opacity="0.5" d="M176.014 229.795C180.314 222.556 172.497 210.026 158.586 201.768C144.675 193.505 129.932 192.669 125.636 199.903C121.341 207.142 129.153 219.672 143.064 227.93C156.975 236.193 171.714 237.034 176.014 229.795Z" fill="#5BD9E5"/>
</g>
<g opacity="0.5">
<path opacity="0.5" d="M198.269 262.95C202.565 255.711 194.752 243.181 180.841 234.923C166.931 226.66 152.187 225.824 147.892 233.058C143.596 240.297 151.409 252.827 165.32 261.085C179.231 269.348 193.969 270.189 198.269 262.95Z" fill="#5BD9E5"/>
</g>
<path d="M153.921 259.018C156.423 254.786 148.99 245.755 137.32 238.786C125.626 231.862 114.149 229.628 111.641 233.86C109.139 238.093 116.572 247.123 128.242 254.092C139.941 261.021 151.418 263.25 153.921 259.018Z" fill="#AEAEBA"/>
<path d="M153.138 258.039C155.517 254.023 148.463 245.45 137.365 238.811C126.267 232.172 115.321 230.13 112.942 234.141C110.563 238.156 117.617 246.734 128.715 253.373C139.798 259.943 150.763 262.054 153.138 258.039Z" fill="#747480"/>
<path d="M150.99 249.894C151.542 250.563 151.901 251.355 152.054 252.207C152.207 253.058 152.074 253.796 151.719 254.412C149.67 257.857 140.281 256.065 130.695 250.356C121.109 244.648 115.05 237.29 117.099 233.845C117.454 233.23 118.075 232.768 118.887 232.477C119.7 232.187 120.612 232.128 121.444 232.315C126.07 233.23 131.774 235.524 137.503 238.89C143.286 242.345 147.98 246.282 150.99 249.894Z" fill="white"/>
<path d="M93.5584 368.891C97.0312 365.672 100.297 361.794 103.425 357.03C119.809 332.025 106.991 308.797 119.444 301.503C131.252 294.589 143.31 313.713 126.498 319.412C123.277 320.514 120.341 322.429 118.173 325.052C114.489 329.658 110.612 337.867 117.213 348.349C129.932 368.664 104.061 381.844 99.4351 378.473C99.4351 378.473 116.233 390.426 125.912 374.043C133.498 361.189 116.917 349.791 121.597 340.106C126.237 330.396 138.05 337.916 134.114 346.415C134.114 346.415 147.241 347.099 152.729 322.212C158.241 297.286 149.714 288.92 161.059 277.857C170.048 269.102 181.378 289.313 165.389 290.691C165.389 290.691 171.984 297.837 181.378 289.313C192.856 278.865 192.974 254.972 178.26 244.17C178.26 244.17 169.265 235.587 161.665 236.532C161.665 236.532 168.65 217.354 142.197 209.898C142.197 209.898 134.675 207.064 126.084 213.363C126.084 213.363 124.843 207.211 108.509 204.623C92.1742 202.034 75.5984 223.643 76.8644 235.253C76.8644 235.253 82.8593 229.072 87.8 234.136C92.9033 239.288 82.5785 254.653 64.1456 252.148C42.57 249.121 32.4373 265.352 37.7426 276.592C40.8361 283.172 34.1417 298.309 17.5511 296.065C17.5511 296.065 32.9595 305.765 41.5503 296.671C48.7816 288.998 36.7968 280.844 42.6045 275.632C48.4368 270.381 60.7369 273.334 54.9981 284.023C49.2102 294.678 26.8759 315.062 25.1814 336.272C25.1814 336.272 34.3289 316.243 52.2347 317.045C70.1799 317.872 66.8155 341.883 47.0428 340.485C51.7224 344.319 53.2002 356.312 36.4717 360.554C36.0875 360.657 35.7279 360.717 35.3092 360.795C21.7874 363.6 9.10806 390.205 42.9838 416.052C60.5103 429.452 44.7029 447.952 21.5904 444.039C4.95549 441.224 -4.96536 453.267 4.94564 463.995C-0.0788234 455.063 7.47757 445.53 22.9598 453.232C37.4125 460.388 51.7864 458.075 56.8503 449.959C68.3425 431.554 41.7129 421.514 46.5551 405.953C51.3973 390.387 72.1503 392.887 78.5047 367.424C84.9035 342.089 104.617 357.665 93.5584 368.891Z" fill="url(#paint14_linear_2_4255)" fill-opacity="0.5"/>
<path opacity="0.2" d="M93.6225 368.423C97.1003 365.205 100.361 361.327 103.494 356.558C119.883 331.543 107.056 308.305 119.518 301.006C131.331 294.087 143.399 313.226 126.577 318.925C123.356 320.027 120.415 321.942 118.252 324.57C114.568 329.176 110.686 337.385 117.292 347.877C130.02 368.202 104.139 381.381 99.509 378.01C99.509 378.01 116.316 389.974 125.996 373.581C133.582 360.721 116.996 349.319 121.676 339.629C126.316 329.919 138.138 337.439 134.198 345.943C134.198 345.943 147.33 346.627 152.818 321.73C158.33 296.794 149.798 288.423 161.147 277.36C170.142 268.6 181.477 288.821 165.482 290.199C165.482 290.199 172.078 297.345 181.477 288.821C192.954 278.373 193.072 254.471 178.349 243.658C178.349 243.658 169.349 235.071 161.743 236.016C161.743 236.016 168.728 216.832 142.261 209.367C142.261 209.367 134.734 206.532 126.139 212.831C126.139 212.831 124.897 206.675 108.553 204.086C92.2088 201.493 75.6281 223.112 76.894 234.726C76.894 234.726 82.8889 228.545 87.8346 233.609C92.9428 238.767 82.6081 254.131 64.1703 251.626C42.5848 248.594 32.4522 264.83 37.7574 276.08C40.8558 282.66 34.1516 297.808 17.561 295.558C17.561 295.558 32.9792 305.263 41.575 296.164C48.8112 288.491 36.8166 280.327 42.6292 275.115C48.4664 269.864 60.7714 272.822 55.0278 283.511C49.2447 294.176 26.9006 314.569 25.211 335.79C25.211 335.79 34.3585 315.751 52.2742 316.558C70.2292 317.384 66.8648 341.405 47.0822 340.008C51.7668 343.841 53.2446 355.844 36.5111 360.087C36.1269 360.19 35.7673 360.249 35.3486 360.328C21.8171 363.133 9.13768 389.747 43.0331 415.609C60.5695 429.014 44.7572 447.523 21.6348 443.601C4.99003 440.781 -4.93082 452.833 4.9851 463.562C-0.0393599 454.63 7.51211 445.092 23.0091 452.794C37.4668 459.955 51.8456 457.642 56.9144 449.521C68.4116 431.111 41.7671 421.066 46.6093 405.491C51.4515 389.92 72.2144 392.42 78.5738 366.947C84.9627 341.612 104.691 357.198 93.6225 368.423Z" fill="url(#paint15_linear_2_4255)"/>
<path opacity="0.1" d="M145.271 316.814C120.656 296.73 145.818 283.615 158.443 284.5C171.073 285.386 174.511 276.262 174.511 276.262C167.945 279.594 163.457 278.309 163.457 278.309C178.191 274.53 177.812 261.833 177.812 261.833C181.629 265.411 180.787 270.15 180.787 270.15C180.787 270.15 186.186 262.158 177.156 252.896C168.172 243.663 154.852 244.992 154.852 244.992C158.295 239.141 161.216 226.39 147.827 217.876C134.468 209.318 130.606 213.624 130.606 213.624C134.857 214.185 137.158 218.122 137.158 218.122C128.523 214.967 118.917 221.183 118.917 221.183C115.42 213.545 107.671 208.619 99.3019 209.077C99.0212 209.111 98.7404 209.145 98.4103 209.15C86.6866 210.095 79.0021 225.322 84.0167 233.506C84.0167 233.506 85.2187 227.01 91.5584 227.467C96.839 227.837 102.164 238.422 95.7306 246.729C96.0951 243.609 95.5976 240.056 92.7603 237.044C92.7603 237.044 96.6813 246.557 85.3812 254.343C73.9826 260.834 64.4065 265.302 64.1603 278.29C64.1603 278.29 66.037 271.533 72.8151 270.548C72.8151 270.548 78.81 270.809 76.5244 278.049C74.2683 285.239 63.7859 289.579 54.732 284.874C54.732 284.874 58.5151 290.322 67.8104 290.071C58.7368 293.787 48.8553 297.424 44.353 308.61C44.353 308.61 46.8357 304.422 51.9882 302.63C55.067 301.597 58.5053 302.212 60.8845 304.432C61.8697 305.327 62.6381 306.489 62.781 307.941C63.9287 317.158 50.7765 309.373 46.6731 324.058C46.6731 324.058 47.8849 322.074 50.2346 320.952C52.7419 319.786 55.466 322.079 54.7763 324.747C54.5202 325.642 54.1212 326.784 53.4365 328.088C53.4365 328.088 53.4365 328.088 53.4069 328.138C49.1509 336.528 49.5795 346.312 58.9585 352.705C51.2986 344.688 61.7564 324.201 70.7955 327.916C71.3915 328.128 71.9038 328.492 72.3866 328.9C74.1796 330.328 76.2042 332.931 73.559 338.984C71.7364 343.157 74.0959 346.09 75.1402 349.373C74.2584 347.621 72.6772 345.598 70.0812 343.187C64.0962 337.705 66.8991 334.097 66.8991 334.097C66.8991 334.097 62.1899 339.875 69.2143 347.975C75.8101 355.569 69.7118 360.805 68.8892 361.44C68.4409 361.77 68.037 362.124 67.5345 362.424C51.4956 374.009 57.1112 387.833 57.1112 387.833C57.7516 367.818 92.8293 370.815 93.7652 342.478C93.9327 336.76 94.6568 330.972 95.8833 325.8C97.499 329.343 100.115 330.136 100.115 330.136C96.7749 326.641 97.0212 322.473 97.7503 319.624C97.9079 319.127 100.44 311.115 109.75 311.523C119.39 311.927 125.065 303.57 126.094 299.525C126.523 304.673 128.843 308.689 128.843 308.689C126.488 302.689 133.897 294.619 133.897 294.619C128.685 307.945 134.242 308.733 141.493 325.721C145.655 335.377 134.36 347.803 134.36 347.803C146.305 340.15 159.704 328.61 145.271 316.814Z" fill="#5BD9E5"/>
<path opacity="0.8" d="M155.28 250.43C150.177 253.427 146.817 250.1 146.817 250.1C151.96 257.094 162.418 250.652 166.851 253.275C171.28 255.898 171.29 259.205 171.29 259.205C167.925 255.878 165.009 257.497 165.009 257.497C170.827 265.607 160.27 277.94 146.886 278.004C133.552 278.098 132.394 286.74 132.394 286.74C132.394 286.74 132.306 276.715 144.276 274.515C156.201 272.286 157.443 265.671 157.443 265.671C151.778 272.965 142.685 271.548 133.857 272.989C125.03 274.431 124.444 283.339 124.444 283.339C121.148 275.43 127.395 270.45 127.395 270.45C127.395 270.45 114.952 275.75 119.656 285.79C124.331 295.883 113.306 306.622 107.198 299.003C101.095 291.385 96.9817 294.958 96.9817 294.958C100.464 289.043 105.888 292.237 105.888 292.237C99.4447 285.086 85.2531 286.666 88.2874 298.457C91.3514 310.194 76.5391 312.739 76.5391 312.739C86.4501 302.675 81.2778 292.296 80.1744 286.311C79.071 280.327 83.4403 276.311 83.4403 276.311C82.3812 280.322 85.2481 283.364 85.2481 283.364C85.0757 271.311 94.5138 260.913 94.5138 260.913C85.6865 262.355 83.3467 266.287 83.3467 266.287C86.0116 253.895 99.7107 252.025 103.11 244.082C106.459 236.109 104.001 231.326 104.001 231.326C107.154 233.87 107.499 236.71 107.499 236.71C106.41 222.812 94.0853 218.865 94.0853 218.865C102.075 214.298 110.183 219.702 110.183 219.702C108.72 215.489 104.735 214.839 104.735 214.839C115.725 215.371 120.227 227.94 120.227 227.94C129.695 220.927 134.335 224.333 134.335 224.333C132.173 222.359 128.838 222.413 128.838 222.413C136.749 219.121 147.098 225.228 147.098 225.228C147.098 225.228 152.206 227.251 154.3 233.806C154.3 233.806 152.064 230.469 149.221 233.452C145.197 237.807 149.788 251.818 155.28 250.43Z" fill="url(#paint16_linear_2_4255)"/>
<path d="M164.073 211.429C172.413 197.393 172.507 189.426 171.689 185.676C171.255 183.786 169.743 182.856 167.891 183.427C164.236 184.48 157.276 188.422 148.931 202.457C140.641 216.404 140.183 224.805 140.803 228.796C141.109 230.903 142.724 231.956 144.744 231.306C148.448 230.164 155.428 225.991 164.073 211.429Z" fill="#474854"/>
<path opacity="0.1" d="M166.591 200.179C171.522 191.842 171.625 187.103 171.098 184.868C170.871 183.741 169.95 183.21 168.842 183.505C166.669 184.125 162.507 186.463 157.576 194.8C152.67 203.092 152.369 208.068 152.749 210.454C152.946 211.739 153.887 212.339 155.089 211.98C157.31 211.276 161.438 208.796 166.591 200.179Z" fill="white"/>
<path opacity="0.21" d="M167.935 183.451C168.837 183.21 169.63 183.259 170.285 183.638C169.669 183.284 168.901 183.19 168.073 183.417C164.768 184.377 158.438 187.925 150.955 200.582C143.448 213.171 143.039 220.774 143.596 224.377C143.892 226.301 145.359 227.207 147.143 226.655C150.546 225.632 156.842 221.833 164.649 208.717C172.206 196.045 172.275 188.825 171.521 185.464C171.324 184.588 170.905 183.998 170.29 183.643C170.95 184.022 171.388 184.687 171.6 185.631C172.408 189.199 172.27 196.847 164.324 210.292C156.059 224.195 149.384 228.25 145.773 229.328C143.852 229.918 142.32 228.914 142.01 226.921C141.424 223.068 141.837 215.056 149.798 201.675C157.738 188.225 164.418 184.47 167.935 183.451Z" fill="#27272D"/>
<defs>
<radialGradient id="paint0_radial_2_4255" cx="0" cy="0" r="1" gradientUnits="userSpaceOnUse" gradientTransform="translate(241.143 -7.55548) rotate(9.98096) scale(184.842 179.295)">
<stop offset="0.1106" stop-color="#57DCEA" stop-opacity="0"/>
<stop offset="0.6861" stop-color="#57C8CE"/>
</radialGradient>
<radialGradient id="paint1_radial_2_4255" cx="0" cy="0" r="1" gradientUnits="userSpaceOnUse" gradientTransform="translate(257.329 -56.9253) rotate(30.5271) scale(331.404 318.39)">
<stop stop-color="#57DCEA" stop-opacity="0"/>
<stop offset="0.5938" stop-color="#57C8CE"/>
</radialGradient>
<linearGradient id="paint2_linear_2_4255" x1="225.96" y1="90.0252" x2="290.565" y2="-17.7787" gradientUnits="userSpaceOnUse">
<stop stop-color="#5ADFE5" stop-opacity="0"/>
<stop offset="0.1095" stop-color="#75E4E9" stop-opacity="0.1269"/>
<stop offset="0.3679" stop-color="#B0F0F3" stop-opacity="0.4267"/>
<stop offset="0.5886" stop-color="#DBF8F9" stop-opacity="0.6827"/>
<stop offset="0.7604" stop-color="#F5FDFD" stop-opacity="0.8819"/>
<stop offset="0.8622" stop-color="white"/>
</linearGradient>
<linearGradient id="paint3_linear_2_4255" x1="314.272" y1="-61.706" x2="225.555" y2="90.8464" gradientUnits="userSpaceOnUse">
<stop offset="0.339" stop-color="white"/>
<stop offset="1" stop-color="white" stop-opacity="0"/>
</linearGradient>
<radialGradient id="paint4_radial_2_4255" cx="0" cy="0" r="1" gradientUnits="userSpaceOnUse" gradientTransform="translate(240.192 69.5141) rotate(-149.293) scale(150.181 150.146)">
<stop offset="0.339" stop-color="#57DCEA"/>
<stop offset="1" stop-color="#04B2C4"/>
</radialGradient>
<radialGradient id="paint5_radial_2_4255" cx="0" cy="0" r="1" gradientUnits="userSpaceOnUse" gradientTransform="translate(207.934 120.558) rotate(29.988) scale(34.8547 34.8462)">
<stop offset="0.1795" stop-color="#5ADFE5" stop-opacity="0"/>
<stop offset="1" stop-color="white"/>
</radialGradient>
<radialGradient id="paint6_radial_2_4255" cx="0" cy="0" r="1" gradientUnits="userSpaceOnUse" gradientTransform="translate(228.123 63.3363) rotate(-149.293) scale(34.3938 34.3859)">
<stop offset="0.339" stop-color="white"/>
<stop offset="1" stop-color="white" stop-opacity="0"/>
</radialGradient>
<radialGradient id="paint7_radial_2_4255" cx="0" cy="0" r="1" gradientUnits="userSpaceOnUse" gradientTransform="translate(195.498 130.905) rotate(-149.295) scale(23.5422 23.8808)">
<stop offset="0.339" stop-color="white"/>
<stop offset="1" stop-color="white" stop-opacity="0"/>
</radialGradient>
<radialGradient id="paint8_radial_2_4255" cx="0" cy="0" r="1" gradientUnits="userSpaceOnUse" gradientTransform="translate(227.189 120.334) rotate(-149.293) scale(32.788 32.7804)">
<stop offset="0.339" stop-color="white"/>
<stop offset="1" stop-color="white" stop-opacity="0"/>
</radialGradient>
<radialGradient id="paint9_radial_2_4255" cx="0" cy="0" r="1" gradientUnits="userSpaceOnUse" gradientTransform="translate(174.246 156.3) rotate(51.43) scale(31.6066 31.6099)">
<stop offset="0.1823" stop-color="#57DCEA"/>
<stop offset="0.6861" stop-color="#04B2C4"/>
</radialGradient>
<radialGradient id="paint10_radial_2_4255" cx="0" cy="0" r="1" gradientUnits="userSpaceOnUse" gradientTransform="translate(180.859 165.875) rotate(6.44402) scale(31.0575 31.0428)">
<stop offset="0.3849" stop-color="#57DCEA"/>
<stop offset="0.7584" stop-color="#04B2C4"/>
</radialGradient>
<radialGradient id="paint11_radial_2_4255" cx="0" cy="0" r="1" gradientUnits="userSpaceOnUse" gradientTransform="translate(192.082 142.465) rotate(6.444) scale(20.0707 20.0612)">
<stop offset="0.1823" stop-color="#57DCEA"/>
<stop offset="0.6861" stop-color="#04B2C4"/>
</radialGradient>
<radialGradient id="paint12_radial_2_4255" cx="0" cy="0" r="1" gradientUnits="userSpaceOnUse" gradientTransform="translate(219.386 135.644) rotate(6.44403) scale(37.2955 37.2779)">
<stop offset="0.339" stop-color="white"/>
<stop offset="1" stop-color="white" stop-opacity="0"/>
</radialGradient>
<radialGradient id="paint13_radial_2_4255" cx="0" cy="0" r="1" gradientUnits="userSpaceOnUse" gradientTransform="translate(197.09 151.694) rotate(6.44405) scale(22.1196 22.109)">
<stop offset="0.339" stop-color="white"/>
<stop offset="1" stop-color="white" stop-opacity="0"/>
</radialGradient>
<linearGradient id="paint14_linear_2_4255" x1="143.297" y1="194.082" x2="13.1493" y2="494.854" gradientUnits="userSpaceOnUse">
<stop stop-color="#3B98F4"/>
<stop offset="1" stop-color="#3B98F4" stop-opacity="0"/>
</linearGradient>
<linearGradient id="paint15_linear_2_4255" x1="143.741" y1="193.809" x2="22.4749" y2="470.818" gradientUnits="userSpaceOnUse">
<stop stop-color="#5BD9E5"/>
<stop offset="1" stop-color="#5BD9E5" stop-opacity="0"/>
</linearGradient>
<linearGradient id="paint16_linear_2_4255" x1="142.305" y1="222.412" x2="86.7682" y2="318.646" gradientUnits="userSpaceOnUse">
<stop stop-color="#5BD9E5"/>
<stop offset="1" stop-color="#69DBFF" stop-opacity="0"/>
</linearGradient>
</defs>
</svg>
