<svg width="402" height="55" viewBox="0 0 402 55" fill="none" xmlns="http://www.w3.org/2000/svg">
<path d="M153.849 31.6614C155.789 33.8847 156.76 36.7708 156.76 40.3168C156.76 44.7099 155.159 48.0864 151.956 50.4583C148.75 52.8302 143.987 54.0043 137.685 54.0043H114.614V2.22367H136.212C141.827 2.22367 146.21 3.36504 149.338 5.66264C152.467 7.96023 154.039 11.2298 154.039 15.4623C154.039 18.4228 153.257 20.9106 151.709 22.9318C150.161 24.9529 148.046 26.4034 145.387 27.2921C149.071 27.9847 151.902 29.45 153.846 31.6614H153.849ZM118.381 5.47241V26.1151H136.06C140.597 26.1151 144.082 25.2383 146.528 23.4876C148.973 21.7339 150.191 19.1599 150.191 15.7507C150.191 12.3949 148.973 9.8417 146.528 8.08804C144.079 6.33438 140.597 5.46052 136.057 5.46052H118.378V5.47241H118.381ZM149.113 48.128C151.697 46.3744 152.999 43.6696 152.999 40.0285C152.999 36.3725 151.706 33.6915 149.113 31.9616C146.528 30.2407 142.713 29.3757 137.682 29.3757H118.381V50.7555H137.682C142.713 50.7555 146.525 49.8817 149.11 48.128H149.113ZM199.147 15.388V54.0043H195.6V45.7234C194.385 48.359 192.4 50.5643 189.907 52.0485C187.396 53.5555 184.44 54.3045 181.032 54.3045C175.999 54.3045 172.059 52.8926 169.195 50.0838C166.334 47.272 164.901 43.2237 164.901 37.9568V15.388H168.598V37.6566C168.598 41.9961 169.709 45.2954 171.928 47.5722C174.151 49.849 177.282 50.9696 181.317 50.9696C185.655 50.9696 189.096 49.6142 191.636 46.8975C194.18 44.1867 195.451 40.5427 195.451 35.9475V15.388H199.147ZM212.084 52.8926C209.273 51.9534 207.072 50.7793 205.503 49.3467L207.199 46.3862C208.78 47.7238 210.809 48.8235 213.299 49.7212C215.789 50.6069 218.395 51.0557 221.096 51.0557C224.997 51.0557 227.87 50.4137 229.718 49.1327C231.563 47.8516 232.493 46.0771 232.493 43.8003C232.493 42.1775 231.991 40.8934 230.978 39.9542C229.908 38.9839 228.629 38.2739 227.24 37.8795C225.763 37.4337 223.713 36.9729 221.096 36.4706C218.041 35.9237 215.575 35.3382 213.706 34.6962C211.87 34.0767 210.217 33.008 208.899 31.5871C207.562 30.1545 206.902 28.1898 206.902 25.6663C206.902 22.6107 208.171 20.0783 210.714 18.0809C213.258 16.0836 216.865 15.0878 221.544 15.0878C224.01 15.0878 226.447 15.4296 228.862 16.1252C231.278 16.8207 233.251 17.7302 234.781 18.8597L233.081 21.8201C231.443 20.6571 229.618 19.7826 227.686 19.2342C225.666 18.6451 223.574 18.3468 221.47 18.3485C217.872 18.3485 215.159 19.0113 213.329 20.3458C211.505 21.6834 210.595 23.4341 210.595 25.6039C210.595 27.3337 211.109 28.6683 212.146 29.6313C213.239 30.6258 214.542 31.3604 215.958 31.7803C217.465 32.2499 219.569 32.7523 222.284 33.2962C225.285 33.8401 227.721 34.4197 229.567 35.038C231.415 35.6592 232.983 36.6519 234.267 38.0311C235.548 39.4073 236.189 41.3095 236.189 43.726C236.189 46.9302 234.852 49.4953 232.196 51.4184C229.537 53.3415 225.787 54.3015 220.959 54.3015C217.943 54.3169 214.944 53.8411 212.081 52.8926H212.084ZM242.557 5.14248C242.27 4.87286 242.042 4.54601 241.889 4.18302C241.736 3.82004 241.661 3.42899 241.668 3.03511C241.668 2.20287 241.968 1.48654 242.557 0.886135C242.835 0.599972 243.169 0.373777 243.538 0.221454C243.907 0.0691316 244.303 -0.00609933 244.702 0.000386356C245.534 0.000386356 246.253 0.2887 246.85 0.856412C247.438 1.42115 247.735 2.12559 247.735 2.96081C247.741 3.35988 247.665 3.75593 247.513 4.12486C247.361 4.49378 247.135 4.82788 246.85 5.10681C246.572 5.39388 246.237 5.62084 245.868 5.77369C245.498 5.92654 245.102 6.00204 244.702 5.99553C243.858 5.99553 243.142 5.70722 242.557 5.13951V5.14248ZM242.845 15.388H246.541V54.0043H242.845V15.388ZM288.851 19.3085C291.659 22.1203 293.07 26.1686 293.07 31.4355V54.0043H289.374V31.7357C289.374 27.3962 288.274 24.0969 286.082 21.8201C283.895 19.5552 280.817 18.4228 276.877 18.4228C272.337 18.4228 268.766 19.7781 266.151 22.4948C263.536 25.2085 262.229 28.8526 262.229 33.4448V54.0132H258.536V15.391H262.083V23.7462C263.377 21.0736 265.452 18.8567 268.032 17.3884C270.67 15.8606 273.79 15.0908 277.391 15.0908C282.216 15.0908 286.04 16.5027 288.851 19.3115V19.3085ZM337.365 35.5819H304.155C304.254 38.5958 305.023 41.2679 306.452 43.6071C307.851 45.9175 309.857 47.7991 312.252 49.0465C314.7 50.3305 317.446 50.9696 320.5 50.9696C322.897 50.9914 325.273 50.5263 327.485 49.6023C329.582 48.7296 331.426 47.3448 332.848 45.5748L334.994 48.0121C333.294 50.0539 331.124 51.6522 328.671 52.6697C326.062 53.7689 323.256 54.3212 320.426 54.2926C316.578 54.2926 313.149 53.4485 310.148 51.784C307.196 50.165 304.752 47.757 303.089 44.8288C301.389 41.8654 300.537 38.4888 300.537 34.6843C300.537 30.9362 301.336 27.5686 302.94 24.5873C304.462 21.6928 306.753 19.2747 309.56 17.5994C312.371 15.923 315.52 15.0878 319.026 15.0878C322.529 15.0878 325.67 15.9112 328.457 17.5667C331.244 19.222 333.522 21.6142 335.038 24.4803C336.64 27.4407 337.439 30.7965 337.439 34.5475L337.365 35.5819ZM311.696 20.1645C309.532 21.3667 307.731 23.1309 306.485 25.271C305.181 27.4616 304.423 29.9405 304.233 32.7077H333.808C333.659 29.9523 332.923 27.4824 331.586 25.3155C330.301 23.1905 328.492 21.4311 326.333 20.2061C324.164 18.9786 321.718 18.3574 319.014 18.3574C316.314 18.3574 313.865 18.9578 311.696 20.1645ZM346.165 52.8926C343.357 51.9534 341.156 50.7793 339.587 49.3467L341.287 46.3862C342.867 47.7238 344.897 48.8235 347.383 49.7212C349.873 50.6069 352.479 51.0557 355.183 51.0557C359.081 51.0557 361.954 50.4137 363.802 49.1327C365.65 47.8516 366.58 46.0771 366.58 43.8003C366.58 42.1775 366.078 40.8934 365.062 39.9542C363.993 38.9833 362.714 38.2733 361.324 37.8795C359.851 37.4337 357.797 36.9729 355.183 36.4706C352.128 35.9237 349.659 35.3382 347.79 34.6962C345.954 34.076 344.302 33.0074 342.983 31.5871C341.649 30.1545 340.986 28.1898 340.986 25.6663C340.986 22.6107 342.258 20.0783 344.798 18.0809C347.342 16.0836 350.952 15.0878 355.632 15.0878C358.098 15.0878 360.534 15.4296 362.947 16.1252C365.362 16.8207 367.338 17.7302 368.865 18.8597L367.166 21.8201C365.528 20.6575 363.704 19.783 361.773 19.2342C359.754 18.6452 357.661 18.347 355.557 18.3485C351.956 18.3485 349.243 19.0113 347.416 20.3458C345.589 21.6834 344.683 23.4341 344.683 25.6039C344.683 27.3337 345.194 28.6683 346.231 29.6313C347.268 30.5944 348.539 31.3077 350.043 31.7803C351.549 32.2499 353.656 32.7523 356.368 33.2962C359.369 33.8401 361.806 34.4197 363.654 35.038C365.502 35.6592 367.071 36.6519 368.351 38.0311C369.635 39.4073 370.274 41.3095 370.274 43.726C370.274 46.9302 368.939 49.4953 366.28 51.4184C363.621 53.3415 359.871 54.3015 355.043 54.3015C352.027 54.3166 349.029 53.8408 346.165 52.8926ZM377.892 52.8926C375.081 51.9534 372.882 50.7793 371.311 49.3467L373.01 46.3862C374.591 47.7238 376.62 48.8235 379.11 49.7212C381.597 50.6069 384.203 51.0557 386.906 51.0557C390.805 51.0557 393.678 50.4137 395.526 49.1327C397.374 47.8516 398.304 46.0771 398.304 43.8003C398.304 42.1775 397.802 40.8934 396.786 39.9542C395.716 38.9833 394.437 38.2733 393.048 37.8795C391.574 37.4337 389.524 36.9729 386.906 36.4706C383.852 35.9237 381.383 35.3382 379.514 34.6962C377.678 34.076 376.026 33.0074 374.707 31.5871C373.373 30.1545 372.71 28.1898 372.71 25.6663C372.71 22.6107 373.982 20.0783 376.525 18.0809C379.065 16.0836 382.675 15.0878 387.355 15.0878C389.821 15.0878 392.257 15.4296 394.673 16.1252C397.086 16.8207 399.061 17.7302 400.589 18.8597L398.892 21.8201C397.254 20.657 395.429 19.7824 393.496 19.2342C391.477 18.645 389.384 18.3468 387.281 18.3485C383.68 18.3485 380.967 19.0113 379.14 20.3458C377.315 21.6834 376.406 23.4341 376.406 25.6039C376.406 27.3337 376.92 28.6683 377.954 29.6313C378.991 30.5944 380.263 31.3077 381.769 31.7803C383.276 32.2499 385.379 32.7523 388.092 33.2962C391.093 33.8401 393.529 34.4197 395.377 35.038C397.225 35.6592 398.794 36.6519 400.078 38.0311C401.358 39.4073 402 41.3095 402 43.726C402 46.9302 400.663 49.4953 398.004 51.4184C395.345 53.3415 391.595 54.3015 386.767 54.3015C383.752 54.3168 380.754 53.841 377.892 52.8926ZM34.6947 36.9611C32.9712 38.4762 30.7494 39.3018 28.4552 39.2795C25.4245 39.2795 22.9555 38.2213 21.0628 36.108C19.1731 33.9917 18.2342 31.2245 18.2342 27.8034C18.2342 24.3644 19.1731 21.5734 21.0539 19.4601C22.9347 17.3438 25.4008 16.2857 28.4552 16.2857C30.6776 16.2857 32.6861 16.9782 34.4807 18.3782C36.2753 19.7781 37.544 21.6269 38.2839 23.9245H55.7575C54.8513 16.9574 51.8801 11.3368 46.8587 7.04179C41.8374 2.7468 35.6752 0.597821 28.3809 0.597821C22.9733 0.597821 18.1065 1.76297 13.7804 4.09326C9.56098 6.32493 6.0495 9.69256 3.64269 13.8157C1.21819 17.9621 0 22.6226 0 27.7945C0 32.9663 1.21819 37.6239 3.64269 41.7703C6.06718 45.9255 9.44246 49.1654 13.7804 51.4927C18.1065 53.823 22.9763 54.9881 28.3809 54.9881C35.794 54.9881 42.0424 52.7648 47.1054 48.3093C52.1802 43.8657 55.1157 38.04 55.9298 30.8708H38.2066C37.651 33.3824 36.4774 35.4125 34.6947 36.964V36.9611ZM85.9656 40.2098C84.7267 41.4492 83.1133 42.0705 81.1375 42.0705C79.1616 42.0705 77.5601 41.4492 76.3182 40.2098C75.0792 38.9703 74.4612 37.3564 74.4612 35.3917C74.4612 33.4151 75.0792 31.7892 76.3182 30.529C77.5601 29.2687 79.1705 28.6267 81.1375 28.6267C83.1133 28.6267 84.7148 29.2568 85.9656 30.529C87.2046 31.7892 87.8226 33.4121 87.8226 35.3917C87.8226 37.3683 87.2046 38.9703 85.9656 40.2098ZM97.586 22.8129C94.1483 19.576 89.7034 17.9531 84.2572 17.9531C83.7016 17.9531 82.941 17.9739 81.9813 18.0274L91.6139 2.33068H74.4077L66.2577 15.6347C63.9491 19.4066 62.2525 22.8872 61.1502 26.0616C60.072 29.1062 59.5126 32.3103 59.4953 35.5403C59.4953 41.2887 61.5038 45.9701 65.5208 49.5815C69.5379 53.1928 74.7375 55 81.1493 55C87.6325 55 92.8559 53.2047 96.8165 49.6023C100.78 46.0028 102.759 41.2679 102.759 35.3917C102.744 30.2496 101.027 26.0527 97.589 22.8129H97.586Z" fill="white"/>
</svg>
