<svg width="32" height="33" viewBox="0 0 32 33" fill="none" xmlns="http://www.w3.org/2000/svg">
<g clip-path="url(#clip0_1617_6377)">
<path fill-rule="evenodd" clip-rule="evenodd" d="M16.0003 1.16613C12.202 1.1681 8.52813 2.5134 5.63578 4.96149C2.74344 7.40958 0.821164 10.8008 0.212685 14.5288C-0.395793 18.2568 0.349195 22.0784 2.31445 25.3104C4.27971 28.5423 7.33708 30.9738 10.9399 32.1701C11.7347 32.3176 12.0341 31.825 12.0341 31.4061C12.0341 30.9873 12.0182 29.7728 12.0129 28.4451C7.56182 29.4066 6.62127 26.5668 6.62127 26.5668C5.89532 24.7227 4.84614 24.238 4.84614 24.238C3.39425 23.2527 4.95478 23.2712 4.95478 23.2712C6.56299 23.3844 7.40817 24.9124 7.40817 24.9124C8.83357 27.3439 11.1518 26.6405 12.0632 26.2296C12.2063 25.1995 12.6223 24.4988 13.0806 24.101C9.52507 23.7006 5.78934 22.336 5.78934 16.24C5.76731 14.6591 6.35732 13.1302 7.43731 11.9697C7.27304 11.5693 6.7246 9.95177 7.59361 7.7547C7.59361 7.7547 8.9369 7.32793 11.9944 9.38538C14.6168 8.67229 17.3838 8.67229 20.0063 9.38538C23.0611 7.32793 24.4017 7.7547 24.4017 7.7547C25.2734 9.9465 24.7249 11.564 24.5607 11.9697C25.6441 13.1304 26.2353 14.6619 26.2113 16.2453C26.2113 22.3544 22.4676 23.7006 18.9067 24.0931C19.479 24.5884 19.9904 25.5552 19.9904 27.041C19.9904 29.1695 19.9718 30.8819 19.9718 31.4061C19.9718 31.8303 20.2606 32.3255 21.0713 32.1701C24.6746 30.9737 27.7322 28.5417 29.6974 25.3092C31.6627 22.0767 32.4073 18.2545 31.7981 14.5262C31.1889 10.7979 29.2657 7.4066 26.3724 4.95893C23.4791 2.51127 19.8044 1.16685 16.0056 1.16613H16.0003Z" fill="white"/>
<path d="M6.05921 24.0088C6.02476 24.0878 5.89759 24.1115 5.79426 24.0562C5.69094 24.0009 5.61411 23.8982 5.6512 23.8165C5.68829 23.7348 5.81282 23.7137 5.91614 23.7691C6.01947 23.8244 6.09895 23.9298 6.05921 24.0088Z" fill="#191717"/>
<path d="M6.70835 24.728C6.65348 24.7555 6.5907 24.7631 6.53077 24.7497C6.47084 24.7362 6.41748 24.7025 6.37982 24.6542C6.27649 24.5436 6.25528 24.3908 6.33477 24.3223C6.41425 24.2538 6.55733 24.2854 6.66066 24.396C6.76399 24.5067 6.78783 24.6595 6.70835 24.728Z" fill="#191717"/>
<path d="M7.33903 25.6421C7.241 25.7106 7.07408 25.6421 6.98135 25.5051C6.95571 25.4805 6.93532 25.4511 6.92139 25.4185C6.90746 25.3859 6.90027 25.3509 6.90027 25.3154C6.90027 25.28 6.90746 25.245 6.92139 25.2124C6.93532 25.1798 6.95571 25.1503 6.98135 25.1258C7.07938 25.0599 7.2463 25.1258 7.33903 25.2601C7.43176 25.3945 7.43441 25.5736 7.33903 25.6421V25.6421Z" fill="#191717"/>
<path d="M8.19474 26.5272C8.10731 26.6247 7.9298 26.5984 7.78408 26.4667C7.63836 26.3349 7.60391 26.1558 7.69134 26.061C7.77877 25.9661 7.95628 25.9925 8.1073 26.1216C8.25832 26.2506 8.28747 26.4324 8.19474 26.5272V26.5272Z" fill="#191717"/>
<path d="M9.39494 27.0436C9.3552 27.1674 9.17503 27.2227 8.99487 27.17C8.81471 27.1173 8.69548 26.9698 8.72993 26.8434C8.76437 26.7169 8.94718 26.659 9.12999 26.7169C9.31281 26.7749 9.42938 26.9145 9.39494 27.0436Z" fill="#191717"/>
<path d="M10.7038 27.1332C10.7038 27.2622 10.5554 27.3729 10.3647 27.3755C10.1739 27.3781 10.0176 27.2728 10.0176 27.1437C10.0176 27.0146 10.1659 26.904 10.3567 26.9013C10.5475 26.8987 10.7038 27.0014 10.7038 27.1332Z" fill="#191717"/>
<path d="M11.9225 26.9303C11.9463 27.0594 11.8139 27.1937 11.6231 27.2254C11.4323 27.257 11.2654 27.1806 11.2416 27.0541C11.2177 26.9277 11.3555 26.7907 11.541 26.7564C11.7264 26.7222 11.8986 26.8012 11.9225 26.9303Z" fill="#191717"/>
</g>
<defs>
<clipPath id="clip0_1617_6377">
<rect width="32" height="32" fill="white" transform="translate(0 0.499458)"/>
</clipPath>
</defs>
</svg>
