<svg width="32" height="33" viewBox="0 0 32 33" fill="none" xmlns="http://www.w3.org/2000/svg">
<g clip-path="url(#clip0_1617_6386)">
<path d="M16 32.4995C24.8366 32.4995 32 25.336 32 16.4995C32 7.6629 24.8366 0.499458 16 0.499458C7.16344 0.499458 0 7.6629 0 16.4995C0 25.336 7.16344 32.4995 16 32.4995Z" fill="white"/>
<path d="M26.6666 16.4995C26.6666 15.2082 25.6187 14.1603 24.3275 14.1603C23.6912 14.1603 23.1298 14.4035 22.7181 14.8152C21.1275 13.6737 18.9193 12.9252 16.4865 12.8316L17.5532 7.83513L21.0152 8.56495C21.0526 9.44448 21.7824 10.1556 22.6807 10.1556C23.5976 10.1556 24.3462 9.40706 24.3462 8.4901C24.3462 7.57314 23.5976 6.8246 22.6807 6.8246C22.0257 6.8246 21.4643 7.19887 21.2023 7.76027L17.3286 6.93688C17.2163 6.91817 17.1041 6.93688 17.0105 6.99302C16.9169 7.04916 16.8608 7.14273 16.8234 7.25501L15.6444 12.8316C13.1555 12.9065 10.9286 13.6363 9.31927 14.8152C8.90757 14.4223 8.32745 14.1603 7.70991 14.1603C6.41868 14.1603 5.37073 15.2082 5.37073 16.4995C5.37073 17.4538 5.93213 18.2585 6.75552 18.6328C6.7181 18.8573 6.69938 19.1006 6.69938 19.3439C6.69938 22.9369 10.8725 25.8375 16.0374 25.8375C21.2023 25.8375 25.3754 22.9369 25.3754 19.3439C25.3754 19.1006 25.3567 18.8761 25.3193 18.6515C26.0865 18.2772 26.6666 17.4538 26.6666 16.4995ZM10.6666 18.165C10.6666 17.248 11.4152 16.4995 12.3321 16.4995C13.2491 16.4995 13.9976 17.248 13.9976 18.165C13.9976 19.0819 13.2491 19.8304 12.3321 19.8304C11.4152 19.8304 10.6666 19.0819 10.6666 18.165ZM19.9672 22.5626C18.8257 23.7041 16.6549 23.779 16.0187 23.779C15.3824 23.779 13.1929 23.6854 12.0701 22.5626C11.9017 22.3942 11.9017 22.1135 12.0701 21.9451C12.2386 21.7766 12.5193 21.7766 12.6877 21.9451C13.3988 22.6562 14.9333 22.9182 16.0374 22.9182C17.1415 22.9182 18.6573 22.6562 19.3871 21.9451C19.5555 21.7766 19.8362 21.7766 20.0046 21.9451C20.1356 22.1322 20.1356 22.3942 19.9672 22.5626ZM19.6678 19.8304C18.7508 19.8304 18.0023 19.0819 18.0023 18.165C18.0023 17.248 18.7508 16.4995 19.6678 16.4995C20.5848 16.4995 21.3333 17.248 21.3333 18.165C21.3333 19.0819 20.5848 19.8304 19.6678 19.8304Z" fill="#C00001"/>
</g>
<defs>
<clipPath id="clip0_1617_6386">
<rect width="32" height="32" fill="white" transform="translate(0 0.499458)"/>
</clipPath>
</defs>
</svg>
