<svg width="30" height="30" viewBox="0 0 30 30" fill="none" xmlns="http://www.w3.org/2000/svg">
<rect width="30" height="30" rx="15" fill="url(#paint0_linear_1613_6254)"/>
<path fill-rule="evenodd" clip-rule="evenodd" d="M17.3547 7.32094C17.5923 6.98168 18.0599 6.89923 18.3992 7.13678C18.7384 7.37434 18.8209 7.84195 18.5833 8.18121L17.3678 9.91709C18.1573 10.1693 18.6952 10.4414 18.6952 10.4414C18.6952 10.4414 17.3805 12.7029 15.1506 12.7029C12.9206 12.7029 11.3361 10.5951 11.3361 10.5951C11.3361 10.5951 11.8979 10.2366 12.7308 9.92904L11.4073 8.35179C11.1411 8.03452 11.1825 7.5615 11.4998 7.29528C11.817 7.02906 12.29 7.07045 12.5563 7.38771L14.2491 9.40521C14.2828 9.44528 14.3115 9.48783 14.3353 9.53213C14.5344 9.50896 14.7374 9.49595 14.9423 9.49595C15.2296 9.49595 15.5167 9.51796 15.7968 9.55525C15.8109 9.529 15.8266 9.50331 15.8441 9.47831L17.3547 7.32094ZM11.7956 12.81C11.2005 12.385 10.3001 11.2757 10.3001 11.2757C10.3001 11.2757 8 13.0984 8 16.9631C8 20.8279 11.9764 23.1539 11.9764 23.1539C11.9764 23.1539 13.8763 21.2352 14.3427 18.803C14.8091 16.3708 13.6528 13.6702 13.6528 13.6702C13.6528 13.6702 12.3907 13.235 11.7956 12.81ZM18.2044 12.81C18.7995 12.385 19.6999 11.2757 19.6999 11.2757C19.6999 11.2757 22 13.0984 22 16.9631C22 20.8279 18.0236 23.1539 18.0236 23.1539C18.0236 23.1539 16.1237 21.2352 15.6573 18.803C15.1909 16.3708 16.3472 13.6702 16.3472 13.6702C16.3472 13.6702 17.6093 13.235 18.2044 12.81Z" fill="white"/>
<defs>
<linearGradient id="paint0_linear_1613_6254" x1="0" y1="0" x2="0" y2="30" gradientUnits="userSpaceOnUse">
<stop stop-color="#92BC2C"/>
<stop offset="1" stop-color="#AFC836"/>
</linearGradient>
</defs>
</svg>
