<svg width="30" height="30" viewBox="0 0 30 30" fill="none" xmlns="http://www.w3.org/2000/svg">
<rect width="30" height="30" rx="15" fill="url(#paint0_linear_1613_6174)"/>
<path fill-rule="evenodd" clip-rule="evenodd" d="M12.1447 23C12.853 23 13.4742 22.4995 13.8224 21.7477C14.1706 22.4995 14.7917 23 15.5 23C16.1456 23 16.7189 22.5841 17.0789 21.9411C17.439 22.5841 18.0123 23 18.6579 23C19.7479 23 20.6316 21.8145 20.6316 20.3521C20.6316 20.064 20.5973 19.7866 20.5338 19.5268C22.0485 18.3156 23 16.5657 23 14.6196C23 10.9637 19.6421 8 15.5 8C11.3579 8 8 10.9637 8 14.6196C8 16.4955 8.884 18.189 10.3044 19.3936C10.2183 19.6908 10.1711 20.0141 10.1711 20.3521C10.1711 21.8145 11.0547 23 12.1447 23ZM15.4013 18.1117C17.8539 18.1117 19.8421 16.607 19.8421 14.7509C19.8421 12.8948 17.8539 11.3902 15.4013 11.3902C12.9487 11.3902 10.9605 12.8948 10.9605 14.7509C10.9605 16.607 12.9487 18.1117 15.4013 18.1117Z" fill="white"/>
<defs>
<linearGradient id="paint0_linear_1613_6174" x1="0" y1="0" x2="0" y2="30" gradientUnits="userSpaceOnUse">
<stop stop-color="#A864C7"/>
<stop offset="1" stop-color="#C261D4"/>
</linearGradient>
</defs>
</svg>
