<svg width="30" height="30" viewBox="0 0 30 30" fill="none" xmlns="http://www.w3.org/2000/svg">
<rect width="30" height="30" rx="15" fill="url(#paint0_linear_1613_6226)"/>
<path fill-rule="evenodd" clip-rule="evenodd" d="M15 22C18.866 22 22 18.866 22 15C22 11.134 18.866 8 15 8C11.134 8 8 11.134 8 15C8 18.866 11.134 22 15 22ZM12.9219 15.0721C13.5259 15.0721 14.0156 14.5924 14.0156 14.0006H13.3394C12.8188 14.0006 12.3945 13.588 12.3757 13.072C12.0484 13.2572 11.8281 13.6037 11.8281 14.0006C11.8281 14.5924 12.3178 15.0721 12.9219 15.0721ZM15.7656 14.0006C15.7656 14.5924 16.2553 15.0721 16.8594 15.0721C17.4634 15.0721 17.9531 14.5924 17.9531 14.0006C17.9531 13.6037 17.7329 13.2572 17.4056 13.072C17.3868 13.588 16.9625 14.0006 16.4419 14.0006H15.7656Z" fill="white"/>
<defs>
<linearGradient id="paint0_linear_1613_6226" x1="0.193393" y1="0" x2="0.193393" y2="29.6132" gradientUnits="userSpaceOnUse">
<stop stop-color="#516AAC"/>
<stop offset="1" stop-color="#7773D4"/>
</linearGradient>
</defs>
</svg>
