<svg width="30" height="30" viewBox="0 0 30 30" fill="none" xmlns="http://www.w3.org/2000/svg">
<rect width="30" height="30" rx="15" fill="url(#paint0_linear_1613_6235)"/>
<path fill-rule="evenodd" clip-rule="evenodd" d="M10.7701 19.4501L12.8448 18.8485L14.7871 22.4C14.8791 22.5682 15.1208 22.5682 15.2128 22.4L17.1551 18.8485L19.2298 19.4501C19.414 19.5035 19.5844 19.3322 19.53 19.1483L18.9306 17.1222L22.3737 15.239C22.542 15.147 22.542 14.9054 22.3737 14.8134L18.8991 12.913L19.53 10.7805C19.5844 10.5966 19.414 10.4253 19.2298 10.4787L17.0968 11.0972L15.2128 7.65243C15.1208 7.48418 14.8791 7.48418 14.7871 7.65243L12.9031 11.0972L10.7701 10.4787C10.5859 10.4253 10.4155 10.5966 10.4699 10.7805L11.1008 12.913L7.62619 14.8134C7.45794 14.9054 7.45794 15.147 7.62619 15.239L11.0693 17.1222L10.4699 19.1483C10.4155 19.3322 10.5859 19.5035 10.7701 19.4501ZM12.6649 15.2594L14.05 16.0169L14.8075 17.402C14.8995 17.5703 15.1412 17.5703 15.2332 17.402L15.9907 16.0169L17.3758 15.2594C17.544 15.1674 17.544 14.9258 17.3758 14.8337L15.9907 14.0762L15.2332 12.6911C15.1412 12.5229 14.8995 12.5229 14.8075 12.6911L14.05 14.0762L12.6649 14.8337C12.4966 14.9258 12.4966 15.1674 12.6649 15.2594Z" fill="white"/>
<defs>
<linearGradient id="paint0_linear_1613_6235" x1="0.246216" y1="0" x2="0.246216" y2="29.5076" gradientUnits="userSpaceOnUse">
<stop stop-color="#EC8CE5"/>
<stop offset="1" stop-color="#F3A7E7"/>
</linearGradient>
</defs>
</svg>
