<svg width="33" height="34" viewBox="0 0 33 34" fill="none" xmlns="http://www.w3.org/2000/svg">
<path fill-rule="evenodd" clip-rule="evenodd" d="M13.9984 12.2H7.20156C6.31836 12.2 5.60156 11.4832 5.60156 10.6V7.40005C5.60156 6.51685 6.31836 5.80005 7.20156 5.80005H13.9984C14.8816 5.80005 15.5984 6.51685 15.5984 7.40005V10.6C15.5984 11.4832 14.8816 12.2 13.9984 12.2Z" stroke="#F68118" stroke-width="2" stroke-linecap="round" stroke-linejoin="round"/>
<path d="M24.9995 7.92163V7.92163C26.1707 9.09283 26.1707 10.992 24.9995 12.1648V12.1648" stroke="#F68118" stroke-width="2" stroke-linecap="round" stroke-linejoin="round"/>
<path opacity="0.6" d="M29.9512 5.80005C32.2936 8.14245 32.2936 11.9424 29.9512 14.2848" stroke="#F68118" stroke-width="2" stroke-linecap="round" stroke-linejoin="round"/>
<path opacity="0.6" fill-rule="evenodd" clip-rule="evenodd" d="M26.5996 33H12.1996C11.3164 33 10.5996 32.2832 10.5996 31.4V23.4C10.5996 22.5168 11.3164 21.8 12.1996 21.8H26.5996C27.4828 21.8 28.1996 22.5168 28.1996 23.4V31.4C28.1996 32.2832 27.4828 33 26.5996 33Z" stroke="#F68118" stroke-width="2" stroke-linecap="round" stroke-linejoin="round"/>
<path opacity="0.6" d="M20.2 21.8V4.2C20.2 2.432 18.768 1 17 1H4.2C2.432 1 1 2.432 1 4.2V23.4C1 25.168 2.432 26.6 4.2 26.6H10.6" stroke="#F68118" stroke-width="2" stroke-linecap="round" stroke-linejoin="round"/>
<path d="M10.5996 26.6H28.1996" stroke="#F68118" stroke-width="2" stroke-linecap="round" stroke-linejoin="round"/>
<path d="M5.8 16.9839C5.7952 16.9839 5.792 16.9871 5.792 16.9919C5.792 16.9967 5.7952 16.9999 5.8 16.9999C5.8048 16.9999 5.808 16.9967 5.808 16.9919C5.808 16.9871 5.8048 16.9839 5.8 16.9839" stroke="#F68118" stroke-width="2" stroke-linecap="round" stroke-linejoin="round"/>
<path d="M10.5998 17C10.595 17 10.5918 17.0032 10.5918 17.008C10.5918 17.0128 10.595 17.016 10.5998 17.016C10.6046 17.016 10.6078 17.0128 10.6078 17.008C10.6078 17.0032 10.6046 17 10.5998 17" stroke="#F68118" stroke-width="2" stroke-linecap="round" stroke-linejoin="round"/>
<path d="M15.4074 16.992C15.4026 16.992 15.3994 16.9952 15.3994 17C15.3994 17.0048 15.4026 17.008 15.4074 17.008C15.4122 17.008 15.4154 17.0048 15.4154 17C15.4154 16.9952 15.4122 16.992 15.4074 16.992" stroke="#F68118" stroke-width="2" stroke-linecap="round" stroke-linejoin="round"/>
</svg>
