<svg width="24" height="24" viewBox="0 0 24 24" fill="none" xmlns="http://www.w3.org/2000/svg">
<path d="M18.0615 8.90111L17.9855 7.78057C17.9155 6.74111 17.0435 5.93408 15.9905 5.93408H5.73253C4.67953 5.93408 3.80753 6.74111 3.73753 7.78057L3.00453 18.6607C2.92753 19.802 3.84253 20.7692 4.99953 20.7692H5.99953" stroke="#008C8C" stroke-width="1.5" stroke-linecap="round" stroke-linejoin="round"/>
<path d="M7.8623 5.93407V4.94506C7.8623 3.30627 9.20531 1.97803 10.8623 1.97803V1.97803C12.5193 1.97803 13.8623 3.30627 13.8623 4.94506V5.93407" stroke="#008C8C" stroke-width="1.5" stroke-linecap="round" stroke-linejoin="round"/>
<path opacity="0.8" fill-rule="evenodd" clip-rule="evenodd" d="M10.7137 11.8682H19.7137C20.4247 11.8682 20.9997 12.4368 20.9997 13.14V19.4984C20.9997 20.2006 20.4247 20.7693 19.7137 20.7693H10.7137C10.0037 20.7693 9.42773 20.2006 9.42773 19.4974V13.139C9.42873 12.4368 10.0037 11.8682 10.7137 11.8682V11.8682Z" stroke="#008C8C" stroke-width="1.5" stroke-linecap="round" stroke-linejoin="round"/>
<path opacity="0.8" d="M12.9639 14.8352C12.9639 16.0645 13.9709 17.0605 15.2139 17.0605C16.4569 17.0605 17.4639 16.0645 17.4639 14.8352" stroke="#008C8C" stroke-width="1.5" stroke-linecap="round" stroke-linejoin="round"/>
</svg>
