<svg width="22" height="22" viewBox="0 0 22 22" fill="none" xmlns="http://www.w3.org/2000/svg">
<path fill-rule="evenodd" clip-rule="evenodd" d="M11.7041 5.93319C11.7254 5.77873 11.527 5.69732 11.4337 5.82224L6.79833 12.0276C6.724 12.1271 6.79501 12.2688 6.91922 12.2688H11.0031C11.0946 12.2688 11.1651 12.3496 11.1526 12.4403L10.6485 16.0895C10.6271 16.244 10.8255 16.3254 10.9188 16.2005L15.5542 9.99514C15.6285 9.89564 15.5575 9.75395 15.4333 9.75395H11.3494C11.2579 9.75395 11.1874 9.6731 11.2 9.58242L11.7041 5.93319Z" stroke="#7B7775" stroke-width="1.13167" stroke-linecap="round" stroke-linejoin="round"/>
<path opacity="0.4" fill-rule="evenodd" clip-rule="evenodd" d="M11.1766 20.711C16.5337 20.711 20.8766 16.3682 20.8766 11.011C20.8766 5.65387 16.5337 1.31104 11.1766 1.31104C5.8194 1.31104 1.47656 5.65387 1.47656 11.011C1.47656 16.3682 5.8194 20.711 11.1766 20.711Z" stroke="#7B7775" stroke-width="1.61667" stroke-linecap="round" stroke-linejoin="round"/>
</svg>
