<svg width="24" height="24" viewBox="0 0 24 24" fill="none" xmlns="http://www.w3.org/2000/svg">
<path d="M10.9365 20C6.10361 20 2.18652 15.971 2.18652 11C2.18652 6.029 6.10361 2 10.9365 2C15.7694 2 19.6865 6.029 19.6865 11" stroke="#008C8C" stroke-width="1.5" stroke-linecap="round" stroke-linejoin="round"/>
<path opacity="0.8" d="M21.6313 14H20.4082L19.4302 19.031H14.5389L13.8535 15.509H20.1146" stroke="#008C8C" stroke-width="1.5" stroke-linecap="round" stroke-linejoin="round"/>
<path opacity="0.8" d="M14.9928 21.512C15.0122 21.492 15.0433 21.492 15.0618 21.512C15.0803 21.532 15.0813 21.564 15.0618 21.583C15.0424 21.602 15.0113 21.603 14.9928 21.583C14.9733 21.563 14.9733 21.531 14.9928 21.512" stroke="#008C8C" stroke-width="1.5" stroke-linecap="round" stroke-linejoin="round"/>
<path opacity="0.8" d="M18.9059 21.512C18.9253 21.492 18.9564 21.492 18.9749 21.512C18.9934 21.532 18.9944 21.564 18.9749 21.583C18.9555 21.602 18.9244 21.603 18.9059 21.583C18.8864 21.563 18.8864 21.531 18.9059 21.512" stroke="#008C8C" stroke-width="1.5" stroke-linecap="round" stroke-linejoin="round"/>
<path d="M14.8261 11C14.8261 8.23599 14.1232 5.47199 12.7193 3.05999C11.8958 1.64699 9.97862 1.64699 9.15612 3.05999C6.3464 7.88499 6.3464 14.116 9.15612 18.941C9.56737 19.647 10.2518 20 10.9372 20" stroke="#008C8C" stroke-width="1.5" stroke-linecap="round" stroke-linejoin="round"/>
<path d="M2.68262 8H18.7146" stroke="#008C8C" stroke-width="1.5" stroke-linecap="round" stroke-linejoin="round"/>
<path d="M2.68262 14H10.9368" stroke="#008C8C" stroke-width="1.5" stroke-linecap="round" stroke-linejoin="round"/>
</svg>
