<svg width="24" height="24" viewBox="0 0 24 24" fill="none" xmlns="http://www.w3.org/2000/svg">
<path fill-rule="evenodd" clip-rule="evenodd" d="M10.124 9H5.87598C5.32398 9 4.87598 8.552 4.87598 8V6C4.87598 5.448 5.32398 5 5.87598 5H10.124C10.676 5 11.124 5.448 11.124 6V8C11.124 8.552 10.676 9 10.124 9Z" stroke="#008C8C" stroke-width="1.5" stroke-linecap="round" stroke-linejoin="round"/>
<path d="M16.9999 6.32605V6.32605C17.7319 7.05805 17.7319 8.24505 16.9999 8.97805V8.97805" stroke="#008C8C" stroke-width="1.5" stroke-linecap="round" stroke-linejoin="round"/>
<path opacity="0.6" d="M20.0938 5C21.5577 6.464 21.5577 8.839 20.0938 10.303" stroke="#008C8C" stroke-width="1.5" stroke-linecap="round" stroke-linejoin="round"/>
<path opacity="0.6" fill-rule="evenodd" clip-rule="evenodd" d="M18 22H9C8.448 22 8 21.552 8 21V16C8 15.448 8.448 15 9 15H18C18.552 15 19 15.448 19 16V21C19 21.552 18.552 22 18 22Z" stroke="#008C8C" stroke-width="1.5" stroke-linecap="round" stroke-linejoin="round"/>
<path opacity="0.6" d="M14 15V4C14 2.895 13.105 2 12 2H4C2.895 2 2 2.895 2 4V16C2 17.105 2.895 18 4 18H8" stroke="#008C8C" stroke-width="1.5" stroke-linecap="round" stroke-linejoin="round"/>
<path d="M8 18H19" stroke="#008C8C" stroke-width="1.5" stroke-linecap="round" stroke-linejoin="round"/>
<path d="M5 11.99C4.997 11.99 4.995 11.992 4.995 11.995C4.995 11.998 4.997 12 5 12C5.003 12 5.005 11.998 5.005 11.995C5.005 11.992 5.003 11.99 5 11.99" stroke="#008C8C" stroke-width="1.5" stroke-linecap="round" stroke-linejoin="round"/>
<path d="M8 12C7.997 12 7.995 12.002 7.995 12.005C7.995 12.008 7.997 12.01 8 12.01C8.003 12.01 8.005 12.008 8.005 12.005C8.005 12.002 8.003 12 8 12" stroke="#008C8C" stroke-width="1.5" stroke-linecap="round" stroke-linejoin="round"/>
<path d="M11.0049 11.995C11.0019 11.995 10.9999 11.997 10.9999 12C10.9999 12.003 11.0019 12.005 11.0049 12.005C11.0079 12.005 11.0099 12.003 11.0099 12C11.0099 11.997 11.0079 11.995 11.0049 11.995" stroke="#008C8C" stroke-width="1.5" stroke-linecap="round" stroke-linejoin="round"/>
</svg>
