<svg width="34" height="34" viewBox="0 0 34 34" fill="none" xmlns="http://www.w3.org/2000/svg">
<path opacity="0.6" d="M24.082 21.25H29.4342C30.2162 21.25 30.8509 20.6153 30.8509 19.8333V9.37126C30.8509 8.58926 30.2162 7.95459 29.4342 7.95459H24.082" stroke="#EC7000" stroke-width="2.19141" stroke-linecap="round" stroke-linejoin="round"/>
<path opacity="0.6" d="M8.97143 5.66699H5.87317C4.19442 5.66699 2.83301 7.02841 2.83301 8.70716V28.1282C2.83301 29.8056 4.19442 31.167 5.87317 31.167H18.2109C19.8883 31.167 21.2497 29.8056 21.2497 28.1268V8.70716C21.2497 7.02841 19.8883 5.66699 18.2095 5.66699H15.1098" stroke="#EC7000" stroke-width="2.19141" stroke-linecap="round" stroke-linejoin="round"/>
<path d="M16.6444 22.43C16.5028 22.43 16.388 22.5363 16.3894 22.6666C16.3894 22.7969 16.5042 22.9032 16.6458 22.9032C16.7875 22.9032 16.9023 22.7969 16.9023 22.6666C16.9023 22.5363 16.7875 22.43 16.6444 22.43" stroke="#EC7000" stroke-width="2.19141" stroke-linecap="round" stroke-linejoin="round"/>
<path d="M7.43642 22.43C7.29475 22.43 7.18 22.5363 7.18142 22.6666C7.18142 22.7969 7.29617 22.9032 7.43783 22.9032C7.5795 22.9032 7.69425 22.7969 7.69425 22.6666C7.69425 22.5363 7.5795 22.43 7.43642 22.43" stroke="#EC7000" stroke-width="2.19141" stroke-linecap="round" stroke-linejoin="round"/>
<path d="M2.83301 12.7501H21.2497" stroke="#EC7000" stroke-width="2.19141" stroke-linecap="round" stroke-linejoin="round"/>
<path d="M21.2497 18.4166H2.83301" stroke="#EC7000" stroke-width="2.19141" stroke-linecap="round" stroke-linejoin="round"/>
<path d="M12.0399 22.43C11.8983 22.43 11.7835 22.5363 11.7849 22.6666C11.7849 22.7969 11.8997 22.9032 12.0413 22.9032C12.183 22.9032 12.2978 22.7969 12.2978 22.6666C12.2978 22.5363 12.183 22.43 12.0399 22.43" stroke="#EC7000" stroke-width="2.19141" stroke-linecap="round" stroke-linejoin="round"/>
<path d="M16.6444 26.6802C16.5028 26.6802 16.388 26.7865 16.3894 26.9168C16.3894 27.0472 16.5042 27.1534 16.6458 27.1534C16.7875 27.1534 16.9023 27.0472 16.9023 26.9168C16.9023 26.7865 16.7875 26.6802 16.6444 26.6802" stroke="#EC7000" stroke-width="2.19141" stroke-linecap="round" stroke-linejoin="round"/>
<path d="M7.43642 26.6802C7.29475 26.6802 7.18 26.7865 7.18142 26.9168C7.18142 27.0472 7.29617 27.1534 7.43783 27.1534C7.5795 27.1534 7.69425 27.0472 7.69425 26.9168C7.69425 26.7865 7.5795 26.6802 7.43642 26.6802" stroke="#EC7000" stroke-width="2.19141" stroke-linecap="round" stroke-linejoin="round"/>
<path d="M12.0399 26.6802C11.8983 26.6802 11.7835 26.7865 11.7849 26.9168C11.7849 27.0472 11.8997 27.1534 12.0413 27.1534C12.183 27.1534 12.2978 27.0472 12.2978 26.9168C12.2978 26.7865 12.183 26.6802 12.0399 26.6802" stroke="#EC7000" stroke-width="2.19141" stroke-linecap="round" stroke-linejoin="round"/>
<path fill-rule="evenodd" clip-rule="evenodd" d="M8.9707 2.8335H15.1091V8.50016H8.9707V2.8335Z" stroke="#EC7000" stroke-width="2.19141" stroke-linecap="round" stroke-linejoin="round"/>
<path d="M29.041 27.6252L26.916 29.7502L24.791 27.6252" stroke="#EC7000" stroke-width="2.19141" stroke-linecap="round" stroke-linejoin="round"/>
<path d="M26.9163 25.5002V29.7502" stroke="#EC7000" stroke-width="2.19141" stroke-linecap="round" stroke-linejoin="round"/>
<path d="M26.9163 21.25V7.94751" stroke="#EC7000" stroke-width="2.19141" stroke-linecap="round" stroke-linejoin="round"/>
</svg>
