<svg width="32" height="32" viewBox="0 0 32 32" fill="none" xmlns="http://www.w3.org/2000/svg">
<path opacity="0.6" d="M26.6667 14.6667V6.36533V6.36533C26.6667 5.05867 25.608 4 24.3013 4H6.36533C5.05867 4 4 5.05867 4 6.36533V24.3013C4 25.608 5.05867 26.6667 6.36533 26.6667H12" stroke="#EC7000" stroke-width="2" stroke-linecap="round" stroke-linejoin="round"/>
<path d="M9.40267 15.2642C9.53333 15.3948 9.53333 15.6055 9.40267 15.7362C9.272 15.8668 9.06133 15.8668 8.93067 15.7362C8.8 15.6055 8.8 15.3948 8.93067 15.2642C9.06133 15.1348 9.272 15.1348 9.40267 15.2642" stroke="#EC7000" stroke-width="2" stroke-linecap="round" stroke-linejoin="round"/>
<path d="M21.6862 9.49992H14.6729" stroke="#EC7000" stroke-width="2" stroke-linecap="round" stroke-linejoin="round"/>
<path d="M9.40267 9.26806C9.53333 9.39873 9.53333 9.6094 9.40267 9.74006C9.272 9.87073 9.06133 9.87073 8.93067 9.74006C8.8 9.6094 8.8 9.39873 8.93067 9.26806C9.06133 9.1374 9.272 9.13873 9.40267 9.26806" stroke="#EC7000" stroke-width="2" stroke-linecap="round" stroke-linejoin="round"/>
<path d="M21.6862 15.4999H14.6729" stroke="#EC7000" stroke-width="2" stroke-linecap="round" stroke-linejoin="round"/>
<path opacity="0.6" fill-rule="evenodd" clip-rule="evenodd" d="M16.333 22.3333V27C16.333 28.288 17.3783 29.3333 18.6663 29.3333H25.6663C26.9543 29.3333 27.9997 28.288 27.9997 27V22.3333C27.9997 21.0453 26.9543 20 25.6663 20H18.6663C17.3783 20 16.333 21.0453 16.333 22.3333Z" stroke="#EC7000" stroke-width="2" stroke-linecap="round" stroke-linejoin="round"/>
<path d="M27.9997 24.2294H16.333" stroke="#EC7000" stroke-width="2" stroke-linecap="round" stroke-linejoin="round"/>
</svg>
