<svg width="26" height="24" viewBox="0 0 26 24" fill="none" xmlns="http://www.w3.org/2000/svg">
<path d="M20.1958 10.625V3.774V3.774C20.1958 2.794 19.3775 2 18.3674 2H4.24538C3.23533 2 2.41699 2.794 2.41699 3.774V17.476C2.41699 18.456 3.23533 19.25 4.24538 19.25H12.7236" stroke="#008C8C" stroke-width="1.5" stroke-linecap="round" stroke-linejoin="round"/>
<path opacity="0.8" fill-rule="evenodd" clip-rule="evenodd" d="M23.2265 20.928H20.2459L18.3371 22.764C17.8114 23.269 16.9199 22.908 16.9199 22.191V14.808C16.9199 14.09 17.8156 13.729 18.3391 14.238L23.815 19.551C24.3386 20.059 23.9686 20.928 23.2265 20.928V20.928Z" stroke="#008C8C" stroke-width="1.5" stroke-linecap="round" stroke-linejoin="round"/>
<path d="M16.3461 10.625H10.9248" stroke="#008C8C" stroke-width="1.5" stroke-linecap="round" stroke-linejoin="round"/>
<path d="M6.85108 10.448C6.95208 10.546 6.95208 10.704 6.85108 10.802C6.75007 10.9 6.58723 10.9 6.48622 10.802C6.38522 10.704 6.38522 10.546 6.48622 10.448C6.58723 10.351 6.75007 10.351 6.85108 10.448" stroke="#008C8C" stroke-width="1.5" stroke-linecap="round" stroke-linejoin="round"/>
<path d="M16.3461 6.125H10.9248" stroke="#008C8C" stroke-width="1.5" stroke-linecap="round" stroke-linejoin="round"/>
<path d="M6.85108 5.95099C6.95208 6.04899 6.95208 6.20699 6.85108 6.30499C6.75007 6.40299 6.58723 6.40299 6.48622 6.30499C6.38522 6.20699 6.38522 6.04899 6.48622 5.95099C6.58723 5.85299 6.75007 5.85399 6.85108 5.95099" stroke="#008C8C" stroke-width="1.5" stroke-linecap="round" stroke-linejoin="round"/>
<path d="M12.7233 15.125H11.0176" stroke="#008C8C" stroke-width="1.5" stroke-linecap="round" stroke-linejoin="round"/>
<path d="M6.9419 14.952C7.0429 15.05 7.0429 15.208 6.9419 15.306C6.84089 15.404 6.67805 15.404 6.57704 15.306C6.47604 15.208 6.47604 15.05 6.57704 14.952C6.67805 14.854 6.84089 14.855 6.9419 14.952" stroke="#008C8C" stroke-width="1.5" stroke-linecap="round" stroke-linejoin="round"/>
</svg>
