<svg width="27" height="27" viewBox="0 0 27 27" fill="none" xmlns="http://www.w3.org/2000/svg">
<path d="M18.8076 9.93188C20.5942 11.7185 20.5942 14.6146 18.8076 16.4012" stroke="#7B7775" stroke-width="1.61667" stroke-linecap="round" stroke-linejoin="round"/>
<path d="M16.2434 11.5493C17.1362 12.4421 17.1362 13.8912 16.2434 14.784" stroke="#7B7775" stroke-width="1.61667" stroke-linecap="round" stroke-linejoin="round"/>
<path opacity="0.4" d="M7.20996 5.6191C7.20996 4.42766 8.17497 3.46265 9.36641 3.46265H22.3051C23.4966 3.46265 24.4616 4.42766 24.4616 5.6191V20.7143C24.4616 21.9057 23.4966 22.8707 22.3051 22.8707H9.36641C8.17497 22.8707 7.20996 21.9057 7.20996 20.7143" stroke="#7B7775" stroke-width="1.61667" stroke-linecap="round" stroke-linejoin="round"/>
<path fill-rule="evenodd" clip-rule="evenodd" d="M2.89648 11.226V15.1076C2.89648 16.1793 3.76554 17.0484 4.83729 17.0484H10.6597C11.7326 17.0484 12.6005 16.1793 12.6005 15.1076V11.226C12.6005 10.1531 11.7315 9.28516 10.6597 9.28516H4.83729C3.76554 9.28516 2.89648 10.1531 2.89648 11.226Z" stroke="#7B7775" stroke-width="1.61667" stroke-linecap="round" stroke-linejoin="round"/>
<path d="M12.6005 12.1963H2.89648" stroke="#7B7775" stroke-width="1.61667" stroke-linecap="round" stroke-linejoin="round"/>
</svg>
