<svg width="27" height="27" viewBox="0 0 27 27" fill="none" xmlns="http://www.w3.org/2000/svg">
<path fill-rule="evenodd" clip-rule="evenodd" d="M11.72 12.2H15.7919C16.9828 12.2 17.9474 13.1646 17.9474 14.3555V21.9C17.9474 23.0909 16.9828 24.0555 15.7919 24.0555H11.72C10.5291 24.0555 9.56445 23.0909 9.56445 21.9V14.3555C9.56445 13.1646 10.5301 12.2 11.72 12.2Z" stroke="#7B7775" stroke-width="1.61667" stroke-linecap="round" stroke-linejoin="round"/>
<path d="M10.5225 7.07305C12.3083 5.28717 15.2032 5.28717 16.9891 7.07305" stroke="#7B7775" stroke-width="1.61667" stroke-linecap="round" stroke-linejoin="round"/>
<path d="M12.1387 9.22876C13.0311 8.33636 14.4796 8.33636 15.372 9.22876" stroke="#7B7775" stroke-width="1.61667" stroke-linecap="round" stroke-linejoin="round"/>
<path opacity="0.4" d="M9.5639 14.8945H8.36649C7.17555 14.8945 6.21094 13.9299 6.21094 12.739V4.11674C6.21094 2.92579 7.17555 1.96118 8.36649 1.96118H19.1443C20.3352 1.96118 21.2998 2.92579 21.2998 4.11674V12.739C21.2998 13.9299 20.3352 14.8945 19.1443 14.8945H17.9469" stroke="#7B7775" stroke-width="1.61667" stroke-linecap="round" stroke-linejoin="round"/>
<path d="M13.7938 20.784C13.8148 20.805 13.8148 20.8392 13.7938 20.8602C13.7727 20.8812 13.7386 20.8812 13.7176 20.8602C13.6965 20.8392 13.6965 20.805 13.7176 20.784C13.7386 20.7629 13.7727 20.7629 13.7938 20.784" stroke="#7B7775" stroke-width="1.61667" stroke-linecap="round" stroke-linejoin="round"/>
</svg>
