<svg width="32" height="32" viewBox="0 0 32 32" fill="none" xmlns="http://www.w3.org/2000/svg">
<path d="M26.6657 26.6665V13.0398" stroke="#EC7000" stroke-width="2" stroke-linecap="round" stroke-linejoin="round"/>
<path opacity="0.6" fill-rule="evenodd" clip-rule="evenodd" d="M5.73346 13.0372C3.46946 13.0212 1.99346 10.7798 2.9748 8.84784L5.2628 4.34517C5.7828 3.3185 6.8788 2.6665 8.08146 2.6665H23.9161C25.1188 2.6665 26.2148 3.3185 26.7361 4.34517L29.0241 8.84784C30.0055 10.7798 28.5295 13.0212 26.2655 13.0372C24.3761 13.0372 22.8441 11.7465 22.8441 10.1532V10.0892C22.8441 11.7172 21.3121 13.0372 19.4228 13.0372C17.5308 13.0372 15.9988 11.7172 15.9988 10.0892C15.9988 11.7172 14.4668 13.0372 12.5775 13.0372C10.6881 13.0372 9.15613 11.7172 9.15613 10.0892V10.1532C9.1548 11.7465 7.6228 13.0372 5.73346 13.0372Z" stroke="#EC7000" stroke-width="2" stroke-linecap="round" stroke-linejoin="round"/>
<path d="M18.666 26.6664H27.9993" stroke="#EC7000" stroke-width="2" stroke-linecap="round" stroke-linejoin="round"/>
<path fill-rule="evenodd" clip-rule="evenodd" d="M9.53262 19.5344C9.95662 19.0571 10.6873 18.5198 11.8033 18.5198C13.7526 18.5198 15.0633 20.2851 15.0633 21.9291C15.062 25.3664 10.626 27.9998 9.53262 27.9998C8.43929 27.9998 4.00195 25.3664 4.00195 21.9291C4.00195 20.2838 5.30995 18.5198 7.26195 18.5198C8.37662 18.5198 9.10862 19.0571 9.53262 19.5344Z" stroke="#EC7000" stroke-width="2" stroke-linecap="round" stroke-linejoin="round"/>
</svg>
