<svg width="27" height="27" viewBox="0 0 27 27" fill="none" xmlns="http://www.w3.org/2000/svg">
<path opacity="0.4" d="M5.94434 5.46606L7.47003 6.99176" stroke="#7B7775" stroke-width="1.61667" stroke-linecap="round" stroke-linejoin="round"/>
<path opacity="0.4" d="M11.586 3.46265V5.6191" stroke="#7B7775" stroke-width="1.61667" stroke-linecap="round" stroke-linejoin="round"/>
<path opacity="0.4" d="M6.09688 11.1084H3.94043" stroke="#7B7775" stroke-width="1.61667" stroke-linecap="round" stroke-linejoin="round"/>
<path opacity="0.4" d="M21.345 20.8675L19.8193 19.3418" stroke="#7B7775" stroke-width="1.61667" stroke-linecap="round" stroke-linejoin="round"/>
<path opacity="0.4" d="M15.7032 22.8708V20.7144" stroke="#7B7775" stroke-width="1.61667" stroke-linecap="round" stroke-linejoin="round"/>
<path opacity="0.4" d="M21.1924 15.2251H23.3488" stroke="#7B7775" stroke-width="1.61667" stroke-linecap="round" stroke-linejoin="round"/>
<path d="M13.6438 18.5579L12.0265 20.1752C11.3116 20.8903 10.342 21.292 9.3309 21.292C8.31982 21.292 7.35017 20.8903 6.63533 20.1752V20.1752C5.92028 19.4604 5.51855 18.4907 5.51855 17.4797C5.51855 16.4686 5.92028 15.4989 6.63533 14.7841L8.25267 13.1667" stroke="#7B7775" stroke-width="1.61667" stroke-linecap="round" stroke-linejoin="round"/>
<path d="M13.6445 7.77562L15.2619 6.15828C15.9767 5.44323 16.9464 5.0415 17.9574 5.0415C18.9685 5.0415 19.9382 5.44323 20.653 6.15828V6.15828C21.3681 6.87312 21.7698 7.84277 21.7698 8.85385C21.7698 9.86493 21.3681 10.8346 20.653 11.5494L19.0357 13.1668" stroke="#7B7775" stroke-width="1.61667" stroke-linecap="round" stroke-linejoin="round"/>
</svg>
