<svg width="22" height="22" viewBox="0 0 22 22" fill="none" xmlns="http://www.w3.org/2000/svg">
<path opacity="0.4" fill-rule="evenodd" clip-rule="evenodd" d="M11.4891 20.6778C16.8462 20.6778 21.1891 16.335 21.1891 10.9778C21.1891 5.62067 16.8462 1.27783 11.4891 1.27783C6.1319 1.27783 1.78906 5.62067 1.78906 10.9778C1.78906 16.335 6.1319 20.6778 11.4891 20.6778Z" stroke="#7B7775" stroke-width="1.61667" stroke-linecap="round" stroke-linejoin="round"/>
<path d="M6.09961 9.74043C7.42528 8.51823 9.3448 7.74438 11.4885 7.74438C13.6322 7.74438 15.5517 8.51823 16.8774 9.74043" stroke="#7B7775" stroke-width="1.61667" stroke-linecap="round" stroke-linejoin="round"/>
<path d="M7.89746 11.9359C8.78124 11.203 10.0606 10.7385 11.4897 10.7385C12.9188 10.7385 14.1981 11.203 15.0819 11.9359" stroke="#7B7775" stroke-width="1.61667" stroke-linecap="round" stroke-linejoin="round"/>
<path d="M9.69238 14.2111C10.1343 13.8446 10.7745 13.6118 11.489 13.6118C12.2036 13.6118 12.8438 13.8435 13.2857 14.2111" stroke="#7B7775" stroke-width="1.61667" stroke-linecap="round" stroke-linejoin="round"/>
</svg>
