<svg width="146" height="24" viewBox="0 0 146 24" fill="none" xmlns="http://www.w3.org/2000/svg">
<path d="M138.757 0V17.3827C138.757 19.7828 140.703 21.7284 143.103 21.7284H146" stroke="white" stroke-width="3.03448"/>
<path d="M134.411 7.24286H146" stroke="white" stroke-width="3.03448"/>
<path d="M59.4484 0L59.4484 23.177" stroke="white" stroke-width="3.03448"/>
<rect x="59.5173" y="7.31137" width="14.3482" height="14.3482" rx="7.17412" stroke="white" stroke-width="3.03448"/>
<mask id="mask0_424_535" style="mask-type:alpha" maskUnits="userSpaceOnUse" x="78" y="5" width="27" height="19">
<rect x="78.2798" y="5.79462" width="26.0741" height="17.3827" rx="8.69136" fill="url(#paint0_linear_424_535)"/>
</mask>
<g mask="url(#mask0_424_535)">
<rect opacity="0.9" x="79.7971" y="7.31186" width="23.0396" height="14.3482" rx="7.17412" stroke="white" stroke-width="3.03448"/>
</g>
<rect x="88.4891" y="7.3118" width="23.0396" height="14.3482" rx="7.17412" stroke="white" stroke-width="3.03448"/>
<path d="M131.151 7.24298H120.741C118.741 7.24298 117.119 8.86434 117.119 10.8644V10.8644C117.119 12.8644 118.741 14.4858 120.741 14.4858H123.536" stroke="white" stroke-width="3.03448"/>
<path d="M122.632 14.4858H126.846C128.846 14.4858 130.467 16.1072 130.467 18.1072V18.1072C130.467 20.1073 128.846 21.7286 126.846 21.7286H115.942" stroke="white" stroke-width="3.03448"/>
<path d="M4.87202 11.5961V12.9821H8.96002C8.79202 14.4241 7.50402 15.7121 5.67002 15.7121C3.68202 15.7121 2.14202 14.1441 2.14202 12.1001C2.14202 10.0561 3.68202 8.48806 5.67002 8.48806C7.09802 8.48806 8.23202 9.32806 8.76402 10.4621L10.192 9.90206C9.52002 8.40406 7.88202 7.06006 5.67002 7.06006C2.77202 7.06006 0.546021 9.25806 0.546021 12.1001C0.546021 14.9421 2.77202 17.1401 5.67002 17.1401C8.45602 17.1401 10.92 14.9141 10.64 11.5961H4.87202Z" fill="white"/>
<path d="M13.507 9.84606H12.037V17.0001H13.507V12.9541C13.507 11.5821 14.739 10.7561 16.307 11.1901V9.79006C15.159 9.52406 14.123 10.0141 13.507 10.8681V9.84606Z" fill="white"/>
<path d="M17.2716 14.0321C17.2716 15.8801 18.6436 17.1401 20.5336 17.1401C22.3956 17.1401 23.7816 15.8801 23.7816 14.0321V9.84606H22.3116V14.0321C22.3116 15.0821 21.5416 15.7821 20.5336 15.7821C19.4976 15.7821 18.7416 15.0821 18.7416 14.0321V9.84606H17.2716V14.0321Z" fill="white"/>
<path d="M29.3987 9.70606C28.3347 9.70606 27.4387 10.1681 26.8507 10.9101V9.84606H25.3807V19.8001H26.8507V15.9361C27.4387 16.6781 28.3347 17.1401 29.3987 17.1401C31.4007 17.1401 32.9267 15.5301 32.9267 13.4301C32.9267 11.3161 31.4007 9.70606 29.3987 9.70606ZM29.1327 15.7821C27.8307 15.7821 26.8507 14.7741 26.8507 13.4301C26.8507 12.0721 27.8307 11.0641 29.1327 11.0641C30.4207 11.0641 31.4007 12.0721 31.4007 13.4301C31.4007 14.7741 30.4207 15.7821 29.1327 15.7821Z" fill="white"/>
<path d="M33.9464 13.4301C33.9464 15.5301 35.5844 17.1401 37.7404 17.1401C39.8964 17.1401 41.5344 15.5301 41.5344 13.4301C41.5344 11.3161 39.8964 9.70606 37.7404 9.70606C35.5844 9.70606 33.9464 11.3161 33.9464 13.4301ZM35.4584 13.4301C35.4584 12.0721 36.4524 11.0641 37.7404 11.0641C39.0424 11.0641 40.0224 12.0721 40.0224 13.4301C40.0224 14.7741 39.0424 15.7821 37.7404 15.7821C36.4524 15.7821 35.4584 14.7741 35.4584 13.4301Z" fill="white"/>
<defs>
<linearGradient id="paint0_linear_424_535" x1="77.3745" y1="11.5889" x2="99.1029" y2="10.4119" gradientUnits="userSpaceOnUse">
<stop stop-color="white"/>
<stop offset="1" stop-color="#C4C4C4" stop-opacity="0"/>
</linearGradient>
</defs>
</svg>
