<svg width="120" height="24" viewBox="0 0 120 24" fill="none" xmlns="http://www.w3.org/2000/svg">
<path d="M12.8 7.8H10.56L6.912 16.552L3.264 7.8H0.944V19H2.624V10.472L6.16 19H7.584L11.12 10.472V19H12.8V7.8ZM14.374 14.92C14.374 17.32 16.246 19.16 18.71 19.16C21.174 19.16 23.046 17.32 23.046 14.92C23.046 12.504 21.174 10.664 18.71 10.664C16.246 10.664 14.374 12.504 14.374 14.92ZM16.102 14.92C16.102 13.368 17.238 12.216 18.71 12.216C20.198 12.216 21.318 13.368 21.318 14.92C21.318 16.456 20.198 17.608 18.71 17.608C17.238 17.608 16.102 16.456 16.102 14.92ZM26.2959 10.824H24.6159V19H26.2959V14.376C26.2959 12.808 27.7039 11.864 29.4959 12.36V10.76C28.1839 10.456 26.9999 11.016 26.2959 11.992V10.824ZM33.9894 10.664C31.5734 10.664 29.7334 12.504 29.7334 14.92C29.7334 17.32 31.6054 19.16 34.0694 19.16C35.8614 19.16 37.2374 18.216 37.9414 16.872L36.5334 16.248C36.0694 17.144 35.1894 17.704 34.1174 17.704C32.7094 17.704 31.6694 16.776 31.4294 15.48H38.1974C38.5014 12.808 36.6134 10.664 33.9894 10.664ZM33.9894 12.12C35.2854 12.12 36.2294 12.984 36.5014 14.168H31.4774C31.7654 12.968 32.7414 12.12 33.9894 12.12ZM39.1735 17.992C39.1735 18.6 39.6855 19.128 40.3095 19.128C40.9335 19.128 41.4455 18.6 41.4455 17.992C41.4455 17.368 40.9335 16.856 40.3095 16.856C39.6855 16.856 39.1735 17.368 39.1735 17.992ZM49.318 12.04C48.646 11.192 47.622 10.664 46.406 10.664C44.118 10.664 42.374 12.504 42.374 14.92C42.374 17.32 44.118 19.16 46.406 19.16C47.622 19.16 48.646 18.632 49.318 17.784V19H50.998V7.16H49.318V12.04ZM46.71 17.608C45.238 17.608 44.102 16.456 44.102 14.92C44.102 13.368 45.238 12.216 46.71 12.216C48.198 12.216 49.318 13.368 49.318 14.92C49.318 16.456 48.198 17.608 46.71 17.608ZM56.8175 10.664C54.4015 10.664 52.5615 12.504 52.5615 14.92C52.5615 17.32 54.4335 19.16 56.8975 19.16C58.6895 19.16 60.0655 18.216 60.7695 16.872L59.3615 16.248C58.8975 17.144 58.0175 17.704 56.9455 17.704C55.5375 17.704 54.4975 16.776 54.2575 15.48H61.0255C61.3295 12.808 59.4415 10.664 56.8175 10.664ZM56.8175 12.12C58.1135 12.12 59.0575 12.984 59.3295 14.168H54.3055C54.5935 12.968 55.5695 12.12 56.8175 12.12ZM62.1671 16.84C62.4231 18.248 63.6711 19.16 65.6391 19.16C67.5911 19.16 69.1111 18.104 69.1111 16.664C69.1111 13.368 64.1031 14.888 64.1031 13.064C64.1031 12.44 64.7431 12.024 65.6391 12.024C66.5831 12.024 67.1751 12.488 67.3031 13.336L68.9831 12.984C68.7431 11.576 67.5111 10.664 65.6391 10.664C63.7831 10.664 62.4071 11.72 62.4071 13.144C62.4071 16.344 67.4151 14.808 67.4151 16.696C67.4151 17.32 66.7111 17.8 65.6391 17.8C64.6151 17.8 63.9911 17.336 63.8471 16.488L62.1671 16.84ZM70.3141 8.472C70.3141 9.048 70.7941 9.512 71.3701 9.512C71.9461 9.512 72.4101 9.048 72.4101 8.472C72.4101 7.896 71.9461 7.432 71.3701 7.432C70.7941 7.432 70.3141 7.896 70.3141 8.472ZM72.2021 19V10.824H70.5221V19H72.2021ZM80.7086 12.024C80.0366 11.176 79.0126 10.664 77.7966 10.664C75.5086 10.664 73.7646 12.472 73.7646 14.824C73.7646 17.192 75.5086 18.984 77.7966 18.984C79.0126 18.984 80.0366 18.472 80.7086 17.64V18.12C80.7086 19.672 79.5246 20.824 78.0526 20.824C76.9806 20.824 76.1646 20.232 75.7326 19.304L74.2126 20.056C74.8846 21.416 76.2766 22.36 78.0526 22.36C80.5166 22.36 82.3886 20.52 82.3886 18.12V10.824H80.7086V12.024ZM78.1006 17.448C76.6286 17.448 75.4926 16.312 75.4926 14.824C75.4926 13.336 76.6286 12.216 78.1006 12.216C79.5886 12.216 80.7086 13.336 80.7086 14.824C80.7086 16.312 79.5886 17.448 78.1006 17.448ZM88.6401 10.664C87.5041 10.664 86.5441 11.192 85.9521 11.992V10.824H84.2721V19H85.9521V14.376C85.9521 13.112 86.8961 12.2 88.1601 12.2C89.4241 12.2 90.3521 13.112 90.3521 14.376V19H92.0321V14.12C92.0321 12.12 90.6241 10.664 88.6401 10.664Z" fill="#1C1C1F"/>
<path d="M0 20.6H92.9121V21.4H0V20.6Z" fill="#1C1C1F"/>
<path d="M109 16.5L119 6.5M119 6.5H112.5M119 6.5V12.5" stroke="#1C1C1F" stroke-width="1.5"/>
</svg>
