<svg width="16" height="16" viewBox="0 0 16 16" fill="none" xmlns="http://www.w3.org/2000/svg">
<path fill-rule="evenodd" clip-rule="evenodd" d="M6.5 11.9989C9.53757 11.9989 12 9.53647 12 6.4989C12 3.46134 9.53757 0.998901 6.5 0.998901C3.46243 0.998901 1 3.46134 1 6.4989C1 9.53647 3.46243 11.9989 6.5 11.9989ZM13 6.4989C13 10.0888 10.0899 12.9989 6.5 12.9989C2.91015 12.9989 0 10.0888 0 6.4989C0 2.90905 2.91015 -0.00109863 6.5 -0.00109863C10.0899 -0.00109863 13 2.90905 13 6.4989Z" fill="#FF4F4F"/>
<path d="M10.3439 11.7411C10.3734 11.7811 10.4062 11.8193 10.4424 11.8555L14.2929 15.706C14.6834 16.0965 15.3166 16.0965 15.7071 15.706C16.0976 15.3155 16.0976 14.6823 15.7071 14.2918L11.8566 10.4413C11.8204 10.4051 11.7822 10.3723 11.7422 10.3428C11.3499 10.8769 10.878 11.3488 10.3439 11.7411Z" fill="#FF4F4F"/>
</svg>
