<svg width="16" height="16" viewBox="0 0 16 16" fill="none" xmlns="http://www.w3.org/2000/svg">
<path d="M9.28245e-06 7.9989C9.37429e-06 6.94833 0.206935 5.90804 0.608973 4.93744C1.01101 3.96683 1.60029 3.08492 2.34315 2.34205C3.08602 1.59918 3.96794 1.00991 4.93854 0.607872C5.90914 0.205835 6.94943 -0.00109089 8.00001 -0.00109075C9.05058 -0.00109061 10.0909 0.205836 11.0615 0.607873C12.0321 1.00991 12.914 1.59919 13.6569 2.34205C14.3997 3.08492 14.989 3.96684 15.391 4.93744C15.7931 5.90804 16 6.94833 16 7.99891L8 7.9989L9.28245e-06 7.9989Z" fill="#F33C3C"/>
<circle cx="8.00036" cy="7.9989" r="7.25" stroke="#F33C3C" stroke-width="1.5"/>
<circle cx="8.00009" cy="7.99893" r="2.15909" fill="white" stroke="#F33C3C" stroke-width="1.5"/>
<path d="M5.45473 7.9989H0.000183105" stroke="#F33C3C" stroke-width="1.5"/>
<path d="M16.0001 7.9989L10.5001 7.9989" stroke="#F33C3C" stroke-width="1.5"/>
</svg>
