<svg width="1296" height="393" viewBox="0 0 1296 393" fill="#484854" xmlns="http://www.w3.org/2000/svg">
<path d="M1067.85 152.241C1065.73 134.333 1057.78 116.915 1044.01 103.144C1011.46 70.5943 958.663 70.5943 926.113 103.144C918.003 111.254 911.852 120.671 907.824 130.686C907.443 130.251 907.008 129.815 906.572 129.38C888.501 111.309 859.217 111.309 841.146 129.38C836.411 134.115 832.927 139.613 830.695 145.492C827.484 141.572 824.109 137.817 820.462 134.17C761.241 74.9487 665.279 74.9487 606.058 134.17C583.959 156.269 570.133 183.43 564.527 211.952C560.336 205.039 555.219 198.507 549.232 192.52C518.206 161.494 472.43 154.2 434.491 170.693C430.463 128.672 412.392 87.7401 380.169 55.5713C308.429 -16.169 193.198 -17.9107 119.335 50.2915C116.45 41.6369 111.551 33.5267 104.638 26.6139C80.7975 2.77308 42.2058 2.77308 18.365 26.6139C-5.47583 50.4547 -5.47583 89.0464 18.365 112.887C31.9184 126.441 50.2072 132.265 67.8973 130.414C46.7236 195.623 62.0188 270.084 113.837 321.903C187.374 395.439 306.632 395.439 380.169 321.903C381.911 320.161 383.543 318.419 385.176 316.677C389.749 324.788 395.464 332.462 402.377 339.375C442.928 379.926 508.626 379.926 549.177 339.375C560.499 328.053 568.609 314.827 573.617 300.675C581.02 318.093 591.797 334.422 606.003 348.574C665.225 407.795 761.187 407.795 820.408 348.574C858.945 310.037 872.389 255.932 860.741 206.509C876.472 211.135 894.108 207.216 906.518 194.861C906.953 194.425 907.334 193.99 907.77 193.554C911.852 203.57 917.948 212.986 926.059 221.096C958.608 253.646 1011.41 253.646 1043.96 221.096C1047.93 217.123 1051.36 212.877 1054.35 208.414C1056.58 213.095 1059.63 217.504 1063.5 221.423C1081.57 239.494 1110.85 239.494 1128.92 221.423C1146.99 203.352 1146.99 174.068 1128.92 155.997C1112.27 139.286 1085.98 138.034 1067.85 152.241ZM1271.59 71.7917C1239.04 39.2419 1186.24 39.2419 1153.69 71.7917C1121.14 104.342 1121.14 157.14 1153.69 189.69C1186.24 222.239 1239.04 222.239 1271.59 189.69C1304.14 157.14 1304.14 104.342 1271.59 71.7917Z" fill="#484854"/>
</svg>
