<svg width="64" height="64" viewBox="0 0 64 64" fill="none" xmlns="http://www.w3.org/2000/svg">
<path d="M24.111 34.2905H40.0877L47.0173 64.0002H15.5452L24.111 34.2905Z" fill="url(#paint0_linear_0_624)"/>
<mask id="mask0_0_624" style="mask-type:alpha" maskUnits="userSpaceOnUse" x="13" y="4" width="38" height="28">
<path fill-rule="evenodd" clip-rule="evenodd" d="M14.8888 28.9779C14.243 27.0884 13.8921 25.0589 13.8921 22.9462C13.8921 12.7907 21.9993 4.55811 32.0001 4.55811C42.0009 4.55811 50.1081 12.7907 50.1081 22.9462C50.1081 25.0589 49.7572 27.0885 49.1113 28.978C44.1488 30.7426 38.2839 31.7624 32.0002 31.7624C25.7164 31.7624 19.8514 30.7426 14.8888 28.9779Z" fill="url(#paint1_radial_0_624)"/>
</mask>
<g mask="url(#mask0_0_624)">
<g opacity="0.18">
<path opacity="0.18" d="M79.4175 18.8071L26.1411 15.8162L26.1318 15.9814L79.4083 18.9723L79.4175 18.8071Z" fill="white"/>
</g>
<path d="M31.5018 26.7273C33.5777 26.8438 35.2962 26.3015 35.3402 25.5161C35.3843 24.7306 33.7373 23.9994 31.6615 23.8829C29.5856 23.7663 27.8671 24.3086 27.823 25.0941C27.7789 25.8795 29.426 26.6107 31.5018 26.7273Z" fill="#EDEDF4"/>
<path opacity="0.15" d="M32.1076 26.6463C32.1076 26.6463 28.499 26.6184 28.3303 25.048C28.2643 24.3102 29.9881 23.9735 31.8216 23.9216C29.7251 23.8567 28.0378 24.2884 28.0089 25.0627C27.98 25.8371 29.5581 26.5377 31.6912 26.6975C31.7861 26.661 31.8811 26.6244 32.1076 26.6463Z" fill="#73737F"/>
<path d="M31.544 26.3447C33.3955 26.4487 34.927 25.9872 34.9648 25.3139C35.0026 24.6407 33.5323 24.0106 31.6809 23.9067C29.8295 23.8028 28.298 24.2643 28.2602 24.9375C28.2224 25.6108 29.6926 26.2408 31.544 26.3447Z" fill="white"/>
<path d="M31.5582 26.3367C33.4096 26.4406 34.9411 25.9791 34.9789 25.3059C35.0167 24.6326 33.5465 24.0026 31.6951 23.8986C29.8436 23.7947 28.3121 24.2562 28.2743 24.9295C28.2365 25.6027 29.7068 26.2328 31.5582 26.3367Z" fill="#BCBCCC"/>
<path d="M31.5528 26.3048C33.3481 26.4056 34.8315 25.987 34.8662 25.3699C34.9008 24.7527 33.4735 24.1707 31.6782 24.0699C29.8829 23.9692 28.3994 24.3877 28.3648 25.0049C28.3301 25.622 29.7574 26.204 31.5528 26.3048Z" fill="#73737F"/>
<path d="M29.55 24.2512C29.55 24.2512 30.1563 24.1268 30.5508 24.3019C30.0613 24.1633 29.55 24.2512 29.55 24.2512Z" fill="#8F8F99"/>
<path d="M33.7796 24.476C33.7796 24.476 33.1951 24.374 32.7788 24.4253C33.2901 24.3374 33.7796 24.476 33.7796 24.476Z" fill="#8F8F99"/>
<path opacity="0.15" d="M31.785 23.8267C33.1803 24.0526 34.1374 24.5562 34.1303 25.1041C34.0648 25.7835 32.699 26.2004 30.9239 26.1207C30.2445 26.0553 29.5652 25.9898 29.0391 25.7563C29.6017 26.0847 30.5441 26.267 31.5449 26.3177C33.415 26.3608 34.9123 26.0022 34.9412 25.2279C35.0067 24.5485 33.5966 24.0013 31.785 23.8267Z" fill="#73737F"/>
<path d="M33.0962 23.2307L30.252 23.0713L30.1552 24.7982L32.9994 24.9576L33.0962 23.2307Z" fill="#73737F"/>
<g opacity="0.15">
<path opacity="0.15" d="M31.9971 24.9442C32.0921 24.9076 32.187 24.8711 32.3186 24.9295C32.3186 24.9295 32.2236 24.966 31.9971 24.9442Z" fill="#73737F"/>
</g>
<path d="M31.6718 23.5549C32.4572 23.599 33.1042 23.4528 33.1168 23.2284C33.1294 23.004 32.5028 22.7863 31.7174 22.7422C30.9319 22.6981 30.285 22.8443 30.2724 23.0687C30.2598 23.2931 30.8863 23.5108 31.6718 23.5549Z" fill="#8F8F99"/>
<path d="M31.7056 23.4373C32.4349 23.4783 33.0338 23.375 33.0433 23.2067C33.0527 23.0384 32.4691 22.8687 31.7398 22.8278C31.0104 22.7869 30.4115 22.8901 30.4021 23.0584C30.3926 23.2267 30.9762 23.3964 31.7056 23.4373Z" fill="#73737F"/>
<path d="M32.9096 23.0667L33.1273 19.3849L30.6439 20.0142L30.4917 23.0165L30.5064 23.3379C30.6745 23.4912 31.164 23.6298 31.7118 23.6369C32.2597 23.644 32.6761 23.5927 32.9609 23.483L32.9096 23.0667Z" fill="#69DDAE"/>
<path d="M31.229 21.5332C31.229 21.5332 33.1727 23.1833 35.3783 22.1159C37.6205 21.1435 39.6209 18.4106 39.3338 12.8518C38.9517 7.32953 31.2734 4.94394 28.0322 10.117C24.2873 16.2473 31.229 21.5332 31.229 21.5332Z" fill="#75F1C1"/>
<path d="M39.2688 14.9484C39.0293 18.8565 37.3208 20.9318 35.4584 21.7579C33.3112 22.6938 31.404 21.1387 31.404 21.1387C31.404 21.1387 24.5938 15.9112 28.2219 10.044C29.5141 8.02001 31.4714 7.15728 33.378 7.29531C31.3765 7.19384 29.2876 7.99819 27.9371 10.1536C24.1556 16.1889 31.1339 21.5698 31.1339 21.5698C31.1339 21.5698 33.0776 23.2199 35.2833 22.1525C37.2406 21.2898 39.139 19.1414 39.2688 14.9484Z" fill="#69DDAE"/>
<path opacity="0.42" d="M30.7867 18.0931C31.4038 19.0323 32.4751 19.4185 33.1795 18.9557C33.8839 18.4929 33.9546 17.3563 33.3376 16.4171C32.7205 15.4779 31.6492 15.0917 30.9448 15.5546C30.2404 16.0174 30.1696 17.1539 30.7867 18.0931Z" fill="#A7A9CA"/>
<path opacity="0.42" d="M35.9457 19.1632C36.5939 19.7019 37.7017 19.4378 38.42 18.5735C39.1382 17.7091 39.1949 16.5717 38.5466 16.033C37.8983 15.4943 36.7906 15.7583 36.0723 16.6227C35.3541 17.4871 35.2974 18.6245 35.9457 19.1632Z" fill="#A7A9CA"/>
<path d="M31.0289 18.108C31.646 19.0472 32.7173 19.4334 33.4217 18.9706C34.1261 18.5078 34.1968 17.3712 33.5798 16.432C32.9627 15.4928 31.8914 15.1066 31.187 15.5694C30.4826 16.0323 30.4118 17.1688 31.0289 18.108Z" fill="white"/>
<path opacity="0.16" d="M33.9813 17.6387C33.9376 18.0916 33.7625 18.4861 33.5142 18.6907C32.9227 19.1366 32.0021 18.7279 31.4831 17.9465C30.9642 17.1651 31.0149 16.1643 31.6064 15.7185C32.1979 15.2727 33.1185 15.6813 33.6375 16.4627C33.7106 16.6526 33.8787 16.806 33.8568 17.0324C33.7837 16.8426 33.674 16.5577 33.506 16.4044C32.9139 15.4331 31.8034 15.0975 31.117 15.5799C30.4305 16.0623 30.3214 17.1946 30.9135 18.1659C31.5055 19.1372 32.616 19.4727 33.3025 18.9903C33.8356 18.676 33.9742 18.1865 33.9813 17.6387Z" fill="#A7A9CA"/>
<path d="M36.2062 19.1627C36.8544 19.7014 37.9622 19.4374 38.6805 18.573C39.3987 17.7086 39.4554 16.5712 38.8071 16.0325C38.1588 15.4938 37.0511 15.7578 36.3328 16.6222C35.6146 17.4866 35.5579 18.624 36.2062 19.1627Z" fill="white"/>
<path d="M31.2043 14.674C31.2043 14.674 31.7009 14.2647 32.8915 14.2423C34.0822 14.2199 33.0225 12.8836 31.6566 13.3005C30.4223 13.7758 30.6128 15.1198 31.2043 14.674Z" fill="#3CAF8E"/>
<path d="M39.3054 15.0436C39.3054 15.0436 38.991 14.5105 37.939 14.0434C36.8503 13.4813 38.4279 12.7648 39.4363 13.6848C40.4447 14.6048 39.6562 15.6716 39.3054 15.0436Z" fill="#3CAF8E"/>
<path opacity="0.42" d="M31.0651 13.7462C31.0651 13.7462 30.4152 14.3235 30.6345 14.8932C30.8539 15.4629 31.3576 14.5058 32.4898 14.6149C33.4906 14.6656 33.6292 14.1761 33.3515 13.738C33.3515 13.738 33.4612 14.0228 32.9498 14.1107C32.402 14.1036 31.6642 14.1696 31.226 14.4474C30.7879 14.7251 30.8168 13.9508 31.0651 13.7462Z" fill="#A7A9CA"/>
<path opacity="0.42" d="M38.3843 13.2174C38.3843 13.2174 38.0629 13.2322 37.9462 13.4952C37.8294 13.7582 38.8449 14.1304 39.2542 14.6269C39.5319 15.0651 39.795 15.1819 39.8168 14.9554C39.8168 14.9554 39.7366 15.3133 39.4151 15.3281L39.2836 15.2697L39.3202 15.3646C39.3202 15.3646 39.0059 14.8315 37.9904 14.4594C37.0332 13.9558 37.252 13.1083 38.3843 13.2174Z" fill="#A7A9CA"/>
<path opacity="0.16" d="M36.6481 18.9016C36.0489 18.4781 36.0997 17.4774 36.7714 16.6736C37.3481 15.9063 38.3707 15.7306 38.9699 16.154C39.1014 16.2124 39.138 16.3074 39.1745 16.4023C39.1014 16.2124 39.0283 16.0225 38.7653 15.9058C38.1295 15.3874 37.012 15.5996 36.2819 16.5349C35.5152 17.3753 35.5376 18.566 36.1733 19.0844C36.8091 19.6028 37.8317 19.4271 38.54 18.7182C37.8535 19.2006 37.1523 19.3616 36.6481 18.9016Z" fill="#A7A9CA"/>
<path d="M34.8734 20.2388C34.3255 20.2318 33.7995 19.9982 33.573 19.9764L33.5365 19.8814L33.6314 19.8449C33.8579 19.8667 34.4789 20.0637 35.0267 20.0708C35.0267 20.0708 35.1582 20.1292 35.0633 20.1657C35.0633 20.1657 35.0049 20.2972 34.9683 20.2023C35.0998 20.2607 34.9683 20.2023 34.8734 20.2388Z" fill="#3CAF8E"/>
<path d="M34.7662 25.6224C34.5616 25.3742 34.1087 25.3305 33.7141 25.1553C33.3562 25.0751 32.9616 24.9 32.9251 24.805C32.8885 24.7101 32.8738 24.3887 32.8225 23.9723C32.8078 23.6509 32.9245 23.3879 32.9245 23.3879C32.9245 23.3879 32.7788 24.4252 32.8885 24.7101C32.9617 24.9 33.3196 24.9802 33.6776 25.0604C34.1671 25.199 34.5616 25.3742 34.7662 25.6224Z" fill="#8F8F99"/>
<path d="M33.152 26.2439C33.1738 26.0175 32.8011 25.6158 32.465 25.3092C32.2603 25.0609 32.0923 24.9076 32.0557 24.8126C31.946 24.5278 32.0917 23.4904 32.0917 23.4904C32.0917 23.4904 31.946 24.5278 32.0557 24.8126C32.0923 24.9076 32.2603 25.0609 32.465 25.3092C32.8011 25.6158 33.1738 26.0175 33.152 26.2439Z" fill="#8F8F99"/>
<path d="M29.4336 25.9313C29.6088 25.5368 30.1419 25.2225 30.6167 25.0397C30.8066 24.9666 30.9964 24.8934 31.0548 24.7619C31.2082 24.5938 31.0908 23.4397 31.0908 23.4397C31.0908 23.4397 31.1132 24.6304 30.9599 24.7985C30.8649 24.835 30.7116 25.0031 30.5217 25.0762C30.1419 25.2225 29.6088 25.5368 29.4336 25.9313Z" fill="#8F8F99"/>
<path d="M28.4837 24.88C28.6005 24.617 29.3383 24.5509 29.8861 24.558C30.1126 24.5798 30.3974 24.4701 30.3974 24.4701C30.4558 24.3386 30.4847 23.5643 30.47 23.2429C30.47 23.2429 30.4847 23.5643 30.4629 23.7908C30.4045 23.9223 30.4558 24.3386 30.3974 24.4701C30.3974 24.4701 30.2075 24.5433 29.8861 24.558C29.3748 24.6459 28.637 24.7119 28.4837 24.88Z" fill="#8F8F99"/>
<path d="M31.581 24.9956C31.4861 25.0321 31.3545 24.9737 31.2596 25.0103C30.9016 24.9301 30.6386 24.8133 30.6386 24.8133C30.6386 24.8133 30.9016 24.9301 31.2596 25.0103C31.6176 25.0905 32.1654 25.0976 32.6986 24.7833C32.3188 24.9295 31.9024 24.9808 31.581 24.9956Z" fill="#8F8F99"/>
<path opacity="0.15" d="M31.7709 24.9226C31.6394 24.8642 31.6029 24.7692 31.5663 24.6743L31.6389 23.447C30.8645 23.4181 30.2436 23.2212 30.2654 22.9947L30.273 23.864C29.5353 23.93 28.9656 24.1493 28.6224 24.3905C28.7539 24.4489 28.6955 24.5805 28.6005 24.617C28.8488 24.4124 29.3235 24.2296 29.9298 24.1051C29.3235 24.2296 28.7539 24.4489 28.5056 24.6536C28.5056 24.6536 29.1337 24.3027 30.2076 24.5433C30.237 25.1861 31.0697 25.0835 31.0332 24.9886C30.9966 24.8936 30.8285 24.7403 31.2231 24.9155C31.4495 24.9373 31.676 24.9591 31.9024 24.9809C31.9024 24.9809 31.9025 24.981 31.7709 24.9226ZM30.0613 24.1636C29.9664 24.2001 29.9664 24.2001 30.0613 24.1636C29.9664 24.2001 29.9664 24.2001 30.0613 24.1636ZM30.2512 24.0904C30.1563 24.127 30.1563 24.127 30.0613 24.1636C30.0613 24.1636 30.1563 24.127 30.2512 24.0904Z" fill="#73737F"/>
<path d="M23.0823 34.9187C23.0163 34.1809 22.4755 33.626 21.8327 33.6555L15.8794 33.7674L15.8658 36.2803L21.8557 36.2632C22.5934 36.1972 23.1118 35.5615 23.0823 34.9187Z" fill="#D5D5E0"/>
<path d="M41.1033 35.2841L37.4836 25.8842C37.2277 25.2196 36.4386 24.8693 35.774 25.1252C35.1093 25.3811 34.759 26.1702 35.015 26.8348L38.6346 36.2347C38.8906 36.8993 39.6796 37.2496 40.3442 36.9937C41.1038 36.7012 41.3592 35.9487 41.1033 35.2841Z" fill="#D5D5E0"/>
<path d="M35.8108 25.2202C36.4755 24.9642 37.2645 25.3145 37.5205 25.9792L38.0323 27.3084L36.2802 29.8366L35.1468 26.8932C34.8543 26.1337 35.1462 25.4761 35.8108 25.2202Z" fill="#BCBCCC"/>
<path d="M39.1755 36.7899C38.5763 36.3664 38.4737 35.5337 38.9337 35.0295L42.5477 30.258L44.5498 31.7766L41.0673 36.6065C40.6073 37.1107 39.7746 37.2133 39.1755 36.7899Z" fill="#D5D5E0"/>
<path d="M39.4384 36.9063C39.4384 36.9063 39.3435 36.9428 39.3069 36.8478L39.4384 36.9063C39.5699 36.9646 39.9497 36.8184 40.5047 36.2776C40.9063 35.9049 41.4246 35.2691 42.0014 34.5019C43.0016 33.1355 43.7754 31.7473 43.7754 31.7473C43.7754 31.7473 42.9067 33.1721 42.0014 34.5019C41.4246 35.2691 40.9063 35.9049 40.5047 36.2776C40.0447 36.7818 39.6649 36.9281 39.4384 36.9063Z" fill="#EDEDF4"/>
<path opacity="0.15" d="M39.9133 36.7238C39.7453 36.5704 39.6721 36.3805 39.6939 36.1541C39.6792 35.8327 39.701 35.6062 39.9127 35.3066L43.2784 30.7398L42.5112 30.163L39.4522 34.3937L36.6511 25.987C35.9499 26.148 35.5848 26.6156 35.3878 27.2366L38.8247 36.1617C39.0441 36.7314 39.7016 37.0234 40.3079 36.8989C40.4028 36.8624 40.4978 36.8258 40.6876 36.7527C40.3079 36.8989 40.0814 36.8771 39.9133 36.7238Z" fill="#73737F"/>
<path d="M27.2199 24.7126C26.5623 24.4206 25.7662 24.6182 25.4742 25.2757L20.8246 34.1529C20.5327 34.8105 20.7303 35.6066 21.3878 35.8985C22.0454 36.1904 22.8415 35.9929 23.1335 35.3354L27.7831 26.4582C28.075 25.8006 27.8774 25.0045 27.2199 24.7126Z" fill="#D5D5E0"/>
<path d="M27.2199 24.7126C26.5623 24.4206 25.7662 24.6182 25.4742 25.2757L24.8538 26.4959L26.3305 29.1981L27.7831 26.4582C28.075 25.8006 27.8774 25.0045 27.2199 24.7126Z" fill="#BCBCCC"/>
<path opacity="0.15" d="M27.2199 24.7125C26.6573 24.384 25.8977 24.6764 25.5692 25.2391L21.0582 33.6268L15.7477 33.7092L15.8868 34.6369L16.391 35.0969L20.8323 35.0221C20.8323 35.0221 21.7966 34.9779 22.417 33.7577L22.4754 33.6262L24.957 28.7456C25.3439 28.0515 26.2863 28.2337 26.4473 28.9349L26.4838 29.0299L27.9364 26.29C28.075 25.8005 27.8775 25.0044 27.2199 24.7125Z" fill="#73737F"/>
<path d="M32.048 23.9434L31.69 23.8632L31.5001 23.9363L31.0472 23.8927L27.096 25.5232L26.3304 29.1978L26.4659 39.1762L30.6005 39.4374L30.827 39.4593L34.8301 39.6622L36.1483 29.7783L35.7816 25.9945L32.048 23.9434Z" fill="#D5D5E0"/>
<path opacity="0.15" d="M36.046 28.9456C35.4905 28.0692 34.482 27.1492 33.1085 26.6968C33.6198 26.609 34.0362 26.5577 34.4744 26.28C35.3873 25.8194 35.3944 25.2715 34.9851 24.775L32.0482 23.9434L31.5953 23.8997L31.3688 23.8779L30.916 23.8343L26.1827 24.5667L26.3712 39.2127L28.3728 39.3142L27.762 28.1015C28.6165 27.7725 29.829 27.5236 31.2461 27.5231C33.7006 27.6682 35.162 28.6318 36.0023 29.3985L35.9658 29.3035L36.046 28.9456ZM27.7909 27.3272C27.7909 27.3272 27.6665 26.721 28.3677 26.56C28.5576 26.4868 28.9155 26.5671 29.3684 26.6107C28.7622 26.7352 28.1925 26.9545 27.7909 27.3272Z" fill="#73737F"/>
<path d="M32.0481 23.9434L31.5952 23.8997L31.3687 23.8779L31.2738 23.9144L30.9524 23.9292L26.2192 24.6616L26.2356 29.2344C26.2356 29.2344 27.4328 27.247 31.2094 27.4281C34.9277 27.7407 35.9585 29.8514 35.9585 29.8514L36.49 25.2857L32.0481 23.9434Z" fill="#BCBCCC"/>
<path opacity="0.15" d="M27.6303 28.0432L27.6008 27.4004C27.6008 27.4004 27.6297 26.6261 28.3675 26.56C29.0687 26.399 32.3635 27.3108 34.4742 26.28C35.3871 25.8194 35.3942 25.2716 34.9849 24.775L32.0481 23.9434L31.5951 23.8998L31.3687 23.8779L31.2737 23.9145L30.9523 23.9293L26.2191 24.6616L26.2356 29.2344C26.3305 29.1979 26.7539 28.5987 27.6303 28.0432Z" fill="#73737F"/>
<path opacity="0.15" d="M31.3627 27.2601C27.5861 27.079 26.3305 29.1979 26.3305 29.1979C26.3305 29.1979 27.6226 27.1739 31.3627 27.2601C35.1175 27.6676 36.1118 29.6833 36.1118 29.6833C36.1118 29.6833 35.1759 27.5361 31.3627 27.2601Z" fill="#73737F"/>
<path d="M31.5018 26.7273C33.5777 26.8438 35.2962 26.3015 35.3402 25.5161C35.3843 24.7306 33.7373 23.9994 31.6615 23.8829C29.5856 23.7663 27.8671 24.3086 27.823 25.0941C27.7789 25.8795 29.426 26.6107 31.5018 26.7273Z" fill="#EDEDF4"/>
<path opacity="0.15" d="M32.1076 26.646C32.1076 26.646 28.499 26.6182 28.3303 25.0477C28.2643 24.31 29.9881 23.9733 31.8216 23.9214C29.7251 23.8565 28.0378 24.2882 28.0089 25.0625C27.98 25.8368 29.5581 26.5374 31.6912 26.6973C31.7861 26.6607 31.8811 26.6242 32.1076 26.646Z" fill="#73737F"/>
<path d="M31.5443 26.3445C33.3957 26.4484 34.9272 25.9869 34.965 25.3137C35.0028 24.6404 33.5326 24.0104 31.6812 23.9065C29.8297 23.8025 28.2982 24.264 28.2604 24.9373C28.2226 25.6105 29.6929 26.2406 31.5443 26.3445Z" fill="white"/>
<path d="M31.5584 26.3367C33.4099 26.4406 34.9414 25.9791 34.9792 25.3059C35.017 24.6326 33.5467 24.0026 31.6953 23.8986C29.8439 23.7947 28.3124 24.2562 28.2746 24.9295C28.2368 25.6027 29.707 26.2328 31.5584 26.3367Z" fill="#BCBCCC"/>
<path d="M31.5528 26.3048C33.3481 26.4056 34.8315 25.987 34.8662 25.3699C34.9008 24.7527 33.4735 24.1707 31.6782 24.0699C29.8829 23.9692 28.3994 24.3877 28.3648 25.0049C28.3301 25.622 29.7574 26.204 31.5528 26.3048Z" fill="#73737F"/>
<path d="M29.55 24.2512C29.55 24.2512 30.1563 24.1268 30.5508 24.3019C30.0613 24.1633 29.55 24.2512 29.55 24.2512Z" fill="#8F8F99"/>
<path d="M33.7796 24.4758C33.7796 24.4758 33.1951 24.3737 32.7788 24.425C33.2901 24.3371 33.7796 24.4758 33.7796 24.4758Z" fill="#8F8F99"/>
<path opacity="0.15" d="M31.7852 23.8265C33.1805 24.0523 34.1376 24.556 34.1306 25.1039C34.0651 25.7832 32.6993 26.2001 30.9242 26.1205C30.2448 26.055 29.5654 25.9896 29.0394 25.756C29.602 26.0845 30.5444 26.2668 31.5452 26.3175C33.4152 26.3606 34.9125 26.002 34.9414 25.2277C35.0069 24.5483 33.5969 24.001 31.7852 23.8265Z" fill="#73737F"/>
<path d="M33.0962 23.2305L30.252 23.071L30.1552 24.7979L32.9994 24.9573L33.0962 23.2305Z" fill="#73737F"/>
<g opacity="0.15">
<path opacity="0.15" d="M31.9974 24.9442C32.0923 24.9076 32.1873 24.8711 32.3188 24.9295C32.3188 24.9295 32.2238 24.966 31.9974 24.9442Z" fill="#73737F"/>
</g>
<path d="M31.672 23.5549C32.4575 23.599 33.1044 23.4528 33.117 23.2284C33.1296 23.004 32.5031 22.7863 31.7176 22.7422C30.9322 22.6981 30.2852 22.8443 30.2726 23.0687C30.26 23.2931 30.8865 23.5108 31.672 23.5549Z" fill="#8F8F99"/>
<path d="M31.7058 23.4373C32.4352 23.4783 33.0341 23.375 33.0435 23.2067C33.053 23.0384 32.4694 22.8687 31.74 22.8278C31.0107 22.7869 30.4118 22.8901 30.4023 23.0584C30.3929 23.2267 30.9765 23.3964 31.7058 23.4373Z" fill="#73737F"/>
<path d="M32.9099 23.0664L33.1275 19.3847L30.6441 20.0139L30.4919 23.0163L30.5067 23.3376C30.6747 23.491 31.1642 23.6296 31.7121 23.6367C32.26 23.6438 32.6763 23.5924 32.9611 23.4828L32.9099 23.0664Z" fill="#69DDAE"/>
<path d="M31.229 21.5332C31.229 21.5332 33.1727 23.1833 35.3783 22.1159C37.6205 21.1435 39.6209 18.4106 39.3338 12.8518C38.9517 7.32953 31.2734 4.94394 28.0322 10.117C24.2873 16.2473 31.229 21.5332 31.229 21.5332Z" fill="#75F1C1"/>
<path d="M39.269 14.9484C39.0295 18.8565 37.321 20.9318 35.4586 21.7579C33.3114 22.6938 31.4042 21.1387 31.4042 21.1387C31.4042 21.1387 24.5941 15.9112 28.2222 10.044C29.5143 8.02001 31.4717 7.15728 33.3783 7.29531C31.3767 7.19384 29.2879 7.99819 27.9373 10.1536C24.1559 16.1889 31.1341 21.5698 31.1341 21.5698C31.1341 21.5698 33.0779 23.2199 35.2835 22.1525C37.2408 21.2898 39.1392 19.1414 39.269 14.9484Z" fill="#69DDAE"/>
<path opacity="0.42" d="M30.787 18.0931C31.404 19.0323 32.4753 19.4185 33.1797 18.9557C33.8841 18.4929 33.9549 17.3563 33.3378 16.4171C32.7207 15.4779 31.6494 15.0917 30.945 15.5546C30.2406 16.0174 30.1699 17.1539 30.787 18.0931Z" fill="#A7A9CA"/>
<path opacity="0.42" d="M35.9457 19.1632C36.5939 19.7019 37.7017 19.4378 38.42 18.5735C39.1382 17.7091 39.1949 16.5717 38.5466 16.033C37.8983 15.4943 36.7906 15.7583 36.0723 16.6227C35.3541 17.4871 35.2974 18.6245 35.9457 19.1632Z" fill="#A7A9CA"/>
<path d="M31.0292 18.108C31.6462 19.0472 32.7175 19.4334 33.4219 18.9706C34.1263 18.5078 34.1971 17.3712 33.58 16.432C32.9629 15.4928 31.8916 15.1066 31.1872 15.5694C30.4828 16.0323 30.4121 17.1688 31.0292 18.108Z" fill="white"/>
<path opacity="0.16" d="M33.9813 17.6387C33.9376 18.0916 33.7625 18.4861 33.5142 18.6907C32.9227 19.1366 32.0021 18.7279 31.4831 17.9465C30.9642 17.1651 31.0149 16.1643 31.6064 15.7185C32.1979 15.2727 33.1185 15.6813 33.6375 16.4627C33.7106 16.6526 33.8787 16.806 33.8568 17.0324C33.7837 16.8426 33.674 16.5577 33.506 16.4044C32.9139 15.4331 31.8034 15.0975 31.117 15.5799C30.4305 16.0623 30.3214 17.1946 30.9135 18.1659C31.5055 19.1372 32.616 19.4727 33.3025 18.9903C33.8356 18.676 33.9742 18.1865 33.9813 17.6387Z" fill="#A7A9CA"/>
<path d="M36.2062 19.1627C36.8544 19.7014 37.9622 19.4374 38.6805 18.573C39.3987 17.7086 39.4554 16.5712 38.8071 16.0325C38.1588 15.4938 37.0511 15.7578 36.3328 16.6222C35.6146 17.4866 35.5579 18.624 36.2062 19.1627Z" fill="white"/>
<path d="M31.2043 14.674C31.2043 14.674 31.7009 14.2647 32.8915 14.2423C34.0822 14.2199 33.0225 12.8836 31.6566 13.3005C30.4223 13.7758 30.6128 15.1198 31.2043 14.674Z" fill="#3CAF8E"/>
<path d="M39.3056 15.0436C39.3056 15.0436 38.9913 14.5105 37.9392 14.0434C36.8506 13.4813 38.4281 12.7648 39.4365 13.6848C40.445 14.6048 39.6565 15.6716 39.3056 15.0436Z" fill="#3CAF8E"/>
<path opacity="0.42" d="M31.0653 13.7462C31.0653 13.7462 30.4154 14.3235 30.6348 14.8932C30.8542 15.4629 31.3578 14.5058 32.4901 14.6149C33.4909 14.6656 33.6295 14.1761 33.3517 13.738C33.3517 13.738 33.4614 14.0228 32.9501 14.1107C32.4022 14.1036 31.6645 14.1696 31.2263 14.4474C30.7881 14.7251 30.817 13.9508 31.0653 13.7462Z" fill="#A7A9CA"/>
<path opacity="0.42" d="M38.3843 13.2174C38.3843 13.2174 38.0629 13.2322 37.9462 13.4952C37.8294 13.7582 38.8449 14.1304 39.2542 14.6269C39.5319 15.0651 39.795 15.1819 39.8168 14.9554C39.8168 14.9554 39.7366 15.3133 39.4151 15.3281L39.2836 15.2697L39.3202 15.3646C39.3202 15.3646 39.0059 14.8315 37.9904 14.4594C37.0332 13.9558 37.252 13.1083 38.3843 13.2174Z" fill="#A7A9CA"/>
<path opacity="0.16" d="M36.6481 18.9016C36.0489 18.4781 36.0997 17.4774 36.7714 16.6736C37.3481 15.9063 38.3707 15.7306 38.9699 16.154C39.1014 16.2124 39.138 16.3074 39.1745 16.4023C39.1014 16.2124 39.0283 16.0225 38.7653 15.9058C38.1295 15.3874 37.012 15.5996 36.2819 16.5349C35.5152 17.3753 35.5376 18.566 36.1733 19.0844C36.8091 19.6028 37.8317 19.4271 38.54 18.7182C37.8535 19.2006 37.1523 19.3616 36.6481 18.9016Z" fill="#A7A9CA"/>
<path d="M34.8736 20.2388C34.3258 20.2318 33.7997 19.9982 33.5733 19.9764L33.5367 19.8814L33.6317 19.8449C33.8581 19.8667 34.4791 20.0637 35.027 20.0708C35.027 20.0708 35.1585 20.1292 35.0635 20.1657C35.0635 20.1657 35.0051 20.2972 34.9686 20.2023C35.1001 20.2607 34.9686 20.2023 34.8736 20.2388Z" fill="#3CAF8E"/>
<path d="M34.7662 25.6224C34.5616 25.3742 34.1087 25.3305 33.7141 25.1553C33.3562 25.0751 32.9616 24.9 32.9251 24.805C32.8885 24.7101 32.8738 24.3887 32.8225 23.9723C32.8078 23.6509 32.9245 23.3879 32.9245 23.3879C32.9245 23.3879 32.7788 24.4252 32.8885 24.7101C32.9617 24.9 33.3196 24.9802 33.6776 25.0604C34.1671 25.199 34.5616 25.3742 34.7662 25.6224Z" fill="#8F8F99"/>
<path d="M33.152 26.2439C33.1738 26.0175 32.8011 25.6158 32.465 25.3092C32.2603 25.0609 32.0923 24.9076 32.0557 24.8126C31.946 24.5278 32.0917 23.4904 32.0917 23.4904C32.0917 23.4904 31.946 24.5278 32.0557 24.8126C32.0923 24.9076 32.2603 25.0609 32.465 25.3092C32.8011 25.6158 33.1738 26.0175 33.152 26.2439Z" fill="#8F8F99"/>
<path d="M29.4339 25.9313C29.609 25.5368 30.1422 25.2225 30.6169 25.0397C30.8068 24.9666 30.9967 24.8934 31.0551 24.7619C31.2084 24.5938 31.0911 23.4397 31.0911 23.4397C31.0911 23.4397 31.1135 24.6304 30.9601 24.7985C30.8652 24.835 30.7119 25.0031 30.522 25.0762C30.1422 25.2225 29.609 25.5368 29.4339 25.9313Z" fill="#8F8F99"/>
<path d="M28.4837 24.8797C28.6005 24.6167 29.3383 24.5507 29.8861 24.5578C30.1126 24.5796 30.3974 24.4699 30.3974 24.4699C30.4558 24.3384 30.4847 23.5641 30.47 23.2427C30.47 23.2427 30.4847 23.5641 30.4629 23.7905C30.4045 23.9221 30.4558 24.3384 30.3974 24.4699C30.3974 24.4699 30.2075 24.543 29.8861 24.5578C29.3748 24.6456 28.637 24.7117 28.4837 24.8797Z" fill="#8F8F99"/>
<path d="M31.581 24.9956C31.4861 25.0321 31.3545 24.9737 31.2596 25.0103C30.9016 24.9301 30.6386 24.8133 30.6386 24.8133C30.6386 24.8133 30.9016 24.9301 31.2596 25.0103C31.6176 25.0905 32.1654 25.0976 32.6986 24.7833C32.3188 24.9295 31.9024 24.9808 31.581 24.9956Z" fill="#8F8F99"/>
<path d="M43.2027 31.4046C43.7449 31.8055 44.3198 31.9474 44.4869 31.7215C44.6539 31.4956 44.3498 30.9875 43.8077 30.5865C43.2655 30.1856 42.6905 30.0437 42.5235 30.2696C42.3564 30.4956 42.6605 31.0037 43.2027 31.4046Z" fill="#EDEDF4"/>
<path d="M43.2815 31.3297C43.7785 31.6972 44.2897 31.8486 44.4233 31.6679C44.557 31.4872 44.2624 31.0427 43.7654 30.6752C43.2684 30.3077 42.7571 30.1563 42.6235 30.337C42.4899 30.5177 42.7845 30.9622 43.2815 31.3297Z" fill="#BCBCCC"/>
<path d="M44.8635 30.8922L43.3291 29.7387L42.8107 30.3744L42.6574 30.5425C42.7305 30.7324 42.9717 31.0756 43.4028 31.3457C43.7389 31.6524 44.0969 31.7326 44.3234 31.7544L44.4401 31.4914L44.8635 30.8922Z" fill="#73737F"/>
<path opacity="0.15" d="M43.4613 31.2143C43.315 30.8345 43.775 30.3303 43.775 30.3303L43.9649 30.2572L43.2342 29.7753L42.7158 30.411L42.5625 30.5791C42.6357 30.769 42.8769 31.1123 43.3079 31.3824C43.6441 31.689 44.0021 31.7693 44.2285 31.7911L44.3453 31.528C44.0604 31.6377 43.5709 31.4991 43.4613 31.2143Z" fill="#73737F"/>
<path d="M43.8604 30.6041C44.3122 30.9382 44.7598 31.0992 44.86 30.9636C44.9602 30.8281 44.6752 30.4473 44.2234 30.1132C43.7715 29.7791 43.324 29.6182 43.2238 29.7537C43.1236 29.8893 43.4086 30.27 43.8604 30.6041Z" fill="#8F8F99"/>
<path d="M42.694 30.6376C43.0373 30.3964 43.3074 29.9653 43.3074 29.9653C43.2124 30.0019 42.9789 30.5279 42.694 30.6376Z" fill="#8F8F99"/>
<path d="M42.9352 30.9807C43.1835 30.7761 43.4536 30.345 43.4536 30.345C43.4536 30.345 43.3952 30.4765 43.2419 30.6446C43.2419 30.6446 43.0886 30.8126 42.9352 30.9807Z" fill="#8F8F99"/>
<path d="M43.2714 31.2875C43.2714 31.2875 43.6948 30.6884 43.7898 30.6519C43.7314 30.7834 43.2714 31.2875 43.2714 31.2875Z" fill="#8F8F99"/>
<path d="M43.8338 31.6162C43.8338 31.6162 44.104 31.1851 44.3157 30.8855C44.0674 31.0901 43.8338 31.6162 43.8338 31.6162Z" fill="#8F8F99"/>
<path d="M44.1918 31.6962C44.1918 31.6962 44.3669 31.3017 44.6736 30.9656C44.3669 31.3017 44.1918 31.6962 44.1918 31.6962Z" fill="#8F8F99"/>
<path d="M45.3088 30.0668L44.3588 29.0153L43.424 29.7023C43.3656 29.8339 43.6068 30.177 43.943 30.4837C44.2791 30.7904 44.732 30.8341 44.827 30.7975L45.3088 30.0668Z" fill="#75F1C1"/>
<path d="M45.0459 29.9499C43.7532 30.5567 43.1245 29.4904 43.0219 28.6577C42.9559 27.92 42.503 27.8764 42.1521 27.2483C41.8012 26.6202 42.5024 26.4593 42.5024 26.4593C43.788 26.4003 44.0516 27.9342 44.0516 27.9342C44.0516 27.9342 44.6638 24.4276 46.3658 24.3174C48.0678 24.2071 48.638 25.4049 47.915 25.7923C47.2869 26.1432 46.2201 25.3547 46.2201 25.3547C46.2201 25.3547 45.4464 26.7429 45.4906 27.7071C45.4906 27.7071 46.0455 27.1664 46.7031 27.4583C47.4921 27.8086 48.0553 29.5542 47.0622 30.3727C46.164 31.1547 45.214 30.1032 46.4919 29.175C46.4919 29.175 46.3675 28.5688 46.1629 28.3205C46.4259 28.4373 46.1858 30.9283 45.0459 29.9499Z" fill="#75F1C1"/>
<path d="M46.7477 29.8395C46.9595 29.5399 47.3611 29.1672 47.0833 28.729C46.8421 28.3858 46.5207 28.4005 46.5207 28.4005C46.6888 28.5538 46.8498 29.2551 46.8498 29.2551C45.6667 30.1467 46.3538 31.0815 47.1718 30.6575C46.7554 30.7088 46.3827 30.3071 46.7477 29.8395Z" fill="#69DDAE"/>
<path d="M43.4965 28.475C43.3574 27.5474 42.4734 27.2337 42.7069 26.7076C42.7653 26.5761 42.9552 26.503 43.0501 26.4664C42.9186 26.408 42.6922 26.3862 42.5973 26.4228C42.5973 26.4228 41.896 26.5838 42.2469 27.2118C42.5978 27.8399 43.0507 27.8835 43.1168 28.6213C43.1828 29.3591 43.848 30.5203 45.0458 29.95C43.9866 30.0308 43.5408 29.4393 43.4965 28.475Z" fill="#69DDAE"/>
<path d="M46.0007 24.7852C46.5339 24.4708 46.9502 24.4195 47.4031 24.4632C47.1401 24.3464 46.8187 24.3612 46.4973 24.3759C44.8903 24.4496 44.1684 27.6713 44.1466 27.8978C44.1466 27.8978 45.0294 25.3772 46.0007 24.7852Z" fill="#69DDAE"/>
<path d="M44.951 29.9865C44.951 29.9865 44.9145 29.8916 44.951 29.9865C45.2795 29.4239 45.1038 28.4013 45.1038 28.4013C45.1038 28.4013 45.1038 28.4013 45.1987 28.3647C45.1987 28.3647 45.1987 28.3648 45.2353 28.4597C45.2353 28.4597 45.25 28.7811 45.2648 29.1025C45.1846 29.4605 45.1627 29.687 44.951 29.9865Z" fill="#3CAF8E"/>
<path d="M31.4365 28.8669L31.2903 28.4871L29.9398 30.6425L30.3561 30.5913L31.4365 28.8669Z" fill="white"/>
<path d="M31.1671 30.7153L32.3944 30.7879L31.5464 29.1519L31.5098 29.057L30.4878 30.6498L30.9041 30.5985L31.5393 29.6998L31.7952 30.3644L31.3423 30.3208L31.1671 30.7153Z" fill="white"/>
<path d="M31.3269 28.5823L29.9398 30.6428L30.3562 30.5915L31.4366 28.8671L31.3269 28.5823Z" fill="#BCBCCC"/>
<path d="M31.167 30.7153L32.3942 30.7879L31.5462 29.152L30.4876 30.6499L30.9039 30.5986L31.5391 29.6998L31.795 30.3645L31.3421 30.3208L31.167 30.7153Z" fill="#BCBCCC"/>
<path d="M31.232 28.6188L30.0348 30.6062L30.2612 30.628L31.4366 28.8671L31.232 28.6188Z" fill="white"/>
<path d="M30.5825 30.6133L31.5462 29.152L32.3576 30.693L31.167 30.7153L31.3787 30.4158L31.9265 30.4229L31.5391 29.6998L30.9039 30.5986L30.5825 30.6133Z" fill="white"/>
<path d="M15.2216 33.4756C15.2216 33.4756 14.4975 31.0287 13.5327 29.6558C12.5679 28.2829 11.1873 28.3784 10.9903 28.9994C10.7934 29.6204 11.8018 30.5404 12.7147 30.0798C12.7147 30.0798 13.4896 31.5258 13.4902 32.943C13.4902 32.943 11.7069 30.577 10.436 30.9573C9.1651 31.3377 9.6917 32.9883 10.8382 32.0017C10.8382 32.0017 11.7222 32.3155 12.0294 33.3965C12.3366 34.4775 12.2641 35.7047 13.1333 35.697C13.3598 35.7189 13.4182 35.5874 13.703 35.4777C13.8711 35.631 14.0026 35.6894 14.324 35.6747C14.8353 35.5868 14.9739 35.0973 15.6604 34.6149C16.1351 34.4321 16.588 34.4757 17.0409 34.5194C18.4362 34.7453 16.6382 32.0579 15.2216 33.4756Z" fill="#75F1C1"/>
<path d="M16.0545 33.3729C15.1268 33.512 14.7983 34.0746 14.7983 34.0746C14.7983 34.0746 14.3667 32.3874 13.577 30.6199C12.7874 28.8525 11.4505 28.4951 11.1586 29.1526C11.0418 29.4157 11.0784 29.5106 11.1515 29.7005C11.4876 30.0072 12.0137 30.2407 12.5833 30.0213C12.5833 30.0213 13.3582 31.4674 13.3588 32.8845C13.3588 32.8845 13.3588 32.8845 13.3223 32.7896C13.3223 32.7896 11.7949 31.0882 10.6991 31.074C10.1513 31.0669 9.86643 31.1766 9.61815 31.3812C9.28966 31.9438 9.90357 32.6887 10.8017 31.9067C10.8017 31.9067 11.6858 32.2205 11.993 33.3015C12.2271 34.1926 12.1764 35.1933 12.739 35.5218C13.1919 35.5655 13.5569 35.0978 14.083 35.3313C14.4409 35.4115 14.7842 35.1703 15.2223 34.8926C15.2807 34.7611 15.4706 34.6879 15.624 34.5199C15.9088 34.4102 16.2302 34.3955 16.5516 34.3807C17.6473 34.3949 17.1136 33.2921 16.0545 33.3729Z" fill="#69DDAE"/>
<path opacity="0.15" d="M31.7709 24.9223C31.6394 24.8639 31.6029 24.769 31.5663 24.6741L31.6389 23.4468C30.8645 23.4179 30.2436 23.2209 30.2654 22.9945L30.273 23.8637C29.5353 23.9298 28.9656 24.1491 28.6224 24.3903C28.7539 24.4487 28.6955 24.5802 28.6005 24.6168C28.8488 24.4121 29.3235 24.2293 29.9298 24.1049C29.3235 24.2293 28.7539 24.4487 28.5056 24.6533C28.5056 24.6533 29.1337 24.3024 30.2076 24.5431C30.237 25.1859 31.0697 25.0833 31.0332 24.9883C30.9966 24.8934 30.8285 24.7401 31.2231 24.9152C31.4495 24.937 31.676 24.9589 31.9024 24.9807C31.9024 24.9807 31.9025 24.9807 31.7709 24.9223ZM30.0613 24.1633C29.9664 24.1999 29.9664 24.1999 30.0613 24.1633C29.9664 24.1999 29.9664 24.1999 30.0613 24.1633ZM30.2512 24.0902C30.1563 24.1268 30.1563 24.1268 30.0613 24.1633C30.0613 24.1633 30.1563 24.1268 30.2512 24.0902Z" fill="#73737F"/>
<path opacity="0.15" d="M28.801 32.4986C28.9019 32.7608 29.1963 32.8915 29.4585 32.7905C29.7207 32.6895 29.8514 32.3951 29.7504 32.1329C29.6495 31.8708 29.3551 31.7401 29.0929 31.841C28.8307 31.942 28.7 32.2364 28.801 32.4986Z" fill="#73737F"/>
<path d="M28.9909 32.4257C29.0717 32.6354 29.3072 32.74 29.5169 32.6592C29.7267 32.5785 29.8313 32.3429 29.7505 32.1332C29.6697 31.9234 29.4342 31.8189 29.2245 31.8997C29.0147 31.9804 28.9101 32.2159 28.9909 32.4257Z" fill="#EDEDF4"/>
<path opacity="0.15" d="M26.4255 29.1612L26.366 26.4585L26.3376 28.6499C26.2498 28.1386 25.9867 28.0219 25.9867 28.0219C25.8918 28.0584 26.3229 28.3285 26.4255 29.1612C26.3305 29.1978 26.3305 29.1978 26.4255 29.1612C26.3305 29.1978 26.3305 29.1978 26.4255 29.1612C26.3305 29.1978 26.4255 29.1612 26.4255 29.1612Z" fill="#73737F"/>
<path d="M16.1724 35.9443L20.8402 35.8913C20.8402 35.8913 21.1616 35.8766 21.5779 35.8253C21.9943 35.774 22.469 35.5912 22.7975 35.0286C23.4327 34.1298 26.0388 29.8554 26.0022 29.7605C26.0022 29.7605 23.4327 34.1298 22.7975 35.0286C22.5858 35.3281 22.2791 35.6643 21.5779 35.8253C21.1616 35.8766 20.8402 35.8913 20.8402 35.8913L16.1724 35.9443Z" fill="#EDEDF4"/>
<path d="M26.504 24.5518C26.5405 24.6467 26.5405 24.6468 26.672 24.7051L27.1833 24.6173C27.1833 24.6173 27.2783 24.5807 27.2417 24.4858C27.2052 24.3908 27.2051 24.3908 27.1102 24.4273L26.5989 24.5152C26.4674 24.4568 26.409 24.5884 26.504 24.5518Z" fill="#EDEDF4"/>
<path d="M36.5483 25.1542C36.4899 25.2857 36.4899 25.2857 36.3584 25.2273L35.8689 25.0887L35.8324 24.9938C35.7958 24.8989 35.8908 24.8623 35.9273 24.9572L36.4168 25.0958C36.6067 25.0227 36.6433 25.1176 36.5483 25.1542Z" fill="#EDEDF4"/>
<path opacity="0.19" d="M52.7009 29.7278L39.567 29.8791C39.472 29.9157 39.4355 29.8207 39.3989 29.7258L40.1534 16.6791C40.1168 16.5842 40.2117 16.5476 40.3067 16.5111L53.3681 17.5869C53.4631 17.5503 53.4996 17.6453 53.4412 17.7768L52.7593 29.5963C52.7959 29.6912 52.7009 29.7278 52.7009 29.7278Z" fill="white"/>
<path opacity="0.27" d="M53.478 17.8719L40.1901 16.7742L40.212 16.5478C40.1754 16.4528 40.2703 16.4163 40.3653 16.3797L53.4267 17.4556C53.5216 17.419 53.5582 17.514 53.4998 17.6455L53.478 17.8719Z" fill="white"/>
<path opacity="0.05" d="M52.08 29.5308L47.2808 29.5254L47.9627 17.706L52.8132 18.1277L52.1384 29.3993C52.2699 29.4577 52.1749 29.4942 52.08 29.5308Z" fill="white"/>
<path opacity="0.05" d="M51.1878 26.9306L48.7699 26.8804C48.3535 26.9317 48.0758 26.4935 48.156 26.1356L48.5477 19.2251C48.5913 18.7722 48.9345 18.531 49.2559 18.5162L51.8419 18.7197C52.1999 18.7999 52.536 19.1066 52.4558 19.4646L52.0494 26.0537C51.9108 26.5432 51.6042 26.8793 51.1878 26.9306Z" fill="white"/>
<path opacity="0.29" d="M50.8375 27.7199L48.1931 27.6479C48.1931 27.6479 48.1931 27.6479 48.1566 27.553L48.2515 27.5164L50.8959 27.5884C50.8593 27.4934 50.8959 27.5884 50.8375 27.7199C50.9324 27.6833 50.8375 27.7199 50.8375 27.7199Z" fill="white"/>
<g opacity="0.46">
<path opacity="0.29" d="M50.0198 28.1433L48.1498 28.1003L50.0198 28.1433C49.9833 28.0484 49.9833 28.0484 50.0198 28.1433Z" fill="white"/>
<path opacity="0.29" d="M49.6762 28.3848L48.1276 28.3269L49.6762 28.3848C49.6396 28.2899 49.7346 28.2533 49.6762 28.3848Z" fill="white"/>
<path opacity="0.29" d="M50.3338 28.6766L48.0474 28.6849L50.3338 28.6766C50.3922 28.5451 50.3922 28.5451 50.3338 28.6766C50.4288 28.6401 50.3338 28.6766 50.3338 28.6766Z" fill="white"/>
<path opacity="0.29" d="M50.3119 28.9033L48.0255 28.9114L50.3119 28.9033C50.3703 28.7718 50.3703 28.7718 50.3119 28.9033C50.4068 28.8667 50.3119 28.9033 50.3119 28.9033Z" fill="white"/>
</g>
<g opacity="0.27">
<path opacity="0.27" d="M40.9722 17.6724L42.7473 17.7521C42.8422 17.7155 42.8422 17.7156 42.9006 17.584C42.864 17.4891 42.864 17.4891 42.7325 17.4307L40.9574 17.351C40.8625 17.3876 40.8625 17.3876 40.8041 17.5191C40.8406 17.614 40.8406 17.6141 40.9722 17.6724Z" fill="white"/>
<path opacity="0.27" d="M41.317 21.6824C41.3536 21.7774 41.3536 21.7774 41.4851 21.8358L43.2602 21.9154C43.3551 21.8789 43.3552 21.8789 43.4135 21.7474C43.377 21.6524 43.377 21.6524 43.2455 21.594L41.3754 21.5509C41.3754 21.5509 41.2805 21.5875 41.317 21.6824Z" fill="white"/>
<path opacity="0.27" d="M44.0404 18.5624L42.3603 18.4462C42.2653 18.4828 42.2653 18.4828 42.2069 18.6143C42.2435 18.7092 42.2435 18.7092 42.375 18.7676L44.0552 18.8838C44.1501 18.8473 44.1501 18.8473 44.1136 18.7523C44.1354 18.5259 44.1354 18.5259 44.0404 18.5624Z" fill="white"/>
<path opacity="0.27" d="M42.2295 19.8048L43.9096 19.921C44.0046 19.8845 44.0045 19.8844 44.0629 19.7529C44.0264 19.658 44.0264 19.658 43.8949 19.5996L42.2147 19.4834C42.1198 19.52 42.1198 19.52 42.0614 19.6515C42.0979 19.7464 42.1345 19.8414 42.2295 19.8048Z" fill="white"/>
<path opacity="0.27" d="M45.1663 20.6363C45.1297 20.5413 45.1297 20.5414 45.0348 20.5779L43.3546 20.4617C43.2597 20.4983 43.2597 20.4982 43.2013 20.6298C43.2378 20.7247 43.2378 20.7247 43.3693 20.7831L45.0495 20.8993C45.1079 20.7678 45.2028 20.7312 45.1663 20.6363Z" fill="white"/>
<path opacity="0.27" d="M44.4496 19.0589C44.413 18.9639 44.413 18.9639 44.2815 18.9055L42.28 18.8041C42.185 18.8406 42.185 18.8407 42.1267 18.9722C42.1632 19.0671 42.1632 19.0671 42.2947 19.1254L44.2963 19.227C44.3912 19.1904 44.3912 19.1904 44.4496 19.0589Z" fill="white"/>
<path opacity="0.27" d="M42.2364 19.2569C42.1414 19.2934 42.1414 19.2934 42.083 19.4249C42.1196 19.5199 42.1196 19.5199 42.2511 19.5783L43.4783 19.6508C43.5733 19.6142 43.5733 19.6143 43.6317 19.4828C43.5951 19.3878 43.5951 19.3878 43.4636 19.3294L42.2364 19.2569Z" fill="white"/>
<path opacity="0.27" d="M41.4049 22.1937L42.6321 22.2663C42.7271 22.2297 42.7271 22.2297 42.7855 22.0982C42.7489 22.0033 42.7489 22.0033 42.6174 21.9449L41.3902 21.8723C41.2952 21.9089 41.2952 21.9089 41.2369 22.0404C41.2734 22.1354 41.2734 22.1353 41.4049 22.1937Z" fill="white"/>
<path opacity="0.27" d="M43.1052 17.8323L43.5581 17.876C43.653 17.8394 43.653 17.8394 43.7114 17.7079C43.6749 17.6129 43.6749 17.6129 43.5433 17.5545L43.0904 17.5109C42.9955 17.5475 42.9955 17.5475 42.9371 17.679C42.9737 17.7739 42.9737 17.7739 43.1052 17.8323Z" fill="white"/>
<path opacity="0.27" d="M43.9159 17.9559L44.3689 17.9996C44.4638 17.963 44.4638 17.963 44.4273 17.8681C44.3907 17.7731 44.3907 17.7731 44.2592 17.7147L43.8063 17.6711C43.7113 17.7077 43.7113 17.7077 43.7479 17.8026C43.8794 17.861 43.8794 17.861 43.9159 17.9559Z" fill="white"/>
<path opacity="0.27" d="M45.7129 17.8094L44.8071 17.7221C44.7121 17.7587 44.7121 17.7587 44.7487 17.8536C44.7853 17.9486 44.7853 17.9486 44.9168 18.007L45.8226 18.0943C45.9176 18.0577 45.9175 18.0577 45.881 17.9627C45.8444 17.8678 45.8079 17.7728 45.7129 17.8094Z" fill="white"/>
<path opacity="0.27" d="M46.0127 18.021L46.2391 18.0428C46.334 18.0063 46.3341 18.0063 46.2975 17.9113C46.2609 17.8164 46.2609 17.8164 46.166 17.8529L45.9395 17.8311C45.8446 17.8677 45.8446 17.8677 45.8811 17.9626C45.9177 18.0576 46.0127 18.021 46.0127 18.021Z" fill="white"/>
<path opacity="0.27" d="M40.7544 21.3538L42.5295 21.4335C42.6244 21.3969 42.6244 21.397 42.6828 21.2654C42.6463 21.1705 42.6463 21.1705 42.5148 21.1121L40.7396 21.0324C40.6447 21.069 40.6447 21.069 40.5863 21.2006C40.5279 21.3321 40.6594 21.3904 40.7544 21.3538Z" fill="white"/>
<path opacity="0.27" d="M42.8874 21.5139L43.4353 21.521C43.5302 21.4844 43.5302 21.4844 43.5886 21.3529C43.5521 21.258 43.5521 21.258 43.4206 21.1996L42.8727 21.1925C42.7777 21.2291 42.7777 21.2291 42.7194 21.3606C42.7559 21.4555 42.7559 21.4555 42.8874 21.5139Z" fill="white"/>
<path opacity="0.27" d="M42.2306 22.6388C42.1357 22.6754 42.1357 22.6754 42.0773 22.8069C42.1138 22.9019 42.1138 22.9018 42.2453 22.9602L42.7932 22.9673C42.8882 22.9307 42.8882 22.9308 42.9466 22.7992C42.91 22.7043 42.91 22.7043 42.7785 22.6459L42.2306 22.6388Z" fill="white"/>
<path opacity="0.27" d="M42.2601 23.282L43.2609 23.3327C43.3558 23.2962 43.3558 23.2962 43.4142 23.1647C43.4726 23.0332 43.3777 23.0697 43.2827 23.1063L42.2819 23.0556C42.187 23.0921 42.187 23.0921 42.1286 23.2236C42.1286 23.2236 42.1652 23.3186 42.2601 23.282Z" fill="white"/>
<path opacity="0.27" d="M45.5538 21.3592L44.6845 21.3669L44.5896 21.4035L43.6837 21.3161C43.5888 21.3527 43.5888 21.3527 43.5304 21.4842C43.567 21.5792 43.567 21.5792 43.6985 21.6376L44.6043 21.7248L44.6993 21.6883L45.5685 21.6806C45.6635 21.6441 45.6635 21.6441 45.6269 21.5491C45.5904 21.4542 45.5904 21.4542 45.5538 21.3592Z" fill="white"/>
<path opacity="0.27" d="M46.1015 21.3663L45.8751 21.3445C45.7801 21.3811 45.7801 21.3811 45.8167 21.476C45.8532 21.571 45.8532 21.571 45.9482 21.5344L46.1746 21.5563C46.2696 21.5197 46.2696 21.5197 46.233 21.4247C46.1381 21.4613 46.1381 21.4613 46.1015 21.3663Z" fill="white"/>
<path opacity="0.27" d="M43.6312 18.0655C43.6677 18.1605 43.6677 18.1605 43.7992 18.2189L44.2522 18.2625C44.3471 18.226 44.3471 18.226 44.3106 18.131C44.274 18.0361 44.274 18.0361 44.1425 17.9777L43.6896 17.934C43.6312 18.0655 43.6312 18.0655 43.6312 18.0655Z" fill="white"/>
<path opacity="0.27" d="M43.8512 20.0524L43.3983 20.0087C43.3033 20.0453 43.3034 20.0453 43.245 20.1769C43.2815 20.2718 43.2815 20.2718 43.413 20.3301L43.8659 20.3738C43.9609 20.3372 43.9609 20.3373 44.0193 20.2057C44.0777 20.0742 43.9462 20.0158 43.8512 20.0524Z" fill="white"/>
<path opacity="0.27" d="M42.762 18.0733C42.7986 18.1682 42.7986 18.1682 42.9301 18.2266L43.383 18.2703C43.478 18.2337 43.478 18.2337 43.5364 18.1022C43.5947 17.9707 43.4998 18.0073 43.3683 17.9489L42.9154 17.9052C42.8204 17.9418 42.7255 17.9783 42.762 18.0733Z" fill="white"/>
<path opacity="0.27" d="M42.4622 17.8614L41.5564 17.7741C41.4614 17.8107 41.4614 17.8107 41.403 17.9422C41.3447 18.0737 41.4396 18.0372 41.5711 18.0956L42.4769 18.1828C42.5719 18.1463 42.5719 18.1463 42.6303 18.0148C42.4988 17.9564 42.4988 17.9564 42.4622 17.8614Z" fill="white"/>
<path opacity="0.27" d="M40.8918 18.0302L41.1182 18.0521C41.2132 18.0155 41.2132 18.0155 41.2715 17.884C41.235 17.789 41.235 17.7891 41.1035 17.7307L40.877 17.7088C40.7821 17.7454 40.7821 17.7454 40.7237 17.8769C40.6653 18.0084 40.7968 18.0668 40.8918 18.0302Z" fill="white"/>
<path opacity="0.27" d="M44.6915 20.8192C44.5965 20.8557 44.5965 20.8557 44.6331 20.9506C44.6696 21.0456 44.6697 21.0456 44.7646 21.0091L44.9911 21.0309C45.086 20.9943 45.086 20.9943 45.0494 20.8994C45.0129 20.8044 45.0129 20.8044 44.9179 20.841L44.6915 20.8192Z" fill="white"/>
<path opacity="0.27" d="M43.3627 22.7482L43.1363 22.7264C43.0413 22.763 43.0413 22.7629 42.9829 22.8944C43.0195 22.9894 43.0195 22.9894 43.151 23.0478L43.3775 23.0696C43.4724 23.033 43.4724 23.033 43.5308 22.9015C43.5892 22.77 43.4577 22.7116 43.3627 22.7482Z" fill="white"/>
<path opacity="0.27" d="M42.194 22.5441L42.4204 22.5659C42.5154 22.5294 42.5154 22.5294 42.5738 22.3979C42.6322 22.2664 42.5372 22.3029 42.4057 22.2445L42.1792 22.2227C42.0843 22.2593 42.0843 22.2593 42.0259 22.3908C42.1574 22.4492 42.194 22.5441 42.194 22.5441Z" fill="white"/>
<path opacity="0.27" d="M40.5727 23.7132L42.3478 23.7929C42.4428 23.7563 42.4428 23.7563 42.5012 23.6248C42.4646 23.5298 42.4646 23.5298 42.3331 23.4714L40.558 23.3918C40.4631 23.4284 40.4631 23.4284 40.4047 23.5599C40.3463 23.6914 40.5362 23.6183 40.5727 23.7132Z" fill="white"/>
<path opacity="0.27" d="M42.9776 27.6937C42.9411 27.5988 42.941 27.5987 42.8461 27.6353L41.1076 27.6506C41.0126 27.6872 41.0126 27.6871 40.9542 27.8187C40.9908 27.9136 40.9908 27.9136 41.0857 27.8771L42.8243 27.8617C42.8827 27.7302 42.9776 27.6937 42.9776 27.6937Z" fill="white"/>
<path opacity="0.27" d="M41.8294 24.4288C41.866 24.5237 41.866 24.5237 41.9975 24.5821L43.7726 24.6618C43.8675 24.6252 43.8675 24.6252 43.9259 24.4937C43.9843 24.3622 43.8894 24.3987 43.7944 24.4353L42.0193 24.3557C41.8878 24.2973 41.8294 24.4288 41.8294 24.4288Z" fill="white"/>
<path opacity="0.27" d="M41.9251 25.8094L43.6636 25.7941C43.7586 25.7576 43.7585 25.7575 43.8169 25.626C43.8753 25.4945 43.7804 25.5311 43.6854 25.5677L41.9469 25.583C41.852 25.6196 41.8519 25.6195 41.7936 25.751C41.7352 25.8825 41.7936 25.751 41.9251 25.8094Z" fill="white"/>
<path opacity="0.27" d="M44.8836 26.4146C44.8471 26.3197 44.8471 26.3197 44.7521 26.3562L43.1085 26.335C43.0136 26.3716 43.0136 26.3715 42.9552 26.503C42.9917 26.598 42.9918 26.598 43.0867 26.5615L44.7303 26.5827C44.8252 26.5461 44.8252 26.5462 44.8836 26.4146Z" fill="white"/>
<path opacity="0.27" d="M44.1088 24.9688C44.0723 24.8738 44.0723 24.8738 43.9773 24.9104L41.9758 24.8089C41.8808 24.8455 41.8808 24.8455 41.8224 24.977C41.859 25.0719 41.859 25.0719 41.9905 25.1303L43.9921 25.2318C44.0139 25.0053 44.1088 24.9688 44.1088 24.9688Z" fill="white"/>
<path opacity="0.27" d="M41.8955 25.1668C41.8006 25.2033 41.8006 25.2033 41.7422 25.3348C41.7788 25.4298 41.7788 25.4298 41.8737 25.3932L43.101 25.4658C43.1959 25.4292 43.1959 25.4292 43.2543 25.2977C43.2177 25.2027 43.2177 25.2028 43.1228 25.2393L41.8955 25.1668Z" fill="white"/>
<path opacity="0.27" d="M42.4443 28.0079C42.4077 27.913 42.4077 27.913 42.3128 27.9496L41.1221 27.9719C41.0272 28.0085 41.0272 28.0085 40.9688 28.1401C40.9104 28.2716 41.0053 28.235 41.1003 28.1984L42.291 28.176C42.3859 28.1395 42.3493 28.0445 42.4443 28.0079Z" fill="white"/>
<path opacity="0.27" d="M43.2389 23.5587L42.6911 23.5516C42.5961 23.5882 42.5961 23.5882 42.5377 23.7198C42.5743 23.8147 42.5743 23.8147 42.7058 23.873L43.2537 23.8801C43.3486 23.8436 43.3486 23.8436 43.407 23.7121C43.3704 23.6171 43.3339 23.5222 43.2389 23.5587Z" fill="white"/>
<path opacity="0.27" d="M44.1083 23.5514L43.6554 23.5078C43.5604 23.5443 43.5605 23.5444 43.5021 23.6759C43.5386 23.7708 43.5386 23.7708 43.6336 23.7342L44.0865 23.7779C44.1814 23.7413 44.1814 23.7414 44.2398 23.6098C44.2398 23.6098 44.2033 23.5149 44.1083 23.5514Z" fill="white"/>
<path opacity="0.27" d="M45.4304 23.5875L44.5246 23.5003C44.4297 23.5368 44.4296 23.5368 44.3713 23.6683C44.4078 23.7633 44.4078 23.7632 44.5028 23.7267L45.4086 23.814C45.5035 23.7774 45.5036 23.7775 45.467 23.6825C45.4304 23.5876 45.4304 23.5875 45.4304 23.5875Z" fill="white"/>
<path opacity="0.27" d="M45.9782 23.5944L45.7518 23.5726C45.6568 23.6091 45.6568 23.6091 45.6934 23.7041C45.7299 23.799 45.7299 23.799 45.8249 23.7624L46.0514 23.7843C46.1463 23.7477 46.1463 23.7477 46.1097 23.6527C46.0148 23.6893 46.0148 23.6893 45.9782 23.5944Z" fill="white"/>
<path opacity="0.27" d="M42.2835 27.3067C42.2469 27.2117 42.2469 27.2118 42.152 27.2483L40.4135 27.2636C40.3185 27.3002 40.3185 27.3002 40.2601 27.4317C40.2967 27.5266 40.2967 27.5267 40.4282 27.585L42.1667 27.5697C42.2251 27.4382 42.2835 27.3067 42.2835 27.3067Z" fill="white"/>
<path opacity="0.27" d="M43.1527 27.2993C43.1161 27.2043 43.1161 27.2043 43.0212 27.2409L42.4733 27.2338C42.3783 27.2703 42.3784 27.2704 42.32 27.4019C42.3565 27.4968 42.3565 27.4968 42.4515 27.4602L42.9993 27.4673C43.0943 27.4308 43.1527 27.2993 43.1527 27.2993Z" fill="white"/>
<path opacity="0.27" d="M41.9262 28.6437C41.8312 28.6803 41.8312 28.6802 41.7728 28.8117C41.7144 28.9432 41.8094 28.9067 41.9043 28.8702L42.4522 28.8772C42.5471 28.8406 42.5471 28.8407 42.6055 28.7091C42.569 28.6142 42.569 28.6142 42.474 28.6508L41.9262 28.6437Z" fill="white"/>
<path opacity="0.27" d="M42.8465 29.0524L41.8823 29.0966C41.7874 29.1331 41.7874 29.1332 41.729 29.2647C41.7655 29.3596 41.7655 29.3596 41.8605 29.323L42.8247 29.2788C42.9196 29.2423 42.9197 29.2423 42.978 29.1108C42.978 29.1108 42.9415 29.0158 42.8465 29.0524Z" fill="white"/>
<path opacity="0.27" d="M45.1762 27.174L44.307 27.1817L44.212 27.2182L43.3428 27.2259C43.2478 27.2624 43.2478 27.2624 43.1894 27.3939C43.226 27.4889 43.226 27.4889 43.3209 27.4523L44.1902 27.4447L44.2851 27.4081L45.1544 27.4005C45.2494 27.3639 45.2493 27.3639 45.2128 27.2689C45.3077 27.2324 45.3077 27.2324 45.1762 27.174Z" fill="white"/>
<path opacity="0.27" d="M45.7241 27.1813L45.4976 27.1595C45.4027 27.1961 45.4027 27.1961 45.4393 27.291C45.4758 27.386 45.4758 27.386 45.5708 27.3494L45.7972 27.3713C45.8922 27.3347 45.8922 27.3347 45.8556 27.2397C45.8556 27.2397 45.8556 27.2397 45.7241 27.1813Z" fill="white"/>
<path opacity="0.27" d="M43.933 23.9459L43.3852 23.9388C43.2902 23.9754 43.2902 23.9754 43.2318 24.1069C43.2684 24.2018 43.2684 24.2018 43.3633 24.1652L43.9112 24.1723C44.0061 24.1358 44.0062 24.1358 44.0645 24.0043C44.1229 23.8728 43.933 23.9459 43.933 23.9459Z" fill="white"/>
<path opacity="0.27" d="M43.5101 25.9623L42.9623 25.9552C42.8673 25.9918 42.8673 25.9918 42.809 26.1233C42.7506 26.2548 42.8455 26.2183 42.9405 26.1817L43.4883 26.1888C43.5833 26.1522 43.5833 26.1522 43.6417 26.0207C43.7 25.8892 43.6051 25.9258 43.5101 25.9623Z" fill="white"/>
<path opacity="0.27" d="M42.4209 23.9831C42.4575 24.078 42.4575 24.0781 42.589 24.1364L43.1368 24.1435C43.2318 24.107 43.2318 24.107 43.2902 23.9755C43.3486 23.844 43.2536 23.8805 43.1587 23.9171L42.6108 23.91C42.4793 23.8516 42.3843 23.8882 42.4209 23.9831Z" fill="white"/>
<path opacity="0.27" d="M42.158 23.8661L41.1572 23.8153C41.0623 23.8519 41.0623 23.8519 41.0039 23.9834C40.9455 24.1149 41.0404 24.0783 41.1719 24.1367L42.1727 24.1875C42.2677 24.1509 42.2677 24.1509 42.3261 24.0194C42.1945 23.961 42.158 23.8661 42.158 23.8661Z" fill="white"/>
<path opacity="0.27" d="M40.5876 24.0351L40.814 24.0569C40.9089 24.0203 40.909 24.0203 40.9673 23.8888C40.9308 23.7939 40.9308 23.7939 40.7993 23.7355L40.5728 23.7137C40.4779 23.7503 40.4779 23.7502 40.4195 23.8817C40.3611 24.0132 40.4926 24.0716 40.5876 24.0351Z" fill="white"/>
<path opacity="0.27" d="M44.3506 26.7288C44.2557 26.7654 44.2557 26.7654 44.1973 26.8969C44.2339 26.9919 44.2339 26.9919 44.3288 26.9553L44.5553 26.9771C44.6502 26.9405 44.6502 26.9406 44.7086 26.8091C44.767 26.6775 44.672 26.7141 44.5771 26.7507L44.3506 26.7288Z" fill="white"/>
<path opacity="0.27" d="M43.0219 28.6579L42.7955 28.6361C42.7005 28.6726 42.7005 28.6726 42.6421 28.8041C42.5837 28.9356 42.6787 28.8991 42.7736 28.8625L43.0001 28.8843C43.095 28.8478 43.095 28.8478 43.1534 28.7163C43.2118 28.5848 43.1169 28.6213 43.0219 28.6579Z" fill="white"/>
<path opacity="0.27" d="M41.853 28.4536L42.0794 28.4754C42.1744 28.4388 42.1744 28.4389 42.2328 28.3073C42.2912 28.1758 42.1962 28.2124 42.1013 28.249L41.8748 28.2271C41.7799 28.2637 41.7799 28.2637 41.7215 28.3952C41.8164 28.3587 41.853 28.4536 41.853 28.4536Z" fill="white"/>
</g>
<path opacity="0.05" d="M51.6522 18.7928L51.6304 19.0193C51.572 19.1508 51.5136 19.2823 51.3821 19.2239L49.702 19.1077C49.5705 19.0493 49.4389 18.9909 49.4608 18.7645L49.4826 18.538L49.2561 18.5162C48.9347 18.5309 48.5915 18.7721 48.6062 19.0935L48.178 25.9091C48.1927 26.2305 48.4339 26.5737 48.7553 26.559L50.9468 26.5873C51.3631 26.536 51.7064 26.2948 51.75 25.8419L52.098 19.3843C52.2148 19.1213 51.9152 18.9096 51.6522 18.7928Z" fill="white"/>
<g opacity="0.3">
<g opacity="0.3">
<path opacity="0.3" d="M52.1056 20.2538L48.5188 19.9996L52.1056 20.2538Z" fill="white"/>
</g>
<g opacity="0.3">
<path opacity="0.3" d="M51.961 24.1251L48.3159 24.0025L48.2793 23.9075L51.9245 24.0302L51.961 24.1251Z" fill="white"/>
</g>
<g opacity="0.3">
<path opacity="0.3" d="M51.8815 25.9006L48.2364 25.7778L51.8815 25.9006Z" fill="white"/>
</g>
<g opacity="0.3">
<path opacity="0.3" d="M48.3974 26.4789L48.3025 26.5155L48.7378 19.1521L48.3974 26.4789Z" fill="white"/>
</g>
<g opacity="0.3">
<path opacity="0.3" d="M49.1716 26.508L49.512 19.1812L49.1716 26.508Z" fill="white"/>
</g>
<g opacity="0.3">
<path opacity="0.3" d="M49.946 26.5368L50.323 19.3049L49.946 26.5368Z" fill="white"/>
</g>
<g opacity="0.3">
<path opacity="0.3" d="M50.7202 26.5656L51.0972 19.3337L50.7202 26.5656Z" fill="white"/>
</g>
<g opacity="0.3">
<path opacity="0.3" d="M51.4946 26.5947L51.8716 19.3628L51.4946 26.5947Z" fill="white"/>
</g>
</g>
<path opacity="0.19" d="M20.059 37.8275L7.66273 37.9127L7.53122 37.8544L6.55594 28.5265C6.51937 28.4316 6.61433 28.395 6.61433 28.395L18.6809 26.038C18.7759 26.0014 18.8124 26.0964 18.849 26.1914L20.0224 37.7325C20.1539 37.7909 20.1905 37.8858 20.059 37.8275Z" fill="white"/>
<path opacity="0.27" d="M19.0173 26.3446L6.62932 28.7164L6.55619 28.5265C6.51963 28.4315 6.61459 28.395 6.61459 28.395L18.6812 26.038C18.7761 26.0014 18.8127 26.0964 18.8492 26.1913L19.0173 26.3446Z" fill="white"/>
<path opacity="0.05" d="M20.0591 37.8276L15.8442 37.9242L14.7734 27.2158L19.0537 26.4397L20.154 37.791C20.154 37.791 20.0956 37.9225 20.0591 37.8276Z" fill="white"/>
<path opacity="0.29" d="M13.2401 28.8963L12.3124 29.0355L11.4797 29.1381C11.2898 29.2113 11.0999 29.2844 11.0415 29.4159C10.9832 29.5474 10.8664 29.8104 10.903 29.9054L11.0421 30.833L11.0863 31.7972C11.1376 32.2136 11.4738 32.5202 11.7952 32.5055L13.5921 32.3587C14.0084 32.3074 14.2786 31.8763 14.2273 31.4599L13.9708 29.3782C13.9926 29.1517 13.6564 28.845 13.2401 28.8963ZM14.0439 29.5681L14.1247 30.6273L14.0297 30.6638L13.9489 29.6047C13.8758 29.4148 13.8392 29.3198 13.8027 29.2248L13.8611 29.0934C13.8976 29.1883 13.9708 29.3782 14.0439 29.5681ZM11.1152 31.0229L11.3051 30.9498C11.3199 31.2712 11.4661 31.651 11.7657 31.8627L11.4006 32.3303C11.3641 32.2354 11.2326 32.177 11.2544 31.9506L11.1152 31.0229ZM13.6717 30.5836L13.1604 30.6715C13.1823 30.445 13.0142 30.2917 12.8461 30.1383L13.1162 29.7072C13.5108 29.8824 13.657 30.2622 13.6717 30.5836ZM11.3051 30.9498L11.8164 30.8619C11.7946 31.0884 11.9627 31.2417 12.0358 31.4316L11.7657 31.8627C11.5611 31.6144 11.3199 31.2712 11.3051 30.9498ZM13.1604 30.6715L12.9705 30.7446C12.934 30.6497 12.8609 30.4597 12.8243 30.3648L12.9776 30.1967C13.1091 30.2551 13.1823 30.445 13.1604 30.6715ZM11.8164 30.8619L12.0063 30.7888C12.0429 30.8837 12.116 31.0736 12.1526 31.1686L11.9992 31.3366C11.9627 31.2417 11.7946 31.0884 11.8164 30.8619ZM12.0865 30.4308C12.0281 30.5623 11.9698 30.6938 12.0063 30.7888L11.8164 30.8619C11.8382 30.6354 11.8601 30.409 11.9185 30.2775L12.0865 30.4308ZM12.9705 30.7446L12.4592 30.8324L12.7293 30.4014C12.9558 30.4232 12.9924 30.5181 12.9705 30.7446ZM12.9705 30.7446C13.0071 30.8396 12.9853 31.066 12.8903 31.1026L12.5542 30.7959L12.9705 30.7446ZM12.0429 30.8838L12.4592 30.8324L12.1891 31.2635C12.116 31.0736 12.0795 30.9787 12.0429 30.8838ZM12.4592 30.8324L12.5471 31.3437C12.4522 31.3803 12.3206 31.3219 12.1891 31.2635L12.4592 30.8324ZM12.5542 30.7959L12.8903 31.1026C12.832 31.2341 12.737 31.2706 12.5471 31.3437L12.5542 30.7959ZM12.5176 30.7009L12.4298 30.1896C12.5247 30.1531 12.6562 30.2115 12.7877 30.2699L12.5176 30.7009ZM12.5176 30.7009L12.1815 30.3943C12.2399 30.2627 12.3348 30.2262 12.5247 30.1531L12.5176 30.7009ZM12.4592 30.8324L12.0429 30.8838C12.0063 30.7888 12.0647 30.6573 12.1231 30.5258L12.4592 30.8324ZM12.1891 31.2635C12.3206 31.3219 12.4522 31.3803 12.5471 31.3437L12.5253 31.5702C12.3354 31.6433 12.1673 31.49 12.0358 31.4316L12.1891 31.2635ZM12.5471 31.3437C12.642 31.3072 12.832 31.2341 12.8903 31.1026L13.0584 31.2559C12.9051 31.424 12.7152 31.4971 12.6202 31.5336L12.5471 31.3437ZM12.8903 31.1026C12.9487 30.971 13.0071 30.8396 12.9705 30.7446L13.1604 30.6715C13.1386 30.8979 13.1168 31.1244 13.0584 31.2559L12.8903 31.1026ZM12.8243 30.3648C12.6928 30.3064 12.5613 30.248 12.4663 30.2846L12.4881 30.0581C12.678 29.985 12.8461 30.1384 12.9776 30.1967L12.8243 30.3648ZM12.4298 30.1896C12.3348 30.2262 12.1449 30.2993 12.0865 30.4308L11.9185 30.2775C12.0718 30.1094 12.1667 30.0729 12.3566 29.9997L12.4298 30.1896ZM11.9185 30.2775L11.5823 29.9708C11.794 29.6713 12.0423 29.4666 12.3637 29.4519L12.4516 29.9632C12.2617 30.0363 12.0718 30.1094 11.9185 30.2775ZM11.9185 30.2775C11.7651 30.4455 11.7433 30.672 11.8164 30.8619L11.3051 30.9498C11.2904 30.6284 11.3706 30.2704 11.5823 29.9708L11.9185 30.2775ZM12.0358 31.4316C12.2039 31.585 12.3354 31.6433 12.5253 31.5702L12.6131 32.0815C12.2917 32.0962 11.9338 32.0161 11.7291 31.7678L12.0358 31.4316ZM12.6202 31.5336C12.8101 31.4605 13 31.3874 13.0584 31.2559L13.4311 31.6575C13.2194 31.9571 12.9345 32.0667 12.6497 32.1764L12.6202 31.5336ZM13.0584 31.2559C13.2117 31.0878 13.2336 30.8614 13.1604 30.6715L13.6717 30.5836C13.723 30.9999 13.6063 31.263 13.3945 31.5625L13.0584 31.2559ZM12.9411 30.1018C12.773 29.9484 12.6415 29.8901 12.4516 29.9632L12.3637 29.4519C12.6851 29.4371 13.0431 29.5173 13.2112 29.6707L12.9411 30.1018ZM12.3637 29.4519L12.3855 29.2254L13.3132 29.0863C13.4082 29.0497 13.5397 29.1081 13.6712 29.1665L13.3427 29.729C13.0065 29.4224 12.6486 29.3422 12.3637 29.4519ZM12.3637 29.4519C12.0423 29.4666 11.794 29.6713 11.5823 29.9708L11.1147 29.6058C11.1731 29.4743 11.268 29.4377 11.4579 29.3646L12.3855 29.2254L12.3637 29.4519ZM11.5823 29.9708C11.3706 30.2704 11.2904 30.6284 11.3051 30.9498L11.1152 31.0229L11.0345 29.9637C10.9979 29.8688 11.0563 29.7373 11.1147 29.6058L11.5823 29.9708ZM11.7657 31.8627C11.9703 32.111 12.3283 32.1912 12.6497 32.1764L12.6279 32.4029L11.7002 32.542C11.6053 32.5786 11.4738 32.5203 11.3423 32.4619L11.7657 31.8627ZM12.6497 32.1764C12.9711 32.1617 13.3144 31.9205 13.4311 31.6575L13.9353 32.1175C13.8769 32.249 13.687 32.3221 13.5921 32.3587L12.6645 32.4979L12.6497 32.1764ZM13.5261 31.621C13.7378 31.3214 13.818 30.9634 13.8032 30.642L13.9931 30.5688L14.0739 31.628C14.1105 31.7229 14.0887 31.9494 13.9937 31.986L13.5261 31.621ZM13.7667 30.547C13.7154 30.1307 13.5108 29.8824 13.3061 29.6341L13.6346 29.0715C13.7661 29.1299 13.8392 29.3198 13.7809 29.4513L13.8616 30.5105L13.7667 30.547ZM13.2401 28.8963C13.43 28.8232 13.5615 28.8816 13.7295 29.0349L13.6712 29.1665C13.5397 29.1081 13.4082 29.0497 13.3132 29.0863L12.3855 29.2254L12.349 29.1305L13.2401 28.8963ZM11.4797 29.1381L12.3124 29.0355L12.349 29.1305L11.4213 29.2696C11.3264 29.3062 11.1365 29.3793 11.0781 29.5108L11.0415 29.4159C11.1365 29.3793 11.2898 29.2113 11.4797 29.1381ZM10.9395 30.0003C10.9613 29.7738 11.0197 29.6423 11.0781 29.5108L11.1147 29.6058C11.0563 29.7373 10.9979 29.8688 11.0345 29.9637L11.0787 30.928L10.9837 30.9645L10.9395 30.0003ZM10.9837 30.9645L11.0787 30.928L11.1595 31.9871C11.196 32.0821 11.2691 32.272 11.3057 32.3669L11.2473 32.4984C11.1158 32.4401 11.0427 32.2502 11.0645 32.0237L10.9837 30.9645ZM11.3423 32.4619C11.4738 32.5203 11.6053 32.5786 11.7952 32.5055L12.7228 32.3663L12.7594 32.4613L11.9267 32.5639C11.6418 32.6736 11.4738 32.5203 11.3423 32.4619ZM13.6287 32.4537L12.701 32.5928L12.6645 32.4979L13.5921 32.3587C13.687 32.3221 13.8769 32.249 13.9353 32.1175L13.9719 32.2124L13.9353 32.1175C13.9937 31.986 14.0521 31.8545 14.0155 31.7595L13.9348 30.7004L14.0297 30.6638L14.1105 31.723C14.2202 32.0078 13.9501 32.4389 13.6287 32.4537Z" fill="white"/>
<path opacity="0.29" d="M18.4404 27.112L15.4676 27.6026C15.4676 27.6026 15.3726 27.6392 15.431 27.5077L15.3945 27.4127C15.3945 27.4127 15.3579 27.3178 15.4528 27.2812L18.3891 26.6956C18.3891 26.6956 18.4841 26.6591 18.5207 26.754L18.4404 27.112Z" fill="white"/>
<g opacity="0.46">
<path opacity="0.29" d="M17.5056 27.7986L15.4605 28.1501L17.5056 27.7986C17.4691 27.7036 17.564 27.6671 17.5056 27.7986Z" fill="white"/>
<path opacity="0.29" d="M17.199 28.1349L15.4752 28.4717L17.199 28.1349C17.1625 28.04 17.1625 28.04 17.199 28.1349Z" fill="white"/>
<path opacity="0.29" d="M18.01 28.2589L15.5484 28.6617L18.01 28.2589C17.9734 28.164 18.01 28.2589 18.01 28.2589Z" fill="white"/>
<path opacity="0.29" d="M18.0247 28.5803L15.5631 28.983L18.0247 28.5803C18.0831 28.4488 18.0831 28.4488 18.0247 28.5803C18.1196 28.5437 18.0247 28.5803 18.0247 28.5803Z" fill="white"/>
</g>
<g opacity="0.46">
<path opacity="0.29" d="M17.689 29.6906L15.6072 29.9471L17.689 29.6906C17.7474 29.5591 17.7474 29.5591 17.689 29.6906Z" fill="white"/>
<path opacity="0.29" d="M17.3824 30.0266L15.622 30.2684L17.3824 30.0266C17.3458 29.9317 17.4407 29.8951 17.3824 30.0266Z" fill="white"/>
<path opacity="0.29" d="M18.1933 30.1504L15.6952 30.4582L18.1933 30.1504C18.1567 30.0555 18.2882 30.1139 18.1933 30.1504Z" fill="white"/>
<path opacity="0.29" d="M18.208 30.4721L15.7099 30.7799L18.208 30.4721C18.2664 30.3406 18.2664 30.3406 18.208 30.4721C18.3029 30.4355 18.208 30.4721 18.208 30.4721Z" fill="white"/>
</g>
<g opacity="0.46">
<path opacity="0.29" d="M17.8723 31.5827L15.7906 31.8392L17.8723 31.5827C17.9307 31.4512 17.9307 31.4512 17.8723 31.5827C17.9673 31.5462 17.8723 31.5827 17.8723 31.5827Z" fill="white"/>
<path opacity="0.29" d="M17.5657 31.9189L15.9003 32.1241L17.5657 31.9189C17.6241 31.7874 17.6241 31.7874 17.5657 31.9189Z" fill="white"/>
<path opacity="0.29" d="M18.3766 32.0427L15.8419 32.2555L18.3766 32.0427C18.435 31.9111 18.4716 32.0061 18.3766 32.0427Z" fill="white"/>
<path opacity="0.29" d="M18.3913 32.3642L15.8566 32.577L18.3913 32.3642C18.4497 32.2327 18.4497 32.2327 18.3913 32.3642C18.4862 32.3276 18.4862 32.3276 18.3913 32.3642Z" fill="white"/>
</g>
<path opacity="0.19" d="M53.2658 16.7546L45.6977 16.0709C45.6028 16.1075 45.5662 16.0125 45.5297 15.9176L45.7621 12.5573C45.7255 12.4624 45.8205 12.4258 45.9154 12.3893L53.4616 13.2993C53.5566 13.2628 53.5932 13.3577 53.5348 13.4892L53.3242 16.6231C53.3607 16.718 53.2658 16.7546 53.2658 16.7546Z" fill="white"/>
<path opacity="0.27" d="M53.5713 13.5839L45.7037 12.6886L45.7255 12.4621C45.6889 12.3672 45.7838 12.3306 45.8788 12.294L53.425 13.2041C53.52 13.1675 53.5565 13.2625 53.4981 13.394L53.5713 13.5839Z" fill="white"/>
<path opacity="0.05" d="M52.7242 14.7824L46.4784 14.1348C46.3834 14.1713 46.3469 14.0764 46.3103 13.9814L46.2737 13.8865C46.2372 13.7915 46.3321 13.7549 46.4271 13.7184L52.673 14.366C52.7679 14.3295 52.8044 14.4244 52.841 14.5193L52.8776 14.6143C52.8192 14.7458 52.8192 14.7458 52.7242 14.7824Z" fill="white"/>
<path opacity="0.29" d="M48.3555 13.6299L46.7703 13.4771L46.7337 13.3822L46.8287 13.3456L48.4139 13.4983C48.4139 13.4983 48.4139 13.4984 48.3555 13.6299C48.4505 13.5933 48.3555 13.6299 48.3555 13.6299Z" fill="white"/>
<path opacity="0.27" d="M51.1392 14.6294L46.4785 14.1346C46.3836 14.1712 46.347 14.0762 46.3105 13.9813L46.2739 13.8863C46.2374 13.7914 46.3323 13.7548 46.4272 13.7182L51.0879 14.2131C51.1829 14.1766 51.2194 14.2715 51.256 14.3665L51.2925 14.4614C51.3291 14.5563 51.2341 14.5929 51.1392 14.6294Z" fill="white"/>
<g opacity="0.46">
<path opacity="0.29" d="M48.6416 14.9371L46.6984 14.7041L48.6416 14.9371C48.605 14.8421 48.6416 14.9371 48.6416 14.9371Z" fill="white"/>
<path opacity="0.29" d="M48.2977 15.1786L46.7126 15.0259L48.2977 15.1786C48.3561 15.0471 48.3561 15.0471 48.2977 15.1786Z" fill="white"/>
<path opacity="0.29" d="M48.9553 15.4706L46.6907 15.2523L48.9553 15.4706C49.0502 15.434 49.0502 15.434 48.9553 15.4706C49.0502 15.434 48.9553 15.4706 48.9553 15.4706Z" fill="white"/>
<path opacity="0.29" d="M48.9699 15.7918L46.7054 15.5736L48.9699 15.7918C49.0283 15.6603 49.0283 15.6603 48.9699 15.7918C49.0649 15.7553 48.9699 15.7918 48.9699 15.7918Z" fill="white"/>
</g>
<path opacity="0.19" d="M22.1486 23.7215L10.5933 25.9906C10.4034 26.0637 10.3303 25.8739 10.2937 25.7789L9.91762 16.8745C9.88105 16.7795 9.93943 16.648 10.1293 16.5749L21.6257 13.0202C21.8156 12.947 21.9836 13.1004 21.9252 13.2319L22.3603 23.4219C22.4334 23.6118 22.3385 23.6484 22.1486 23.7215Z" fill="white"/>
<path opacity="0.27" d="M22.0216 13.1945C22.0434 12.9681 21.8169 12.9463 21.722 12.9828L10.2257 16.5376C10.1307 16.5741 10.0723 16.7056 10.0139 16.8371L9.99212 17.0636L22.0216 13.1945Z" fill="white"/>
<path opacity="0.05" d="M10.5181 17.2971L10.6584 21.0591C10.695 21.154 10.695 21.154 10.7899 21.1174L15.7201 19.7641C15.7201 19.7641 15.8151 19.7275 15.7785 19.6326L15.6016 15.7757C15.5651 15.6808 15.5651 15.6807 15.4701 15.7173L10.5181 17.2971C10.5765 17.1656 10.4816 17.2022 10.5181 17.2971Z" fill="white"/>
<path opacity="0.05" d="M22.3617 23.4212L21.9632 13.3261L18.0556 14.5037L18.2861 24.4455L22.15 23.7208C22.3399 23.6477 22.4348 23.6111 22.3617 23.4212Z" fill="white"/>
<path opacity="0.05" d="M21.6712 13.9838C21.6347 13.8889 21.6347 13.8889 21.5397 13.9254L18.4283 14.9055C18.4283 14.9055 18.3333 14.9421 18.3699 15.037C18.4064 15.132 18.4064 15.132 18.5014 15.0954L21.6128 14.1154C21.6712 13.9838 21.6712 13.9838 21.6712 13.9838Z" fill="white"/>
<path opacity="0.05" d="M21.6277 14.4367C21.5912 14.3417 21.5912 14.3417 21.4962 14.3783L18.3848 15.3584C18.3848 15.3584 18.2898 15.3949 18.3264 15.4899C18.363 15.5848 18.363 15.5848 18.4579 15.5483L21.5694 14.5682C21.6643 14.5316 21.6277 14.4367 21.6277 14.4367Z" fill="white"/>
<path opacity="0.05" d="M21.7154 14.9479C21.6788 14.853 21.6788 14.853 21.5839 14.8895L18.4724 15.8696C18.4724 15.8696 18.3775 15.9062 18.414 16.0011C18.4506 16.0961 18.4506 16.0961 18.5456 16.0595L21.657 15.0794C21.657 15.0794 21.6204 14.9845 21.7154 14.9479Z" fill="white"/>
<path opacity="0.05" d="M14.0991 20.9335C14.0625 20.8385 14.0625 20.8386 13.9676 20.8751L10.8779 21.6287C10.8779 21.6287 10.783 21.6653 10.8196 21.7602C10.8561 21.8552 10.8561 21.8552 10.9511 21.8186L14.0407 21.065C14.0407 21.065 14.1356 21.0284 14.0991 20.9335Z" fill="white"/>
<path opacity="0.05" d="M14.1138 21.255L10.8343 22.0818L14.1138 21.255Z" fill="white"/>
<path opacity="0.05" d="M14.0918 21.4813C14.0552 21.3864 14.0552 21.3864 14.0918 21.4813L10.8123 22.3081L14.0918 21.4813Z" fill="white"/>
<path opacity="0.05" d="M14.1284 21.5763L10.8489 22.4031L14.1284 21.5763C14.165 21.6713 14.165 21.6713 14.1284 21.5763Z" fill="white"/>
<path opacity="0.05" d="M14.1362 22.4457C14.0996 22.3507 14.0996 22.3507 14.0047 22.3873L10.915 23.1409C10.915 23.1409 10.8201 23.1775 10.8567 23.2724C10.8932 23.3674 10.8932 23.3674 10.9882 23.3308L14.0778 22.5772C14.0412 22.4822 14.1362 22.4457 14.1362 22.4457Z" fill="white"/>
<path opacity="0.05" d="M14.1143 22.6721L10.8347 23.4988L14.1143 22.6721C14.1508 22.767 14.1508 22.767 14.1143 22.6721Z" fill="white"/>
<path opacity="0.05" d="M14.1875 22.8622L10.908 23.689L14.1875 22.8622C14.0925 22.8987 14.1875 22.8622 14.1875 22.8622Z" fill="white"/>
<path opacity="0.05" d="M14.1655 23.0885C14.1655 23.0885 14.129 22.9935 14.1655 23.0885L10.886 23.9153L14.1655 23.0885Z" fill="white"/>
<path opacity="0.05" d="M14.1367 23.8627C14.1001 23.7677 14.1001 23.7678 14.0052 23.8043L10.9155 24.5579C10.9155 24.5579 10.8206 24.5945 10.8571 24.6894C10.8937 24.7844 10.8937 24.7844 10.9887 24.7478L14.0783 23.9942C14.1367 23.8627 14.1367 23.8627 14.1367 23.8627Z" fill="white"/>
<path opacity="0.05" d="M14.2097 24.0527L10.9302 24.8794L14.2097 24.0527C14.2463 24.1476 14.2097 24.0527 14.2097 24.0527Z" fill="white"/>
<path opacity="0.05" d="M14.188 24.2792L10.9085 25.106L14.188 24.2792Z" fill="white"/>
<path opacity="0.05" d="M14.261 24.4691C14.261 24.4691 14.2244 24.3742 14.261 24.4691L10.9815 25.2959L14.261 24.4691C14.166 24.5057 14.261 24.4691 14.261 24.4691Z" fill="white"/>
<path opacity="0.05" d="M21.7969 17.4242C21.7604 17.3293 21.7604 17.3293 21.6654 17.3659L18.554 18.346C18.554 18.346 18.459 18.3825 18.4956 18.4775C18.5322 18.5724 18.5322 18.5724 18.6271 18.5359L21.7386 17.5558C21.8335 17.5192 21.8335 17.5192 21.7969 17.4242Z" fill="white"/>
<g opacity="0.27">
<path opacity="0.27" d="M10.5923 20.3215C10.5923 20.3215 10.7893 19.7005 11.1544 19.2328C11.3077 19.0648 11.5342 19.0866 11.8337 19.2983C12.1333 19.51 12.5279 19.6852 12.9442 19.6339C13.5505 19.5095 13.6525 18.925 13.718 18.2457C13.7616 17.7927 13.8418 17.4348 13.9952 17.2667C14.2434 17.0621 14.4333 16.9889 14.5283 16.9524C14.7182 16.8792 14.8131 16.8427 14.9665 16.6746C15.0832 16.4116 15.2366 16.2435 15.3315 16.207C15.4264 16.1704 15.5214 16.1338 15.5214 16.1338C15.5214 16.1338 15.1051 16.1852 14.9665 16.6746C14.8497 16.9377 14.7547 16.9742 14.5648 17.0473C14.3749 17.1204 14.2434 17.0621 14.0317 17.3616C13.8784 17.5297 13.8347 17.9826 13.7545 18.3406C13.6743 18.6986 13.6891 19.02 13.5723 19.283C13.4555 19.546 13.3022 19.7141 12.9808 19.7288C12.8858 19.7654 12.7909 19.802 12.7543 19.707C12.4329 19.7217 12.1333 19.51 11.8703 19.3933C11.6073 19.2765 11.4392 19.1231 11.1909 19.3278C10.9208 19.7589 10.5923 20.3215 10.5923 20.3215Z" fill="white"/>
</g>
<g opacity="0.27">
<path opacity="0.27" d="M10.6805 20.8328C10.6805 20.8328 10.7607 20.4748 10.9724 20.1752C11.1841 19.8757 11.4542 19.4446 11.9289 19.2618C12.4037 19.0789 12.7033 19.2907 12.9663 19.4074C13.2293 19.5242 13.4923 19.641 13.8137 19.6262C14.2885 19.4434 14.3174 18.6691 14.4412 17.8582C14.4483 17.3104 14.492 16.8575 14.6453 16.6894C14.857 16.3898 15.0835 16.4116 15.2734 16.3385C15.3683 16.3019 15.4998 16.3603 15.6897 16.2872C15.4998 16.3603 15.4049 16.3969 15.2734 16.3385C15.0469 16.3167 14.857 16.3898 14.6453 16.6894C14.492 16.8575 14.4483 17.3104 14.4412 17.8582C14.4123 18.6326 14.325 19.5384 13.8503 19.7212C13.4705 19.8674 13.1709 19.6557 13.0028 19.5024C12.7398 19.3856 12.4403 19.1739 11.9655 19.3567C11.6807 19.4664 11.3374 19.7076 11.0089 20.2702C10.7607 20.4748 10.6805 20.8328 10.6805 20.8328Z" fill="white"/>
</g>
<g opacity="0.27">
<path opacity="0.27" d="M10.7901 21.1176C10.7901 21.1176 10.7535 21.0226 10.9068 20.8545C10.9652 20.723 11.1551 20.6499 11.3816 20.6717C11.608 20.6936 11.8929 20.5839 12.1412 20.3792C12.6159 20.1964 13.244 19.8455 13.9233 19.911C14.0183 19.8744 14.2082 19.8013 14.3031 19.7648C14.6682 19.2971 14.5874 18.238 14.5798 17.3687C14.5869 16.8208 14.5356 16.4045 14.5939 16.273C14.6889 16.2364 14.6889 16.2364 14.6889 16.2364C14.8204 16.2948 14.8935 16.4847 15.0032 16.7695C15.0763 16.9594 15.1129 17.0544 15.1129 17.0544C15.2078 17.0178 15.2078 17.0178 15.1713 16.9228C15.1347 16.8279 15.1931 16.6964 15.288 16.6598C15.4779 16.5867 15.5729 16.5501 15.5729 16.5501C15.5729 16.5501 15.4414 16.4917 15.288 16.6598C15.1931 16.6964 15.1347 16.8279 15.1713 16.9228C15.2078 17.0178 15.1129 17.0544 15.1129 17.0544C15.0179 17.0909 15.0398 16.8645 15.0032 16.7695C14.9301 16.5796 14.8204 16.2948 14.7254 16.3313L14.6305 16.3679C14.5721 16.4994 14.5285 16.9523 14.6163 17.4636C14.624 18.3329 14.7413 19.487 14.3397 19.8597C14.2813 19.9912 14.0914 20.0643 13.9599 20.006C13.2222 20.072 12.6525 20.2914 12.1777 20.4742C11.7979 20.6204 11.608 20.6936 11.4182 20.7667C11.1917 20.7449 11.0384 20.9129 10.9434 20.9495C10.7535 21.0226 10.7901 21.1176 10.7901 21.1176Z" fill="white"/>
</g>
<g opacity="0.18">
<path opacity="0.18" d="M8.06274 87.9195C24.7815 85.2934 38.9987 80.0847 50.2512 72.4716C59.2412 66.3502 66.4072 58.715 71.5175 49.6551C80.2425 34.3276 79.9339 20.1737 79.8744 20.0193L79.6903 20.0016C79.1536 29.4279 75.5216 37.032 68.8894 42.6C64.0443 46.5933 54.8519 51.7288 38.5959 53.0242C28.891 53.8359 21.1454 52.8293 21.0682 52.859L21.0504 53.0431C21.1276 53.0134 28.8732 54.02 38.6553 53.1786C54.9886 51.8535 64.181 46.718 69.0261 42.7247C74.8805 37.8994 78.3288 31.4299 79.567 23.5951C79.0702 28.7508 77.4646 38.8546 71.3808 49.5304C66.318 58.4834 59.152 66.1186 50.162 72.24C38.9096 79.8531 24.7695 85.0321 8.05074 87.6581L8.06274 87.9195Z" fill="white"/>
</g>
</g>
<path fill-rule="evenodd" clip-rule="evenodd" d="M14.8888 28.9779C14.243 27.0884 13.8921 25.0589 13.8921 22.9462C13.8921 12.7907 21.9993 4.55811 32.0001 4.55811C42.0009 4.55811 50.1081 12.7907 50.1081 22.9462C50.1081 25.0589 49.7572 27.0885 49.1113 28.978C44.1488 30.7426 38.2839 31.7624 32.0002 31.7624C25.7164 31.7624 19.8514 30.7426 14.8888 28.9779Z" fill="url(#paint2_radial_0_624)"/>
<path d="M20.7521 13.4963C20.7808 17.6883 25.8232 21.0458 32.0424 20.9878C38.2616 20.9299 43.2708 17.4836 43.242 13.2917C43.2133 9.09976 38.171 5.74222 31.9517 5.80016C25.7325 5.8581 20.7234 9.30436 20.7521 13.4963Z" fill="url(#paint3_radial_0_624)"/>
<path fill-rule="evenodd" clip-rule="evenodd" d="M19.1798 36.6323C19.1668 36.6951 19.1519 36.7579 19.1351 36.8206C18.6677 38.565 16.8963 39.6059 15.1785 39.1456C13.4608 38.6853 12.4472 36.8982 12.9146 35.1538C12.9149 35.1524 12.9153 35.1509 12.9157 35.1494C13.953 34.9989 15.1749 35.0721 16.4306 35.4086C17.4813 35.6901 18.4194 36.1194 19.1798 36.6323Z" fill="url(#paint4_linear_0_624)"/>
<path fill-rule="evenodd" clip-rule="evenodd" d="M44.8202 36.6323C44.8332 36.6951 44.8481 36.7579 44.8649 36.8206C45.3323 38.565 47.1037 39.6059 48.8215 39.1456C50.5392 38.6853 51.5528 36.8982 51.0854 35.1538C51.0851 35.1524 51.0847 35.1509 51.0843 35.1494C50.047 34.9989 48.8251 35.0721 47.5694 35.4086C46.5187 35.6901 45.5806 36.1194 44.8202 36.6323Z" fill="url(#paint5_linear_0_624)"/>
<path fill-rule="evenodd" clip-rule="evenodd" d="M28.7856 37.7162C28.7819 37.7803 28.78 37.8449 28.78 37.9099C28.78 39.7158 30.2217 41.1797 32 41.1797C33.7784 41.1797 35.22 39.7158 35.22 37.9099C35.22 37.9083 35.22 37.9067 35.22 37.9051C34.257 37.4912 33.0578 37.2457 31.7578 37.2457C30.6701 37.2457 29.6529 37.4176 28.7856 37.7162Z" fill="url(#paint6_linear_0_624)"/>
<path fill-rule="evenodd" clip-rule="evenodd" d="M14.8888 28.9778C14.2429 27.0883 13.892 25.0587 13.892 22.946C13.892 22.2833 13.9265 21.6289 13.9939 20.9844C7.99784 22.7502 4.19409 25.3816 4.19409 28.3206C4.19409 33.6375 16.6432 37.9477 32 37.9477C47.3569 37.9477 59.806 33.6375 59.806 28.3206C59.806 25.3816 56.0022 22.7502 50.0062 20.9844C50.0735 21.6289 50.108 22.2833 50.108 22.946C50.108 25.0587 49.7571 27.0883 49.1113 28.9778C44.1487 30.7424 38.2838 31.7622 32.0001 31.7622C25.7163 31.7622 19.8513 30.7424 14.8888 28.9778Z" fill="url(#paint7_linear_0_624)"/>
<g style="mix-blend-mode:multiply">
<path fill-rule="evenodd" clip-rule="evenodd" d="M49.2995 28.3958C44.1784 29.871 38.2791 30.7115 31.9999 30.7115C25.7208 30.7115 19.8215 29.871 14.7004 28.3958C14.7601 28.5912 14.8229 28.7853 14.8887 28.978C19.8513 30.7425 25.7162 31.7624 31.9999 31.7624C38.2837 31.7624 44.1487 30.7425 49.1112 28.9779C49.1771 28.7853 49.2398 28.5912 49.2995 28.3958Z" fill="#01D4E4"/>
</g>
<path d="M17.2838 38.1378C17.4404 37.49 16.7914 36.7784 15.8297 36.5486C14.8681 36.3187 13.963 36.658 13.8065 37.3058C13.6499 37.9536 14.2989 38.6652 15.2606 38.895C16.2222 39.1249 17.1273 38.7856 17.2838 38.1378Z" fill="url(#paint8_radial_0_624)"/>
<path d="M46.5736 38.1378C46.4171 37.49 47.066 36.7784 48.0277 36.5486C48.9893 36.3187 49.8944 36.658 50.0509 37.3058C50.2075 37.9536 49.5585 38.6652 48.5969 38.895C47.6352 39.1249 46.7301 38.7856 46.5736 38.1378Z" fill="url(#paint9_radial_0_624)"/>
<path d="M33.7871 39.5656C33.7707 38.8994 32.9597 38.38 31.9713 38.4069C30.9829 38.4337 30.1965 38.9957 30.2129 39.662C30.2294 40.3282 31.0404 40.8476 32.0288 40.8207C33.0172 40.7939 33.8036 40.2319 33.7871 39.5656Z" fill="url(#paint10_radial_0_624)"/>
<g style="mix-blend-mode:multiply">
<path fill-rule="evenodd" clip-rule="evenodd" d="M13.8996 22.4108C13.9131 21.9305 13.9447 21.4548 13.9939 20.9844C13.9665 20.9925 13.9391 21.0005 13.9118 21.0086C13.8987 21.296 13.892 21.5851 13.892 21.8757C13.892 22.0547 13.8946 22.233 13.8996 22.4108ZM50.1005 22.4109C50.1055 22.2331 50.108 22.0547 50.108 21.8757C50.108 21.5851 50.1014 21.296 50.0882 21.0086C50.0609 21.0005 50.0336 20.9924 50.0062 20.9844C50.0553 21.4548 50.087 21.9306 50.1005 22.4109ZM59.7638 27.7855C58.9618 32.8535 46.8382 36.8775 32.0001 36.8775C17.1619 36.8775 5.03826 32.8535 4.23632 27.7855C4.20829 27.9626 4.19409 28.141 4.19409 28.3206C4.19409 33.6375 16.6432 37.9477 32 37.9477C47.3569 37.9477 59.806 33.6375 59.806 28.3206C59.806 28.141 59.7918 27.9626 59.7638 27.7855Z" fill="#01D4E4"/>
</g>
<defs>
<linearGradient id="paint0_linear_0_624" x1="31.2813" y1="26.788" x2="31.2813" y2="61.5413" gradientUnits="userSpaceOnUse">
<stop stop-color="#06C0CF"/>
<stop offset="1" stop-color="#06C0CF" stop-opacity="0"/>
</linearGradient>
<radialGradient id="paint1_radial_0_624" cx="0" cy="0" r="1" gradientUnits="userSpaceOnUse" gradientTransform="translate(27.3768 -11.3138) rotate(-156.623) scale(67.1894 65.3001)">
<stop offset="0.1823" stop-color="#57DCEA" stop-opacity="0"/>
<stop offset="0.6861" stop-color="#57C8CE"/>
</radialGradient>
<radialGradient id="paint2_radial_0_624" cx="0" cy="0" r="1" gradientUnits="userSpaceOnUse" gradientTransform="translate(27.3768 -11.3138) rotate(-156.623) scale(67.1894 65.3001)">
<stop offset="0.1823" stop-color="#57DCEA" stop-opacity="0.2"/>
<stop offset="0.6861" stop-color="#57C8CE" stop-opacity="0.5"/>
</radialGradient>
<radialGradient id="paint3_radial_0_624" cx="0" cy="0" r="1" gradientUnits="userSpaceOnUse" gradientTransform="translate(27.3365 -2.03802) rotate(-28.9772) scale(21.8991 24.4573)">
<stop offset="0.339" stop-color="white"/>
<stop offset="1" stop-color="white" stop-opacity="0"/>
</radialGradient>
<linearGradient id="paint4_linear_0_624" x1="15.1785" y1="39.1456" x2="16.1967" y2="35.346" gradientUnits="userSpaceOnUse">
<stop stop-color="#01D4E4"/>
<stop offset="1" stop-color="#00B0CC"/>
</linearGradient>
<linearGradient id="paint5_linear_0_624" x1="48.8215" y1="39.1456" x2="47.8033" y2="35.346" gradientUnits="userSpaceOnUse">
<stop stop-color="#01D4E4"/>
<stop offset="1" stop-color="#00B0CC"/>
</linearGradient>
<linearGradient id="paint6_linear_0_624" x1="32" y1="41.1797" x2="32" y2="37.2457" gradientUnits="userSpaceOnUse">
<stop stop-color="#01D4E4"/>
<stop offset="1" stop-color="#00B0CC"/>
</linearGradient>
<linearGradient id="paint7_linear_0_624" x1="32.0001" y1="14.3473" x2="32.0001" y2="67.8196" gradientUnits="userSpaceOnUse">
<stop stop-color="#01D4E4"/>
<stop offset="1" stop-color="#00C9DC"/>
</linearGradient>
<radialGradient id="paint8_radial_0_624" cx="0" cy="0" r="1" gradientUnits="userSpaceOnUse" gradientTransform="translate(15.6716 40.2814) rotate(165) scale(3.48142 3.88811)">
<stop offset="0.339" stop-color="white" stop-opacity="0.2"/>
<stop offset="1" stop-color="white" stop-opacity="0"/>
</radialGradient>
<radialGradient id="paint9_radial_0_624" cx="0" cy="0" r="1" gradientUnits="userSpaceOnUse" gradientTransform="translate(48.1859 40.2814) rotate(15) scale(3.48142 3.88811)">
<stop offset="0.339" stop-color="white" stop-opacity="0.2"/>
<stop offset="1" stop-color="white" stop-opacity="0"/>
</radialGradient>
<radialGradient id="paint10_radial_0_624" cx="0" cy="0" r="1" gradientUnits="userSpaceOnUse" gradientTransform="translate(32.7846 42.0535) rotate(150) scale(3.48142 3.88811)">
<stop offset="0.339" stop-color="white" stop-opacity="0.2"/>
<stop offset="1" stop-color="white" stop-opacity="0"/>
</radialGradient>
</defs>
</svg>
