<svg width="49" height="49" viewBox="0 0 49 49" fill="none" xmlns="http://www.w3.org/2000/svg">
<path d="M12.8426 25.0521C12.6792 23.3363 12.5158 21.6002 12.3728 19.8844C12.332 19.4759 12.1482 18.8836 12.7201 18.7611C13.3532 18.5977 13.4758 19.2104 13.6188 19.6598C14.1294 21.3551 14.5992 23.0504 15.4162 24.6436C15.7226 25.2359 16.1107 25.7465 16.5805 26.1755C17.806 27.2989 19.6443 27.1559 20.5838 25.7874C21.7685 24.0717 22.1362 22.0495 22.6468 20.0683C23.423 17.0862 23.6272 14.0428 24.0561 10.9994C24.097 10.693 24.1787 10.4071 24.2808 10.1211C24.3829 9.83517 24.6076 9.69219 24.914 9.71261C25.2204 9.73304 25.4246 9.89644 25.5063 10.1824C25.7106 10.9381 25.8331 11.7143 25.9149 12.4905C26.3029 16.4938 26.9157 20.4564 28.3455 24.2351C28.8357 25.5423 29.4689 26.7882 31.0825 26.9108C32.8186 27.0333 33.6969 25.8487 34.4118 24.5006C35.1675 23.0504 35.5965 21.4572 36.0867 19.9049C36.148 19.6802 36.2092 19.4351 36.3114 19.2308C36.4543 18.9449 36.6382 18.6794 37.0058 18.7611C37.4143 18.8428 37.4348 19.1696 37.4143 19.4759C37.3531 20.3338 37.3122 21.1712 37.2101 22.0087C37.0467 23.2546 36.8833 24.5006 36.9854 25.767C37.0671 26.8495 37.108 28.0137 38.3335 28.504C39.273 28.8716 40.3964 28.3406 41.2747 27.1355C42.6432 25.2972 43.6441 23.2546 44.7266 21.253C44.9921 20.7832 45.2373 20.293 45.5028 19.8232C45.7275 19.4351 45.993 18.9653 46.5241 19.2308C46.9734 19.4555 46.7896 19.9866 46.6875 20.3338C46.4219 21.253 46.0747 22.1312 45.7479 23.03C44.0322 27.8299 42.296 32.6095 40.5803 37.4094C39.9879 39.0435 39.702 39.1252 38.0679 38.4511C32.6144 36.2043 26.9361 35.5099 21.074 36.1226C17.5813 36.4903 14.1703 37.2256 10.9635 38.7779C10.1873 39.166 9.71753 38.7779 9.452 38.063C8.69626 36.0205 7.94052 33.978 7.20521 31.9354C5.87756 28.2589 4.57034 24.5823 3.26312 20.9057C3.05886 20.3338 2.54823 19.5372 3.32439 19.2104C4.03928 18.904 4.28438 19.8027 4.54991 20.3134C5.63246 22.3968 6.75585 24.4597 8.0018 26.441C8.12435 26.6452 8.26733 26.8291 8.41031 27.0333C9.2886 28.2384 10.4733 28.8512 11.4128 28.504C12.6996 28.0137 12.6996 26.8087 12.8222 25.6853C12.8426 25.481 12.8222 25.2767 12.8222 25.0725C12.8222 25.0521 12.8222 25.0521 12.8426 25.0521Z" fill="#737380"/>
<path d="M39.0894 41.7804C39.069 42.9038 38.395 43.3736 37.3533 42.9855C30.0001 40.3098 22.5653 40.0239 15.0079 42.046C14.0275 42.3115 13.0675 42.6383 12.1075 43.0264C11.3518 43.3328 10.8616 43.1898 10.5552 42.4341C10.2284 41.6987 10.3305 41.1677 11.1475 40.7796C14.6811 39.166 18.3985 38.2877 22.2589 38.0222C27.7942 37.6341 33.1661 38.492 38.2724 40.7592C38.7626 40.9634 39.1099 41.2085 39.0894 41.7804Z" fill="#737380"/>
<path d="M26.6706 7.01651C26.6706 7.91523 25.8127 8.77309 24.914 8.79352C23.9336 8.81394 23.0962 7.95608 23.1166 6.97566C23.1166 5.99524 23.8723 5.25993 24.8732 5.2395C25.8944 5.2395 26.6706 5.99524 26.6706 7.01651Z" fill="#737380"/>
<path d="M12.1686 14.9006C12.9652 14.9006 13.5984 15.5134 13.578 16.31C13.5576 17.0657 12.8835 17.7602 12.1482 17.7398C11.3925 17.7398 10.7593 17.0861 10.7593 16.2896C10.7593 15.4725 11.3312 14.9006 12.1686 14.9006Z" fill="#737380"/>
<path d="M37.5369 17.699C36.7403 17.6786 36.1275 17.025 36.148 16.2488C36.1684 15.4931 36.7403 14.9212 37.5369 14.9212C38.3743 14.9008 38.9462 15.4727 38.9667 16.3101C38.9667 17.1067 38.3743 17.699 37.5369 17.699Z" fill="#737380"/>
<path d="M2.20125 15.3501C2.99783 15.3297 3.67187 15.9629 3.69229 16.7186C3.69229 17.4335 2.99783 18.1688 2.26252 18.1892C1.54763 18.2096 0.914447 17.5765 0.873596 16.8411C0.85317 16.0037 1.40466 15.3705 2.20125 15.3501Z" fill="#737380"/>
<path d="M48.8732 16.7593C48.8732 17.4946 48.2604 18.1483 47.5455 18.1687C46.8306 18.1891 46.0545 17.4946 46.0136 16.8002C45.9932 16.0853 46.7081 15.3704 47.4434 15.3704C48.2808 15.35 48.8732 15.9219 48.8732 16.7593Z" fill="#737380"/>
</svg>
