<svg width="64" height="64" viewBox="0 0 64 64" fill="none" xmlns="http://www.w3.org/2000/svg">
<path d="M28.2846 54.4578C28.2846 54.4578 35.0877 58.6087 41.3795 54.2417C47.8303 50.1501 52.6796 40.7404 49.0931 23.716C45.2313 6.85063 20.3646 3.21404 12.8692 20.7611C4.28362 41.5081 28.2846 54.4578 28.2846 54.4578Z" fill="#01D4E4"/>
<g style="mix-blend-mode:multiply">
<path d="M49.9111 30.221C51.0698 42.4045 46.8025 49.6418 41.4533 53.0974C35.2779 57.03 28.6338 53.1545 28.6338 53.1545C28.6338 53.1545 5.06731 40.3214 13.4201 20.4432C16.4268 13.5664 22.0514 9.95185 28.0054 9.45199C21.776 10.1109 15.7169 13.609 12.5939 20.9203C3.84927 41.3918 28.0093 54.6169 28.0093 54.6169C28.0093 54.6169 34.8124 58.7678 41.1042 54.4008C46.7287 50.7862 51.5469 43.2307 49.9111 30.221Z" fill="#01D4E4"/>
</g>
<path opacity="0.42" d="M25.249 44.0504C27.6105 46.6506 31.1058 47.3227 33.0559 45.5516C35.0061 43.7804 34.6726 40.2368 32.3111 37.6365C29.9496 35.0363 26.4542 34.3643 24.5041 36.1354C22.5539 37.9066 22.8874 41.4502 25.249 44.0504Z" fill="#A7A9CA"/>
<path opacity="0.42" d="M41.6966 44.8486C43.96 46.197 47.2522 44.8437 49.0501 41.8259C50.8479 38.8081 50.4706 35.2686 48.2073 33.9202C45.9439 32.5718 42.6517 33.9252 40.8538 36.9429C39.056 39.9607 39.4333 43.5002 41.6966 44.8486Z" fill="#A7A9CA"/>
<path d="M26.0037 43.9782C28.3652 46.5784 31.8605 47.2505 33.8106 45.4794C35.7608 43.7082 35.4273 40.1646 33.0658 37.5644C30.7043 34.9642 27.2089 34.292 25.2587 36.0631C23.3086 37.8343 23.6421 41.378 26.0037 43.9782Z" fill="white"/>
<path opacity="0.16" d="M34.8911 41.0957C34.9763 42.5154 34.6271 43.8186 33.9599 44.571C32.35 46.2349 29.3091 45.4202 27.3273 43.2595C25.3454 41.0988 25.0159 37.9841 26.6258 36.3202C28.2356 34.6564 31.2765 35.4711 33.2584 37.6318C33.5764 38.1826 34.1699 38.5745 34.2125 39.2843C33.8945 38.7335 33.4174 37.9072 32.824 37.5154C30.5241 34.8039 26.9324 34.3071 25.0471 36.13C23.1618 37.9529 23.3749 41.5021 25.6748 44.2135C27.9747 46.925 31.5664 47.4218 33.4517 45.5989C34.9451 44.3694 35.1353 42.7908 34.8911 41.0957Z" fill="#A7A9CA"/>
<path d="M42.5011 44.7209C44.7644 46.0693 48.0567 44.716 49.8545 41.6982C51.6524 38.6804 51.275 35.1409 49.0117 33.7926C46.7484 32.4442 43.4561 33.7975 41.6583 36.8152C39.8604 39.833 40.2378 43.3725 42.5011 44.7209Z" fill="white"/>
<path d="M24.877 33.2907C24.877 33.2907 26.2114 31.7858 29.8769 31.1384C33.5425 30.4909 29.6213 26.8795 25.6066 28.8302C22.0263 30.8973 23.2671 34.9546 24.877 33.2907Z" fill="#108F9B"/>
<path d="M50.0701 30.4964C50.0701 30.4964 48.8407 29.0031 45.3653 28.0718C41.731 26.8652 46.2538 23.8866 49.8144 26.2374C53.3749 28.5883 51.4585 32.2653 50.0701 30.4964Z" fill="#108F9B"/>
<path opacity="0.42" d="M23.9966 30.4941C23.9966 30.4941 22.2703 32.5924 23.2244 34.2448C24.1784 35.8973 25.2687 32.6973 28.8178 32.4843C31.9325 32.1549 32.1227 30.5762 31.0522 29.3582C31.0522 29.3582 31.5293 30.1845 29.9932 30.7041C28.2982 30.9483 26.0523 31.5105 24.8342 32.5809C23.6162 33.6514 23.3294 31.2465 23.9966 30.4941Z" fill="#108F9B"/>
<path opacity="0.42" d="M46.339 25.3061C46.339 25.3061 45.3538 25.5079 45.121 26.3767C44.8882 27.2455 48.2045 27.9013 49.7094 29.2358C50.7798 30.4538 51.6487 30.6866 51.6061 29.9768C51.6061 29.9768 51.5322 31.1209 50.547 31.3225L50.1126 31.2062L50.2715 31.4815C50.2715 31.4815 49.0421 29.9881 45.7258 29.3323C42.5259 28.2421 42.7899 25.5192 46.339 25.3061Z" fill="#108F9B"/>
<path opacity="0.16" d="M43.7386 43.6995C41.6829 42.6831 41.3535 39.5684 43.0372 36.7603C44.4454 34.1112 47.5175 33.0719 49.5732 34.0883C50.0076 34.2047 50.1666 34.4801 50.3256 34.7555C50.0076 34.2047 49.6896 33.6539 48.8207 33.4211C46.6061 32.1293 43.2585 33.3274 41.4584 36.5699C39.4994 39.5371 40.1469 43.2027 42.3616 44.4946C44.5763 45.7864 47.6484 44.7471 49.491 42.2144C47.6058 44.0373 45.5189 44.875 43.7386 43.6995Z" fill="#A7A9CA"/>
<path d="M38.9091 48.6908C37.2141 48.935 35.4764 48.4694 34.7666 48.512L34.6076 48.2366L34.883 48.0776C35.5928 48.035 37.6059 48.3417 39.301 48.0974C39.301 48.0974 39.7353 48.2138 39.4599 48.3728C39.4599 48.3728 39.3435 48.8072 39.1845 48.5318C39.619 48.6482 39.1845 48.5318 38.9091 48.6908Z" fill="#108F9B"/>
</svg>
