<svg width="50" height="49" viewBox="0 0 50 49" fill="none" xmlns="http://www.w3.org/2000/svg">
<path d="M29.5187 6.86585L29.1371 6.47396L28.7458 6.85613L21.5309 13.9018L14.6038 6.65816L14.2233 6.2603L13.8285 6.64386L4.85365 15.3616L4.46091 15.7431L4.84332 16.1349L14.4331 25.9611L4.60685 35.5509L4.21686 35.9315L4.59655 36.3224L13.3143 45.2972L13.6959 45.6901L14.0877 45.3074L21.3067 38.2577L28.3564 45.4767L28.7384 45.8678L29.1292 45.4855L48.1984 26.8293L48.5879 26.4482L48.2078 26.0578L29.5187 6.86585ZM18.2645 26.5694L18.662 26.1948L18.2874 25.7973L17.001 24.4323L17.001 24.4322L16.9968 24.4278L8.8118 15.9343L14.1841 10.7065L29.2617 26.3238L13.6412 41.4045L8.4141 36.0329L16.8994 27.8559L16.9016 27.8538L18.2645 26.5694ZM23.8529 16.1127L29.2251 10.8849L44.3028 26.5022L28.6823 41.5829L23.4552 36.2113L31.9427 28.0322L33.3056 26.7479L33.7031 26.3733L33.3285 25.9757L32.0421 24.6106L32.0421 24.6106L32.0379 24.6062L23.8529 16.1127Z" fill="#737380" stroke="#737380" stroke-width="1.09245"/>
</svg>
