<svg width="64" height="64" viewBox="0 0 64 64" fill="none" xmlns="http://www.w3.org/2000/svg">
<path d="M49.8472 53.6489C59.39 44.1061 59.39 28.6341 49.8472 19.0912C40.3043 9.54837 24.8323 9.54837 15.2895 19.0912C5.74661 28.6341 5.74661 44.1061 15.2895 53.6489C24.8323 63.1918 40.3043 63.1918 49.8472 53.6489Z" fill="url(#paint0_linear_0_1199)"/>
<path opacity="0.2" d="M15.4623 32.3959C16.188 31.3592 16.1884 30.3221 15.4623 29.2857C16.4991 30.0114 17.5361 30.0111 18.5725 29.2857C17.8475 30.3225 17.8468 31.3592 18.5725 32.3959C17.5361 31.6699 16.4994 31.6706 15.4623 32.3959Z" fill="white"/>
<path opacity="0.1" d="M48.2924 37.5797C49.0181 36.543 49.0184 35.5059 48.2924 34.4695C49.3291 35.1952 50.3662 35.1949 51.4026 34.4695C50.6775 35.5062 50.6769 36.543 51.4026 37.5797C50.3662 36.8536 49.3294 36.8543 48.2924 37.5797ZM24.102 54.8586C24.8277 53.8218 24.828 52.7848 24.102 51.7484C25.1387 52.4741 26.1758 52.4737 27.2122 51.7484C26.4871 52.7851 26.4865 53.8218 27.2122 54.8586C26.1758 54.1325 25.139 54.1332 24.102 54.8586Z" fill="white"/>
<path d="M31.186 39.1345L33.9506 39.1345L34.2962 60.8634H30.1492L31.186 39.1345Z" fill="url(#paint1_linear_0_1199)"/>
<path d="M31.1887 39.1321L32.4795 39.1321L32.1904 60.7349L30.1514 60.7349L31.1887 39.1321Z" fill="url(#paint2_linear_0_1199)"/>
<path d="M32.3957 30.752L32.5143 30.805C32.5523 30.8225 32.6048 30.8442 32.6571 30.87L32.842 30.9596C32.9132 30.9934 32.9814 31.0313 33.0627 31.0729C33.1423 31.1145 33.2325 31.1599 33.3168 31.209L33.5977 31.3671C33.6945 31.4234 33.7883 31.4832 33.8925 31.5464C34.3415 31.82 34.7709 32.1248 35.1774 32.4583C35.3953 32.6344 35.6005 32.8218 35.8067 33.0192C36.0048 33.2168 36.2029 33.4244 36.3826 33.6411C36.5615 33.8563 36.7274 34.0821 36.8793 34.3171C37.0276 34.5487 37.1593 34.7904 37.2736 35.0405C37.4994 35.5371 37.6432 36.0608 37.6915 36.6025C37.7184 36.8734 37.7085 37.1488 37.7047 37.4275C37.6968 37.7063 37.6857 37.9884 37.6639 38.2728C37.623 38.851 37.5518 39.4266 37.4506 39.9973C37.3499 40.5752 37.214 41.153 37.0508 41.7218C36.968 42.0058 36.8782 42.2876 36.7816 42.5671C36.6841 42.8447 36.5799 43.1197 36.469 43.3922C36.2461 43.9339 35.9994 44.4576 35.7322 44.9541C35.4749 45.4342 35.194 45.9012 34.8907 46.3536C34.3122 47.2203 33.708 47.9427 33.2276 48.4483L33.0544 48.6276L32.896 48.7857L32.6329 49.0352L32.459 49.1898L32.3959 49.2428L32.3329 49.1898L32.159 49.0352L31.8959 48.7857L31.7374 48.6276L31.5642 48.4483C31.0839 47.9427 30.4796 47.2204 29.9012 46.3536C29.5978 45.9012 29.317 45.4342 29.0596 44.9542C28.7924 44.4576 28.5456 43.9339 28.3229 43.3922C28.212 43.1198 28.1077 42.8447 28.0103 42.5672C27.9142 42.2884 27.8236 42.0063 27.741 41.7219C27.5778 41.1531 27.4419 40.5752 27.3413 39.9974C27.24 39.4267 27.1688 38.851 27.1279 38.2729C27.1062 37.9885 27.0949 37.7063 27.0872 37.4276C27.0833 37.1488 27.0735 36.8734 27.1003 36.6025C27.1486 36.0608 27.2924 35.5372 27.5182 35.0406C27.6325 34.7905 27.7642 34.5488 27.9125 34.3172C28.0644 34.0821 28.2303 33.8564 28.4092 33.6412C28.5889 33.4245 28.7871 33.2168 28.9851 33.0193C29.1913 32.8218 29.3965 32.6345 29.6144 32.4584C30.0209 32.1248 30.4503 31.8201 30.8993 31.5465C31.0034 31.4833 31.0973 31.4235 31.1941 31.3672L31.475 31.209C31.5593 31.16 31.6496 31.1145 31.7291 31.0729C31.8104 31.0313 31.8786 30.9935 31.9498 30.9597L32.1348 30.8701C32.187 30.8442 32.2396 30.8225 32.2775 30.805C32.3553 30.77 32.3957 30.752 32.3957 30.752Z" fill="#90FFF7"/>
<path d="M19.8237 30.7516L19.8237 37.8742C19.8237 38.3665 20.4189 38.613 20.767 38.2649L23.7601 35.2718C23.8637 35.1682 24.0043 35.11 24.1508 35.11L28.0377 35.11L24.7936 25.5529L19.9855 30.3609C19.9342 30.4122 19.8935 30.4731 19.8657 30.5402C19.8379 30.6072 19.8236 30.6791 19.8237 30.7516Z" fill="#F5F5F7"/>
<path d="M37.0192 34.2651L40.9061 34.2651C41.0527 34.2651 41.1932 34.3233 41.2969 34.427L44.29 37.4201C44.6381 37.7682 45.2333 37.5216 45.2333 37.0294L45.2333 29.9068C45.2333 29.7602 45.1751 29.6197 45.0715 29.516L40.2634 24.708L37.0192 34.2651Z" fill="#F5F5F7"/>
<path d="M32.8333 1.64497L32.8684 1.67247C32.8913 1.69074 32.9275 1.71795 32.9699 1.75385C33.0546 1.82565 33.1904 1.93227 33.3433 2.07131C33.6657 2.34938 34.1034 2.75715 34.6015 3.27617C35.1001 3.79518 35.6587 4.42543 36.2262 5.14835C36.3722 5.32908 36.5091 5.51561 36.6532 5.70764C36.8007 5.89966 36.9349 6.09719 37.0798 6.29992C37.3664 6.70544 37.6445 7.13178 37.9181 7.57663C38.4854 8.50056 38.9921 9.46029 39.4353 10.4498C39.8912 11.4693 40.2899 12.5443 40.6093 13.6565C40.9275 14.7687 41.1736 15.9179 41.332 17.0857C41.4917 18.2535 41.5651 19.4399 41.5572 20.6261C41.5495 21.8125 41.4621 22.9988 41.2917 24.1666C41.249 24.4585 41.2032 24.7493 41.1483 25.0386C41.0973 25.328 41.0373 25.6158 40.9768 25.902C40.8526 26.4744 40.7066 27.0397 40.544 27.5958C40.2236 28.6902 39.8291 29.7616 39.3632 30.8025C38.9198 31.791 38.4149 32.7506 37.8512 33.6757C37.5791 34.1205 37.3049 34.5469 37.0193 34.9523L36.8108 35.2525C36.741 35.3512 36.6673 35.4486 36.5974 35.5446L36.3886 35.8285L36.1754 36.1038C35.6149 36.8268 35.0642 37.457 34.573 37.976C34.0828 38.495 33.6501 38.9029 33.3344 39.1809C33.1845 39.3199 33.0502 39.4265 32.9675 39.4984C32.9259 39.5343 32.8901 39.5615 32.8677 39.5797L32.8333 39.6073C32.5723 39.816 32.2077 39.8077 31.9572 39.6073L31.9229 39.5798C31.9005 39.5615 31.8647 39.5343 31.8231 39.4984C31.7404 39.4266 31.6061 39.32 31.4561 39.1809C31.1406 38.9029 30.7078 38.4951 30.2176 37.9761C29.7264 37.4571 29.1757 36.8268 28.6151 36.1039L28.4019 35.8285L28.1932 35.5447C28.1232 35.4487 28.0497 35.3513 27.9798 35.2525L27.7712 34.9524C27.4857 34.5469 27.2114 34.1206 26.9393 33.6757C26.3756 32.7506 25.8707 31.791 25.4274 30.8026C24.9616 29.7617 24.5671 28.6903 24.2466 27.5958C24.0841 27.0397 23.938 26.4744 23.8137 25.9021C23.7533 25.6159 23.6933 25.3281 23.6422 25.0387C23.5873 24.7493 23.5416 24.4585 23.4989 24.1666C23.3285 22.9988 23.241 21.8125 23.2333 20.6262C23.2255 19.4399 23.2989 18.2536 23.4586 17.0858C23.617 15.918 23.863 14.7687 24.1813 13.6566C24.5007 12.5444 24.8994 11.4693 25.3553 10.4498C25.7984 9.46034 26.3052 8.50061 26.8725 7.57668C27.1461 7.13183 27.4241 6.70549 27.7108 6.29997C27.8557 6.09724 27.9898 5.89971 28.1374 5.70768C28.2815 5.51566 28.4183 5.32913 28.5644 5.1484C29.1319 4.42548 29.6904 3.79523 30.1891 3.27621C30.6872 2.7572 31.1248 2.34938 31.4473 2.07136C31.6002 1.93232 31.736 1.82575 31.8207 1.7539C31.863 1.718 31.8992 1.69074 31.9222 1.67252L31.9572 1.64502C32.2197 1.43904 32.5821 1.44779 32.8333 1.64497Z" fill="#01D4E4"/>
<path d="M35.0558 17.9658C36.5251 19.4351 36.5251 21.8173 35.0558 23.2866C33.5865 24.7558 31.2043 24.7558 29.7351 23.2866C28.2658 21.8173 28.2658 19.4351 29.7351 17.9658C31.2043 16.4965 33.5865 16.4965 35.0558 17.9658ZM30.702 10.9374C29.7667 11.8727 29.7667 13.3891 30.702 14.3244C31.6372 15.2597 33.1536 15.2597 34.0889 14.3244C35.0242 13.3891 35.0242 11.8727 34.0889 10.9374C33.1536 10.0022 31.6372 10.0022 30.702 10.9374Z" fill="#00B0CC"/>
<path opacity="0.3" fill-rule="evenodd" clip-rule="evenodd" d="M31.0493 38.8091C31.1997 38.9511 31.3364 39.0754 31.4563 39.181C31.5609 39.278 31.6578 39.3592 31.7349 39.4238C31.7684 39.4518 31.7982 39.4768 31.8233 39.4985C31.8539 39.5249 31.8813 39.5466 31.9025 39.5635L31.923 39.5799L31.9574 39.6074C32.2078 39.8078 32.5724 39.8161 32.8334 39.6074L32.8679 39.5798L32.891 39.5613C32.9119 39.5448 32.9383 39.5238 32.9676 39.4985C32.9926 39.4767 33.0224 39.4517 33.056 39.4237C33.1331 39.3591 33.2301 39.2779 33.3346 39.181C33.6502 38.903 34.083 38.4952 34.5731 37.9761C35.0643 37.4571 35.615 36.8269 36.1756 36.104L36.3888 35.8286L36.5975 35.5447C36.6675 35.4487 36.7411 35.3513 36.8109 35.2526L37.0194 34.9524C37.305 34.547 37.5793 34.1206 37.8514 33.6758C38.415 32.7507 38.92 31.7911 39.3633 30.8026C39.8292 29.7617 40.2237 28.6904 40.5441 27.5959C40.7068 27.0398 40.8527 26.4745 40.977 25.9021C41.0374 25.616 41.0974 25.3281 41.1485 25.0387C41.2033 24.7494 41.2491 24.4586 41.2918 24.1667C41.4622 22.9989 41.5496 21.8126 41.5574 20.6263C41.5652 19.44 41.4918 18.2536 41.3321 17.0858C41.1738 15.918 40.9277 14.7688 40.6094 13.6566C40.29 12.5444 39.8913 11.4694 39.4354 10.4499C38.9923 9.4604 38.4855 8.50067 37.9182 7.57674C37.6446 7.13189 37.3666 6.70555 37.0799 6.30002C36.9351 6.09729 36.8009 5.89977 36.6533 5.70774C36.5565 5.57865 36.4629 5.45203 36.3675 5.328C36.3211 5.26754 36.2742 5.20768 36.2263 5.14845C35.6588 4.42553 35.1003 3.79529 34.6016 3.27627C34.1035 2.75726 33.6659 2.34948 33.3434 2.07142C33.234 1.97186 33.1333 1.88891 33.0538 1.82348C33.0223 1.79754 32.9941 1.77434 32.9701 1.75395C32.9277 1.71806 32.8915 1.69084 32.8685 1.67258L32.8335 1.64508C32.5823 1.44788 32.2199 1.43915 31.9574 1.64513L31.9223 1.67262L31.9022 1.68841C31.8804 1.70538 31.8524 1.72731 31.8208 1.75401C31.7964 1.77467 31.7679 1.79819 31.7359 1.82453C31.6567 1.88982 31.5564 1.97241 31.4475 2.07147C31.4239 2.09179 31.3997 2.11281 31.3749 2.13449C31.6273 2.36877 31.9176 2.65197 32.2319 2.97945C32.7305 3.49847 33.2891 4.12871 33.8566 4.85163C34.0026 5.03237 34.1395 5.21889 34.2836 5.41092C34.3887 5.54773 34.4871 5.68732 34.5873 5.8296C34.6277 5.88704 34.6685 5.9449 34.7101 6.0032C34.9968 6.40873 35.2748 6.83507 35.5485 7.27992C36.1158 8.20385 36.6225 9.16358 37.0656 10.1531C37.5216 11.1726 37.9202 12.2476 38.2397 13.3598C38.5579 14.472 38.804 15.6212 38.9623 16.789C39.1221 17.9568 39.1954 19.1431 39.1876 20.3294C39.1799 21.5158 39.0925 22.7021 38.9221 23.8698C38.9001 24.0202 38.8772 24.1703 38.8528 24.32C38.8297 24.461 38.8053 24.6016 38.7787 24.7419C38.7277 25.0313 38.6677 25.3191 38.6072 25.6053C38.483 26.1777 38.337 26.743 38.1743 27.2991C37.8539 28.3935 37.4595 29.4649 36.9936 30.5058C36.5502 31.4942 36.0453 32.4538 35.4816 33.379C35.2095 33.8238 34.9353 34.2501 34.6497 34.6556L34.4412 34.9558C34.3713 35.0545 34.2977 35.1519 34.2278 35.2479L34.019 35.5318L33.8058 35.8071C33.2452 36.5301 32.6945 37.1603 32.2034 37.6793C31.7557 38.1534 31.3557 38.5348 31.0493 38.8091Z" fill="white"/>
<path d="M32.3957 26.9945L32.5018 27.0433C32.5659 27.0755 32.6567 27.1233 32.7488 27.1857C32.9438 27.3104 33.15 27.4933 33.2557 27.7261C33.3094 27.8425 33.3224 27.9714 33.3536 28.1117L33.445 28.5659L33.6634 29.655C33.7467 30.0841 33.8275 30.5136 33.9058 30.9437C33.9926 31.4224 34.0754 31.9019 34.1542 32.382L34.2744 33.1417L34.3884 33.9201C34.4615 34.4439 34.5323 34.976 34.5954 35.5081C34.6597 36.0368 34.7187 36.5661 34.7725 37.096C34.8267 37.6199 34.8817 38.1353 34.9273 38.6341L34.9972 39.3689C35.017 39.6089 35.0516 39.8438 35.0477 40.0724C35.0451 40.3011 35.0009 40.5235 34.9096 40.7386C34.8209 40.9537 34.6961 41.1615 34.5741 41.3611C34.3429 41.7361 34.0935 42.0996 33.827 42.4503C33.7039 42.6124 33.5828 42.7641 33.4655 42.9045C33.3496 43.0448 33.2305 43.1736 33.1296 43.29C33.0271 43.4064 32.922 43.5104 32.8378 43.6008C32.7509 43.6912 32.6682 43.7681 32.6056 43.8305C32.5404 43.8928 32.4862 43.9406 32.4518 43.9728L32.3959 44.0217L32.34 43.9728C32.3055 43.9406 32.2513 43.8928 32.1861 43.8305C32.1235 43.7681 32.0409 43.6912 31.954 43.6008C31.8696 43.5104 31.7646 43.4064 31.6621 43.29C31.5612 43.1736 31.4422 43.0448 31.3262 42.9045C31.2089 42.7642 31.0878 42.6124 30.9648 42.4503C30.6982 42.0995 30.4489 41.7361 30.2176 41.3611C30.0957 41.1616 29.9709 40.9537 29.8822 40.7386C29.7908 40.5234 29.7466 40.3011 29.7441 40.0724C29.7402 39.8438 29.7748 39.609 29.7947 39.3689L29.8646 38.6341C29.9102 38.1353 29.9651 37.6198 30.0194 37.096C30.0726 36.5722 30.1316 36.0401 30.1964 35.5081C30.2595 34.9759 30.3304 34.4438 30.4034 33.9201L30.5174 33.1417L30.6377 32.382C30.7165 31.9019 30.7993 31.4224 30.886 30.9437C30.969 30.4864 31.0512 30.054 31.1284 29.655L31.3468 28.5659L31.4382 28.1117C31.4694 27.9714 31.4823 27.8426 31.5361 27.7261C31.6418 27.4933 31.848 27.3104 32.043 27.1857C32.1351 27.1233 32.2259 27.0755 32.29 27.0433L32.3957 26.9945Z" fill="#F5F5F7"/>
<defs>
<linearGradient id="paint0_linear_0_1199" x1="32.5683" y1="-0.407516" x2="32.5683" y2="56.7611" gradientUnits="userSpaceOnUse">
<stop stop-color="#06C0CF"/>
<stop offset="1" stop-color="#06C0CF" stop-opacity="0"/>
</linearGradient>
<linearGradient id="paint1_linear_0_1199" x1="23.0495" y1="40.9985" x2="37.5773" y2="55.5264" gradientUnits="userSpaceOnUse">
<stop stop-color="#06C0CF"/>
<stop offset="1" stop-color="#06C0CF" stop-opacity="0"/>
</linearGradient>
<linearGradient id="paint2_linear_0_1199" x1="22.9972" y1="41.6153" x2="36.2182" y2="54.8362" gradientUnits="userSpaceOnUse">
<stop stop-color="#06C0CF"/>
<stop offset="1" stop-color="#06C0CF" stop-opacity="0"/>
</linearGradient>
</defs>
</svg>
