<svg width="49" height="48" viewBox="0 0 49 48" fill="none" xmlns="http://www.w3.org/2000/svg">
<path d="M11.2837 10.8537C12.5362 11.8747 13.0106 11.8026 15.3751 11.6444L37.6667 10.3072C38.1411 10.3072 37.7464 9.83278 37.587 9.75308L33.884 7.07733C33.1793 6.5232 32.2305 5.89823 30.4175 6.04878L8.83821 7.63019C8.04751 7.7023 7.88937 8.09829 8.20565 8.41457L11.2837 10.8537ZM12.621 16.0534V39.5039C12.621 40.7627 13.2472 41.2371 14.6641 41.1574L39.1634 39.7404C40.5803 39.6607 40.7448 38.7979 40.7448 37.7706V14.4783C40.7448 13.4498 40.3488 12.9033 39.4797 12.983L13.881 14.4783C12.9322 14.558 12.6222 15.0249 12.6222 16.0471L12.621 16.0534ZM36.8039 17.3046C36.962 18.0169 36.8039 18.7216 36.0916 18.8076L34.9125 19.0455V36.355C33.884 36.9091 32.9427 37.2254 32.1583 37.2254C30.8932 37.2254 30.5769 36.8294 29.6344 35.6503L21.9121 23.5265V35.2556L24.3563 35.8097C24.3563 35.8097 24.3563 37.2266 22.3865 37.2266L16.9502 37.5429C16.7921 37.2266 16.9502 36.4359 17.5044 36.2841L18.9213 35.8881V20.384L16.9515 20.2258C16.7934 19.5136 17.1893 18.4926 18.2887 18.4142L24.1197 18.0182L32.1583 30.3V19.4338L30.1088 19.196C29.9507 18.3332 30.5769 17.7006 31.3676 17.6272L36.8039 17.3046ZM7.02655 5.50351L29.4763 3.84998C32.2305 3.61214 32.9427 3.77028 34.6747 5.02909L41.8442 10.0694C43.0233 10.9322 43.4193 11.17 43.4193 12.1125V39.7417C43.4193 41.4749 42.7867 42.4959 40.5854 42.654L14.5047 44.2291C12.8575 44.3088 12.0668 44.071 11.1964 42.9703L5.9183 36.1171C4.97578 34.8583 4.58105 33.9158 4.58105 32.8164V8.25896C4.58105 6.84202 5.21362 5.66291 7.02528 5.50477L7.02655 5.50351Z" fill="#737380"/>
</svg>
