<svg width="64" height="64" viewBox="0 0 64 64" fill="none" xmlns="http://www.w3.org/2000/svg">
<rect width="2.19873" height="4.73141" rx="1.09937" transform="matrix(-0.920445 0.390873 0.390873 0.920445 22.4719 34.9395)" fill="#01D4E4"/>
<path fill-rule="evenodd" clip-rule="evenodd" d="M22.8442 44.314C18.7465 44.314 15.4247 40.9922 15.4247 36.8946C15.4247 32.7969 18.7465 29.4751 22.8442 29.4751C26.9419 29.4751 30.2637 32.7969 30.2637 36.8946C30.2637 40.9922 26.9419 44.314 22.8442 44.314ZM22.8442 42.2702C19.8752 42.2702 17.4684 39.8634 17.4684 36.8944C17.4684 33.9254 19.8752 31.5186 22.8442 31.5186C25.8132 31.5186 28.22 33.9254 28.22 36.8944C28.22 39.8634 25.8132 42.2702 22.8442 42.2702Z" fill="#00B0CC"/>
<path d="M17.807 49.6431L21.8029 34.7303C21.9047 34.3503 21.6792 33.9597 21.2992 33.8579L17.6595 32.8826C15.5256 32.3109 13.3323 33.5772 12.7605 35.7111L8.05575 53.2695C7.48398 55.4034 8.75031 57.5967 10.8842 58.1685L16.9098 59.7831C18.3708 60.1746 19.8726 59.3075 20.2641 57.8465C20.4521 57.1448 20.3537 56.3973 19.9905 55.7682L18.2066 52.6784C17.6761 51.7597 17.5324 50.6678 17.807 49.6431Z" fill="#01D4E4"/>
<rect width="11.5514" height="4.77537" transform="matrix(-1 0 0 1 56.428 20.2856)" fill="#00B0CC"/>
<path d="M2.98811 15.9312C2.98812 12.6049 5.91771 10.0399 9.21479 10.4794L44.8997 15.2359C47.6323 15.6001 49.673 17.931 49.673 20.6877V23.7556C49.673 26.4688 47.6944 28.7767 45.0129 29.1911L9.32802 34.7052C5.99524 35.2202 2.98812 32.6421 2.98811 29.2697L2.98809 22.6732L2.98811 15.9312Z" fill="#01D4E4" stroke="#01D4E4"/>
<circle cx="20.1992" cy="22.6734" r="14.6758" fill="#00B0CC"/>
<circle cx="20.1992" cy="22.6733" r="11.5961" fill="#01D4E4"/>
<g style="mix-blend-mode:multiply">
<circle cx="20.1993" cy="22.6734" r="4.43926" fill="#01D4E4"/>
</g>
<g style="mix-blend-mode:multiply">
<circle cx="13.8143" cy="27.7041" r="1.15218" transform="rotate(9.0811 13.8143 27.7041)" fill="#01D4E4"/>
</g>
<g style="mix-blend-mode:multiply">
<circle r="1.15218" transform="matrix(0.987466 -0.157832 -0.157832 -0.987466 13.8143 17.5063)" fill="#01D4E4"/>
</g>
<g style="mix-blend-mode:multiply">
<circle cx="18.1502" cy="29.9795" r="1.15218" transform="rotate(9.0811 18.1502 29.9795)" fill="#01D4E4"/>
</g>
<g style="mix-blend-mode:multiply">
<circle r="1.15218" transform="matrix(0.987466 -0.157832 -0.157832 -0.987466 18.1502 15.2309)" fill="#01D4E4"/>
</g>
<g style="mix-blend-mode:multiply">
<circle cx="22.7305" cy="29.9795" r="1.15218" transform="rotate(9.0811 22.7305 29.9795)" fill="#01D4E4"/>
</g>
<g style="mix-blend-mode:multiply">
<circle r="1.15218" transform="matrix(0.987466 -0.157832 -0.157832 -0.987466 22.7305 15.2309)" fill="#01D4E4"/>
</g>
<g style="mix-blend-mode:multiply">
<circle cx="26.0784" cy="27.7041" r="1.15218" transform="rotate(9.0811 26.0784 27.7041)" fill="#01D4E4"/>
</g>
<g style="mix-blend-mode:multiply">
<circle r="1.15218" transform="matrix(0.987466 -0.157832 -0.157832 -0.987466 26.0784 17.5063)" fill="#01D4E4"/>
</g>
<g style="mix-blend-mode:multiply">
<circle r="1.15218" transform="matrix(0.987466 -0.157832 -0.157832 -0.987466 37.9556 22.6863)" fill="#01D4E4"/>
</g>
<g style="mix-blend-mode:multiply">
<circle r="1.15218" transform="matrix(0.987466 -0.157832 -0.157832 -0.987466 42.2603 22.6863)" fill="#01D4E4"/>
</g>
<g style="mix-blend-mode:multiply">
<circle r="1.15218" transform="matrix(0.987466 -0.157832 -0.157832 -0.987466 46.565 22.6863)" fill="#01D4E4"/>
</g>
<circle cx="57.2882" cy="22.6735" r="4.22376" fill="#01D4E4"/>
</svg>
