<svg width="145" height="27" viewBox="0 0 145 27" fill="none" xmlns="http://www.w3.org/2000/svg">
<path fill-rule="evenodd" clip-rule="evenodd" d="M131.656 21.6484L135.718 25.7663L144.537 16.9427L135.826 8.22668L131.524 12.2081L136.6 16.9597L131.656 21.6484ZM132.999 12.2368L137.72 16.9597L132.978 21.4882L135.727 24.3098L143.091 16.9427L135.798 9.64633L132.999 12.2368Z" fill="#737380"/>
<path fill-rule="evenodd" clip-rule="evenodd" d="M124.508 21.4621L128.8 25.7663L137.824 16.9427L128.91 8.22668L124.508 12.2081L129.35 16.9427L124.508 21.4621ZM126.001 12.2371L130.831 16.9599L125.979 21.4885L128.809 24.3264L136.361 16.9427L128.883 9.63092L126.001 12.2371Z" fill="#737380"/>
<path d="M11.2955 23.6491C11.2955 24.3507 11.3657 25.2978 11.4358 25.6837H14.5929C14.5228 25.0873 14.4176 23.8946 14.4176 22.5616V7.64127H11.1201V18.9835C11.1201 21.5443 9.7871 23.2983 7.12108 23.2983C4.34982 23.2983 3.29745 21.2637 3.29745 18.9485V7.64127H0V19.4396C0 23.2632 2.38539 26.2099 6.31426 26.2099C8.27869 26.2099 10.3834 25.403 11.2955 23.6491Z" fill="#737380"/>
<path d="M21.2661 25.6837V7.64127H18.0038V25.6837H21.2661ZM17.2671 2.42616C17.2671 3.72409 18.3195 4.77646 19.6174 4.77646C20.9504 4.77646 22.0028 3.72409 22.0028 2.42616C22.0028 1.09315 20.9504 0.0407715 19.6174 0.0407715C18.3195 0.0407715 17.2671 1.09315 17.2671 2.42616Z" fill="#737380"/>
<path fill-rule="evenodd" clip-rule="evenodd" d="M33.4884 24.0578V26.0222H28.3318V0.624878H33.5586V10.2366C34.2953 9.14912 36.2246 8.1669 38.61 8.1669C43.6614 8.1669 46.7133 12.0256 46.7133 17.2524C46.7133 22.5844 43.2755 26.4081 38.3995 26.4081C36.0843 26.4081 34.2953 25.3908 33.4884 24.0578ZM37.4524 21.6373C39.5221 21.6373 41.3812 20.1991 41.3812 17.2875C41.3812 14.3408 39.5221 12.9728 37.4524 12.9728C35.3827 12.9728 33.4884 14.3408 33.4884 17.2875C33.4884 20.164 35.3827 21.6373 37.4524 21.6373ZM109.33 3.25612H114.108V8.35293H117.515V13.0279H114.108V19.5659C114.108 21.0071 114.881 21.3937 116.04 21.3937C116.602 21.3937 117.129 21.2883 117.445 21.218V25.6469C117.234 25.7524 116.356 26.139 114.67 26.139C111.051 26.139 108.838 23.9949 108.838 20.515V13.0279H105.747V8.35293H106.625C108.452 8.35293 109.33 7.12267 109.33 5.50575V3.25612ZM54.1583 17.0702C54.1583 19.9877 56.0905 21.4289 58.0929 21.4289C60.1304 21.4289 62.0274 20.0229 62.0274 17.0702C62.0274 14.1176 60.1304 12.7467 58.0929 12.7467C56.0905 12.7467 54.1583 14.1176 54.1583 17.0702ZM48.8186 17.0702C48.8186 11.6571 52.8937 7.82568 58.0929 7.82568C63.3272 7.82568 67.3672 11.6571 67.3672 17.0702C67.3672 22.4834 63.3272 26.3499 58.0929 26.3499C52.8937 26.3499 48.8186 22.4834 48.8186 17.0702ZM74.8209 17.0702C74.8209 19.9877 76.7531 21.4289 78.7555 21.4289C80.793 21.4289 82.69 20.0229 82.69 17.0702C82.69 14.1176 80.793 12.7467 78.7555 12.7467C76.7531 12.7467 74.8209 14.1176 74.8209 17.0702ZM69.4812 17.0702C69.4812 11.6571 73.5562 7.82568 78.7555 7.82568C83.9898 7.82568 88.0298 11.6571 88.0298 17.0702C88.0298 22.4834 83.9898 26.3499 78.7555 26.3499C73.5562 26.3499 69.4812 22.4834 69.4812 17.0702ZM89.6754 20.8665C89.8159 22.7997 91.5724 26.3499 97.0526 26.3499C101.725 26.3499 104.008 23.4325 104.008 20.4447C104.008 17.8787 102.252 15.6994 98.6335 14.9612L96.3149 14.5043C95.5421 14.3637 94.9449 13.9418 94.9449 13.2037C94.9449 12.2898 95.8231 11.6922 96.8419 11.6922C98.4578 11.6922 99.1956 12.6764 99.3361 13.8364L103.762 13.0279C103.587 10.9892 101.83 7.82568 96.7716 7.82568C92.8722 7.82568 90.0618 10.4268 90.0618 13.6255C90.0618 16.086 91.5373 18.195 95.261 19.0035L97.2634 19.4605C98.5632 19.7417 98.9848 20.2689 98.9848 20.9016C98.9848 21.6749 98.3173 22.4131 96.9473 22.4131C95.1205 22.4131 94.2774 21.2531 94.2071 20.058L89.6754 20.8665Z" fill="#737380"/>
</svg>
