<svg width="187" height="25" viewBox="0 0 187 25" fill="none" xmlns="http://www.w3.org/2000/svg">
<path d="M76.831 24.2341C75.869 24.2341 75.0704 24.2704 74.2718 24.1978C74.1084 24.1797 73.8543 23.8167 73.8362 23.5988C73.7817 22.8728 73.818 22.1468 73.818 21.4208C73.818 15.2495 73.818 9.07827 73.818 2.90703C73.818 2.52586 73.8543 2.14469 73.8725 1.67278C74.8163 1.67278 75.6875 1.61832 76.5588 1.70908C76.831 1.72723 77.1214 2.10839 77.2848 2.38066C80.5701 7.55361 83.8372 12.7447 87.1225 17.9358C87.304 18.2081 87.4855 18.4803 87.8122 18.9704C87.8122 13.1077 87.8122 7.49916 87.8122 1.63647C88.9194 2.27175 89.8632 2.77997 90.7526 3.32449C90.8797 3.3971 90.916 3.68751 90.916 3.86901C90.916 10.5303 90.916 17.1735 90.916 23.8348C90.916 23.9256 90.8797 23.9982 90.8252 24.216C89.9177 24.216 88.992 24.2704 88.0663 24.1797C87.8304 24.1615 87.5581 23.7985 87.3947 23.5262C84.0913 18.317 80.806 13.1077 77.5208 7.89847C77.3574 7.64436 77.194 7.40841 76.831 7.1906C76.831 12.8355 76.831 18.4803 76.831 24.2341Z" fill="#737380"/>
<path d="M110.374 8.49742C109.376 8.49742 108.486 8.49742 107.633 8.49742C107.415 7.71693 107.307 6.93645 106.962 6.24673C105.346 3.0159 100.427 2.76179 98.0678 5.73851C97.1785 6.86385 96.6339 8.17071 96.5976 9.56831C96.5432 12.0368 96.3617 14.5598 96.7428 16.9738C97.6685 22.6731 103.295 23.1995 106.635 21.1848C107.252 20.8218 107.579 20.3498 107.543 19.5512C107.47 18.1718 107.524 16.7741 107.524 15.3039C105.782 15.3039 104.13 15.3039 102.424 15.3039C102.424 14.4872 102.424 13.7793 102.424 12.9262C105.001 13.1077 107.76 12.2546 110.084 14.1967C110.283 14.3601 110.465 14.6687 110.483 14.9046C110.519 16.8649 110.519 18.8433 110.483 20.8036C110.483 21.1485 110.265 21.5659 110.011 21.8201C108.559 23.3629 106.744 24.1978 104.675 24.4338C102.17 24.7242 99.7196 24.6516 97.5233 23.1632C95.2 21.6022 93.7661 19.4242 93.6572 16.6289C93.5483 13.7793 93.4213 10.857 93.875 8.0618C94.6374 3.46967 98.9209 0.74706 103.568 1.38234C105.818 1.6909 107.778 2.43508 109.176 4.3046C110.102 5.53885 110.483 6.882 110.374 8.49742Z" fill="#737380"/>
<path d="M65.6141 24.2341C64.3072 24.2341 63.2363 24.2704 62.1654 24.2159C61.8932 24.1978 61.6028 23.9074 61.4031 23.6714C59.0435 20.8399 56.6476 18.0447 54.3606 15.1406C53.5438 14.106 52.6908 13.7974 51.3839 14.106C51.3839 17.4094 51.3839 20.7492 51.3839 24.2523C50.4582 24.2523 49.6233 24.2704 48.7884 24.2341C48.6432 24.2341 48.4616 23.9981 48.4072 23.8348C48.3346 23.6533 48.3709 23.4173 48.3709 23.1995C48.3709 16.3748 48.3709 9.53202 48.3709 2.70734C48.3709 2.41693 48.389 2.10837 48.4072 1.76351C49.3873 1.76351 50.2949 1.76351 51.2932 1.76351C51.2932 5.04879 51.2932 8.29777 51.2932 11.583C52.3096 11.819 53.0719 11.7646 53.798 10.8752C56.1576 7.9529 58.5897 5.10324 61.0219 2.25358C61.2761 1.96317 61.748 1.74536 62.1291 1.72721C62.9822 1.6546 63.8535 1.70906 64.9425 1.70906C61.8024 5.3755 58.7894 8.89674 55.7401 12.4543C59.0254 16.3385 62.2199 20.1683 65.6141 24.2341Z" fill="#737380"/>
<path d="M133.643 12.5633C133.77 11.2383 133.77 9.49579 134.151 7.84408C135.131 3.61496 138.453 1.18276 142.845 1.34611C146.984 1.49132 150.378 4.35914 150.941 8.5338C151.413 11.8735 151.612 15.2859 150.65 18.5893C149.434 22.7821 146.076 24.8513 141.285 24.5427C137.691 24.3068 134.587 21.3664 133.97 17.4821C133.752 15.9756 133.77 14.4691 133.643 12.5633ZM135.44 12.6722C135.549 14.4146 135.549 15.8485 135.767 17.2462C136.293 20.604 138.725 22.8184 141.902 22.9999C145.441 23.1996 148.127 21.4208 148.98 17.954C149.761 14.7413 149.725 11.4016 149.017 8.17079C148.273 4.79475 145.75 2.92523 142.446 2.92523C139.07 2.92523 136.729 4.704 135.912 8.15264C135.549 9.73175 135.567 11.3835 135.44 12.6722Z" fill="#737380"/>
<path d="M114.24 1.70911C114.839 1.70911 115.347 1.70911 115.964 1.70911C115.964 5.2122 115.964 8.66083 115.964 12.2184C120.302 12.2184 124.549 12.2184 128.887 12.2184C128.887 8.73343 128.887 5.26665 128.887 1.74541C129.523 1.74541 130.085 1.74541 130.757 1.74541C130.757 2.16288 130.757 2.54404 130.757 2.92521C130.757 9.51392 130.757 16.1208 130.757 22.7095C130.757 24.4157 130.757 24.4157 128.942 24.1616C128.942 20.7674 128.942 17.3732 128.942 13.8882C124.604 13.8882 120.375 13.8882 116 13.8882C116 17.3187 116 20.7311 116 24.1797C115.365 24.1797 114.839 24.1797 114.24 24.1797C114.24 16.6835 114.24 9.24166 114.24 1.70911Z" fill="#737380"/>
<path d="M168.456 7.98921C167.875 7.98921 167.403 7.98921 166.877 7.98921C166.804 7.64435 166.804 7.29949 166.659 7.00908C166.241 6.15599 165.897 5.194 165.279 4.54058C163.156 2.28989 158.691 2.28989 156.513 4.41352C154.643 6.24675 154.843 9.06011 157.112 10.367C158.509 11.1656 160.106 11.5831 161.613 12.2183C163.21 12.8899 164.916 13.4344 166.368 14.3783C169.726 16.5382 169.617 21.0033 166.278 23.1995C163.047 25.3232 157.529 24.9601 154.625 22.4009C153.282 21.2211 152.81 19.6964 152.846 17.8995C153.409 17.8995 153.917 17.8995 154.425 17.8995C154.462 17.9903 154.534 18.0629 154.552 18.1355C155.26 21.33 157.112 22.8728 160.506 23.0543C162.103 23.1451 163.646 22.9091 165.025 22.0379C167.566 20.4588 167.693 17.2098 165.171 15.6125C163.882 14.8139 162.375 14.3601 160.96 13.7611C159.344 13.0896 157.638 12.5995 156.131 11.7464C152.81 9.82244 152.519 5.64777 155.424 3.10667C158.437 0.474816 164.245 0.747075 166.967 3.66934C168.056 4.88544 168.547 6.3012 168.456 7.98921Z" fill="#737380"/>
<path d="M70.1698 24.2885C69.117 24.2885 68.1006 24.2885 67.0479 24.2885C67.0479 16.7015 67.0479 9.15084 67.0479 1.56384C68.1006 1.56384 69.117 1.56384 70.1698 1.56384C70.1698 9.15084 70.1698 16.6834 70.1698 24.2885Z" fill="#737380"/>
<path d="M179.147 24.1797C178.493 24.1797 177.967 24.1797 177.368 24.1797C177.368 17.1917 177.368 10.2763 177.368 3.21565C174.682 3.21565 172.086 3.21565 169.418 3.21565C169.418 2.63483 169.418 2.19921 169.418 1.72729C175.208 1.72729 180.962 1.72729 186.716 1.72729C187.006 3.1249 186.952 3.17935 185.627 3.17935C183.811 3.17935 181.996 3.17935 180.181 3.17935C179.855 3.17935 179.528 3.21565 179.129 3.23381C179.147 10.24 179.147 17.1554 179.147 24.1797Z" fill="#737380"/>
<path d="M8.46499 12.8418C8.36251 11.7658 8.26003 10.677 8.17037 9.60099C8.14475 9.3448 8.02947 8.97333 8.38813 8.89647C8.78522 8.794 8.86208 9.17828 8.95174 9.46008C9.27198 10.5233 9.5666 11.5864 10.079 12.5856C10.2711 12.9571 10.5145 13.2773 10.8091 13.5463C11.5777 14.2508 12.7305 14.1611 13.3197 13.3029C14.0627 12.2269 14.2933 10.9588 14.6135 9.71627C15.1003 7.8461 15.2283 5.9375 15.4973 4.0289C15.523 3.83676 15.5742 3.65743 15.6382 3.4781C15.7023 3.29876 15.8432 3.2091 16.0353 3.22191C16.2275 3.23472 16.3556 3.33719 16.4068 3.51652C16.5349 3.99047 16.6118 4.47723 16.663 4.96399C16.9064 7.47463 17.2907 9.95965 18.1873 12.3294C18.4947 13.1492 18.8918 13.9306 19.9038 14.0074C20.9926 14.0843 21.5434 13.3413 21.9917 12.4959C22.4657 11.5864 22.7347 10.5873 23.0421 9.6138C23.0805 9.47289 23.1189 9.31918 23.183 9.19109C23.2727 9.01176 23.3879 8.84523 23.6185 8.89647C23.8747 8.94771 23.8875 9.15266 23.8747 9.3448C23.8363 9.88279 23.8106 10.408 23.7466 10.9332C23.6441 11.7145 23.5416 12.4959 23.6057 13.2901C23.6569 13.969 23.6826 14.6991 24.4511 15.0066C25.0403 15.2371 25.7449 14.9041 26.2957 14.1483C27.1539 12.9955 27.7816 11.7145 28.4605 10.4592C28.627 10.1646 28.7807 9.85718 28.9472 9.56256C29.0881 9.31918 29.2546 9.02457 29.5877 9.19109C29.8695 9.33199 29.7542 9.66504 29.6902 9.88279C29.5236 10.4592 29.3059 11.01 29.1009 11.5736C28.0249 14.5838 26.9361 17.5812 25.8601 20.5915C25.4887 21.6162 25.3093 21.6674 24.2846 21.2447C20.8645 19.8357 17.3035 19.4002 13.6272 19.7845C11.4368 20.015 9.2976 20.4762 7.28652 21.4497C6.79976 21.6931 6.50515 21.4497 6.33862 21.0014C5.86468 19.7204 5.39073 18.4395 4.92959 17.1585C4.09698 14.8528 3.27718 12.5471 2.45738 10.2415C2.32929 9.88279 2.00905 9.38323 2.49581 9.17828C2.94413 8.98614 3.09785 9.54975 3.26437 9.86999C3.94327 11.1765 4.64778 12.4703 5.42916 13.7128C5.50601 13.8409 5.59568 13.9562 5.68535 14.0843C6.23615 14.84 6.9791 15.2243 7.56833 15.0066C8.37532 14.6991 8.37532 13.9434 8.45218 13.2389C8.46499 13.1108 8.45218 12.9827 8.45218 12.8546C8.45218 12.8418 8.45218 12.8418 8.46499 12.8418Z" fill="#737380"/>
<path d="M24.9251 23.3326C24.9123 24.0371 24.4896 24.3317 23.8363 24.0883C19.2249 22.4103 14.5623 22.231 9.8228 23.4991C9.20795 23.6656 8.6059 23.8706 8.00386 24.114C7.52991 24.3061 7.22249 24.2164 7.03035 23.7425C6.8254 23.2814 6.88944 22.9483 7.40182 22.7049C9.61785 21.693 11.9492 21.1422 14.3701 20.9757C17.8415 20.7323 21.2104 21.2703 24.4127 22.6921C24.7201 22.8202 24.9379 22.9739 24.9251 23.3326Z" fill="#737380"/>
<path d="M17.1368 1.53092C17.1368 2.09453 16.5988 2.63253 16.0352 2.64534C15.4203 2.65815 14.8951 2.12015 14.9079 1.5053C14.9079 0.890452 15.3819 0.429313 16.0096 0.416504C16.65 0.416504 17.1368 0.890452 17.1368 1.53092Z" fill="#737380"/>
<path d="M8.04254 6.47534C8.54211 6.47534 8.9392 6.85962 8.92639 7.35919C8.91358 7.83314 8.49087 8.26866 8.02973 8.25585C7.55579 8.25585 7.15869 7.84595 7.15869 7.34638C7.15869 6.834 7.51735 6.47534 8.04254 6.47534Z" fill="#737380"/>
<path d="M23.9514 8.23033C23.4519 8.21752 23.0676 7.80762 23.0804 7.32086C23.0932 6.84691 23.4519 6.48825 23.9514 6.48825C24.4766 6.47544 24.8353 6.8341 24.8481 7.35929C24.8481 7.85885 24.4766 8.23033 23.9514 8.23033Z" fill="#737380"/>
<path d="M1.79121 6.75726C2.29077 6.74445 2.71348 7.14154 2.72629 7.61549C2.72629 8.06382 2.29077 8.52496 1.82963 8.53777C1.3813 8.55058 0.984215 8.15348 0.958596 7.69235C0.945787 7.16716 1.29164 6.77007 1.79121 6.75726Z" fill="#737380"/>
<path d="M31.0607 7.64103C31.0607 8.10216 30.6764 8.51206 30.2281 8.52487C29.7797 8.53768 29.293 8.10216 29.2674 7.66664C29.2545 7.21831 29.7029 6.76999 30.164 6.76999C30.6892 6.75718 31.0607 7.11584 31.0607 7.64103Z" fill="#737380"/>
</svg>
