<svg width="82" height="40" viewBox="0 0 82 40" fill="none" xmlns="http://www.w3.org/2000/svg">
<path fill-rule="evenodd" clip-rule="evenodd" d="M2.97064 10.6457V37.528H79.5303V10.6457H2.97064ZM82 9.40975V40H0.500977V9.40975L9.45352 0.448975H73.0474L82 9.40975ZM77.2724 8.17378L72.0244 2.92091H10.4765L5.22844 8.17378H77.2724Z" fill="#737380"/>
<path d="M10.8637 20.6942C11.4959 20.6942 12.0393 20.8375 12.4937 21.1243C12.9481 21.411 13.279 21.8016 13.4865 22.296V18.0986H16.0204V29.074H13.4865V27.576C13.279 28.0704 12.9481 28.461 12.4937 28.7477C12.0393 29.0345 11.4959 29.1779 10.8637 29.1779C10.1821 29.1779 9.5696 29.0098 9.02627 28.6736C8.49282 28.3275 8.06804 27.8331 7.75192 27.1904C7.44569 26.5477 7.29257 25.7963 7.29257 24.936C7.29257 24.0659 7.44569 23.3144 7.75192 22.6816C8.06804 22.0389 8.49282 21.5495 9.02627 21.2133C9.5696 20.8672 10.1821 20.6942 10.8637 20.6942ZM11.6787 22.9189C11.1354 22.9189 10.6958 23.0969 10.3599 23.4529C10.0339 23.8088 9.8709 24.3032 9.8709 24.936C9.8709 25.5688 10.0339 26.0632 10.3599 26.4192C10.6958 26.7751 11.1354 26.9531 11.6787 26.9531C12.2121 26.9531 12.6468 26.7702 12.9827 26.4043C13.3284 26.0385 13.5013 25.5491 13.5013 24.936C13.5013 24.3131 13.3284 23.8236 12.9827 23.4677C12.6468 23.1018 12.2121 22.9189 11.6787 22.9189Z" fill="#737380"/>
<path d="M25.6185 24.7135C25.6185 24.9212 25.5938 25.1486 25.5444 25.3958H19.8099C19.8395 26.0187 19.9976 26.4686 20.284 26.7454C20.5705 27.0124 20.936 27.1459 21.3806 27.1459C21.756 27.1459 22.0671 27.052 22.3141 26.8641C22.5611 26.6762 22.7241 26.434 22.8031 26.1373H25.4852C25.3765 26.7207 25.1394 27.2448 24.7739 27.7095C24.4084 28.1643 23.9441 28.5252 23.381 28.7922C22.8179 29.0493 22.1906 29.1778 21.4991 29.1778C20.6891 29.1778 19.9679 29.0097 19.3357 28.6736C18.7133 28.3275 18.2243 27.8331 17.8687 27.1904C17.5131 26.5477 17.3353 25.7962 17.3353 24.936C17.3353 24.0659 17.5081 23.3144 17.8539 22.6816C18.2095 22.0389 18.7034 21.5494 19.3357 21.2132C19.9679 20.8672 20.6891 20.6941 21.4991 20.6941C22.319 20.6941 23.0402 20.8622 23.6625 21.1984C24.2849 21.5346 24.764 22.0092 25.0999 22.6223C25.4456 23.2254 25.6185 23.9225 25.6185 24.7135ZM23.055 24.3279C23.0649 23.7841 22.9167 23.3787 22.6105 23.1117C22.3141 22.8348 21.9437 22.6964 21.4991 22.6964C21.0348 22.6964 20.6495 22.8348 20.3433 23.1117C20.0371 23.3886 19.8642 23.7939 19.8247 24.3279H23.055Z" fill="#737380"/>
<path d="M29.9473 20.6941C30.9945 20.6941 31.8292 20.9562 32.4516 21.4802C33.0838 22.0043 33.4789 22.6964 33.637 23.5566H31.2661C31.197 23.2205 31.0389 22.9584 30.7919 22.7706C30.5549 22.5728 30.2536 22.4739 29.888 22.4739C29.6016 22.4739 29.3842 22.5382 29.2361 22.6667C29.0879 22.7854 29.0138 22.9584 29.0138 23.1859C29.0138 23.4429 29.1471 23.6357 29.4139 23.7643C29.6905 23.8928 30.1202 24.0214 30.703 24.1499C31.3353 24.2982 31.8539 24.4515 32.2589 24.6097C32.664 24.758 33.0146 25.0052 33.311 25.3513C33.6074 25.6973 33.7555 26.1621 33.7555 26.7454C33.7555 27.2201 33.6271 27.6403 33.3703 28.0061C33.1134 28.372 32.743 28.6587 32.2589 28.8664C31.7749 29.074 31.2019 29.1778 30.54 29.1778C29.4237 29.1778 28.5297 28.9306 27.858 28.4362C27.1862 27.9419 26.7763 27.2349 26.6281 26.3153H29.0731C29.1126 26.6713 29.2608 26.9432 29.5176 27.1311C29.7843 27.3189 30.1251 27.4129 30.54 27.4129C30.8265 27.4129 31.0439 27.3486 31.192 27.2201C31.3402 27.0816 31.4143 26.9037 31.4143 26.6861C31.4143 26.3994 31.276 26.1967 30.9994 26.078C30.7327 25.9495 30.2931 25.816 29.6806 25.6776C29.0681 25.549 28.5643 25.4106 28.1692 25.2623C27.774 25.114 27.4332 24.8767 27.1467 24.5504C26.8602 24.2142 26.717 23.7593 26.717 23.1859C26.717 22.4443 26.9985 21.8461 27.5616 21.3912C28.1247 20.9265 28.9199 20.6941 29.9473 20.6941Z" fill="#737380"/>
<path d="M34.9216 18.4694C34.9216 18.0838 35.0599 17.7674 35.3365 17.5202C35.6131 17.2631 35.9786 17.1346 36.433 17.1346C36.8875 17.1346 37.253 17.2631 37.5296 17.5202C37.8062 17.7674 37.9445 18.0838 37.9445 18.4694C37.9445 18.8451 37.8062 19.1615 37.5296 19.4186C37.253 19.6658 36.8875 19.7894 36.433 19.7894C35.9786 19.7894 35.6131 19.6658 35.3365 19.4186C35.0599 19.1615 34.9216 18.8451 34.9216 18.4694ZM37.6926 20.798V29.074H35.1587V20.798H37.6926Z" fill="#737380"/>
<path d="M42.5835 20.6941C43.2157 20.6941 43.7591 20.8375 44.2135 21.1243C44.6679 21.411 45.0038 21.8016 45.2211 22.296V20.798H47.7402V29.0295C47.7402 29.8008 47.592 30.4929 47.2956 31.1059C46.9993 31.7289 46.5448 32.2233 45.9324 32.5891C45.3199 32.955 44.5592 33.1379 43.6504 33.1379C42.4057 33.1379 41.4079 32.8412 40.6572 32.248C39.9162 31.6646 39.4717 30.8686 39.3235 29.8601H41.8278C41.9068 30.1963 42.0846 30.4583 42.3612 30.6462C42.6477 30.834 43.0182 30.928 43.4726 30.928C43.9961 30.928 44.416 30.7747 44.7321 30.4682C45.0581 30.1716 45.2211 29.692 45.2211 29.0295V27.576C45.0038 28.0704 44.6679 28.461 44.2135 28.7477C43.7591 29.0345 43.2157 29.1778 42.5835 29.1778C41.9019 29.1778 41.2894 29.0097 40.7461 28.6736C40.2126 28.3275 39.7878 27.8331 39.4717 27.1904C39.1655 26.5477 39.0123 25.7962 39.0123 24.936C39.0123 24.0659 39.1655 23.3144 39.4717 22.6816C39.7878 22.0389 40.2126 21.5494 40.7461 21.2132C41.2894 20.8672 41.9019 20.6941 42.5835 20.6941ZM43.3985 22.9189C42.8552 22.9189 42.4156 23.0969 42.0797 23.4528C41.7537 23.8088 41.5907 24.3032 41.5907 24.936C41.5907 25.5688 41.7537 26.0632 42.0797 26.4191C42.4156 26.7751 42.8552 26.9531 43.3985 26.9531C43.9319 26.9531 44.3666 26.7702 44.7025 26.4043C45.0482 26.0385 45.2211 25.549 45.2211 24.936C45.2211 24.3131 45.0482 23.8236 44.7025 23.4677C44.3666 23.1018 43.9319 22.9189 43.3985 22.9189Z" fill="#737380"/>
<path d="M54.7302 20.7089C55.6785 20.7089 56.4293 21.0253 56.9825 21.6581C57.5456 22.291 57.8271 23.1611 57.8271 24.2685V29.074H55.2932V24.5652C55.2932 24.0114 55.1451 23.5813 54.8487 23.2748C54.5622 22.9584 54.177 22.8002 53.6929 22.8002C53.1792 22.8002 52.7692 22.9633 52.463 23.2896C52.1666 23.6159 52.0185 24.0807 52.0185 24.6838V29.074H49.4846V20.7979H52.0185V22.3107C52.2555 21.8164 52.6062 21.4258 53.0705 21.139C53.5447 20.8523 54.0979 20.7089 54.7302 20.7089Z" fill="#737380"/>
<path d="M62.2279 18.4694C62.2279 18.0838 62.3661 17.7674 62.6427 17.5202C62.9193 17.2631 63.2848 17.1346 63.7393 17.1346C64.1937 17.1346 64.5592 17.2631 64.8358 17.5202C65.1124 17.7674 65.2507 18.0838 65.2507 18.4694C65.2507 18.8451 65.1124 19.1615 64.8358 19.4186C64.5592 19.6658 64.1937 19.7894 63.7393 19.7894C63.2848 19.7894 62.9193 19.6658 62.6427 19.4186C62.3661 19.1615 62.2279 18.8451 62.2279 18.4694ZM64.9988 20.798V29.074H62.4649V20.798H64.9988Z" fill="#737380"/>
<path d="M71.9941 20.7089C72.9424 20.7089 73.6932 21.0253 74.2464 21.6581C74.8095 22.291 75.091 23.1611 75.091 24.2685V29.074H72.5572V24.5652C72.5572 24.0114 72.409 23.5813 72.1126 23.2748C71.8261 22.9584 71.4409 22.8002 70.9568 22.8002C70.4431 22.8002 70.0332 22.9633 69.7269 23.2896C69.4306 23.6159 69.2824 24.0807 69.2824 24.6838V29.074H66.7485V20.7979H69.2824V22.3107C69.5195 21.8164 69.8702 21.4258 70.3345 21.139C70.8086 20.8523 71.3618 20.7089 71.9941 20.7089Z" fill="#737380"/>
</svg>
