<svg width="152" height="19" viewBox="0 0 152 19" fill="none" xmlns="http://www.w3.org/2000/svg">
<path d="M4.59378 3.64955H0.469482V0.435303H4.59378V3.64955ZM0.469482 18.3744V4.98376H4.59378V18.3744H0.469482Z" fill="#737380"/>
<path d="M8.245 18.3744V4.98376H12.3936V6.99721C13.1295 6.21286 13.9341 5.62257 14.8075 5.22635C15.6809 4.83012 16.6149 4.63201 17.6096 4.63201C18.7337 4.63201 19.7203 4.818 20.5694 5.18996C21.4185 5.56192 22.0735 6.09156 22.5345 6.77889C22.8175 7.20745 23.0197 7.71284 23.141 8.29504C23.2623 8.86916 23.323 9.77076 23.323 10.9999V18.3744H19.1744V11.8853C19.1744 10.3894 18.9561 9.36241 18.5194 8.80447C18.0908 8.24652 17.3427 7.96755 16.2753 7.96755C15.0703 7.96755 14.1201 8.30717 13.4246 8.98641C12.7373 9.65756 12.3936 10.5834 12.3936 11.764V18.3744H8.245Z" fill="#737380"/>
<path d="M27.7263 1.45416H31.8748V4.98376H34.9802V8.13736H31.8748V13.8017C31.8748 14.6912 31.9516 15.2168 32.1053 15.3785C32.267 15.5402 32.6471 15.6211 33.2455 15.6211H34.9802V18.8475H32.1781C30.585 18.8475 29.4447 18.5968 28.7573 18.0955C28.07 17.586 27.7263 16.7612 27.7263 15.6211V8.13736H25.7733V4.98376H27.7263V1.45416Z" fill="#737380"/>
<path d="M41.0211 9.96887L47.717 9.981C47.6442 9.14813 47.3086 8.49315 46.7102 8.01607C46.1117 7.53898 45.3314 7.30044 44.369 7.30044C43.4148 7.30044 42.6344 7.54303 42.0279 8.0282C41.4295 8.50528 41.0938 9.15217 41.0211 9.96887ZM52.096 14.0322C51.5461 15.5685 50.5919 16.7572 49.2333 17.5982C47.8747 18.431 46.2209 18.8475 44.272 18.8475C41.7974 18.8475 39.8363 18.2046 38.3888 16.9189C36.9493 15.6251 36.2296 13.8745 36.2296 11.667C36.2296 9.45944 36.9493 7.71688 38.3888 6.43927C39.8283 5.15357 41.7893 4.51072 44.272 4.51072C46.8517 4.51072 48.837 5.17783 50.228 6.51204C51.627 7.83817 52.3265 9.73033 52.3265 12.1885V12.7586H40.8998C40.924 13.737 41.2394 14.5173 41.8459 15.0995C42.4605 15.6736 43.2692 15.9607 44.272 15.9607C45.0564 15.9607 45.7317 15.7949 46.2977 15.4634C46.8638 15.1238 47.2722 14.6467 47.5229 14.0322H52.096Z" fill="#737380"/>
<path d="M58.9739 18.3744H54.8253V4.98376H58.9739V6.75463C59.6047 5.99453 60.2516 5.43254 60.9148 5.06867C61.586 4.6967 62.2895 4.51072 63.0254 4.51072C63.171 4.51072 63.45 4.53498 63.8624 4.5835C64.008 4.59158 64.1172 4.59967 64.1899 4.60776V8.13736C64.0525 8.12119 63.8948 8.10906 63.7169 8.10097C63.5389 8.09289 63.2599 8.08884 62.8799 8.08884C61.6668 8.08884 60.7126 8.46889 60.0171 9.22899C59.3216 9.98909 58.9739 11.0403 58.9739 12.3826V18.3744Z" fill="#737380"/>
<path d="M67.8533 18.3744V8.13736H65.9003V4.98376H67.8533V3.64955C67.8533 2.50131 68.1929 1.68057 68.8722 1.18731C69.5596 0.685973 70.7039 0.435303 72.3051 0.435303H75.1072V3.64955H73.3726C72.8146 3.64955 72.4466 3.72232 72.2687 3.86787C72.0908 4.00534 72.0018 4.28027 72.0018 4.69266V4.98376H75.1072V8.13736H72.0018V18.3744H67.8533Z" fill="#737380"/>
<path d="M88.2928 11.9217C87.7753 12.2047 86.7846 12.419 85.3209 12.5645C85.143 12.5888 85.0096 12.605 84.9206 12.613C83.3598 12.7748 82.3733 12.9729 81.9608 13.2074C81.5484 13.4419 81.3422 13.8057 81.3422 14.299C81.3422 14.8165 81.5443 15.233 81.9487 15.5483C82.3611 15.8556 82.907 16.0092 83.5863 16.0092C84.9934 16.0092 86.1336 15.6736 87.007 15.0025C87.8885 14.3313 88.3292 13.458 88.3292 12.3826C88.3292 12.2532 88.3252 12.1562 88.3171 12.0915C88.3171 12.0268 88.309 11.9702 88.2928 11.9217ZM92.3444 16.2154C92.3444 16.741 92.3929 17.1453 92.4899 17.4283C92.587 17.7033 92.7487 17.9176 92.9751 18.0712V18.3744H88.402L88.1958 16.9068C87.4761 17.5699 86.6633 18.0591 85.7576 18.3744C84.8519 18.6898 83.8046 18.8475 82.6159 18.8475C80.7721 18.8475 79.3205 18.4472 78.2611 17.6467C77.2017 16.8461 76.672 15.7626 76.672 14.396C76.672 13.1265 77.1491 12.1804 78.1034 11.5578C79.0576 10.9271 80.6952 10.5147 83.0162 10.3206C83.3235 10.2964 83.7521 10.2681 84.302 10.2357C86.9706 10.0497 88.305 9.53222 88.305 8.68317C88.305 8.17375 88.0462 7.7937 87.5286 7.54303C87.0192 7.29236 86.2509 7.16702 85.2239 7.16702C84.1888 7.16702 83.4286 7.34896 82.9434 7.71284C82.4582 8.06863 82.2075 8.63061 82.1913 9.3988L77.8608 9.41093V9.36241C77.8608 7.78561 78.5118 6.58482 79.8138 5.76003C81.1157 4.92716 83 4.51072 85.4665 4.51072C86.6795 4.51072 87.751 4.63201 88.681 4.8746C89.6191 5.1091 90.4035 5.46084 91.0343 5.92984C91.5114 6.29372 91.847 6.75463 92.0411 7.31257C92.2433 7.86243 92.3444 8.69935 92.3444 9.82332V16.2154Z" fill="#737380"/>
<path d="M111.207 12.9284C111.069 14.6912 110.253 16.1184 108.757 17.21C107.261 18.3016 105.352 18.8475 103.031 18.8475C100.573 18.8475 98.5955 18.1925 97.0994 16.8825C95.6115 15.5726 94.8675 13.8341 94.8675 11.667C94.8675 9.45136 95.6195 7.70475 97.1237 6.42714C98.6359 5.14953 100.706 4.51072 103.334 4.51072C105.607 4.51072 107.406 4.99589 108.732 5.96623C110.059 6.92848 110.835 8.31525 111.061 10.1266H106.488C106.375 9.35028 106.023 8.75595 105.433 8.34356C104.851 7.92308 104.066 7.71284 103.08 7.71284C101.956 7.71284 101.054 8.07671 100.375 8.80447C99.6953 9.52413 99.3557 10.4864 99.3557 11.6912C99.3557 12.8961 99.6913 13.8583 100.362 14.578C101.042 15.2896 101.948 15.6453 103.08 15.6453C104.034 15.6453 104.826 15.3947 105.457 14.8933C106.096 14.3839 106.448 13.7289 106.513 12.9284H111.207Z" fill="#737380"/>
<path d="M117.563 9.96887L124.259 9.981C124.186 9.14813 123.851 8.49315 123.252 8.01607C122.654 7.53898 121.874 7.30044 120.911 7.30044C119.957 7.30044 119.177 7.54303 118.57 8.0282C117.972 8.50528 117.636 9.15217 117.563 9.96887ZM128.638 14.0322C128.088 15.5685 127.134 16.7572 125.775 17.5982C124.417 18.431 122.763 18.8475 120.814 18.8475C118.34 18.8475 116.379 18.2046 114.931 16.9189C113.492 15.6251 112.772 13.8745 112.772 11.667C112.772 9.45944 113.492 7.71688 114.931 6.43927C116.37 5.15357 118.331 4.51072 120.814 4.51072C123.394 4.51072 125.379 5.17783 126.77 6.51204C128.169 7.83817 128.869 9.73033 128.869 12.1885V12.7586H117.442C117.466 13.737 117.782 14.5173 118.388 15.0995C119.003 15.6736 119.811 15.9607 120.814 15.9607C121.599 15.9607 122.274 15.7949 122.84 15.4634C123.406 15.1238 123.814 14.6467 124.065 14.0322H128.638Z" fill="#737380"/>
<path d="M135.957 11.2772V11.0371C135.957 10.4601 136.037 9.95392 136.197 9.51843C136.357 9.08293 136.612 8.68279 136.962 8.31802C137.167 8.09468 138.012 7.59777 139.497 6.82728L139.648 6.74911C139.681 6.7305 139.732 6.70444 139.799 6.67094C140.551 6.28756 140.927 5.9172 140.927 5.55987C140.927 5.26954 140.811 5.04807 140.58 4.89546C140.35 4.74285 140.013 4.66654 139.57 4.66654C139.071 4.66654 138.693 4.78379 138.436 5.01829C138.183 5.24906 138.049 5.59709 138.034 6.06236H135.979C135.994 5.09832 136.314 4.34829 136.94 3.8123C137.565 3.2763 138.438 3.0083 139.559 3.0083C140.668 3.0083 141.528 3.22791 142.138 3.66713C142.749 4.10263 143.054 4.71493 143.054 5.50403C143.054 6.00281 142.905 6.44203 142.607 6.82169C142.31 7.19764 141.814 7.56985 141.122 7.93835C140.873 8.06863 140.536 8.24171 140.111 8.4576C139.091 8.97498 138.552 9.34348 138.492 9.56309H142.898V11.2772H135.957Z" fill="#737380"/>
<path d="M146.136 7.25161C146.136 8.0891 146.285 8.73118 146.583 9.17784C146.881 9.62451 147.305 9.84784 147.856 9.84784C148.403 9.84784 148.824 9.62451 149.118 9.17784C149.412 8.73118 149.559 8.0891 149.559 7.25161C149.559 6.41411 149.412 5.77203 149.118 5.32537C148.824 4.87871 148.403 4.65537 147.856 4.65537C147.305 4.65537 146.881 4.88057 146.583 5.33095C146.285 5.77762 146.136 6.41783 146.136 7.25161ZM144.126 7.25161C144.126 5.90789 144.448 4.86754 145.092 4.13054C145.74 3.38983 146.652 3.01947 147.828 3.01947C149.023 3.01947 149.944 3.38797 150.592 4.12496C151.244 4.85823 151.569 5.90045 151.569 7.25161C151.569 8.60649 151.244 9.65242 150.592 10.3894C149.944 11.1264 149.023 11.4949 147.828 11.4949C146.656 11.4949 145.745 11.1246 145.098 10.3838C144.45 9.6394 144.126 8.59532 144.126 7.25161Z" fill="#737380"/>
</svg>
