<svg width="176" height="32" viewBox="0 0 176 32" fill="none" xmlns="http://www.w3.org/2000/svg">
<path fill-rule="evenodd" clip-rule="evenodd" d="M159.78 26.2233L164.71 31.2209L175.413 20.5124L164.84 9.93457L159.619 14.7664L165.78 20.5331L159.78 26.2233ZM161.41 14.8013L167.139 20.5331L161.384 26.0289L164.721 29.4532L173.657 20.5124L164.807 11.6575L161.41 14.8013Z" fill="url(#paint0_linear_0_611)"/>
<path fill-rule="evenodd" clip-rule="evenodd" d="M151.105 25.9972L156.314 31.2209L167.266 20.5124L156.447 9.93457L151.105 14.7664L156.981 20.5124L151.105 25.9972ZM152.917 14.8017L158.779 20.5333L152.89 26.0293L156.325 29.4734L165.49 20.5124L156.414 11.6388L152.917 14.8017Z" fill="url(#paint1_linear_0_611)"/>
<g opacity="0.78">
<path d="M13.7084 28.6514C13.7084 29.5028 13.7935 30.6523 13.8787 31.1206H17.7102C17.6251 30.3968 17.4973 28.9494 17.4973 27.3316V9.22406H13.4955V22.9892C13.4955 26.097 11.8778 28.2256 8.64224 28.2256C5.279 28.2256 4.00183 25.7564 4.00183 22.9466V9.22406H0V23.5426C0 28.1831 2.89494 31.7592 7.66307 31.7592C10.0471 31.7592 12.6015 30.78 13.7084 28.6514Z" fill="white"/>
<path d="M25.8089 31.1206V9.22406H21.8497V31.1206H25.8089ZM20.9556 2.89494C20.9556 4.47012 22.2328 5.7473 23.808 5.7473C25.4257 5.7473 26.7029 4.47012 26.7029 2.89494C26.7029 1.27718 25.4257 0 23.808 0C22.2328 0 20.9556 1.27718 20.9556 2.89494Z" fill="white"/>
</g>
<path fill-rule="evenodd" clip-rule="evenodd" d="M40.642 29.1475V31.5315H34.3838V0.708984H40.7271V12.3739C41.6211 11.0541 43.9626 9.86209 46.8576 9.86209C52.988 9.86209 56.6918 14.5451 56.6918 20.8884C56.6918 27.3594 52.5197 31.9998 46.6021 31.9998C43.7923 31.9998 41.6211 30.7652 40.642 29.1475ZM45.4527 26.21C47.9644 26.21 50.2208 24.4645 50.2208 20.931C50.2208 17.3549 47.9644 15.6945 45.4527 15.6945C42.9409 15.6945 40.642 17.3549 40.642 20.931C40.642 24.4219 42.9409 26.21 45.4527 26.21ZM132.685 3.90236H138.483V10.0879H142.619V15.7616H138.483V23.6961C138.483 25.4452 139.421 25.9144 140.828 25.9144C141.51 25.9144 142.15 25.7864 142.533 25.7011V31.0762C142.278 31.2041 141.212 31.6734 139.165 31.6734C134.774 31.6734 132.088 29.0712 132.088 24.8479V15.7616H128.336V10.0879H129.402C131.619 10.0879 132.685 8.59485 132.685 6.63254V3.90236ZM65.7276 20.6674C65.7276 24.208 68.0725 25.9571 70.5027 25.9571C72.9754 25.9571 75.2777 24.2507 75.2777 20.6674C75.2777 17.084 72.9754 15.4203 70.5027 15.4203C68.0725 15.4203 65.7276 17.084 65.7276 20.6674ZM59.2473 20.6674C59.2473 14.0979 64.1928 9.44803 70.5027 9.44803C76.8552 9.44803 81.7581 14.0979 81.7581 20.6674C81.7581 27.2368 76.8552 31.9293 70.5027 31.9293C64.1928 31.9293 59.2473 27.2368 59.2473 20.6674ZM90.8041 20.6674C90.8041 24.208 93.1489 25.9571 95.5791 25.9571C98.0519 25.9571 100.354 24.2507 100.354 20.6674C100.354 17.084 98.0519 15.4203 95.5791 15.4203C93.1489 15.4203 90.8041 17.084 90.8041 20.6674ZM84.3237 20.6674C84.3237 14.0979 89.2692 9.44803 95.5791 9.44803C101.932 9.44803 106.834 14.0979 106.834 20.6674C106.834 27.2368 101.932 31.9293 95.5791 31.9293C89.2692 31.9293 84.3237 27.2368 84.3237 20.6674ZM108.832 25.2745C109.002 27.6208 111.134 31.9293 117.785 31.9293C123.455 31.9293 126.226 28.3886 126.226 24.7626C126.226 21.6485 124.095 19.0037 119.703 18.1078L116.889 17.5532C115.952 17.3826 115.227 16.8707 115.227 15.9749C115.227 14.8657 116.293 14.1405 117.529 14.1405C119.49 14.1405 120.385 15.335 120.556 16.7427L125.928 15.7616C125.715 13.2873 123.583 9.44803 117.444 9.44803C112.711 9.44803 109.301 12.6048 109.301 16.4868C109.301 19.4729 111.091 22.0324 115.61 23.0136L118.041 23.5682C119.618 23.9094 120.13 24.5493 120.13 25.3172C120.13 26.2557 119.32 27.1515 117.657 27.1515C115.44 27.1515 114.417 25.7438 114.331 24.2934L108.832 25.2745Z" fill="white"/>
<defs>
<linearGradient id="paint0_linear_0_611" x1="162.214" y1="26.0324" x2="173.11" y2="15.6361" gradientUnits="userSpaceOnUse">
<stop stop-color="#0194FF"/>
<stop offset="1" stop-color="#01EADA"/>
</linearGradient>
<linearGradient id="paint1_linear_0_611" x1="153.248" y1="26.5277" x2="161.105" y2="14.6001" gradientUnits="userSpaceOnUse">
<stop stop-color="#721EFF"/>
<stop offset="1" stop-color="#206BFF"/>
<stop offset="1" stop-color="#206BFF"/>
</linearGradient>
</defs>
</svg>
