<svg width="147" height="28" viewBox="0 0 147 28" fill="none" xmlns="http://www.w3.org/2000/svg">
<path fill-rule="evenodd" clip-rule="evenodd" d="M10.5327 18.0208C15.7503 18.0208 19.3374 14.5911 19.3374 9.6494C19.3374 4.78144 15.7503 1.27797 10.5327 1.27797H0.858398V27.4249H6.58325V18.0208H10.5327ZM6.61948 13.0053V6.33033H9.95293C12.1269 6.33033 13.6125 7.5842 13.6125 9.68628C13.6125 11.7146 12.1269 13.0053 9.95293 13.0053H6.61948Z" fill="#737380"/>
<path d="M27.5 27.4249V9.09622H21.9926V27.4249H27.5Z" fill="#737380"/>
<path d="M21.5215 3.49069C21.5215 5.29773 22.9709 6.77288 24.7101 6.77288C26.5218 6.77288 27.9711 5.29773 27.9711 3.49069C27.9711 1.68364 26.5218 0.208496 24.7101 0.208496C22.9709 0.208496 21.5215 1.68364 21.5215 3.49069Z" fill="#737380"/>
<path fill-rule="evenodd" clip-rule="evenodd" d="M63.9798 20.8236C63.4725 22.2619 62.3493 23.2207 60.3565 23.2207C58.2187 23.2207 56.3708 21.7456 56.2621 19.6804H68.7988C68.8351 19.5697 68.9075 18.7215 68.9075 17.9471C68.9075 12.0465 65.4654 8.54305 59.8854 8.54305C55.2114 8.54305 50.8996 12.3047 50.8996 18.2052C50.8996 24.3639 55.32 27.978 60.284 27.978C64.8494 27.978 67.7118 25.3228 68.5814 22.1512L63.9798 20.8236ZM56.3708 16.0663C56.4795 14.7018 57.639 12.9685 59.9579 12.9685C62.5667 12.9685 63.5088 14.6649 63.5812 16.0663H56.3708Z" fill="#737380"/>
<path d="M77.2265 27.4249V0.724796H71.719V27.4249H77.2265Z" fill="#737380"/>
<path d="M89.6593 13.706C91.7971 13.706 92.8841 15.0337 93.2826 16.435L98.2104 14.923C97.4132 11.6408 94.5146 8.54305 89.5506 8.54305C84.2606 8.54305 80.0575 12.5628 80.0575 18.279C80.0575 23.9583 84.3692 27.978 89.7318 27.978C94.5508 27.978 97.5219 24.8065 98.3191 21.598L93.4638 20.086C93.0652 21.4505 91.8695 22.815 89.7318 22.815C87.4491 22.815 85.5287 21.1924 85.5287 18.279C85.5287 15.3287 87.3766 13.706 89.6593 13.706Z" fill="#737380"/>
<path fill-rule="evenodd" clip-rule="evenodd" d="M99.8253 22.3725C99.8253 25.2859 102.108 27.9411 106.057 27.9411C108.449 27.9411 110.188 26.9086 111.13 25.3596C111.13 26.6135 111.275 27.2773 111.311 27.4249H116.275C116.239 27.2405 116.058 26.0235 116.058 24.5852V15.6237C116.058 11.8621 113.92 8.54305 108.086 8.54305C102.796 8.54305 100.405 12.0096 100.188 14.628L104.97 15.6237C105.079 14.2592 106.13 12.9316 108.05 12.9316C109.789 12.9316 110.695 13.8536 110.695 14.923C110.695 15.55 110.369 16.0294 109.391 16.1769L105.152 16.8407C102.18 17.2833 99.8253 19.1272 99.8253 22.3725ZM107.398 23.8845C105.876 23.8845 105.26 22.9625 105.26 22.0037C105.26 20.713 106.13 20.1598 107.289 19.9754L110.695 19.4222V20.2335C110.695 23.0732 109.029 23.8845 107.398 23.8845Z" fill="#737380"/>
<path d="M118.482 22.225C118.627 24.2533 120.438 27.978 126.091 27.978C130.91 27.978 133.265 24.9171 133.265 21.7824C133.265 19.0903 131.453 16.8038 127.721 16.0294L125.33 15.55C124.533 15.4024 123.917 14.9599 123.917 14.1855C123.917 13.2266 124.823 12.5997 125.873 12.5997C127.54 12.5997 128.301 13.6323 128.446 14.8493L133.011 14.0011C132.83 11.8621 131.018 8.54305 125.801 8.54305C121.779 8.54305 118.88 11.2721 118.88 14.628C118.88 17.2095 120.402 19.4222 124.243 20.2704L126.308 20.7498C127.649 21.0449 128.084 21.598 128.084 22.2619C128.084 23.0732 127.395 23.8476 125.982 23.8476C124.098 23.8476 123.228 22.6306 123.156 21.3768L118.482 22.225Z" fill="#737380"/>
<path d="M142.715 3.74884H137.788V6.10906C137.788 7.80548 136.882 9.09622 134.998 9.09622H134.092V14.0011H137.28V21.8562C137.28 25.5072 139.563 27.7568 143.295 27.7568C145.034 27.7568 145.94 27.3511 146.157 27.2405V22.5938C145.831 22.6675 145.288 22.7782 144.708 22.7782C143.512 22.7782 142.715 22.3725 142.715 20.8605V14.0011H146.23V9.09622H142.715V3.74884Z" fill="#737380"/>
<path d="M34.1874 8.98559L30.451 12.7885L35.7776 18.2099L29.9025 24.1896L33.6389 27.9925L39.514 22.0128L45.3965 28.0001L49.1329 24.1972L34.1874 8.98559Z" fill="#737380"/>
<path d="M44.8405 8.98559L48.5769 12.7885L44.8405 16.5914L41.1042 12.7885L44.8405 8.98559Z" fill="#737380"/>
</svg>
