<svg width="25" height="20" viewBox="0 0 25 20" fill="none" xmlns="http://www.w3.org/2000/svg">
<path d="M24.1667 0.708434L20.3444 19.1674C20.3444 19.1674 19.8099 20.4476 18.3398 19.8331L9.51958 13.3558L6.31234 11.871L0.913324 10.13C0.913324 10.13 0.084764 9.8485 0.00451604 9.23404C-0.0757319 8.61959 0.940073 8.28683 0.940073 8.28683L22.4024 0.222255C22.4024 0.222255 24.1665 -0.520147 24.1665 0.708756" fill="#01D4E4"/>
<path d="M9.12718 19.1665C9.12718 19.1665 8.87673 19.1437 8.56446 18.1815C8.25269 17.2194 6.6665 12.1558 6.6665 12.1558L19.277 4.35781C19.277 4.35781 20.0051 3.92737 19.9791 4.35781C19.9791 4.35781 20.109 4.43383 19.7188 4.78825C19.329 5.14283 9.8127 13.4724 9.8127 13.4724" fill="#108F9B"/>
<path opacity="0.3" d="M12.4998 15.9313L9.63542 19.0492C9.63542 19.0492 9.41139 19.2521 9.1665 19.1249L9.71504 13.3335" fill="#01D4E4"/>
</svg>
