<svg width="112" height="26" viewBox="0 0 112 26" fill="none" xmlns="http://www.w3.org/2000/svg">
<g clip-path="url(#clip0_121_578)">
<path d="M12.0029 2.44039H17.52C17.554 2.44039 17.6086 2.44118 17.6718 2.44211C17.7761 2.44363 17.9038 2.4455 18.0003 2.44468C18.1751 2.44321 18.3913 2.435 18.5762 2.39382L18.4676 1.90643L18.5762 2.39382C19.009 2.2974 19.7785 2.07139 21.1694 1.57046L23.5 0.731115V13.9453C23.5 20.2995 18.3511 25.4502 12 25.4502C5.64893 25.4502 0.5 20.2995 0.5 13.9453C0.5 7.59111 5.64893 2.44039 12 2.44039H12H12H12H12H12.0001H12.0001H12.0001H12.0001H12.0001H12.0001H12.0001H12.0001H12.0001H12.0002H12.0002H12.0002H12.0002H12.0002H12.0002H12.0002H12.0002H12.0002H12.0003H12.0003H12.0003H12.0003H12.0003H12.0003H12.0003H12.0003H12.0003H12.0004H12.0004H12.0004H12.0004H12.0004H12.0004H12.0004H12.0004H12.0005H12.0005H12.0005H12.0005H12.0005H12.0005H12.0005H12.0005H12.0005H12.0006H12.0006H12.0006H12.0006H12.0006H12.0006H12.0006H12.0006H12.0006H12.0007H12.0007H12.0007H12.0007H12.0007H12.0007H12.0007H12.0007H12.0007H12.0008H12.0008H12.0008H12.0008H12.0008H12.0008H12.0008H12.0008H12.0008H12.0009H12.0009H12.0009H12.0009H12.0009H12.0009H12.0009H12.0009H12.0009H12.001H12.001H12.001H12.001H12.001H12.001H12.001H12.001H12.001H12.0011H12.0011H12.0011H12.0011H12.0011H12.0011H12.0011H12.0011H12.0011H12.0012H12.0012H12.0012H12.0012H12.0012H12.0012H12.0012H12.0012H12.0012H12.0013H12.0013H12.0013H12.0013H12.0013H12.0013H12.0013H12.0013H12.0013H12.0014H12.0014H12.0014H12.0014H12.0014H12.0014H12.0014H12.0014H12.0015H12.0015H12.0015H12.0015H12.0015H12.0015H12.0015H12.0015H12.0015H12.0016H12.0016H12.0016H12.0016H12.0016H12.0016H12.0016H12.0016H12.0016H12.0017H12.0017H12.0017H12.0017H12.0017H12.0017H12.0017H12.0017H12.0017H12.0018H12.0018H12.0018H12.0018H12.0018H12.0018H12.0018H12.0018H12.0018H12.0019H12.0019H12.0019H12.0019H12.0019H12.0019H12.0019H12.0019H12.0019H12.002H12.002H12.002H12.002H12.002H12.002H12.002H12.002H12.002H12.0021H12.0021H12.0021H12.0021H12.0021H12.0021H12.0021H12.0021H12.0021H12.0022H12.0022H12.0022H12.0022H12.0022H12.0022H12.0022H12.0022H12.0022H12.0023H12.0023H12.0023H12.0023H12.0023H12.0023H12.0023H12.0023H12.0024H12.0024H12.0024H12.0024H12.0024H12.0024H12.0024H12.0024H12.0024H12.0025H12.0025H12.0025H12.0025H12.0025H12.0025H12.0025H12.0025H12.0025H12.0026H12.0026H12.0026H12.0026H12.0026H12.0026H12.0026H12.0026H12.0026H12.0027H12.0027H12.0027H12.0027H12.0027H12.0027H12.0027H12.0027H12.0027H12.0028H12.0028H12.0028H12.0028H12.0028H12.0028H12.0028H12.0028H12.0028H12.0029H12.0029H12.0029ZM12 20.6878C15.7226 20.6878 18.74 17.6689 18.74 13.9453C18.74 10.2217 15.7226 7.20273 12 7.20273C8.27741 7.20273 5.26 10.2217 5.26 13.9453C5.26 17.6689 8.27741 20.6878 12 20.6878Z" stroke="white"/>
</g>
<path d="M35.504 7.91114H40.4C41.5947 7.91114 42.656 8.14581 43.584 8.61514C44.512 9.07381 45.232 9.72981 45.744 10.5831C46.256 11.4258 46.512 12.4018 46.512 13.5111C46.512 14.6205 46.256 15.6018 45.744 16.4551C45.232 17.2978 44.512 17.9538 43.584 18.4231C42.656 18.8818 41.5947 19.1111 40.4 19.1111H35.504V7.91114ZM40.304 17.3511C41.1253 17.3511 41.8453 17.1965 42.464 16.8871C43.0933 16.5671 43.5733 16.1191 43.904 15.5431C44.2453 14.9565 44.416 14.2791 44.416 13.5111C44.416 12.7431 44.2453 12.0711 43.904 11.4951C43.5733 10.9085 43.0933 10.4605 42.464 10.1511C41.8453 9.83114 41.1253 9.67114 40.304 9.67114H37.584V17.3511H40.304ZM51.7948 10.4711C53.0534 10.4711 54.0134 10.7751 54.6748 11.3831C55.3468 11.9805 55.6828 12.8871 55.6828 14.1031V19.1111H53.7948V18.0711C53.5494 18.4445 53.1974 18.7325 52.7388 18.9351C52.2908 19.1271 51.7468 19.2231 51.1068 19.2231C50.4668 19.2231 49.9068 19.1165 49.4268 18.9031C48.9468 18.6791 48.5734 18.3751 48.3068 17.9911C48.0508 17.5965 47.9228 17.1538 47.9228 16.6631C47.9228 15.8951 48.2054 15.2818 48.7708 14.8231C49.3468 14.3538 50.2481 14.1191 51.4748 14.1191H53.6828V13.9911C53.6828 13.3938 53.5014 12.9351 53.1388 12.6151C52.7868 12.2951 52.2588 12.1351 51.5548 12.1351C51.0748 12.1351 50.6001 12.2098 50.1308 12.3591C49.6721 12.5085 49.2828 12.7165 48.9628 12.9831L48.1788 11.5271C48.6268 11.1858 49.1654 10.9245 49.7948 10.7431C50.4241 10.5618 51.0908 10.4711 51.7948 10.4711ZM51.5228 17.7671C52.0241 17.7671 52.4668 17.6551 52.8508 17.4311C53.2454 17.1965 53.5228 16.8658 53.6828 16.4391V15.4471H51.6188C50.4668 15.4471 49.8908 15.8258 49.8908 16.5831C49.8908 16.9458 50.0348 17.2338 50.3228 17.4471C50.6108 17.6605 51.0108 17.7671 51.5228 17.7671ZM60.8895 19.2231C60.1962 19.2231 59.5188 19.1325 58.8575 18.9511C58.1962 18.7698 57.6682 18.5405 57.2735 18.2631L58.0415 16.7431C58.4255 16.9991 58.8842 17.2071 59.4175 17.3671C59.9615 17.5165 60.4948 17.5911 61.0175 17.5911C62.2122 17.5911 62.8095 17.2765 62.8095 16.6471C62.8095 16.3485 62.6548 16.1405 62.3455 16.0231C62.0468 15.9058 61.5615 15.7938 60.8895 15.6871C60.1855 15.5805 59.6095 15.4578 59.1615 15.3191C58.7242 15.1805 58.3402 14.9405 58.0095 14.5991C57.6895 14.2471 57.5295 13.7618 57.5295 13.1431C57.5295 12.3325 57.8655 11.6871 58.5375 11.2071C59.2202 10.7165 60.1375 10.4711 61.2895 10.4711C61.8762 10.4711 62.4628 10.5405 63.0495 10.6791C63.6362 10.8071 64.1162 10.9831 64.4895 11.2071L63.7215 12.7271C62.9962 12.3005 62.1802 12.0871 61.2735 12.0871C60.6868 12.0871 60.2388 12.1778 59.9295 12.3591C59.6308 12.5298 59.4815 12.7591 59.4815 13.0471C59.4815 13.3671 59.6415 13.5965 59.9615 13.7351C60.2922 13.8631 60.7988 13.9858 61.4815 14.1031C62.1642 14.2098 62.7242 14.3325 63.1615 14.4711C63.5988 14.6098 63.9722 14.8445 64.2815 15.1751C64.6015 15.5058 64.7615 15.9751 64.7615 16.5831C64.7615 17.3831 64.4148 18.0231 63.7215 18.5031C63.0282 18.9831 62.0842 19.2231 60.8895 19.2231ZM71.3319 10.4711C72.4092 10.4711 73.2732 10.7858 73.9239 11.4151C74.5745 12.0445 74.8999 12.9778 74.8999 14.2151V19.1111H72.8999V14.4711C72.8999 13.7245 72.7239 13.1645 72.3719 12.7911C72.0199 12.4071 71.5185 12.2151 70.8679 12.2151C70.1319 12.2151 69.5505 12.4391 69.1239 12.8871C68.6972 13.3245 68.4839 13.9591 68.4839 14.7911V19.1111H66.4839V7.23914H68.4839V11.5591C68.8145 11.2071 69.2199 10.9405 69.6999 10.7591C70.1905 10.5671 70.7345 10.4711 71.3319 10.4711ZM82.573 18.6471C82.3383 18.8391 82.0503 18.9831 81.709 19.0791C81.3783 19.1751 81.0263 19.2231 80.653 19.2231C79.7143 19.2231 78.989 18.9778 78.477 18.4871C77.965 17.9965 77.709 17.2818 77.709 16.3431V12.2311H76.301V10.6311H77.709V8.67914H79.709V10.6311H81.997V12.2311H79.709V16.2951C79.709 16.7111 79.8103 17.0311 80.013 17.2551C80.2157 17.4685 80.509 17.5751 80.893 17.5751C81.341 17.5751 81.7143 17.4578 82.013 17.2231L82.573 18.6471ZM87.4823 10.4711C88.7409 10.4711 89.7009 10.7751 90.3623 11.3831C91.0343 11.9805 91.3703 12.8871 91.3703 14.1031V19.1111H89.4823V18.0711C89.2369 18.4445 88.8849 18.7325 88.4263 18.9351C87.9783 19.1271 87.4343 19.2231 86.7943 19.2231C86.1543 19.2231 85.5943 19.1165 85.1143 18.9031C84.6343 18.6791 84.2609 18.3751 83.9943 17.9911C83.7383 17.5965 83.6103 17.1538 83.6103 16.6631C83.6103 15.8951 83.8929 15.2818 84.4583 14.8231C85.0343 14.3538 85.9356 14.1191 87.1623 14.1191H89.3703V13.9911C89.3703 13.3938 89.1889 12.9351 88.8263 12.6151C88.4743 12.2951 87.9463 12.1351 87.2423 12.1351C86.7623 12.1351 86.2876 12.2098 85.8183 12.3591C85.3596 12.5085 84.9703 12.7165 84.6503 12.9831L83.8663 11.5271C84.3143 11.1858 84.8529 10.9245 85.4823 10.7431C86.1116 10.5618 86.7783 10.4711 87.4823 10.4711ZM87.2103 17.7671C87.7116 17.7671 88.1543 17.6551 88.5383 17.4311C88.9329 17.1965 89.2103 16.8658 89.3703 16.4391V15.4471H87.3063C86.1543 15.4471 85.5783 15.8258 85.5783 16.5831C85.5783 16.9458 85.7223 17.2338 86.0103 17.4471C86.2983 17.6605 86.6983 17.7671 87.2103 17.7671ZM96.577 19.2231C95.8837 19.2231 95.2063 19.1325 94.545 18.9511C93.8837 18.7698 93.3557 18.5405 92.961 18.2631L93.729 16.7431C94.113 16.9991 94.5717 17.2071 95.105 17.3671C95.649 17.5165 96.1823 17.5911 96.705 17.5911C97.8997 17.5911 98.497 17.2765 98.497 16.6471C98.497 16.3485 98.3423 16.1405 98.033 16.0231C97.7343 15.9058 97.249 15.7938 96.577 15.6871C95.873 15.5805 95.297 15.4578 94.849 15.3191C94.4117 15.1805 94.0277 14.9405 93.697 14.5991C93.377 14.2471 93.217 13.7618 93.217 13.1431C93.217 12.3325 93.553 11.6871 94.225 11.2071C94.9077 10.7165 95.825 10.4711 96.977 10.4711C97.5637 10.4711 98.1503 10.5405 98.737 10.6791C99.3237 10.8071 99.8037 10.9831 100.177 11.2071L99.409 12.7271C98.6837 12.3005 97.8677 12.0871 96.961 12.0871C96.3743 12.0871 95.9263 12.1778 95.617 12.3591C95.3183 12.5298 95.169 12.7591 95.169 13.0471C95.169 13.3671 95.329 13.5965 95.649 13.7351C95.9797 13.8631 96.4863 13.9858 97.169 14.1031C97.8517 14.2098 98.4117 14.3325 98.849 14.4711C99.2863 14.6098 99.6597 14.8445 99.969 15.1751C100.289 15.5058 100.449 15.9751 100.449 16.5831C100.449 17.3831 100.102 18.0231 99.409 18.5031C98.7157 18.9831 97.7717 19.2231 96.577 19.2231ZM105.659 15.4471L104.171 16.8551V19.1111H102.171V7.23914H104.171V14.4071L108.315 10.5671H110.715L107.147 14.1511L111.051 19.1111H108.619L105.659 15.4471Z" fill="white"/>
<defs>
<clipPath id="clip0_121_578">
<rect width="24" height="25.7778" fill="white" transform="translate(0 0.222229)"/>
</clipPath>
</defs>
</svg>
