<svg width="112" height="26" viewBox="0 0 112 26" fill="none" xmlns="http://www.w3.org/2000/svg">
<g clip-path="url(#clip0_87_708)">
<path fill-rule="evenodd" clip-rule="evenodd" d="M12.0029 1.71816H17.52C17.7851 1.71816 18.2087 1.74119 18.4675 1.68355C18.8687 1.59418 19.6143 1.37686 21 0.877814L23.3574 0.0287964C23.6702 -0.0838567 24 0.148022 24 0.480605V13.7231C24 20.3532 18.6274 25.728 12 25.728C5.37259 25.728 0 20.3532 0 13.7231C0 7.09293 5.37259 1.71816 12 1.71816C12.001 1.71816 12.0019 1.71816 12.0029 1.71816ZM18.24 13.7231C18.24 17.1707 15.4463 19.9656 12 19.9656C8.55374 19.9656 5.76 17.1707 5.76 13.7231C5.76 10.2754 8.55374 7.4805 12 7.4805C15.4463 7.4805 18.24 10.2754 18.24 13.7231Z" fill="white"/>
</g>
<path d="M35.504 7.68889H40.4C41.5947 7.68889 42.656 7.92356 43.584 8.39289C44.512 8.85156 45.232 9.50756 45.744 10.3609C46.256 11.2036 46.512 12.1796 46.512 13.2889C46.512 14.3982 46.256 15.3796 45.744 16.2329C45.232 17.0756 44.512 17.7316 43.584 18.2009C42.656 18.6596 41.5947 18.8889 40.4 18.8889H35.504V7.68889ZM40.304 17.1289C41.1253 17.1289 41.8453 16.9742 42.464 16.6649C43.0933 16.3449 43.5733 15.8969 43.904 15.3209C44.2453 14.7342 44.416 14.0569 44.416 13.2889C44.416 12.5209 44.2453 11.8489 43.904 11.2729C43.5733 10.6862 43.0933 10.2382 42.464 9.92889C41.8453 9.60889 41.1253 9.44889 40.304 9.44889H37.584V17.1289H40.304ZM51.7948 10.2489C53.0534 10.2489 54.0134 10.5529 54.6748 11.1609C55.3468 11.7582 55.6828 12.6649 55.6828 13.8809V18.8889H53.7948V17.8489C53.5494 18.2222 53.1974 18.5102 52.7388 18.7129C52.2908 18.9049 51.7468 19.0009 51.1068 19.0009C50.4668 19.0009 49.9068 18.8942 49.4268 18.6809C48.9468 18.4569 48.5734 18.1529 48.3068 17.7689C48.0508 17.3742 47.9228 16.9316 47.9228 16.4409C47.9228 15.6729 48.2054 15.0596 48.7708 14.6009C49.3468 14.1316 50.2481 13.8969 51.4748 13.8969H53.6828V13.7689C53.6828 13.1716 53.5014 12.7129 53.1388 12.3929C52.7868 12.0729 52.2588 11.9129 51.5548 11.9129C51.0748 11.9129 50.6001 11.9876 50.1308 12.1369C49.6721 12.2862 49.2828 12.4942 48.9628 12.7609L48.1788 11.3049C48.6268 10.9636 49.1654 10.7022 49.7948 10.5209C50.4241 10.3396 51.0908 10.2489 51.7948 10.2489ZM51.5228 17.5449C52.0241 17.5449 52.4668 17.4329 52.8508 17.2089C53.2454 16.9742 53.5228 16.6436 53.6828 16.2169V15.2249H51.6188C50.4668 15.2249 49.8908 15.6036 49.8908 16.3609C49.8908 16.7236 50.0348 17.0116 50.3228 17.2249C50.6108 17.4382 51.0108 17.5449 51.5228 17.5449ZM60.8895 19.0009C60.1962 19.0009 59.5188 18.9102 58.8575 18.7289C58.1962 18.5476 57.6682 18.3182 57.2735 18.0409L58.0415 16.5209C58.4255 16.7769 58.8842 16.9849 59.4175 17.1449C59.9615 17.2942 60.4948 17.3689 61.0175 17.3689C62.2122 17.3689 62.8095 17.0542 62.8095 16.4249C62.8095 16.1262 62.6548 15.9182 62.3455 15.8009C62.0468 15.6836 61.5615 15.5716 60.8895 15.4649C60.1855 15.3582 59.6095 15.2356 59.1615 15.0969C58.7242 14.9582 58.3402 14.7182 58.0095 14.3769C57.6895 14.0249 57.5295 13.5396 57.5295 12.9209C57.5295 12.1102 57.8655 11.4649 58.5375 10.9849C59.2202 10.4942 60.1375 10.2489 61.2895 10.2489C61.8762 10.2489 62.4628 10.3182 63.0495 10.4569C63.6362 10.5849 64.1162 10.7609 64.4895 10.9849L63.7215 12.5049C62.9962 12.0782 62.1802 11.8649 61.2735 11.8649C60.6868 11.8649 60.2388 11.9556 59.9295 12.1369C59.6308 12.3076 59.4815 12.5369 59.4815 12.8249C59.4815 13.1449 59.6415 13.3742 59.9615 13.5129C60.2922 13.6409 60.7988 13.7636 61.4815 13.8809C62.1642 13.9876 62.7242 14.1102 63.1615 14.2489C63.5988 14.3876 63.9722 14.6222 64.2815 14.9529C64.6015 15.2836 64.7615 15.7529 64.7615 16.3609C64.7615 17.1609 64.4148 17.8009 63.7215 18.2809C63.0282 18.7609 62.0842 19.0009 60.8895 19.0009ZM71.3319 10.2489C72.4092 10.2489 73.2732 10.5636 73.9239 11.1929C74.5745 11.8222 74.8999 12.7556 74.8999 13.9929V18.8889H72.8999V14.2489C72.8999 13.5022 72.7239 12.9422 72.3719 12.5689C72.0199 12.1849 71.5185 11.9929 70.8679 11.9929C70.1319 11.9929 69.5505 12.2169 69.1239 12.6649C68.6972 13.1022 68.4839 13.7369 68.4839 14.5689V18.8889H66.4839V7.01689H68.4839V11.3369C68.8145 10.9849 69.2199 10.7182 69.6999 10.5369C70.1905 10.3449 70.7345 10.2489 71.3319 10.2489ZM82.573 18.4249C82.3383 18.6169 82.0503 18.7609 81.709 18.8569C81.3783 18.9529 81.0263 19.0009 80.653 19.0009C79.7143 19.0009 78.989 18.7556 78.477 18.2649C77.965 17.7742 77.709 17.0596 77.709 16.1209V12.0089H76.301V10.4089H77.709V8.45689H79.709V10.4089H81.997V12.0089H79.709V16.0729C79.709 16.4889 79.8103 16.8089 80.013 17.0329C80.2157 17.2462 80.509 17.3529 80.893 17.3529C81.341 17.3529 81.7143 17.2356 82.013 17.0009L82.573 18.4249ZM87.4823 10.2489C88.7409 10.2489 89.7009 10.5529 90.3623 11.1609C91.0343 11.7582 91.3703 12.6649 91.3703 13.8809V18.8889H89.4823V17.8489C89.2369 18.2222 88.8849 18.5102 88.4263 18.7129C87.9783 18.9049 87.4343 19.0009 86.7943 19.0009C86.1543 19.0009 85.5943 18.8942 85.1143 18.6809C84.6343 18.4569 84.2609 18.1529 83.9943 17.7689C83.7383 17.3742 83.6103 16.9316 83.6103 16.4409C83.6103 15.6729 83.8929 15.0596 84.4583 14.6009C85.0343 14.1316 85.9356 13.8969 87.1623 13.8969H89.3703V13.7689C89.3703 13.1716 89.1889 12.7129 88.8263 12.3929C88.4743 12.0729 87.9463 11.9129 87.2423 11.9129C86.7623 11.9129 86.2876 11.9876 85.8183 12.1369C85.3596 12.2862 84.9703 12.4942 84.6503 12.7609L83.8663 11.3049C84.3143 10.9636 84.8529 10.7022 85.4823 10.5209C86.1116 10.3396 86.7783 10.2489 87.4823 10.2489ZM87.2103 17.5449C87.7116 17.5449 88.1543 17.4329 88.5383 17.2089C88.9329 16.9742 89.2103 16.6436 89.3703 16.2169V15.2249H87.3063C86.1543 15.2249 85.5783 15.6036 85.5783 16.3609C85.5783 16.7236 85.7223 17.0116 86.0103 17.2249C86.2983 17.4382 86.6983 17.5449 87.2103 17.5449ZM96.577 19.0009C95.8837 19.0009 95.2063 18.9102 94.545 18.7289C93.8837 18.5476 93.3557 18.3182 92.961 18.0409L93.729 16.5209C94.113 16.7769 94.5717 16.9849 95.105 17.1449C95.649 17.2942 96.1823 17.3689 96.705 17.3689C97.8997 17.3689 98.497 17.0542 98.497 16.4249C98.497 16.1262 98.3423 15.9182 98.033 15.8009C97.7343 15.6836 97.249 15.5716 96.577 15.4649C95.873 15.3582 95.297 15.2356 94.849 15.0969C94.4117 14.9582 94.0277 14.7182 93.697 14.3769C93.377 14.0249 93.217 13.5396 93.217 12.9209C93.217 12.1102 93.553 11.4649 94.225 10.9849C94.9077 10.4942 95.825 10.2489 96.977 10.2489C97.5637 10.2489 98.1503 10.3182 98.737 10.4569C99.3237 10.5849 99.8037 10.7609 100.177 10.9849L99.409 12.5049C98.6837 12.0782 97.8677 11.8649 96.961 11.8649C96.3743 11.8649 95.9263 11.9556 95.617 12.1369C95.3183 12.3076 95.169 12.5369 95.169 12.8249C95.169 13.1449 95.329 13.3742 95.649 13.5129C95.9797 13.6409 96.4863 13.7636 97.169 13.8809C97.8517 13.9876 98.4117 14.1102 98.849 14.2489C99.2863 14.3876 99.6597 14.6222 99.969 14.9529C100.289 15.2836 100.449 15.7529 100.449 16.3609C100.449 17.1609 100.102 17.8009 99.409 18.2809C98.7157 18.7609 97.7717 19.0009 96.577 19.0009ZM105.659 15.2249L104.171 16.6329V18.8889H102.171V7.01689H104.171V14.1849L108.315 10.3449H110.715L107.147 13.9289L111.051 18.8889H108.619L105.659 15.2249Z" fill="white"/>
<defs>
<clipPath id="clip0_87_708">
<rect width="24" height="25.7778" fill="white"/>
</clipPath>
</defs>
</svg>
