<svg width="48" height="48" viewBox="0 0 48 48" fill="none" xmlns="http://www.w3.org/2000/svg">
<rect width="48" height="48" rx="12" fill="url(#paint0_linear_2201_317)"/>
<rect x="32.0048" y="16.6452" width="0.650306" height="0.650306" stroke="white" stroke-width="0.650306"/>
<rect x="32.0048" y="18.7817" width="0.650306" height="0.650306" stroke="white" stroke-width="0.650306"/>
<rect x="32.0048" y="20.9184" width="0.650306" height="0.650306" stroke="white" stroke-width="0.650306"/>
<rect x="32.0048" y="23.0553" width="0.650306" height="0.650306" stroke="white" stroke-width="0.650306"/>
<rect x="34.2353" y="16.6451" width="0.650306" height="0.650306" stroke="white" stroke-width="0.650306"/>
<rect x="34.2353" y="18.7817" width="0.650306" height="0.650306" stroke="white" stroke-width="0.650306"/>
<rect x="34.2353" y="20.9184" width="0.650306" height="0.650306" stroke="white" stroke-width="0.650306"/>
<rect x="34.2353" y="23.0553" width="0.650306" height="0.650306" stroke="white" stroke-width="0.650306"/>
<rect x="36.4658" y="16.6451" width="0.650306" height="0.650306" stroke="white" stroke-width="0.650306"/>
<rect x="36.4658" y="18.7817" width="0.650306" height="0.650306" stroke="white" stroke-width="0.650306"/>
<rect x="36.4658" y="20.9184" width="0.650306" height="0.650306" stroke="white" stroke-width="0.650306"/>
<rect x="36.4658" y="23.0553" width="0.650306" height="0.650306" stroke="white" stroke-width="0.650306"/>
<path d="M28.4803 27.969C28.4803 29.0693 28.2072 30.0483 27.6609 30.9059C27.1147 31.7554 26.327 32.4188 25.2978 32.8961C24.2686 33.3654 23.0614 33.6 21.6759 33.6C20.5201 33.6 19.5503 33.5191 18.7666 33.3573C17.9828 33.1874 17.1674 32.8961 16.3203 32.4835V28.2117C17.2149 28.681 18.1451 29.0491 19.1109 29.3161C20.0768 29.575 20.9634 29.7044 21.7709 29.7044C22.4676 29.7044 22.9782 29.5831 23.3028 29.3404C23.6274 29.0896 23.7897 28.77 23.7897 28.3816C23.7897 28.1389 23.7224 27.9286 23.5878 27.7506C23.4611 27.5645 23.2514 27.3784 22.9584 27.1923C22.6734 27.0063 21.9055 26.626 20.6547 26.0516C19.5226 25.5257 18.6716 25.016 18.1016 24.5225C17.5395 24.029 17.1199 23.4626 16.8428 22.8235C16.5736 22.1843 16.4391 21.4279 16.4391 20.5541C16.4391 18.9198 17.0209 17.6456 18.1847 16.7313C19.3484 15.8171 20.9476 15.36 22.9822 15.36C24.7793 15.36 26.612 15.7848 28.4803 16.6343L27.0434 20.3356C25.4205 19.5751 24.0193 19.1949 22.8397 19.1949C22.2301 19.1949 21.7868 19.3041 21.5097 19.5226C21.2326 19.741 21.0941 20.012 21.0941 20.3356C21.0941 20.6835 21.2682 20.995 21.6166 21.2701C21.9728 21.5452 22.9307 22.0468 24.4903 22.7749C25.9866 23.4626 27.0236 24.2029 27.6016 24.9958C28.1874 25.7805 28.4803 26.7716 28.4803 27.969Z" fill="#FFFDFE"/>
<rect x="11.5195" width="2.88" height="8.64" fill="#498936"/>
<rect x="14.4004" width="2.88" height="8.64" fill="#FFBD1A"/>
<defs>
<linearGradient id="paint0_linear_2201_317" x1="51.36" y1="50.88" x2="-20.16" y2="-13.44" gradientUnits="userSpaceOnUse">
<stop stop-color="#662C62"/>
<stop offset="1" stop-color="#E82829"/>
</linearGradient>
</defs>
</svg>
